<?xml version="1.0" standalone="no"?>
<!DOCTYPE svg PUBLIC "-//W3C//DTD SVG 20010904//EN"
 "http://www.w3.org/TR/2001/REC-SVG-20010904/DTD/svg10.dtd">
<svg version="1.0" xmlns="http://www.w3.org/2000/svg"
 width="638.000000pt" height="640.000000pt" viewBox="0 0 638.000000 640.000000"
 preserveAspectRatio="xMidYMid meet">

<g transform="translate(0.000000,640.000000) scale(0.100000,-0.100000)"
fill="#000000" stroke="none">
<path d="M0 3200 l0 -3200 3190 0 3190 0 0 3200 0 3200 -3190 0 -3190 0 0
-3200z m1718 1486 c22 -69 -3 -136 -53 -136 -33 0 -55 36 -55 90 0 61 22 92
63 88 27 -3 34 -9 45 -42z m112 -46 c0 -73 -3 -90 -15 -90 -12 0 -15 13 -15
60 0 59 0 60 -25 54 -34 -8 -33 14 3 43 47 39 52 32 52 -67z m330 70 c30 -30
28 -103 -5 -135 -19 -20 -34 -25 -75 -25 l-50 0 0 90 0 90 55 0 c42 0 60 -5
75 -20z m710 -6 c0 -22 3 -25 23 -20 38 9 67 -19 67 -64 0 -51 -19 -68 -75
-68 l-45 1 0 89 c0 72 3 88 15 88 9 0 15 -10 15 -26z m519 17 c24 -16 17 -68
-13 -100 l-28 -29 28 -4 c18 -2 30 -10 32 -20 3 -16 -5 -18 -57 -18 -75 0 -78
12 -20 75 25 28 39 51 35 60 -6 17 -36 21 -36 5 0 -5 -9 -10 -20 -10 -24 0
-26 13 -4 34 17 17 61 21 83 7z m149 -35 c22 -69 -3 -136 -53 -136 -33 0 -55
36 -55 90 0 61 22 92 63 88 27 -3 34 -9 45 -42z m130 32 c21 -21 13 -61 -20
-95 l-32 -33 32 0 c25 0 32 -4 32 -20 0 -18 -7 -20 -60 -20 -33 0 -60 2 -60 5
0 15 31 62 54 84 28 27 35 61 12 61 -8 0 -18 -4 -21 -10 -9 -15 -35 -12 -35 3
0 22 22 37 55 37 17 0 36 -5 43 -12z m140 0 c21 -21 13 -61 -20 -95 l-32 -33
32 0 c25 0 32 -4 32 -20 0 -18 -7 -20 -60 -20 -33 0 -60 2 -60 5 0 15 31 62
54 84 28 27 35 61 12 61 -8 0 -18 -4 -21 -10 -9 -15 -35 -12 -35 3 0 22 22 37
55 37 17 0 36 -5 43 -12z m-1500 -51 c6 -5 12 -20 12 -33 0 -19 -6 -23 -37
-26 -21 -2 -37 -7 -35 -13 2 -5 18 -9 37 -7 41 3 46 -13 11 -29 -35 -17 -75
-3 -87 29 -26 67 42 123 99 79z m274 -10 c20 -31 9 -47 -32 -47 -30 0 -40 -4
-40 -16 0 -13 7 -15 43 -9 l42 7 -19 -21 c-39 -43 -106 -16 -106 44 0 33 16
60 40 67 19 6 62 -9 72 -25z m164 24 c14 5 29 2 43 -7 17 -12 21 -25 21 -70 0
-47 -2 -54 -20 -54 -17 0 -20 7 -20 49 0 51 -15 75 -31 50 -5 -8 -9 -33 -9
-56 0 -36 -3 -43 -20 -43 -17 0 -20 7 -20 48 0 27 -3 52 -7 55 -14 15 -33 -18
-33 -59 0 -32 -4 -44 -15 -44 -12 0 -15 14 -15 66 0 60 2 66 19 61 10 -2 25
-1 31 3 7 5 23 5 34 0 12 -4 31 -4 42 1z m342 -14 c6 -5 12 -20 12 -33 0 -19
-6 -23 -37 -26 -21 -2 -37 -7 -35 -13 2 -5 18 -9 37 -7 41 3 46 -13 11 -29
-35 -17 -75 -3 -87 29 -26 67 42 123 99 79z m122 2 c0 -5 -11 -14 -25 -19 -22
-8 -25 -16 -25 -55 0 -33 -4 -45 -15 -45 -12 0 -15 14 -15 64 0 63 1 65 28 68
32 4 52 -1 52 -13z m-760 0 c0 -6 -11 -25 -25 -43 -32 -42 -31 -46 6 -46 20 0
29 -4 27 -12 -3 -8 -27 -14 -61 -16 -67 -4 -74 10 -31 61 l27 32 -23 5 c-13 3
-25 11 -28 18 -2 8 13 12 52 12 33 0 56 -4 56 -11z m-520 -99 c0 -13 -7 -20
-20 -20 -13 0 -20 7 -20 20 0 13 7 20 20 20 13 0 20 -7 20 -20z m10 -45 c0
-13 -26 -15 -170 -15 -144 0 -170 2 -170 15 0 13 26 15 170 15 144 0 170 -2
170 -15z m1270 0 c0 -13 -73 -15 -595 -15 -522 0 -595 2 -595 15 0 13 73 15
595 15 522 0 595 -2 595 -15z m610 0 c0 -13 -37 -15 -270 -15 -233 0 -270 2
-270 15 0 13 37 15 270 15 233 0 270 -2 270 -15z m-2100 -448 c0 -84 -17 -111
-66 -105 -34 4 -65 50 -38 56 9 2 21 -4 28 -14 23 -31 36 -6 36 67 0 62 2 69
20 69 18 0 20 -7 20 -73z m223 21 c9 -5 9 -10 -1 -20 -14 -14 -16 -78 -2 -78
6 0 10 -7 10 -15 0 -22 -37 -19 -49 4 -6 10 -12 45 -13 76 -2 47 1 60 17 72
18 13 20 12 24 -9 1 -13 8 -26 14 -30z m210 0 c9 -5 9 -10 -1 -20 -14 -14 -16
-78 -2 -78 6 0 10 -7 10 -15 0 -22 -37 -19 -49 4 -6 10 -12 45 -13 76 -2 47 1
60 17 72 18 13 20 12 24 -9 1 -13 8 -26 14 -30z m137 37 c0 -8 -9 -15 -20 -15
-11 0 -20 7 -20 15 0 8 9 15 20 15 11 0 20 -7 20 -15z m223 -37 c9 -5 9 -10
-1 -20 -14 -14 -16 -78 -2 -78 6 0 10 -7 10 -15 0 -22 -37 -19 -49 4 -6 10
-12 45 -13 76 -2 47 1 60 17 72 18 13 20 12 24 -9 1 -13 8 -26 14 -30z m227
-36 l0 -89 -50 -1 c-40 -1 -52 3 -65 21 -34 49 -10 111 44 109 26 -1 31 3 31
24 0 17 5 24 20 24 18 0 20 -7 20 -88z m60 73 c0 -8 -7 -15 -15 -15 -8 0 -15
7 -15 15 0 8 7 15 15 15 8 0 15 -7 15 -15z m350 -58 c0 -84 -17 -111 -66 -105
-34 4 -65 50 -38 56 9 2 21 -4 28 -14 23 -31 36 -6 36 67 0 62 2 69 20 69 18
0 20 -7 20 -73z m210 49 c0 -21 5 -25 29 -24 44 1 51 -8 51 -73 0 -46 -3 -59
-15 -59 -11 0 -15 12 -15 44 0 44 -19 74 -40 61 -5 -3 -10 -28 -10 -56 0 -42
-3 -49 -20 -49 -19 0 -20 7 -20 90 0 83 1 90 20 90 15 0 20 -7 20 -24z m790 9
c0 -8 -7 -15 -15 -15 -8 0 -15 7 -15 15 0 8 7 15 15 15 8 0 15 -7 15 -15z m88
-33 c16 -12 16 -14 0 -23 -22 -12 -24 -67 -3 -75 27 -11 17 -36 -12 -32 -25 3
-28 7 -31 48 -2 24 -9 51 -15 59 -9 11 -9 15 1 18 6 3 12 10 12 17 0 7 6 18
13 25 10 10 13 9 15 -6 2 -10 11 -24 20 -31z m-2390 -15 c6 -5 12 -20 12 -33
0 -19 -6 -23 -37 -26 -21 -2 -37 -7 -35 -13 2 -5 18 -9 37 -7 41 3 46 -13 11
-29 -35 -17 -75 -3 -87 29 -26 67 42 123 99 79z m563 3 l24 -21 -42 6 c-54 8
-56 -8 -3 -24 31 -9 40 -17 40 -34 0 -13 -5 -28 -12 -35 -18 -18 -74 -15 -94
5 -15 16 -15 17 2 24 11 3 21 2 22 -2 5 -12 42 -12 42 0 0 4 -15 12 -32 17
-26 8 -34 16 -36 37 -3 21 2 29 20 36 34 14 43 13 69 -9z m531 -13 c20 -31 9
-47 -32 -47 -30 0 -40 -4 -40 -16 0 -13 7 -15 43 -9 l42 7 -19 -21 c-39 -43
-106 -16 -106 44 0 33 16 60 40 67 19 6 62 -9 72 -25z m322 23 c24 -9 26 -14
26 -68 l0 -59 -50 -1 c-39 -1 -52 3 -60 18 -14 27 -2 49 33 58 17 4 32 13 35
20 5 15 -20 16 -35 1 -12 -12 -33 -4 -33 12 0 5 10 14 23 19 29 12 31 12 61 0z
m296 -11 c0 -5 -11 -14 -25 -19 -22 -8 -25 -16 -25 -55 0 -33 -4 -45 -15 -45
-12 0 -15 14 -15 64 0 63 1 65 28 68 32 4 52 -1 52 -13z m108 -2 c6 -5 12 -20
12 -33 0 -19 -6 -23 -37 -26 -21 -2 -37 -7 -35 -13 2 -5 18 -9 37 -7 41 3 46
-13 11 -29 -35 -17 -75 -3 -87 29 -26 67 42 123 99 79z m133 3 l24 -21 -42 6
c-54 8 -56 -8 -3 -24 31 -9 40 -17 40 -34 0 -13 -5 -28 -12 -35 -18 -18 -74
-15 -94 5 -15 16 -15 17 2 24 11 3 21 2 22 -2 5 -12 42 -12 42 0 0 4 -15 12
-32 17 -26 8 -34 16 -36 37 -3 21 2 29 20 36 34 14 43 13 69 -9z m281 -13 c20
-31 9 -47 -32 -47 -30 0 -40 -4 -40 -16 0 -13 7 -15 43 -9 l42 7 -19 -21 c-39
-43 -106 -16 -106 44 0 33 16 60 40 67 19 6 62 -9 72 -25z m-2002 10 c0 -7
-13 -26 -30 -42 -16 -16 -30 -32 -30 -37 0 -4 14 -8 30 -8 20 0 30 -5 30 -15
0 -12 -13 -15 -60 -15 -71 0 -76 11 -29 65 l31 35 -26 0 c-16 0 -26 6 -26 15
0 12 13 15 55 15 39 0 55 -4 55 -13z m210 -52 c0 -58 -2 -65 -20 -65 -18 0
-20 7 -20 65 0 58 2 65 20 65 18 0 20 -7 20 -65z m510 0 c0 -51 -3 -65 -15
-65 -12 0 -15 14 -15 65 0 51 3 65 15 65 12 0 15 -14 15 -65z m1150 54 c0 -6
-11 -25 -25 -43 -32 -42 -31 -46 6 -46 20 0 29 -4 27 -12 -3 -8 -27 -14 -61
-16 -67 -4 -74 10 -31 61 l27 32 -23 5 c-13 3 -25 11 -28 18 -2 8 13 12 52 12
33 0 56 -4 56 -11z m200 -54 c0 -51 -3 -65 -15 -65 -12 0 -15 14 -15 65 0 51
3 65 15 65 12 0 15 -14 15 -65z m-2210 -217 c0 -39 1 -40 18 -25 10 10 29 17
42 17 l23 0 -21 -23 -21 -22 25 -43 c24 -40 24 -42 6 -42 -11 0 -27 11 -36 25
-9 14 -21 25 -26 25 -6 0 -10 -11 -10 -25 0 -16 -6 -25 -15 -25 -12 0 -15 17
-15 90 0 73 3 90 15 90 11 0 15 -11 15 -42z m1780 27 c0 -8 -9 -15 -20 -15
-11 0 -20 7 -20 15 0 8 9 15 20 15 11 0 20 -7 20 -15z m-1980 -104 c0 -79 -17
-111 -60 -111 -39 0 -60 9 -60 27 0 10 10 13 36 11 23 -2 39 2 41 10 4 9 -2
11 -20 7 -50 -13 -89 64 -54 107 16 21 30 24 78 20 l39 -4 0 -67z m132 46 c20
-31 9 -47 -32 -47 -30 0 -40 -4 -40 -16 0 -13 7 -15 43 -9 l42 7 -19 -21 c-39
-43 -106 -16 -106 44 0 33 16 60 40 67 19 6 62 -9 72 -25z m286 5 c17 -22 15
-72 -5 -94 -21 -24 -68 -23 -93 2 -48 48 -2 128 65 112 11 -2 26 -12 33 -20z
m168 19 c14 5 29 2 43 -7 17 -12 21 -25 21 -70 0 -47 -2 -54 -20 -54 -17 0
-20 7 -20 49 0 51 -15 75 -31 50 -5 -8 -9 -33 -9 -56 0 -36 -3 -43 -20 -43
-17 0 -20 7 -20 48 0 27 -3 52 -7 55 -14 15 -33 -18 -33 -59 0 -32 -4 -44 -15
-44 -12 0 -15 14 -15 66 0 60 2 66 19 61 10 -2 25 -1 31 3 7 5 23 5 34 0 12
-4 31 -4 42 1z m222 -3 c9 6 27 6 40 1 19 -7 22 -15 22 -69 0 -47 -3 -60 -15
-60 -11 0 -15 12 -15 44 0 52 -22 79 -39 47 -6 -11 -11 -36 -11 -55 0 -25 -5
-36 -14 -36 -11 0 -16 15 -18 53 -2 38 -7 52 -18 52 -10 0 -18 -17 -24 -52
-14 -78 -36 -71 -36 11 l0 65 38 3 c20 2 45 0 55 -5 9 -4 25 -4 35 1z m190
-11 c6 -5 12 -20 12 -33 0 -19 -6 -23 -37 -26 -21 -2 -37 -7 -35 -13 2 -5 18
-9 37 -7 41 3 46 -13 11 -29 -35 -17 -75 -3 -87 29 -26 67 42 123 99 79z m160
-56 c2 -50 0 -61 -13 -61 -11 0 -15 11 -15 43 0 46 -14 69 -36 60 -9 -3 -14
-22 -14 -54 0 -42 -3 -49 -20 -49 -18 0 -20 7 -20 66 0 65 1 66 24 62 14 -3
30 -2 37 3 7 4 22 4 33 -1 18 -6 21 -17 24 -69z m480 51 c17 -22 15 -72 -5
-94 -21 -24 -68 -23 -93 2 -48 48 -2 128 65 112 11 -2 26 -12 33 -20z m456 3
c-3 -7 -14 -15 -25 -18 -15 -4 -19 -14 -19 -51 0 -39 -3 -46 -20 -46 -18 0
-20 7 -20 64 l0 65 33 3 c42 4 57 -1 51 -17z m-736 -10 c7 -36 22 -40 28 -7 9
43 42 45 51 2 3 -16 9 -30 13 -30 5 0 11 14 15 30 4 20 13 30 25 30 11 0 18
-6 15 -12 -34 -110 -38 -118 -55 -118 -13 0 -20 11 -25 38 l-8 37 -15 -38 c-9
-24 -21 -37 -30 -35 -14 3 -49 83 -51 116 -1 21 33 9 37 -13z m420 0 c7 -36
22 -40 28 -7 9 43 42 45 51 2 3 -16 9 -30 13 -30 5 0 11 14 15 30 4 20 13 30
25 30 11 0 18 -6 15 -12 -34 -110 -38 -118 -55 -118 -13 0 -20 11 -25 38 l-8
37 -15 -38 c-9 -24 -21 -37 -30 -35 -14 3 -49 83 -51 116 -1 21 33 9 37 -13z
m202 -40 c0 -58 -2 -65 -20 -65 -18 0 -20 7 -20 65 0 58 2 65 20 65 18 0 20
-7 20 -65z m-750 -49 c0 -14 -7 -32 -16 -41 -20 -20 -32 -11 -14 10 8 10 9 15
1 15 -6 0 -11 9 -11 20 0 13 7 20 20 20 15 0 20 -7 20 -24z m-1280 -127 c0 -5
-7 -9 -15 -9 -18 0 -20 -26 -2 -34 10 -5 10 -7 0 -12 -8 -3 -13 -26 -13 -60 0
-47 -2 -54 -20 -54 -17 0 -20 7 -20 48 0 26 -6 54 -12 61 -10 11 -10 14 0 18
6 3 12 13 12 24 0 11 10 23 23 28 24 9 47 4 47 -10z m290 -15 c0 -23 3 -26 26
-21 41 7 64 -23 64 -83 0 -43 -3 -50 -20 -50 -17 0 -20 7 -20 49 0 28 -5 53
-10 56 -21 13 -40 -17 -40 -61 0 -32 -4 -44 -15 -44 -12 0 -15 17 -15 90 0 73
3 90 15 90 10 0 15 -10 15 -26z m160 -64 c0 -83 -1 -90 -20 -90 -19 0 -20 7
-20 90 0 83 1 90 20 90 19 0 20 -7 20 -90z m360 48 c0 -39 1 -40 18 -25 10 10
27 17 36 17 17 0 17 -1 2 -25 -16 -25 -16 -28 3 -59 26 -41 26 -46 3 -46 -10
0 -25 11 -32 25 -7 14 -17 25 -22 25 -4 0 -8 -11 -8 -25 0 -18 -5 -25 -20 -25
-19 0 -20 7 -20 90 0 83 1 90 20 90 17 0 20 -7 20 -42z m-720 -19 c0 -5 -11
-14 -25 -19 -22 -8 -25 -16 -25 -55 0 -33 -4 -45 -15 -45 -12 0 -15 14 -15 64
0 63 1 65 28 68 32 4 52 -1 52 -13z m128 -7 c17 -22 15 -72 -5 -94 -21 -24
-68 -23 -93 2 -48 48 -2 128 65 112 11 -2 26 -12 33 -20z m375 -4 c37 -43 6
-108 -51 -108 -41 0 -64 30 -60 76 5 63 68 81 111 32z m121 22 c14 -5 26 -16
26 -25 0 -18 -21 -20 -38 -3 -8 8 -15 8 -27 -2 -17 -14 -19 -38 -5 -60 7 -12
13 -12 33 -1 36 19 51 11 32 -17 -19 -26 -66 -30 -90 -6 -26 26 -16 95 15 111
30 15 24 15 54 3z m294 -13 c6 -5 12 -20 12 -33 0 -19 -6 -23 -37 -26 -21 -2
-37 -7 -35 -13 2 -5 18 -9 37 -7 41 3 46 -13 11 -29 -35 -17 -75 -3 -87 29
-26 67 42 123 99 79z m160 -56 c2 -50 0 -61 -13 -61 -11 0 -15 11 -15 43 0 46
-14 69 -36 60 -9 -3 -14 -22 -14 -54 0 -42 -3 -49 -20 -49 -18 0 -20 7 -20 66
0 65 1 66 24 62 14 -3 30 -2 37 3 7 4 22 4 33 -1 18 -6 21 -17 24 -69z m82
-213 c0 -39 1 -40 18 -25 10 10 29 17 42 17 l23 0 -21 -23 -21 -22 25 -43 c24
-40 24 -42 6 -42 -11 0 -27 11 -36 25 -9 14 -21 25 -26 25 -6 0 -10 -11 -10
-25 0 -16 -6 -25 -15 -25 -12 0 -15 17 -15 90 0 73 3 90 15 90 11 0 15 -11 15
-42z m-959 -18 l24 -21 -42 6 c-54 8 -56 -8 -3 -24 31 -9 40 -17 40 -34 0 -13
-5 -28 -12 -35 -18 -18 -74 -15 -94 5 -15 16 -15 17 2 24 11 3 21 2 22 -2 5
-12 42 -12 42 0 0 4 -15 12 -32 17 -26 8 -34 16 -36 37 -3 21 2 29 20 36 34
14 43 13 69 -9z m133 10 c24 -9 26 -14 26 -68 l0 -59 -50 -1 c-39 -1 -52 3
-60 18 -14 27 -2 49 33 58 17 4 32 13 35 20 5 15 -20 16 -35 1 -12 -12 -33 -4
-33 12 0 5 10 14 23 19 29 12 31 12 61 0z m184 -2 c9 6 27 6 40 1 19 -7 22
-15 22 -69 0 -47 -3 -60 -15 -60 -11 0 -15 12 -15 44 0 52 -22 79 -39 47 -6
-11 -11 -36 -11 -55 0 -25 -5 -36 -14 -36 -11 0 -16 15 -18 53 -2 38 -7 52
-18 52 -10 0 -18 -17 -24 -52 -14 -78 -36 -71 -36 11 l0 65 38 3 c20 2 45 0
55 -5 9 -4 25 -4 35 1z m220 0 c9 6 27 6 40 1 19 -7 22 -15 22 -69 0 -47 -3
-60 -15 -60 -11 0 -15 12 -15 44 0 52 -22 79 -39 47 -6 -11 -11 -36 -11 -55 0
-25 -5 -36 -14 -36 -11 0 -16 15 -18 53 -2 38 -7 52 -18 52 -10 0 -18 -17 -24
-52 -14 -78 -36 -71 -36 11 l0 65 38 3 c20 2 45 0 55 -5 9 -4 25 -4 35 1z
m204 -21 c20 -31 9 -47 -32 -47 -30 0 -40 -4 -40 -16 0 -13 7 -15 43 -9 l42 7
-19 -21 c-39 -43 -106 -16 -106 44 0 33 16 60 40 67 19 6 62 -9 72 -25z m146
-46 c2 -50 0 -61 -13 -61 -11 0 -15 11 -15 43 0 46 -14 69 -36 60 -9 -3 -14
-22 -14 -54 0 -42 -3 -49 -20 -49 -18 0 -20 7 -20 64 l0 65 38 3 c68 6 77 -2
80 -71z m290 51 c17 -22 15 -72 -5 -94 -21 -24 -68 -23 -93 2 -48 48 -2 128
65 112 11 -2 26 -12 33 -20z m168 19 c14 5 29 2 43 -7 17 -12 21 -25 21 -70 0
-47 -2 -54 -20 -54 -17 0 -20 7 -20 49 0 51 -15 75 -31 50 -5 -8 -9 -33 -9
-56 0 -36 -3 -43 -20 -43 -17 0 -20 7 -20 48 0 27 -3 52 -7 55 -14 15 -33 -18
-33 -59 0 -32 -4 -44 -15 -44 -12 0 -15 14 -15 66 0 60 2 66 19 61 10 -2 25
-1 31 3 7 5 23 5 34 0 12 -4 31 -4 42 1z m222 -3 c9 6 27 6 40 1 19 -7 22 -15
22 -69 0 -47 -3 -60 -15 -60 -11 0 -15 12 -15 44 0 52 -22 79 -39 47 -6 -11
-11 -36 -11 -55 0 -25 -5 -36 -14 -36 -11 0 -16 15 -18 53 -2 38 -7 52 -18 52
-10 0 -18 -17 -24 -52 -14 -78 -36 -71 -36 11 l0 65 38 3 c20 2 45 0 55 -5 9
-4 25 -4 35 1z m190 -11 c6 -5 12 -20 12 -33 0 -19 -6 -23 -37 -26 -21 -2 -37
-7 -35 -13 2 -5 18 -9 37 -7 41 3 46 -13 11 -29 -35 -17 -75 -3 -87 29 -26 67
42 123 99 79z m160 -56 c2 -50 0 -61 -13 -61 -11 0 -15 11 -15 43 0 46 -14 69
-36 60 -9 -3 -14 -22 -14 -54 0 -42 -3 -49 -20 -49 -18 0 -20 7 -20 64 l0 65
38 3 c68 6 77 -2 80 -71z m-2178 56 c0 -7 -13 -26 -30 -42 -16 -16 -30 -32
-30 -37 0 -4 14 -8 30 -8 20 0 30 -5 30 -15 0 -12 -13 -15 -60 -15 -71 0 -76
11 -29 65 l31 35 -26 0 c-16 0 -26 6 -26 15 0 12 13 15 55 15 39 0 55 -4 55
-13z m60 -37 c0 -37 4 -50 15 -50 19 0 35 31 35 69 0 21 5 31 15 31 12 0 15
-14 15 -63 l0 -64 -50 -1 c-59 -1 -70 12 -70 82 0 39 3 46 20 46 17 0 20 -7
20 -50z m2190 -60 c0 -11 -7 -20 -15 -20 -8 0 -15 9 -15 20 0 11 7 20 15 20 8
0 15 -9 15 -20z m-2310 -205 l0 -75 46 0 c72 0 51 -24 -24 -28 l-62 -3 0 91
c0 83 1 90 20 90 18 0 20 -7 20 -75z m140 60 c0 -8 -7 -15 -15 -15 -8 0 -15 7
-15 15 0 8 7 15 15 15 8 0 15 -7 15 -15z m210 -11 c0 -22 3 -25 23 -20 38 9
67 -19 67 -64 0 -51 -19 -68 -75 -68 l-45 1 0 89 c0 72 3 88 15 88 9 0 15 -10
15 -26z m580 -64 c0 -73 -3 -90 -15 -90 -12 0 -15 17 -15 90 0 73 3 90 15 90
12 0 15 -17 15 -90z m70 0 c0 -73 -3 -90 -15 -90 -12 0 -15 17 -15 90 0 73 3
90 15 90 12 0 15 -17 15 -90z m660 2 l0 -89 -50 -1 c-40 -1 -52 3 -65 21 -34
49 -10 111 44 109 26 -1 31 3 31 24 0 17 5 24 20 24 18 0 20 -7 20 -88z m510
0 l0 -89 -45 -1 c-56 0 -75 17 -75 68 0 45 29 73 67 64 20 -5 23 -2 23 20 0
16 6 26 15 26 12 0 15 -16 15 -88z m70 73 c0 -8 -7 -15 -15 -15 -8 0 -15 7
-15 15 0 8 7 15 15 15 8 0 15 -7 15 -15z m-1958 -58 c20 -31 9 -47 -32 -47
-30 0 -40 -4 -40 -16 0 -13 7 -15 43 -9 l42 7 -19 -21 c-39 -43 -106 -16 -106
44 0 33 16 60 40 67 19 6 62 -9 72 -25z m290 0 c20 -31 9 -47 -32 -47 -30 0
-40 -4 -40 -16 0 -13 7 -15 43 -9 l42 7 -19 -21 c-39 -43 -106 -16 -106 44 0
33 16 60 40 67 19 6 62 -9 72 -25z m286 5 c17 -22 15 -72 -5 -94 -21 -24 -68
-23 -93 2 -48 48 -2 128 65 112 11 -2 26 -12 33 -20z m540 5 c6 -5 12 -20 12
-33 0 -19 -6 -23 -37 -26 -21 -2 -37 -7 -35 -13 2 -5 18 -9 37 -7 41 3 46 -13
11 -29 -35 -17 -75 -3 -87 29 -26 67 42 123 99 79z m126 -2 c-3 -7 -14 -15
-25 -18 -15 -4 -19 -14 -19 -51 0 -39 -3 -46 -20 -46 -18 0 -20 7 -20 64 l0
65 33 3 c42 4 57 -1 51 -17z m264 2 c6 -5 12 -20 12 -33 0 -19 -6 -23 -37 -26
-21 -2 -37 -7 -35 -13 2 -5 18 -9 37 -7 41 3 46 -13 11 -29 -35 -17 -75 -3
-87 29 -26 67 42 123 99 79z m160 -56 c2 -50 0 -61 -13 -61 -11 0 -15 11 -15
43 0 46 -14 69 -36 60 -9 -3 -14 -22 -14 -54 0 -42 -3 -49 -20 -49 -18 0 -20
7 -20 64 l0 65 38 3 c68 6 77 -2 80 -71z m420 56 c6 -5 12 -20 12 -33 0 -19
-6 -23 -37 -26 -21 -2 -37 -7 -35 -13 2 -5 18 -9 37 -7 41 3 46 -13 11 -29
-35 -17 -75 -3 -87 29 -26 67 42 123 99 79z m-2228 -52 c0 -51 -3 -65 -15 -65
-12 0 -15 14 -15 65 0 51 3 65 15 65 12 0 15 -14 15 -65z m506 25 l12 -35 16
38 c9 20 23 37 31 37 19 0 19 -4 -7 -72 -30 -77 -48 -76 -81 8 -25 64 -25 65
-5 62 14 -2 26 -15 34 -38z m491 8 l10 -33 13 33 c16 42 45 43 54 1 6 -32 26
-31 26 2 0 19 25 37 36 26 11 -10 -32 -122 -48 -125 -9 -2 -21 11 -30 35 l-15
38 -8 -37 c-5 -27 -12 -38 -25 -38 -17 0 -21 8 -55 118 -3 6 4 12 14 12 12 0
22 -11 28 -32z m1103 -33 c0 -51 -3 -65 -15 -65 -12 0 -15 14 -15 65 0 51 3
65 15 65 12 0 15 -14 15 -65z m-1272 -203 c14 -21 13 -22 -11 -22 -14 0 -29 5
-32 10 -11 17 -54 11 -65 -9 -15 -29 -12 -56 8 -81 14 -18 25 -22 45 -16 31 7
37 36 7 36 -11 0 -20 7 -20 15 0 11 11 15 40 15 40 0 40 0 40 -38 0 -32 -5
-41 -25 -50 -55 -25 -116 -7 -135 39 -15 35 -6 91 18 112 35 32 105 26 130
-11z m-978 -62 c0 -73 -3 -90 -15 -90 -12 0 -15 17 -15 90 0 73 3 90 15 90 12
0 15 -17 15 -90z m223 38 c9 -5 9 -10 -1 -20 -14 -14 -16 -78 -2 -78 6 0 10
-7 10 -15 0 -22 -37 -19 -49 4 -6 10 -12 45 -13 76 -2 47 1 60 17 72 18 13 20
12 24 -9 1 -13 8 -26 14 -30z m210 0 c9 -5 9 -10 -1 -20 -14 -14 -16 -78 -2
-78 6 0 10 -7 10 -15 0 -22 -37 -19 -49 4 -6 10 -12 45 -13 76 -2 47 1 60 17
72 18 13 20 12 24 -9 1 -13 8 -26 14 -30z m1037 26 c0 -23 3 -26 26 -21 41 7
64 -23 64 -83 0 -43 -3 -50 -20 -50 -17 0 -20 7 -20 49 0 28 -5 53 -10 56 -21
13 -40 -17 -40 -61 0 -32 -4 -44 -15 -44 -12 0 -15 17 -15 90 0 73 3 90 15 90
10 0 15 -10 15 -26z m450 -16 c0 -39 1 -40 18 -25 10 10 27 17 36 17 17 0 17
-1 2 -25 -16 -25 -16 -28 3 -59 26 -41 26 -46 3 -46 -10 0 -25 11 -32 25 -7
14 -17 25 -22 25 -4 0 -8 -11 -8 -25 0 -18 -5 -25 -20 -25 -19 0 -20 7 -20 90
0 83 1 90 20 90 17 0 20 -7 20 -42z m-1792 -21 c6 -5 12 -20 12 -33 0 -19 -6
-23 -37 -26 -21 -2 -37 -7 -35 -13 2 -5 18 -9 37 -7 41 3 46 -13 11 -29 -35
-17 -75 -3 -87 29 -26 67 42 123 99 79z m444 -10 c20 -31 9 -47 -32 -47 -30 0
-40 -4 -40 -16 0 -13 7 -15 43 -9 l42 7 -19 -21 c-39 -43 -106 -16 -106 44 0
33 16 60 40 67 19 6 62 -9 72 -25z m146 -46 c2 -50 0 -61 -13 -61 -11 0 -15
11 -15 43 0 46 -14 69 -36 60 -9 -3 -14 -22 -14 -54 0 -42 -3 -49 -20 -49 -18
0 -20 7 -20 64 l0 65 38 3 c68 6 77 -2 80 -71z m400 56 c6 -5 12 -20 12 -33 0
-19 -6 -23 -37 -26 -21 -2 -37 -7 -35 -13 2 -5 18 -9 37 -7 41 3 46 -13 11
-29 -35 -17 -75 -3 -87 29 -26 67 42 123 99 79z m116 13 c40 -15 33 -34 -9
-26 -41 8 -48 -9 -8 -19 53 -13 67 -40 37 -69 -20 -20 -64 -21 -90 -1 -16 13
-17 16 -4 24 9 7 18 7 24 1 13 -13 46 -13 46 0 0 6 -8 10 -18 10 -55 0 -82 67
-32 81 14 4 26 7 27 8 1 1 13 -3 27 -9z m164 -13 c6 -5 12 -13 12 -18 0 -13
-34 -11 -47 2 -17 17 -33 1 -33 -32 0 -30 30 -54 38 -31 5 17 42 15 42 -3 0
-18 -31 -35 -64 -35 -42 0 -73 69 -48 107 18 29 69 34 100 10z m290 0 c6 -5
12 -20 12 -33 0 -19 -6 -23 -37 -26 -21 -2 -37 -7 -35 -13 2 -5 18 -9 37 -7
41 3 46 -13 11 -29 -35 -17 -75 -3 -87 29 -26 67 42 123 99 79z m152 -8 c6
-10 10 -38 10 -63 0 -39 -3 -46 -20 -46 -17 0 -20 7 -20 49 0 28 -5 53 -10 56
-21 13 -40 -17 -40 -61 0 -32 -4 -44 -15 -44 -12 0 -15 14 -15 64 l0 65 30 -1
c17 -1 33 2 36 5 9 9 34 -4 44 -24z m278 8 c6 -5 12 -20 12 -33 0 -19 -6 -23
-37 -26 -21 -2 -37 -7 -35 -13 2 -5 18 -9 37 -7 41 3 46 -13 11 -29 -35 -17
-75 -3 -87 29 -26 67 42 123 99 79z m-1758 0 c0 -7 -13 -26 -30 -42 -16 -16
-30 -32 -30 -37 0 -4 14 -8 30 -8 20 0 30 -5 30 -15 0 -12 -13 -15 -60 -15
-70 0 -74 8 -29 63 l30 37 -25 0 c-16 0 -26 6 -26 15 0 12 13 15 55 15 39 0
55 -4 55 -13z m450 -269 c0 -39 1 -40 18 -25 10 10 27 17 36 17 17 0 17 -1 2
-25 -16 -25 -16 -28 3 -59 26 -41 26 -46 3 -46 -10 0 -25 11 -32 25 -7 14 -17
25 -22 25 -4 0 -8 -11 -8 -25 0 -18 -5 -25 -20 -25 -19 0 -20 7 -20 90 0 83 1
90 20 90 17 0 20 -7 20 -42z m153 -10 c9 -5 9 -10 -1 -20 -14 -14 -16 -78 -2
-78 6 0 10 -7 10 -15 0 -22 -37 -19 -49 4 -6 10 -12 45 -13 76 -2 47 1 60 17
72 18 13 20 12 24 -9 1 -13 8 -26 14 -30z m537 -38 c0 -73 -3 -90 -15 -90 -12
0 -15 17 -15 90 0 73 3 90 15 90 12 0 15 -17 15 -90z m210 60 c0 -26 3 -29 18
-22 9 6 27 6 40 1 19 -7 22 -15 22 -69 0 -47 -3 -60 -15 -60 -11 0 -15 12 -15
44 0 44 -19 74 -40 61 -5 -3 -10 -28 -10 -56 0 -42 -3 -49 -20 -49 -19 0 -20
7 -20 90 0 83 1 90 20 90 16 0 20 -7 20 -30z m360 15 c0 -8 -7 -15 -15 -15 -8
0 -15 7 -15 15 0 8 7 15 15 15 8 0 15 -7 15 -15z m-1872 -48 c6 -5 12 -20 12
-33 0 -19 -6 -23 -37 -26 -21 -2 -37 -7 -35 -13 2 -5 18 -9 37 -7 41 3 46 -13
11 -29 -35 -17 -75 -3 -87 29 -26 67 42 123 99 79z m122 -1 c0 -8 -9 -16 -20
-19 -16 -4 -20 -14 -20 -51 0 -39 -3 -46 -20 -46 -18 0 -20 7 -20 64 l0 65 33
3 c38 4 47 1 47 -16z m138 -4 c17 -22 15 -63 -4 -91 -12 -17 -24 -22 -45 -19
-26 4 -29 2 -29 -24 0 -21 -5 -28 -20 -28 -19 0 -20 7 -20 89 l0 90 38 3 c46
4 64 0 80 -20z m116 18 c24 -9 26 -14 26 -68 l0 -59 -50 -1 c-39 -1 -52 3 -60
18 -14 27 -2 49 33 58 17 4 32 13 35 20 5 15 -20 16 -35 1 -12 -12 -33 -4 -33
12 0 5 10 14 23 19 29 12 31 12 61 0z m140 0 c14 -5 26 -16 26 -25 0 -18 -21
-20 -38 -3 -8 8 -15 8 -27 -2 -17 -14 -19 -38 -5 -60 7 -12 13 -12 33 -1 36
19 51 11 32 -17 -19 -26 -66 -30 -90 -6 -26 26 -16 95 15 111 30 15 24 15 54
3z m718 -23 c20 -31 9 -47 -32 -47 -30 0 -40 -4 -40 -16 0 -13 7 -15 43 -9
l42 7 -19 -21 c-39 -43 -106 -16 -106 44 0 33 16 60 40 67 19 6 62 -9 72 -25z
m206 10 c6 -5 12 -13 12 -18 0 -13 -34 -11 -47 2 -17 17 -33 1 -33 -32 0 -30
30 -54 38 -31 5 17 42 15 42 -3 0 -18 -31 -35 -64 -35 -42 0 -73 69 -48 107
18 29 69 34 100 10z m294 -10 c20 -31 9 -47 -32 -47 -30 0 -40 -4 -40 -16 0
-13 7 -15 43 -9 l42 7 -19 -21 c-39 -43 -106 -16 -106 44 0 33 16 60 40 67 19
6 62 -9 72 -25z m288 2 c6 -10 10 -38 10 -63 0 -39 -3 -46 -20 -46 -17 0 -20
7 -20 49 0 28 -5 53 -10 56 -21 13 -40 -17 -40 -61 0 -32 -4 -44 -15 -44 -12
0 -15 14 -15 64 l0 65 30 -1 c17 -1 33 2 36 5 9 9 34 -4 44 -24z m-2214 -19
l12 -35 16 38 c9 20 23 37 31 37 19 0 19 -4 -7 -72 -30 -77 -48 -76 -81 8 -25
64 -25 65 -5 62 14 -2 26 -15 34 -38z m1152 15 c7 -36 22 -40 28 -7 9 43 42
45 51 2 3 -16 9 -30 13 -30 5 0 11 14 15 30 4 20 13 30 25 30 11 0 18 -6 15
-12 -34 -110 -38 -118 -55 -118 -13 0 -20 11 -25 38 l-8 37 -15 -38 c-9 -24
-21 -37 -30 -35 -14 3 -49 83 -51 116 -1 21 33 9 37 -13z m912 -40 c0 -51 -3
-65 -15 -65 -12 0 -15 14 -15 65 0 51 3 65 15 65 12 0 15 -14 15 -65z m-1040
-49 c0 -14 -7 -32 -16 -41 -20 -20 -32 -11 -14 10 8 10 9 15 1 15 -6 0 -11 9
-11 20 0 13 7 20 20 20 15 0 20 -7 20 -24z m20 -201 l0 -75 46 0 c72 0 51 -24
-24 -28 l-62 -3 0 91 c0 83 1 90 20 90 18 0 20 -7 20 -75z m140 60 c0 -8 -7
-15 -15 -15 -8 0 -15 7 -15 15 0 8 7 15 15 15 8 0 15 -7 15 -15z m210 -11 c0
-22 3 -25 23 -20 38 9 67 -19 67 -64 0 -51 -19 -68 -75 -68 l-45 1 0 89 c0 72
3 88 15 88 9 0 15 -10 15 -26z m308 -22 c16 -12 16 -14 0 -23 -22 -12 -24 -67
-3 -75 27 -11 17 -36 -12 -32 -25 3 -28 7 -31 48 -2 24 -9 51 -15 59 -9 11 -9
15 1 18 6 3 12 10 12 17 0 7 6 18 13 25 10 10 13 9 15 -6 2 -10 11 -24 20 -31z
m572 33 c0 -8 -9 -15 -20 -15 -11 0 -20 7 -20 15 0 8 9 15 20 15 11 0 20 -7
20 -15z m-2050 -56 c6 -10 10 -38 10 -63 0 -39 -3 -46 -20 -46 -17 0 -20 7
-20 49 0 28 -5 53 -10 56 -21 13 -40 -17 -40 -61 0 -32 -4 -44 -15 -44 -12 0
-15 14 -15 64 l0 65 30 -1 c17 -1 33 2 36 5 9 9 34 -4 44 -24z m131 11 l24
-21 -42 6 c-54 8 -56 -8 -3 -24 31 -9 40 -17 40 -34 0 -13 -5 -28 -12 -35 -18
-18 -74 -15 -94 5 -15 16 -15 17 2 24 11 3 21 2 22 -2 5 -12 42 -12 42 0 0 4
-15 12 -32 17 -26 8 -34 16 -36 37 -3 21 2 29 20 36 34 14 43 13 69 -9z m151
-13 c20 -31 9 -47 -32 -47 -30 0 -40 -4 -40 -16 0 -13 7 -15 43 -9 l42 7 -19
-21 c-39 -43 -106 -16 -106 44 0 33 16 60 40 67 19 6 62 -9 72 -25z m118 12
c0 -5 -11 -14 -25 -19 -22 -8 -25 -16 -25 -55 0 -33 -4 -45 -15 -45 -12 0 -15
14 -15 64 0 63 1 65 28 68 32 4 52 -1 52 -13z m122 -12 c20 -31 9 -47 -32 -47
-30 0 -40 -4 -40 -16 0 -13 7 -15 43 -9 l42 7 -19 -21 c-39 -43 -106 -16 -106
44 0 33 16 60 40 67 19 6 62 -9 72 -25z m146 -46 c2 -50 0 -61 -13 -61 -11 0
-15 11 -15 43 0 46 -14 69 -36 60 -9 -3 -14 -22 -14 -54 0 -42 -3 -49 -20 -49
-18 0 -20 7 -20 64 l0 65 38 3 c68 6 77 -2 80 -71z m434 46 c20 -31 9 -47 -32
-47 -30 0 -40 -4 -40 -16 0 -13 7 -15 43 -9 l42 7 -19 -21 c-39 -43 -106 -16
-106 44 0 33 16 60 40 67 19 6 62 -9 72 -25z m279 13 l24 -21 -42 6 c-54 8
-56 -8 -3 -24 31 -9 40 -17 40 -34 0 -13 -5 -28 -12 -35 -18 -18 -74 -15 -94
5 -15 16 -15 17 2 24 11 3 21 2 22 -2 5 -12 42 -12 42 0 0 4 -15 12 -32 17
-26 8 -34 16 -36 37 -3 21 2 29 20 36 34 14 43 13 69 -9z m227 -3 c6 -5 12
-20 12 -33 0 -19 -6 -23 -37 -26 -21 -2 -37 -7 -35 -13 2 -5 18 -9 37 -7 41 3
46 -13 11 -29 -35 -17 -75 -3 -87 29 -26 67 42 123 99 79z m160 -56 c2 -50 0
-61 -13 -61 -11 0 -15 11 -15 43 0 46 -14 69 -36 60 -9 -3 -14 -22 -14 -54 0
-42 -3 -49 -20 -49 -18 0 -20 7 -20 64 l0 65 38 3 c68 6 77 -2 80 -71z m200
56 c6 -5 12 -20 12 -33 0 -19 -6 -23 -37 -26 -21 -2 -37 -7 -35 -13 2 -5 18
-9 37 -7 41 3 46 -13 11 -29 -35 -17 -75 -3 -87 29 -26 67 42 123 99 79z m230
-56 c2 -50 0 -61 -13 -61 -11 0 -15 11 -15 43 0 46 -14 69 -36 60 -9 -3 -14
-22 -14 -54 0 -42 -3 -49 -20 -49 -18 0 -20 7 -20 64 l0 65 38 3 c68 6 77 -2
80 -71z m-2426 22 c3 -40 6 -48 23 -48 17 0 20 8 23 48 3 39 6 47 23 47 18 0
20 -6 17 -62 l-3 -63 -45 -2 c-25 -1 -51 3 -57 9 -19 15 -17 118 1 118 11 0
16 -14 18 -47z m1188 -18 c0 -51 -3 -65 -15 -65 -12 0 -15 14 -15 65 0 51 3
65 15 65 12 0 15 -14 15 -65z m1090 0 c0 -58 -2 -65 -20 -65 -18 0 -20 7 -20
65 0 58 2 65 20 65 18 0 20 -7 20 -65z m-1130 -185 c-22 -17 -22 -18 -4 -29
18 -10 18 -12 2 -21 -13 -8 -18 -24 -18 -60 0 -38 -4 -50 -15 -50 -11 0 -15
12 -15 48 0 26 -5 53 -10 58 -7 7 -6 19 4 39 18 35 33 44 58 37 20 -5 20 -5
-2 -22z m-1060 6 c0 -10 -14 -16 -42 -18 -57 -4 -60 -32 -5 -36 23 -2 37 -8
37 -17 0 -9 -14 -15 -37 -17 -36 -3 -38 -5 -41 -40 -2 -25 -8 -38 -18 -38 -11
0 -14 18 -14 90 l0 90 60 0 c46 0 60 -3 60 -14z m968 -34 c16 -12 16 -14 0
-23 -22 -12 -24 -67 -3 -75 27 -11 17 -36 -12 -32 -25 3 -28 7 -31 48 -2 24
-9 51 -15 59 -9 11 -9 15 1 18 6 3 12 10 12 17 0 7 6 18 13 25 10 10 13 9 15
-6 2 -10 11 -24 20 -31z m432 18 c0 -26 3 -29 18 -22 9 6 27 6 40 1 19 -7 22
-15 22 -69 0 -47 -3 -60 -15 -60 -11 0 -15 12 -15 44 0 44 -19 74 -40 61 -5
-3 -10 -28 -10 -56 0 -42 -3 -49 -20 -49 -19 0 -20 7 -20 90 0 83 1 90 20 90
16 0 20 -7 20 -30z m163 -22 c9 -5 9 -10 -1 -20 -14 -14 -16 -78 -2 -78 6 0
10 -7 10 -15 0 -22 -37 -19 -49 4 -6 10 -12 45 -13 76 -2 47 1 60 17 72 18 13
20 12 24 -9 1 -13 8 -26 14 -30z m-1431 -21 c20 -31 9 -47 -32 -47 -30 0 -40
-4 -40 -16 0 -13 7 -15 43 -9 l42 7 -19 -21 c-39 -43 -106 -16 -106 44 0 33
16 60 40 67 19 6 62 -9 72 -25z m290 0 c20 -31 9 -47 -32 -47 -30 0 -40 -4
-40 -16 0 -13 7 -15 43 -9 l42 7 -19 -21 c-39 -43 -106 -16 -106 44 0 33 16
60 40 67 19 6 62 -9 72 -25z m118 12 c0 -5 -11 -14 -25 -19 -22 -8 -25 -16
-25 -55 0 -33 -4 -45 -15 -45 -12 0 -15 14 -15 64 0 63 1 65 28 68 32 4 52 -1
52 -13z m192 -12 c20 -31 9 -47 -32 -47 -30 0 -40 -4 -40 -16 0 -13 7 -15 43
-9 l42 7 -19 -21 c-39 -43 -106 -16 -106 44 0 33 16 60 40 67 19 6 62 -9 72
-25z m146 -46 c2 -50 0 -61 -13 -61 -11 0 -15 11 -15 43 0 46 -14 69 -36 60
-9 -3 -14 -22 -14 -54 0 -42 -3 -49 -20 -49 -18 0 -20 7 -20 64 l0 65 38 3
c68 6 77 -2 80 -71z m286 69 c24 -9 26 -14 26 -68 l0 -59 -50 -1 c-39 -1 -52
3 -60 18 -14 27 -2 49 33 58 17 4 32 13 35 20 5 15 -20 16 -35 1 -12 -12 -33
-4 -33 12 0 5 10 14 23 19 29 12 31 12 61 0z m140 0 c14 -5 26 -16 26 -25 0
-18 -21 -20 -38 -3 -8 8 -15 8 -27 -2 -17 -14 -19 -38 -5 -60 7 -12 13 -12 33
-1 36 19 51 11 32 -17 -19 -26 -66 -30 -90 -6 -26 26 -16 95 15 111 30 15 24
15 54 3z m-1102 -47 c3 -40 6 -48 23 -48 17 0 20 8 23 48 3 39 6 47 23 47 18
0 20 -6 17 -62 l-3 -63 -45 -2 c-25 -1 -51 3 -57 9 -19 15 -17 118 1 118 11 0
16 -14 18 -47z m1428 -63 c0 -11 -7 -20 -15 -20 -8 0 -15 9 -15 20 0 11 7 20
15 20 8 0 15 -9 15 -20z m510 -341 c0 -6 7 -8 16 -5 12 4 14 1 9 -14 -4 -11
-2 -20 4 -20 6 0 11 -4 11 -10 0 -5 -7 -10 -16 -10 -10 0 -14 -6 -10 -15 6
-17 -9 -21 -19 -5 -5 8 -11 7 -21 -1 -11 -9 -14 -8 -14 5 0 9 -8 16 -17 16
-17 1 -17 2 0 14 12 9 14 16 8 21 -19 11 -12 23 9 18 11 -3 20 0 20 6 0 6 5
11 10 11 6 0 10 -5 10 -11z m491 -54 c-1 -15 -24 -12 -29 3 -3 9 2 13 12 10
10 -1 17 -7 17 -13z m-331 -20 c0 -14 29 -35 50 -35 7 0 8 6 0 19 -19 37 -10
44 13 10 12 -19 31 -36 42 -38 17 -3 18 -1 6 13 -8 10 -9 16 -3 16 6 0 16 -9
22 -20 7 -13 21 -20 39 -20 49 0 91 -12 91 -26 0 -7 -13 -20 -30 -29 -34 -18
-36 -25 -15 -87 11 -30 25 -49 41 -57 37 -16 39 -36 9 -87 -31 -52 -41 -52
-27 0 9 32 8 37 -10 47 -27 15 -35 3 -14 -20 20 -22 13 -42 -23 -75 -20 -18
-20 -18 -8 13 19 50 -5 65 -108 70 l-85 3 0 -26 c0 -29 -40 -76 -65 -76 -18 0
-20 -21 -3 -38 6 -6 8 -15 4 -19 -4 -5 -21 8 -37 27 l-29 34 25 26 c30 32 31
52 5 88 -16 22 -19 33 -11 53 8 21 10 22 16 7 5 -14 11 -15 25 -8 11 6 54 17
96 25 96 18 124 35 124 75 0 23 -5 30 -19 30 -11 0 -23 5 -26 10 -3 6 3 10 14
10 38 0 22 18 -21 25 -71 12 -108 38 -108 76 0 6 5 7 10 4 6 -3 10 -13 10 -20z
m-754 -26 c8 -14 -11 -33 -25 -25 -11 7 -4 36 9 36 5 0 12 -5 16 -11z m185
-14 c9 6 11 3 6 -8 -4 -10 -1 -17 6 -18 9 0 9 -2 0 -6 -7 -2 -13 -12 -13 -20
0 -12 -3 -13 -14 -4 -11 9 -15 9 -19 -1 -4 -8 -6 -7 -6 5 -1 9 -5 17 -9 17 -4
0 -8 9 -8 20 0 13 5 19 13 16 7 -3 13 0 13 7 0 8 3 8 9 -2 5 -8 14 -10 22 -6z
m139 0 c0 -8 -7 -15 -15 -15 -8 0 -15 7 -15 15 0 8 7 15 15 15 8 0 15 -7 15
-15z m-1209 -20 c-1 -15 -24 -12 -29 3 -3 9 2 13 12 10 10 -1 17 -7 17 -13z
m1278 -44 c33 -18 43 -13 26 12 -8 13 -12 26 -9 30 4 3 16 -8 28 -25 27 -40
51 -50 42 -17 -7 23 -6 23 14 -3 15 -19 31 -28 50 -28 42 0 90 -11 90 -21 0
-5 -15 -19 -32 -30 -18 -12 -25 -19 -15 -15 9 3 68 15 130 26 61 11 123 23
135 26 13 3 21 1 18 -4 -3 -5 -71 -22 -151 -37 -155 -31 -159 -33 -130 -85 20
-35 18 -57 -6 -81 -20 -20 -20 -23 -5 -31 23 -13 20 -43 -10 -75 -20 -22 -24
-23 -19 -8 18 50 17 54 -14 69 -19 10 -56 16 -99 16 l-70 0 -6 -35 c-6 -28
-15 -39 -46 -55 -22 -11 -40 -22 -40 -24 0 -3 7 -12 16 -21 24 -23 8 -32 -17
-9 -40 36 -43 53 -15 83 31 33 32 41 5 75 -16 20 -19 33 -13 54 5 20 8 23 11
10 3 -13 9 -16 21 -9 9 5 57 17 106 27 96 19 126 38 126 79 0 18 -5 25 -19 25
-29 0 -34 17 -8 24 18 6 10 11 -40 25 -73 21 -93 35 -92 65 l0 21 9 -22 c5
-12 18 -26 29 -32z m-539 29 c8 -5 11 -10 5 -10 -5 0 -3 -5 5 -10 10 -6 11
-10 3 -10 -7 0 -13 -6 -13 -13 0 -7 -9 -13 -20 -13 -11 0 -20 6 -20 13 0 7 -6
13 -12 13 -9 0 -8 4 2 10 8 5 11 10 5 10 -10 0 15 20 25 20 3 0 12 -5 20 -10z
m-910 -35 c9 5 10 1 5 -14 -4 -14 -2 -21 6 -21 7 0 5 -6 -6 -13 -10 -8 -15
-19 -11 -25 4 -7 3 -12 -3 -12 -5 0 -11 6 -14 13 -3 9 -7 9 -20 -2 -15 -12
-17 -11 -17 8 0 12 -4 19 -10 16 -5 -3 -10 -2 -10 4 0 5 6 11 13 14 9 3 8 8
-3 22 -14 16 -13 17 8 11 17 -6 22 -3 22 11 1 17 1 17 15 -1 7 -10 19 -15 25
-11z m720 10 c0 -8 -6 -15 -14 -15 -17 0 -28 14 -19 24 12 12 33 6 33 -9z
m-203 -38 c12 5 14 3 8 -6 -4 -8 -2 -17 6 -22 10 -6 11 -9 2 -9 -7 0 -13 -6
-13 -14 0 -8 -10 -13 -25 -13 -15 0 -25 5 -25 13 0 8 -6 14 -12 15 -10 0 -10
2 -1 5 7 3 9 13 6 21 -5 12 -2 15 10 10 12 -4 17 -1 18 11 1 16 2 16 6 0 3
-11 10 -15 20 -11z m-177 -39 c0 -5 -4 -6 -10 -3 -5 3 -10 0 -10 -7 0 -8 -9
-14 -20 -14 -11 0 -20 6 -20 13 0 7 -6 13 -12 14 -10 0 -10 2 -1 5 7 3 9 12 6
21 -4 10 -2 14 5 9 6 -3 14 -2 17 4 7 11 45 -25 45 -42z m747 -7 c29 -13 43
-7 25 11 -7 7 -12 19 -12 28 0 9 6 6 17 -11 9 -14 25 -31 35 -38 18 -11 19
-10 13 8 -3 12 -2 21 4 21 5 0 12 -9 16 -19 6 -20 38 -36 53 -27 11 7 82 -15
82 -25 0 -5 -13 -15 -30 -24 -34 -17 -36 -30 -16 -97 14 -43 13 -49 -4 -71
-17 -22 -18 -26 -5 -37 19 -16 19 -40 -1 -68 -21 -30 -36 -28 -22 4 18 40 -16
64 -91 64 -31 0 -66 3 -78 6 -20 6 -23 3 -23 -23 0 -32 -30 -66 -68 -78 -22
-6 -22 -8 -7 -31 22 -33 5 -30 -30 6 l-29 30 27 28 c33 34 33 44 6 81 -15 20
-19 36 -14 51 5 16 9 19 15 10 4 -7 12 -10 18 -6 6 3 45 13 89 22 43 8 90 20
105 25 30 12 49 44 20 35 -9 -3 -79 -17 -154 -32 -96 -19 -138 -31 -138 -40 0
-8 5 -34 12 -58 11 -40 10 -47 -7 -66 -17 -19 -17 -21 -1 -39 21 -23 15 -50
-16 -77 -20 -19 -21 -19 -13 6 12 41 11 44 -25 62 -42 21 -158 25 -164 6 -3
-7 -7 -26 -11 -41 -4 -20 -16 -33 -40 -43 -40 -16 -41 -20 -18 -46 10 -11 12
-18 4 -18 -14 0 -61 48 -61 63 0 6 12 23 26 38 l26 28 -22 36 c-13 22 -20 46
-17 60 2 14 2 25 0 25 -2 0 -26 -11 -53 -25 -28 -14 -50 -21 -50 -16 0 26 236
105 338 113 17 1 32 8 32 14 0 7 -15 18 -32 24 l-33 13 30 6 c35 8 25 16 -30
26 -66 12 -95 32 -94 63 l0 27 10 -25 c12 -28 26 -40 53 -40 18 0 18 1 3 18
-10 10 -17 25 -17 33 0 7 14 -3 31 -24 32 -39 52 -48 43 -19 -4 12 0 10 12 -5
10 -14 27 -23 43 -23 14 0 43 -5 64 -11 38 -10 39 -11 20 -31 -18 -21 -18 -21
7 -15 14 3 78 16 143 28 115 23 145 40 92 53 -31 8 -33 26 -2 27 12 0 -7 10
-43 21 -65 20 -91 39 -89 67 0 11 3 10 11 -5 5 -12 21 -27 35 -33z m1073 38
c0 -5 5 -7 12 -3 8 5 9 2 5 -9 -4 -10 -1 -17 6 -18 9 0 9 -2 0 -6 -7 -2 -13
-10 -13 -17 0 -6 -9 -12 -20 -12 -11 0 -20 6 -20 13 0 7 -4 13 -9 13 -5 0 -7
9 -4 20 3 11 9 17 14 14 5 -3 9 0 9 5 0 6 5 11 10 11 6 0 10 -5 10 -11z
m-1330 -54 c0 -8 -7 -15 -15 -15 -8 0 -15 7 -15 15 0 8 7 15 15 15 8 0 15 -7
15 -15z m-206 -28 c4 4 4 0 0 -10 -3 -10 -1 -17 6 -17 7 0 6 -5 -4 -15 -16
-16 -33 -16 -52 0 -13 11 -6 48 7 39 5 -3 9 0 9 7 0 8 3 9 13 0 8 -6 17 -8 21
-4z m936 4 c0 -5 -26 -15 -57 -21 -32 -7 -96 -20 -143 -30 -79 -17 -101 -18
-88 -4 5 4 249 60 281 63 4 1 7 -3 7 -8z m-1373 -34 c12 5 14 3 8 -6 -4 -8 -2
-17 6 -22 11 -7 10 -9 -4 -9 -10 0 -16 -4 -12 -9 8 -13 -29 -10 -41 3 -15 18
-14 48 2 42 8 -3 14 0 15 7 0 9 2 9 5 0 3 -7 12 -9 21 -6z m209 -18 c10 -17
-13 -36 -27 -22 -12 12 -4 33 11 33 5 0 12 -5 16 -11z m-442 -55 c62 -30 125
-79 90 -69 -38 10 -103 -23 -123 -64 l-19 -36 -7 27 c-7 27 -85 108 -104 108
-5 0 -17 7 -25 16 -13 13 -16 13 -16 1 0 -21 -25 -38 -44 -31 -11 4 -16 15
-14 33 3 23 8 26 41 27 20 1 40 4 44 8 3 3 33 6 65 6 43 0 73 -7 112 -26z
m1896 -4 c12 -9 9 -16 -22 -45 -40 -37 -46 -51 -25 -58 6 -2 9 -7 5 -11 -8
-10 -48 12 -48 26 0 6 11 21 25 34 14 13 25 32 25 44 0 22 16 26 40 10z
m-1392 -98 c-2 -9 -16 -23 -31 -30 -15 -7 -27 -16 -27 -20 0 -4 11 -27 25 -51
32 -56 31 -74 -4 -104 l-29 -24 19 -32 c24 -39 24 -41 0 -41 -11 0 -23 12 -31
31 -9 22 -17 28 -29 23 -69 -29 -113 -43 -154 -49 -26 -4 -47 -12 -47 -17 0
-6 54 -9 144 -6 138 3 146 4 171 28 23 22 26 30 20 64 -6 40 -6 40 15 21 30
-27 27 -78 -6 -104 -38 -30 -81 -39 -249 -51 -82 -5 -190 -17 -240 -25 -107
-18 -112 -18 -99 -5 15 15 150 60 180 60 15 0 24 5 22 12 -6 16 -25 26 -74 38
-45 11 -64 38 -64 94 0 40 -35 79 -50 56 -6 -8 -10 -21 -10 -27 0 -21 -28 -15
-35 8 -14 43 -1 45 220 36 101 -4 120 -4 67 3 -40 4 -76 11 -80 15 -14 14 25
26 68 20 172 -23 191 -19 221 51 11 24 27 48 37 53 22 12 54 -5 50 -27z m1743
11 c20 5 26 -7 8 -18 -6 -5 -4 -12 8 -21 17 -12 17 -13 1 -14 -10 0 -18 -7
-18 -16 0 -13 -3 -14 -14 -5 -10 8 -16 9 -21 1 -10 -16 -25 -12 -19 5 4 9 0
15 -10 15 -9 0 -16 5 -16 10 0 6 5 10 11 10 6 0 8 9 4 20 -5 15 -3 18 8 14 8
-3 18 3 22 13 8 17 8 17 12 0 3 -13 11 -17 24 -14z m-734 0 c4 -11 -5 -26 -32
-48 -24 -21 -33 -35 -26 -39 20 -13 12 -27 -9 -16 -26 14 -25 26 5 62 14 16
25 36 25 44 0 20 29 18 37 -3z m-1387 -6 c0 -9 12 -11 41 -9 38 4 40 3 28 -15
-17 -28 -52 -49 -57 -34 -6 18 -41 13 -75 -11 -25 -18 -29 -19 -24 -5 4 9 10
24 13 32 10 25 -16 17 -47 -14 -30 -30 -38 -26 -18 10 23 44 139 83 139 46z
m1015 -61 c19 -13 18 -16 -19 -50 -33 -30 -37 -38 -26 -51 10 -12 10 -15 -3
-15 -8 0 -20 7 -27 15 -10 12 -7 20 14 46 14 17 26 39 26 50 0 23 9 24 35 5z
m665 -42 c0 -16 -16 -19 -25 -4 -8 13 4 32 16 25 5 -4 9 -13 9 -21z m-245 6
c3 -6 -1 -13 -10 -16 -19 -8 -30 0 -20 15 8 14 22 14 30 1z m415 -1 c0 -5 5
-7 12 -3 8 5 9 2 5 -9 -4 -10 -1 -17 6 -18 9 0 9 -2 0 -6 -7 -2 -13 -12 -14
-21 0 -11 -2 -13 -6 -4 -4 10 -8 10 -19 1 -11 -9 -14 -8 -14 5 0 9 -6 16 -12
17 -10 0 -10 2 -1 5 7 3 9 12 6 21 -4 11 -2 14 5 9 7 -4 12 -2 12 3 0 6 5 11
10 11 6 0 10 -5 10 -11z m160 -4 c0 -8 -6 -15 -14 -15 -17 0 -28 14 -19 24 12
12 33 6 33 -9z m-473 -69 c-14 -16 -30 -16 -42 -2 -16 17 -14 45 1 39 8 -3 14
1 14 7 0 7 9 3 20 -9 14 -18 16 -26 7 -35z m-903 38 c26 -10 19 -30 -21 -63
-31 -25 -35 -32 -23 -40 8 -6 11 -13 7 -17 -4 -4 -16 1 -27 11 l-20 18 25 27
c14 14 25 33 25 41 0 14 8 29 16 29 1 0 9 -3 18 -6z m466 -34 c0 -5 -5 -12
-11 -16 -14 -8 -33 11 -25 25 7 11 36 4 36 -9z m150 -5 c0 -8 -7 -15 -15 -15
-8 0 -15 7 -15 15 0 8 7 15 15 15 8 0 15 -7 15 -15z m518 -25 c4 -12 2 -13 -9
-2 -7 6 -26 12 -42 12 -37 0 -80 -44 -122 -123 -16 -31 -35 -57 -43 -57 -25 0
70 141 115 172 33 22 94 21 101 -2z m226 14 c9 -3 16 -11 16 -16 0 -7 -4 -7
-12 0 -7 5 -24 12 -38 15 -22 4 -22 4 -3 6 12 0 28 -2 37 -5z m-91 -28 c-16
-13 -44 -54 -63 -90 -30 -56 -50 -81 -50 -61 0 37 102 175 129 175 7 0 0 -11
-16 -24z m-1092 -17 c-75 -15 -112 -53 -110 -112 0 -17 3 -14 13 11 23 65 87
106 102 67 9 -22 -15 -74 -43 -92 -13 -9 -26 -13 -29 -10 -3 3 3 8 13 11 21 7
53 55 53 81 0 27 -32 13 -58 -25 -24 -36 -28 -97 -5 -93 7 2 10 -3 7 -11 -3
-9 5 -18 23 -24 15 -6 21 -11 12 -11 -8 -1 -24 6 -35 14 -10 8 -28 15 -40 15
-26 0 -62 26 -51 37 5 4 13 0 18 -10 11 -18 39 -24 39 -7 0 5 -9 14 -20 20
-28 15 -26 62 6 99 27 32 68 49 119 49 23 0 20 -2 -14 -9z m629 4 c-86 -14
-131 -51 -129 -107 l1 -31 12 33 c16 45 53 82 80 81 14 0 16 -2 6 -6 -30 -11
-60 -47 -66 -79 -9 -46 3 -74 39 -89 20 -9 25 -14 14 -15 -27 0 -107 83 -107
113 0 54 71 107 140 105 26 0 29 -2 10 -5z m-510 -13 c0 -5 -7 -10 -15 -10
-17 0 -68 -98 -59 -112 3 -4 0 -8 -7 -8 -16 0 -2 69 21 102 18 25 18 27 2 31
-9 3 0 5 21 6 20 0 37 -3 37 -9z m62 3 c-17 -7 -75 -123 -62 -123 6 0 16 11
22 25 11 24 52 44 65 31 8 -8 -17 -36 -33 -36 -8 0 -14 -7 -14 -15 0 -9 6 -12
18 -9 14 5 14 4 2 -4 -8 -6 -19 -8 -24 -4 -6 3 -23 5 -38 4 -32 -3 -33 3 -14
49 20 48 55 89 74 88 11 0 13 -2 4 -6z m584 -4 c8 -13 -13 -36 -23 -25 -4 4
-1 11 7 16 12 8 11 10 -7 10 -29 0 -83 -47 -100 -87 -15 -38 -11 -50 21 -63
l21 -9 -22 0 c-13 -1 -29 9 -38 23 -15 23 -15 27 5 66 31 60 115 103 136 69z
m-366 -34 c0 -8 -7 -15 -15 -15 -8 0 -15 7 -15 15 0 8 7 15 15 15 8 0 15 -7
15 -15z m540 -5 c0 -5 -4 -10 -10 -10 -5 0 -10 5 -10 10 0 6 5 10 10 10 6 0
10 -4 10 -10z m-695 -10 c-4 -6 -2 -17 4 -23 12 -15 4 -57 -11 -57 -6 0 -7 11
-4 26 5 18 3 24 -5 18 -7 -4 -10 -3 -7 2 3 5 8 17 11 27 4 9 9 17 12 17 4 0 3
-5 0 -10z m60 0 c-4 -6 -2 -17 4 -23 12 -15 4 -57 -11 -57 -6 0 -7 11 -4 26 5
18 3 24 -5 18 -7 -4 -10 -3 -7 2 3 5 8 17 11 27 4 9 9 17 12 17 4 0 3 -5 0
-10z m560 -57 c-3 -13 -10 -23 -15 -23 -13 0 -13 7 1 32 8 15 8 22 -1 28 -7 5
-9 13 -5 21 12 18 28 -29 20 -58z m358 21 c-9 -14 -13 -27 -10 -31 4 -3 9 2
13 11 3 9 11 16 16 16 7 0 6 -5 -1 -13 -6 -8 -9 -16 -6 -18 2 -3 -9 -6 -26 -7
l-30 -2 16 30 c10 19 12 30 4 30 -6 0 -16 -13 -22 -30 -12 -32 -27 -40 -27
-15 0 26 45 64 68 58 20 -5 20 -6 5 -29z m-853 20 c0 -12 -35 -64 -43 -64 -5
0 -7 3 -5 8 24 48 32 62 40 62 4 0 8 -3 8 -6z m40 1 c0 -2 -14 -28 -31 -57
-32 -55 -86 -118 -102 -118 -5 0 4 13 20 28 15 16 35 42 43 58 35 68 70 113
70 89z m194 -19 c-3 -9 -10 -16 -15 -16 -5 0 -4 9 3 20 14 22 21 20 12 -4z
m211 2 c-3 -13 -7 -29 -7 -35 -1 -14 -28 -18 -28 -5 0 16 25 62 34 62 4 0 5
-10 1 -22z m100 5 c-4 -10 -10 -26 -12 -35 -3 -10 -12 -18 -20 -18 -8 0 -13 3
-11 8 24 49 33 62 41 62 5 0 6 -8 2 -17z m47 -3 c0 -11 1 -25 2 -32 1 -6 -3
-13 -9 -15 -5 -1 -11 13 -12 32 -2 36 16 50 19 15z m23 11 c3 -5 1 -12 -5 -16
-5 -3 -10 1 -10 9 0 18 6 21 15 7z m93 2 c-24 -49 -32 -63 -40 -63 -13 0 -10
18 8 45 14 22 41 37 32 18z m36 -2 c3 -5 -1 -14 -9 -21 -8 -7 -15 -19 -15 -26
0 -8 -4 -14 -10 -14 -13 0 -13 10 3 43 12 28 22 33 31 18z m36 1 c0 -15 -25
-62 -32 -62 -11 0 -10 12 5 43 11 25 27 36 27 19z m129 -43 c1 -9 -5 -19 -12
-22 -10 -4 -13 4 -11 31 1 21 3 39 4 42 3 8 19 -34 19 -51z m21 42 c0 -6 -4
-13 -10 -16 -5 -3 -10 1 -10 9 0 9 5 16 10 16 6 0 10 -4 10 -9z m-1279 -18
c-5 -10 -22 -29 -37 -43 -23 -21 -22 -18 7 17 37 46 45 53 30 26z m55 -21
c-17 -16 -18 -16 -5 5 7 12 15 20 18 17 3 -2 -3 -12 -13 -22z m755 5 c-10 -9
-11 -8 -5 6 3 10 9 15 12 12 3 -3 0 -11 -7 -18z m96 -7 c-1 -12 -5 -16 -10
-11 -5 5 -6 14 -3 20 11 16 15 13 13 -9z m-357 -10 c-8 -5 -19 -10 -25 -10 -5
0 -3 5 5 10 8 5 20 10 25 10 6 0 3 -5 -5 -10z m145 -20 c-3 -5 -12 -10 -18
-10 -7 0 -6 4 3 10 19 12 23 12 15 0z m-515 -89 c0 -5 8 -12 18 -14 14 -4 14
-5 1 -6 -9 0 -22 6 -29 14 -9 10 -9 15 -1 15 6 0 11 -4 11 -9z"/>
<path d="M1657 4694 c-11 -12 -8 -102 4 -110 18 -11 29 17 27 65 -3 42 -16 60
-31 45z"/>
<path d="M2070 4640 c0 -51 3 -60 18 -60 31 0 53 24 54 57 1 40 -17 63 -48 63
-23 0 -24 -3 -24 -60z"/>
<path d="M2882 4648 c-17 -17 -15 -43 4 -58 12 -11 18 -10 31 3 14 13 14 21 5
42 -13 28 -22 31 -40 13z"/>
<path d="M3477 4694 c-11 -12 -8 -102 4 -110 18 -11 29 17 27 65 -3 42 -16 60
-31 45z"/>
<path d="M2247 4645 c-5 -10 0 -15 14 -15 12 0 19 5 17 12 -6 18 -25 20 -31 3z"/>
<path d="M2517 4654 c-13 -13 -7 -24 14 -24 11 0 19 5 17 12 -5 14 -22 21 -31
12z"/>
<path d="M3027 4645 c-5 -10 0 -15 14 -15 12 0 19 5 17 12 -6 18 -25 20 -31 3z"/>
<path d="M2654 4066 c-3 -8 -4 -25 -2 -38 4 -32 42 -32 46 0 6 38 -32 70 -44
38z"/>
<path d="M1787 4065 c-5 -10 0 -15 14 -15 12 0 19 5 17 12 -6 18 -25 20 -31 3z"/>
<path d="M2877 4074 c-13 -13 -7 -24 14 -24 11 0 19 5 17 12 -5 14 -22 21 -31
12z"/>
<path d="M3217 4023 c-13 -12 -7 -23 13 -23 11 0 20 7 20 15 0 15 -21 21 -33
8z"/>
<path d="M3607 4065 c-5 -10 0 -15 14 -15 12 0 19 5 17 12 -6 18 -25 20 -31 3z"/>
<path d="M4017 4074 c-13 -13 -7 -24 14 -24 11 0 19 5 17 12 -5 14 -22 21 -31
12z"/>
<path d="M1657 3783 c-11 -10 -8 -61 3 -68 16 -10 40 14 40 40 0 13 -7 26 -16
29 -19 7 -19 7 -27 -1z"/>
<path d="M1807 3784 c-13 -13 -7 -24 14 -24 11 0 19 5 17 12 -5 14 -22 21 -31
12z"/>
<path d="M2091 3777 c-16 -16 -13 -57 5 -64 22 -8 47 20 40 45 -8 25 -30 34
-45 19z"/>
<path d="M2677 3775 c-5 -10 0 -15 14 -15 12 0 19 5 17 12 -6 18 -25 20 -31 3z"/>
<path d="M3311 3777 c-16 -16 -13 -57 5 -64 22 -8 47 20 40 45 -8 25 -30 34
-45 19z"/>
<path d="M1841 3497 c-16 -16 -13 -57 5 -64 22 -8 47 20 40 45 -8 25 -30 34
-45 19z"/>
<path d="M2212 3498 c-26 -26 0 -77 33 -64 26 10 13 76 -15 76 -3 0 -11 -5
-18 -12z"/>
<path d="M2637 3495 c-5 -10 0 -15 14 -15 12 0 19 5 17 12 -6 18 -25 20 -31 3z"/>
<path d="M2067 3163 c-13 -12 -7 -23 13 -23 11 0 20 7 20 15 0 15 -21 21 -33
8z"/>
<path d="M2657 3214 c-13 -13 -7 -24 14 -24 11 0 19 5 17 12 -5 14 -22 21 -31
12z"/>
<path d="M3091 3207 c-16 -16 -13 -57 5 -64 22 -8 47 20 40 45 -8 25 -30 34
-45 19z"/>
<path d="M3677 3205 c-5 -10 0 -15 14 -15 12 0 19 5 17 12 -6 18 -25 20 -31 3z"/>
<path d="M2022 2918 c-17 -17 -15 -43 4 -58 12 -11 18 -10 31 3 14 13 14 21 5
42 -13 28 -22 31 -40 13z"/>
<path d="M3234 2916 c-3 -8 -4 -25 -2 -38 4 -32 42 -32 46 0 6 38 -32 70 -44
38z"/>
<path d="M3750 2915 c-15 -18 -5 -65 14 -65 26 0 40 28 28 55 -13 29 -24 31
-42 10z"/>
<path d="M1877 2924 c-13 -13 -7 -24 14 -24 11 0 19 5 17 12 -5 14 -22 21 -31
12z"/>
<path d="M2167 2924 c-13 -13 -7 -24 14 -24 11 0 19 5 17 12 -5 14 -22 21 -31
12z"/>
<path d="M2451 2917 c-16 -16 -13 -57 5 -64 22 -8 47 20 40 45 -8 25 -30 34
-45 19z"/>
<path d="M2997 2915 c-5 -10 0 -15 14 -15 12 0 19 5 17 12 -6 18 -25 20 -31 3z"/>
<path d="M3387 2915 c-5 -10 0 -15 14 -15 12 0 19 5 17 12 -6 18 -25 20 -31 3z"/>
<path d="M3967 2915 c-5 -10 0 -15 14 -15 12 0 19 5 17 12 -6 18 -25 20 -31 3z"/>
<path d="M1717 2625 c-5 -10 0 -15 14 -15 12 0 19 5 17 12 -6 18 -25 20 -31 3z"/>
<path d="M2157 2634 c-13 -13 -7 -24 14 -24 11 0 19 5 17 12 -5 14 -22 21 -31
12z"/>
<path d="M2707 2625 c-5 -10 0 -15 14 -15 12 0 19 5 17 12 -6 18 -25 20 -31 3z"/>
<path d="M3277 2625 c-5 -10 0 -15 14 -15 12 0 19 5 17 12 -6 18 -25 20 -31 3z"/>
<path d="M3707 2625 c-5 -10 0 -15 14 -15 12 0 19 5 17 12 -6 18 -25 20 -31 3z"/>
<path d="M1787 2335 c-5 -10 0 -15 14 -15 12 0 19 5 17 12 -6 18 -25 20 -31 3z"/>
<path d="M2041 2340 c-7 -4 -11 -20 -9 -36 2 -21 8 -29 23 -29 15 0 21 8 23
31 3 33 -14 49 -37 34z"/>
<path d="M2177 2293 c-13 -12 -7 -23 13 -23 11 0 20 7 20 15 0 15 -21 21 -33
8z"/>
<path d="M3017 2344 c-13 -13 -7 -24 14 -24 11 0 19 5 17 12 -5 14 -22 21 -31
12z"/>
<path d="M3517 2344 c-13 -13 -7 -24 14 -24 11 0 19 5 17 12 -5 14 -22 21 -31
12z"/>
<path d="M3062 2048 c-17 -17 -15 -43 4 -58 12 -11 18 -10 31 3 14 13 14 21 5
42 -13 28 -22 31 -40 13z"/>
<path d="M2097 2054 c-13 -13 -7 -24 14 -24 11 0 19 5 17 12 -5 14 -22 21 -31
12z"/>
<path d="M2337 2054 c-13 -13 -7 -24 14 -24 11 0 19 5 17 12 -5 14 -22 21 -31
12z"/>
<path d="M2917 2054 c-13 -13 -7 -24 14 -24 11 0 19 5 17 12 -5 14 -22 21 -31
12z"/>
<path d="M3427 2045 c-5 -10 0 -15 14 -15 12 0 19 5 17 12 -6 18 -25 20 -31 3z"/>
<path d="M3787 2045 c-5 -10 0 -15 14 -15 12 0 19 5 17 12 -6 18 -25 20 -31 3z"/>
<path d="M1807 1774 c-13 -13 -7 -24 14 -24 11 0 19 5 17 12 -5 14 -22 21 -31
12z"/>
<path d="M2097 1774 c-13 -13 -7 -24 14 -24 11 0 19 5 17 12 -5 14 -22 21 -31
12z"/>
<path d="M2407 1774 c-13 -13 -7 -24 14 -24 11 0 19 5 17 12 -5 14 -22 21 -31
12z"/>
<path d="M2857 1723 c-13 -12 -7 -23 13 -23 11 0 20 7 20 15 0 15 -21 21 -33
8z"/>
<path d="M3005 885 c-5 -2 -53 -13 -106 -25 -87 -19 -96 -23 -92 -41 4 -14 11
-18 22 -13 9 4 54 15 100 26 89 20 121 33 121 48 0 10 -24 12 -45 5z"/>
</g>
</svg>
