<?xml version="1.0" standalone="no"?>
<!DOCTYPE svg PUBLIC "-//W3C//DTD SVG 20010904//EN"
 "http://www.w3.org/TR/2001/REC-SVG-20010904/DTD/svg10.dtd">
<svg version="1.0" xmlns="http://www.w3.org/2000/svg"
 width="638.000000pt" height="640.000000pt" viewBox="0 0 638.000000 640.000000"
 preserveAspectRatio="xMidYMid meet">

<g transform="translate(0.000000,640.000000) scale(0.100000,-0.100000)"
fill="#000000" stroke="none">
<path d="M0 3200 l0 -3200 3190 0 3190 0 0 3200 0 3200 -3190 0 -3190 0 0
-3200z m1700 1235 c0 -78 -3 -95 -15 -95 -12 0 -15 14 -15 65 0 36 -3 65 -6
65 -3 0 -14 -5 -25 -10 -30 -17 -24 16 9 45 47 42 52 35 52 -70z m154 79 c19
-18 20 -28 6 -54 -7 -13 -7 -21 0 -25 16 -10 12 -62 -6 -79 -20 -21 -63 -20
-86 1 -19 17 -24 58 -9 68 5 3 7 21 4 40 -3 21 -1 41 7 50 16 20 64 19 84 -1z
m325 -8 c17 -18 23 -36 23 -72 0 -65 -31 -94 -103 -94 l-49 0 0 95 0 95 53 0
c44 0 58 -4 76 -24z m741 -5 c0 -28 2 -29 34 -24 27 4 36 1 50 -18 20 -29 21
-68 1 -96 -13 -18 -25 -22 -65 -21 l-50 1 0 94 c0 76 3 93 15 93 10 0 15 -10
15 -29z m545 5 c20 -30 6 -71 -33 -103 l-27 -23 38 0 c30 0 37 -4 37 -20 0
-18 -7 -20 -65 -20 -36 0 -65 2 -65 5 0 16 32 63 59 89 17 17 31 35 31 42 0
22 -20 27 -39 10 -24 -22 -41 -20 -41 4 0 43 80 55 105 16z m139 2 c10 -13 16
-43 16 -73 0 -82 -44 -119 -96 -81 -15 12 -19 27 -19 81 0 54 4 69 19 81 29
21 63 17 80 -8z m151 -2 c20 -30 6 -71 -33 -103 l-27 -23 38 0 c30 0 37 -4 37
-20 0 -18 -7 -20 -65 -20 -36 0 -65 2 -65 5 0 16 32 63 59 89 17 17 31 35 31
42 0 22 -20 27 -39 10 -24 -22 -41 -20 -41 4 0 43 80 55 105 16z m136 14 c30
-16 24 -63 -12 -105 l-31 -35 31 0 c24 0 31 -4 31 -20 0 -18 -7 -20 -60 -20
-74 0 -77 12 -20 74 22 24 40 50 40 59 0 24 -21 32 -35 14 -14 -19 -45 -23
-45 -5 0 38 59 60 101 38z m-1557 -56 c9 -8 16 -26 16 -40 0 -21 -4 -24 -40
-24 -22 0 -40 -5 -40 -10 0 -16 29 -24 43 -12 8 7 18 8 27 1 13 -8 12 -12 -4
-24 -26 -20 -65 -19 -88 2 -23 20 -24 80 -1 105 20 22 66 24 87 2z m156 5 c0
-6 -13 -28 -30 -49 -16 -21 -30 -41 -30 -44 0 -3 14 -6 30 -6 20 0 30 -5 30
-15 0 -12 -13 -15 -60 -15 -71 0 -77 14 -29 70 l30 35 -31 3 c-18 2 -30 9 -30
18 0 11 15 14 60 14 37 0 60 -4 60 -11z m124 -11 c28 -40 21 -58 -24 -58 -29
0 -40 -4 -40 -15 0 -16 25 -21 34 -6 3 5 15 7 26 4 20 -5 20 -7 4 -24 -20 -22
-62 -25 -89 -5 -27 20 -27 92 0 112 29 21 71 17 89 -8z m234 -50 c2 -56 0 -68
-13 -68 -11 0 -15 12 -15 49 0 28 -5 53 -10 56 -21 13 -40 -17 -40 -61 0 -32
-4 -44 -15 -44 -11 0 -15 12 -15 50 0 37 -4 52 -16 57 -22 8 -34 -14 -34 -64
0 -32 -4 -43 -15 -43 -12 0 -15 14 -15 69 l0 68 93 -1 92 -1 3 -67z m296 56
c9 -8 16 -26 16 -40 0 -21 -4 -24 -40 -24 -22 0 -40 -5 -40 -10 0 -16 29 -24
43 -12 8 7 18 8 27 1 13 -8 12 -12 -4 -24 -26 -20 -65 -19 -88 2 -23 20 -24
80 -1 105 20 22 66 24 87 2z m136 11 c0 -15 -14 -34 -22 -29 -16 10 -28 -17
-28 -63 0 -36 -3 -43 -20 -43 -18 0 -20 7 -20 69 l0 69 45 0 c25 0 45 -1 45
-3z m-1340 -115 c0 -13 -7 -20 -20 -20 -13 0 -20 7 -20 20 0 13 7 20 20 20 13
0 20 -7 20 -20z m20 -45 c0 -13 -27 -15 -180 -15 -153 0 -180 2 -180 15 0 13
27 15 180 15 153 0 180 -2 180 -15z m1310 0 c0 -13 -75 -15 -615 -15 -540 0
-615 2 -615 15 0 13 75 15 615 15 540 0 615 -2 615 -15z m640 0 c0 -13 -38
-15 -280 -15 -242 0 -280 2 -280 15 0 13 38 15 280 15 242 0 280 -2 280 -15z
m-2250 -485 l0 -80 45 0 c33 0 45 -4 45 -15 0 -12 -14 -15 -65 -15 l-65 0 0
95 c0 88 1 95 20 95 18 0 20 -7 20 -80z m150 65 c0 -8 -9 -15 -20 -15 -11 0
-20 7 -20 15 0 8 9 15 20 15 11 0 20 -7 20 -15z m220 -13 c0 -26 3 -28 28 -24
39 5 62 -20 62 -68 0 -52 -19 -69 -80 -68 l-50 0 0 94 c0 87 1 94 20 94 15 0
20 -7 20 -28z m466 1 c22 -99 23 -99 44 -15 9 35 15 42 35 42 20 0 25 -7 36
-55 7 -30 15 -52 19 -50 4 3 11 25 15 50 6 42 26 67 42 51 3 -3 1 -30 -6 -59
-24 -110 -31 -127 -51 -127 -15 0 -23 14 -36 60 -9 33 -20 58 -24 55 -3 -2
-12 -29 -19 -60 -11 -47 -16 -55 -35 -55 -21 0 -25 8 -41 83 -10 45 -20 88
-22 95 -3 7 3 12 16 12 14 0 22 -8 27 -27z m394 12 c0 -8 -9 -15 -20 -15 -11
0 -20 7 -20 15 0 8 9 15 20 15 11 0 20 -7 20 -15z m70 -15 c0 -27 2 -29 30
-24 46 10 60 -9 60 -77 0 -46 -3 -59 -15 -59 -11 0 -15 11 -15 39 0 49 -8 71
-26 71 -19 0 -34 -33 -34 -74 0 -25 -4 -36 -15 -36 -12 0 -15 17 -15 95 0 78
3 95 15 95 10 0 15 -10 15 -30z m610 2 c0 -26 2 -28 32 -24 42 6 58 -17 58
-85 0 -46 -3 -53 -19 -53 -17 0 -20 8 -23 53 -3 44 -6 52 -23 52 -17 0 -20 -8
-23 -52 -3 -45 -6 -53 -23 -53 -17 0 -19 8 -19 95 0 88 1 95 20 95 15 0 20 -7
20 -28z m160 -2 c0 -11 7 -20 15 -20 8 0 15 -7 15 -15 0 -8 -7 -15 -15 -15
-11 0 -15 -11 -15 -40 0 -29 4 -40 15 -40 8 0 15 -7 15 -16 0 -11 -8 -14 -27
-12 -25 3 -28 8 -31 43 -1 22 -7 50 -13 61 -9 17 -7 27 6 48 21 31 35 34 35 6z
m-1920 -90 c0 -63 -2 -70 -20 -70 -18 0 -20 7 -20 70 0 63 2 70 20 70 18 0 20
-7 20 -70z m134 54 c9 -8 16 -26 16 -40 0 -21 -4 -24 -40 -24 -22 0 -40 -5
-40 -10 0 -16 29 -24 43 -12 8 7 18 8 27 1 13 -8 12 -12 -4 -24 -26 -20 -65
-19 -88 2 -23 20 -24 80 -1 105 20 22 66 24 87 2z m300 0 c9 -8 16 -26 16 -40
0 -21 -4 -24 -40 -24 -22 0 -40 -5 -40 -10 0 -16 29 -24 43 -12 8 7 18 8 27 1
13 -8 12 -12 -4 -24 -26 -20 -65 -19 -88 2 -23 20 -24 80 -1 105 20 22 66 24
87 2z m136 11 c0 -15 -14 -34 -22 -29 -16 10 -28 -17 -28 -63 0 -36 -3 -43
-20 -43 -18 0 -20 7 -20 69 l0 69 45 0 c25 0 45 -1 45 -3z m424 -11 c9 -8 16
-26 16 -40 0 -21 -4 -24 -40 -24 -22 0 -40 -5 -40 -10 0 -16 29 -24 43 -12 8
7 18 8 27 1 13 -8 12 -12 -4 -24 -26 -20 -65 -19 -88 2 -23 20 -24 80 -1 105
20 22 66 24 87 2z m86 -54 c0 -63 -2 -70 -20 -70 -18 0 -20 7 -20 70 0 63 2
70 20 70 18 0 20 -7 20 -70z m310 50 c5 -10 10 -41 10 -69 0 -44 -3 -51 -19
-51 -17 0 -20 8 -23 53 -3 44 -6 52 -23 52 -17 0 -20 -8 -23 -52 -3 -45 -6
-53 -23 -53 -17 0 -19 7 -19 69 l0 69 55 1 c44 0 57 -3 65 -19z m136 12 c6 -4
13 -35 16 -68 l4 -61 -53 -1 c-42 0 -55 3 -63 19 -15 27 3 55 40 62 16 4 30
11 30 17 0 7 -13 9 -35 4 -36 -6 -44 3 -23 24 13 13 67 16 84 4z m154 -7 c19
-22 -3 -44 -24 -25 -24 19 -46 5 -46 -30 0 -34 22 -49 45 -30 8 6 21 10 30 8
29 -6 -11 -48 -46 -48 -58 0 -89 67 -53 118 18 26 75 30 94 7z m384 -1 c24
-23 20 -26 -26 -19 -48 8 -44 -4 5 -21 59 -20 42 -84 -23 -84 -37 0 -69 25
-52 41 9 10 15 10 24 1 14 -14 48 -16 48 -3 0 5 -12 12 -27 16 -50 12 -69 45
-41 73 17 17 74 15 92 -4z m234 3 c7 -5 12 -33 12 -68 0 -52 -2 -59 -20 -59
-18 0 -20 7 -20 56 0 47 -3 55 -17 52 -14 -2 -19 -15 -21 -56 -3 -44 -6 -52
-23 -52 -16 0 -19 7 -19 56 0 47 -3 55 -17 52 -14 -2 -19 -15 -21 -56 -3 -44
-6 -52 -23 -52 -17 0 -19 7 -19 68 l0 69 88 0 c48 0 93 -4 100 -10z m138 5 c6
-4 13 -35 16 -68 l4 -61 -53 -1 c-42 0 -55 3 -63 19 -15 27 3 55 40 62 16 4
30 11 30 17 0 7 -13 9 -35 4 -36 -6 -44 3 -23 24 13 13 67 16 84 4z m162 -4
c19 -16 16 -128 -3 -128 -10 0 -15 10 -15 33 0 47 -10 77 -26 77 -19 0 -34
-33 -34 -74 0 -25 -4 -36 -15 -36 -12 0 -15 14 -15 68 l0 69 48 1 c26 0 53 -4
60 -10z m160 0 c19 -16 16 -128 -3 -128 -10 0 -15 10 -15 33 0 47 -10 77 -26
77 -19 0 -34 -33 -34 -74 0 -25 -4 -36 -15 -36 -12 0 -15 14 -15 68 l0 69 48
1 c26 0 53 -4 60 -10z m82 -117 c0 -31 -24 -59 -35 -41 -3 5 -2 10 4 10 6 0 8
12 5 30 -5 23 -3 30 10 30 11 0 16 -9 16 -29z m-3000 -151 c0 -27 2 -29 30
-24 46 10 60 -9 60 -77 0 -46 -3 -59 -15 -59 -11 0 -15 11 -15 39 0 49 -8 71
-26 71 -19 0 -34 -33 -34 -74 0 -25 -4 -36 -15 -36 -12 0 -15 17 -15 95 0 78
3 95 15 95 10 0 15 -10 15 -30z m170 15 c0 -8 -7 -15 -15 -15 -8 0 -15 7 -15
15 0 8 7 15 15 15 8 0 15 -7 15 -15z m60 0 c0 -8 -7 -15 -15 -15 -8 0 -15 7
-15 15 0 8 7 15 15 15 8 0 15 -7 15 -15z m490 0 c0 -8 -7 -15 -15 -15 -8 0
-15 7 -15 15 0 8 7 15 15 15 8 0 15 -7 15 -15z m220 -13 c0 -26 2 -28 32 -24
42 6 58 -17 58 -85 0 -46 -3 -53 -19 -53 -17 0 -20 8 -23 53 -3 44 -6 52 -23
52 -17 0 -20 -8 -23 -52 -3 -45 -6 -53 -23 -53 -17 0 -19 8 -19 95 0 88 1 95
20 95 15 0 20 -7 20 -28z m320 -65 l0 -94 -50 -1 c-40 -1 -52 3 -65 21 -20 28
-19 67 1 96 14 19 23 22 50 18 32 -5 34 -4 34 24 0 19 5 29 15 29 12 0 15 -17
15 -93z m370 63 c0 -27 2 -29 30 -24 46 10 60 -9 60 -77 0 -46 -3 -59 -15 -59
-10 0 -15 10 -15 33 0 47 -10 77 -26 77 -19 0 -34 -33 -34 -74 0 -25 -4 -36
-15 -36 -12 0 -15 17 -15 95 0 78 3 95 15 95 10 0 15 -10 15 -30z m230 1 c0
-28 2 -29 34 -24 27 4 36 1 50 -18 20 -29 21 -68 1 -96 -13 -18 -25 -22 -65
-21 l-50 1 0 94 c0 76 3 93 15 93 10 0 15 -10 15 -29z m160 14 c0 -8 -7 -15
-15 -15 -8 0 -15 7 -15 15 0 8 7 15 15 15 8 0 15 -7 15 -15z m80 -15 c0 -11 5
-20 10 -20 6 0 10 -7 10 -15 0 -8 -4 -15 -10 -15 -5 0 -10 -18 -10 -40 0 -22
5 -40 10 -40 6 0 10 -7 10 -16 0 -11 -8 -14 -27 -12 -26 3 -28 7 -31 56 -2 28
-7 52 -13 52 -5 0 -9 7 -9 15 0 8 4 15 9 15 5 0 11 9 14 20 3 11 12 20 21 20
9 0 16 -8 16 -20z m90 0 c0 -11 5 -20 10 -20 6 0 10 -7 10 -15 0 -8 -4 -15
-10 -15 -5 0 -10 -18 -10 -40 0 -22 5 -40 10 -40 6 0 10 -7 10 -16 0 -11 -8
-14 -27 -12 -26 3 -28 7 -31 56 -2 28 -7 52 -13 52 -5 0 -9 7 -9 15 0 8 4 15
9 15 5 0 11 9 14 20 3 11 12 20 21 20 9 0 16 -8 16 -20z m-1958 -37 c27 -24
24 -87 -4 -107 -50 -35 -108 -7 -108 51 0 20 7 45 17 55 20 22 70 23 95 1z
m138 12 c0 -15 -14 -34 -22 -29 -16 10 -28 -17 -28 -63 0 -36 -3 -43 -20 -43
-18 0 -20 7 -20 69 l0 69 45 0 c25 0 45 -1 45 -3z m278 -67 c2 -56 0 -68 -13
-68 -11 0 -15 12 -15 49 0 28 -5 53 -10 56 -21 13 -40 -17 -40 -61 0 -32 -4
-44 -15 -44 -11 0 -15 12 -15 50 0 37 -4 52 -16 57 -22 8 -34 -14 -34 -64 0
-32 -4 -43 -15 -43 -12 0 -15 14 -15 69 l0 68 93 -1 92 -1 3 -67z m72 2 c0
-56 -3 -70 -15 -70 -12 0 -15 14 -15 70 0 56 3 70 15 70 12 0 15 -14 15 -70z
m140 55 c19 -22 -3 -44 -24 -25 -24 19 -46 5 -46 -30 0 -34 22 -49 45 -30 8 6
21 10 30 8 29 -6 -11 -48 -46 -48 -58 0 -89 67 -53 118 18 26 75 30 94 7z
m542 -2 c27 -24 24 -87 -4 -107 -50 -35 -108 -7 -108 51 0 20 7 45 17 55 20
22 70 23 95 1z m153 4 c10 -8 15 -19 11 -25 -10 -16 -33 -15 -39 1 -3 9 -9 9
-23 1 -25 -15 -28 -35 -10 -59 12 -16 17 -18 27 -7 15 14 49 16 49 3 0 -37
-70 -53 -102 -24 -23 20 -24 85 -2 107 19 20 64 21 89 3z m465 -57 c0 -56 -3
-70 -15 -70 -12 0 -15 14 -15 70 0 56 3 70 15 70 12 0 15 -14 15 -70z m314 48
c28 -40 21 -58 -24 -58 -29 0 -40 -4 -40 -15 0 -16 25 -21 34 -6 3 5 15 7 26
4 20 -5 20 -7 4 -24 -20 -22 -62 -25 -89 -5 -14 10 -20 26 -20 56 0 30 6 46
20 56 29 21 71 17 89 -8z m-1824 -253 c0 -8 -9 -15 -20 -15 -11 0 -20 7 -20
15 0 8 9 15 20 15 11 0 20 -7 20 -15z m1290 -42 c0 -53 -12 -94 -23 -83 -3 3
-8 35 -12 73 -7 64 -6 67 14 67 19 0 21 -6 21 -57z m193 0 l36 -58 1 58 c0 50
2 57 20 57 19 0 20 -7 20 -95 0 -88 -1 -95 -20 -95 -13 0 -32 20 -57 58 l-38
57 -3 -57 c-2 -43 -7 -58 -17 -58 -12 0 -15 19 -15 95 0 86 2 95 19 95 11 0
31 -21 54 -57z m387 42 c0 -8 -7 -15 -15 -15 -8 0 -15 7 -15 15 0 8 7 15 15
15 8 0 15 -7 15 -15z m60 0 c0 -8 -7 -15 -15 -15 -8 0 -15 7 -15 15 0 8 7 15
15 15 8 0 15 -7 15 -15z m190 -80 c0 -88 -1 -95 -20 -95 -19 0 -20 7 -20 95 0
88 1 95 20 95 19 0 20 -7 20 -95z m70 80 c0 -8 -7 -15 -15 -15 -8 0 -15 7 -15
15 0 8 7 15 15 15 8 0 15 -7 15 -15z m220 -13 c0 -26 2 -28 32 -24 42 6 58
-17 58 -85 0 -46 -3 -53 -19 -53 -17 0 -20 8 -23 53 -3 44 -6 52 -23 52 -17 0
-20 -8 -23 -52 -3 -45 -6 -53 -23 -53 -17 0 -19 8 -19 95 0 88 1 95 20 95 15
0 20 -7 20 -28z m-2030 -2 c0 -11 5 -20 10 -20 6 0 10 -7 10 -15 0 -8 -4 -15
-10 -15 -5 0 -10 -18 -10 -40 0 -22 5 -40 10 -40 6 0 10 -7 10 -16 0 -11 -8
-14 -27 -12 -26 3 -28 7 -31 56 -2 28 -7 52 -13 52 -5 0 -9 7 -9 15 0 8 4 15
9 15 5 0 11 9 14 20 3 11 12 20 21 20 9 0 16 -8 16 -20z m1400 0 c0 -11 5 -20
10 -20 6 0 10 -7 10 -15 0 -8 -4 -15 -10 -15 -5 0 -10 -18 -10 -40 0 -22 5
-40 10 -40 6 0 10 -7 10 -16 0 -11 -8 -14 -27 -12 -26 3 -28 7 -31 56 -2 28
-7 52 -13 52 -5 0 -9 7 -9 15 0 8 4 15 9 15 5 0 11 9 14 20 3 11 12 20 21 20
9 0 16 -8 16 -20z m-2294 -55 c3 -19 10 -35 14 -35 4 0 11 16 14 35 9 47 44
50 53 5 8 -42 20 -46 28 -9 6 29 29 48 41 36 4 -3 -4 -35 -16 -71 -16 -50 -26
-66 -40 -66 -14 0 -21 10 -26 35 -7 40 -19 38 -27 -5 -5 -20 -12 -30 -25 -30
-14 0 -23 15 -36 58 -10 31 -21 63 -23 70 -3 7 3 12 15 12 16 0 23 -8 28 -35z
m268 19 c9 -8 16 -26 16 -40 0 -21 -4 -24 -40 -24 -22 0 -40 -5 -40 -10 0 -16
29 -24 43 -12 8 7 18 8 27 1 13 -8 12 -12 -4 -24 -26 -20 -65 -19 -88 2 -23
20 -24 80 -1 105 20 22 66 24 87 2z m166 -4 c5 -10 10 -41 10 -69 0 -44 -3
-51 -19 -51 -17 0 -20 8 -23 53 -3 44 -6 52 -23 52 -17 0 -20 -8 -23 -52 -3
-45 -6 -53 -23 -53 -17 0 -19 7 -19 69 l0 69 55 1 c44 0 57 -3 65 -19z m80
-50 c0 -63 -2 -70 -20 -70 -18 0 -20 7 -20 70 0 63 2 70 20 70 18 0 20 -7 20
-70z m158 -16 c-2 -62 -7 -87 -18 -94 -21 -14 -84 -12 -98 2 -21 21 -13 28 29
26 29 -2 43 1 47 11 3 10 -2 12 -20 8 -39 -10 -68 17 -68 63 0 53 19 69 81 68
l51 0 -4 -84z m130 74 c22 -22 12 -30 -29 -23 -29 5 -40 4 -35 -4 4 -6 15 -11
24 -11 24 0 62 -28 62 -45 0 -42 -82 -61 -114 -26 -16 17 -16 19 0 25 10 4 22
2 28 -4 12 -12 46 -13 46 -2 0 5 -18 14 -40 21 -35 10 -40 16 -40 41 0 15 6
31 13 33 23 10 73 7 85 -5z m236 -10 c28 -40 21 -58 -24 -58 -29 0 -40 -4 -40
-15 0 -16 25 -21 34 -6 3 5 15 7 26 4 20 -5 20 -7 4 -24 -20 -22 -62 -25 -89
-5 -14 10 -20 26 -20 56 0 30 6 46 20 56 29 21 71 17 89 -8z m154 10 c19 -16
16 -128 -3 -128 -10 0 -15 10 -15 33 0 47 -10 77 -26 77 -19 0 -34 -33 -34
-74 0 -25 -4 -36 -15 -36 -12 0 -15 14 -15 68 l0 69 48 1 c26 0 53 -4 60 -10z
m146 -4 c24 -23 20 -26 -26 -19 -48 8 -44 -4 5 -21 59 -20 42 -84 -23 -84 -37
0 -69 25 -52 41 9 10 15 10 24 1 14 -14 48 -16 48 -3 0 5 -12 12 -27 16 -50
12 -69 45 -41 73 17 17 74 15 92 -4z m212 8 c6 -4 13 -35 16 -68 l4 -61 -53
-1 c-42 0 -55 3 -63 19 -15 27 3 55 40 62 16 4 30 11 30 17 0 7 -13 9 -35 4
-36 -6 -44 3 -23 24 13 13 67 16 84 4z m162 -4 c19 -16 16 -128 -3 -128 -10 0
-15 10 -15 33 0 47 -10 77 -26 77 -19 0 -34 -33 -34 -74 0 -25 -4 -36 -15 -36
-12 0 -15 14 -15 68 l0 69 48 1 c26 0 53 -4 60 -10z m488 4 c6 -4 13 -35 16
-68 l4 -61 -53 -1 c-42 0 -55 3 -63 19 -15 27 3 55 40 62 16 4 30 11 30 17 0
7 -13 9 -35 4 -36 -6 -44 3 -23 24 13 13 67 16 84 4z m174 -42 c0 -37 4 -52
16 -57 22 -8 34 14 34 65 0 35 3 42 20 42 18 0 20 -7 20 -69 l0 -68 -55 -1
c-65 0 -75 11 -75 87 0 44 3 51 20 51 17 0 20 -7 20 -50z m210 45 c0 -15 -14
-34 -22 -29 -16 10 -28 -17 -28 -63 0 -36 -3 -43 -20 -43 -18 0 -20 7 -20 69
l0 69 45 0 c25 0 45 -1 45 -3z m120 -65 c0 -56 -3 -70 -15 -70 -12 0 -15 14
-15 70 0 56 3 70 15 70 12 0 15 -14 15 -70z m140 55 c19 -22 -3 -44 -24 -25
-24 19 -46 5 -46 -30 0 -34 22 -49 45 -30 8 6 21 10 30 8 29 -6 -11 -48 -46
-48 -58 0 -89 67 -53 118 18 26 75 30 94 7z m-1040 -106 c0 -14 -5 -19 -17
-17 -26 5 -29 38 -4 38 15 0 21 -6 21 -21z m-1800 -169 c0 -27 2 -29 30 -24
46 10 60 -9 60 -77 0 -46 -3 -59 -15 -59 -10 0 -15 10 -15 33 0 47 -10 77 -26
77 -19 0 -34 -33 -34 -74 0 -25 -4 -36 -15 -36 -12 0 -15 17 -15 95 0 78 3 95
15 95 10 0 15 -10 15 -30z m300 1 c0 -28 2 -29 34 -24 27 4 36 1 50 -18 20
-29 21 -68 1 -96 -13 -18 -25 -22 -65 -21 l-50 1 0 94 c0 76 3 93 15 93 10 0
15 -10 15 -29z m380 -66 c0 -88 -1 -95 -20 -95 -19 0 -20 7 -20 95 0 88 1 95
20 95 19 0 20 -7 20 -95z m220 67 c0 -26 2 -28 32 -24 42 6 58 -17 58 -85 0
-46 -3 -53 -19 -53 -17 0 -20 8 -23 53 -3 44 -6 52 -23 52 -17 0 -20 -8 -23
-52 -3 -45 -6 -53 -23 -53 -17 0 -19 8 -19 95 0 88 1 95 20 95 15 0 20 -7 20
-28z m600 13 c0 -8 -7 -15 -15 -15 -8 0 -15 7 -15 15 0 8 7 15 15 15 8 0 15
-7 15 -15z m60 0 c0 -8 -7 -15 -15 -15 -8 0 -15 7 -15 15 0 8 7 15 15 15 8 0
15 -7 15 -15z m90 -13 c0 -26 3 -28 28 -24 39 5 62 -20 62 -68 0 -52 -19 -69
-80 -68 l-50 0 0 94 c0 87 1 94 20 94 15 0 20 -7 20 -28z m590 13 c0 -8 -9
-15 -20 -15 -11 0 -20 7 -20 15 0 8 9 15 20 15 11 0 20 -7 20 -15z m220 -13
c0 -26 3 -28 28 -24 39 5 62 -20 62 -68 0 -52 -19 -69 -80 -68 l-50 0 0 94 c0
87 1 94 20 94 15 0 20 -7 20 -28z m-400 -2 c0 -11 5 -20 10 -20 6 0 10 -7 10
-15 0 -8 -4 -15 -10 -15 -5 0 -10 -18 -10 -40 0 -22 5 -40 10 -40 6 0 10 -7
10 -16 0 -11 -8 -14 -27 -12 -26 3 -28 7 -31 55 -3 49 -4 51 -28 49 -33 -4
-44 -21 -44 -68 0 -27 -4 -38 -15 -38 -12 0 -15 15 -15 71 0 61 2 70 18 68 52
-5 80 2 85 21 3 11 12 20 21 20 9 0 16 -8 16 -20z m-1844 -28 c6 -4 13 -35 16
-68 l4 -61 -53 -1 c-42 0 -55 3 -63 19 -15 27 3 55 40 62 16 4 30 11 30 17 0
7 -13 9 -35 4 -36 -6 -44 3 -23 24 13 13 67 16 84 4z m308 -8 c9 -8 16 -26 16
-40 0 -21 -4 -24 -40 -24 -22 0 -40 -5 -40 -10 0 -16 29 -24 43 -12 8 7 18 8
27 1 13 -8 12 -12 -4 -24 -26 -20 -65 -19 -88 2 -23 20 -24 80 -1 105 20 22
66 24 87 2z m296 1 c19 -22 -3 -44 -24 -25 -24 19 -46 5 -46 -30 0 -34 22 -49
45 -30 8 6 21 10 30 8 29 -6 -11 -48 -46 -48 -58 0 -89 67 -53 118 18 26 75
30 94 7z m374 -7 c28 -40 21 -58 -24 -58 -29 0 -40 -4 -40 -15 0 -16 25 -21
34 -6 3 5 15 7 26 4 20 -5 20 -7 4 -24 -20 -22 -62 -25 -89 -5 -14 10 -20 26
-20 56 0 30 6 46 20 56 29 21 71 17 89 -8z m140 6 c24 -23 20 -26 -26 -19 -48
8 -44 -4 5 -21 59 -20 42 -84 -23 -84 -37 0 -69 25 -52 41 9 10 15 10 24 1 14
-14 48 -16 48 -3 0 5 -12 12 -27 16 -50 12 -69 45 -41 73 17 17 74 15 92 -4z
m156 -34 c0 -37 4 -52 16 -57 22 -8 34 14 34 65 0 35 3 42 20 42 18 0 20 -7
20 -69 l0 -68 -55 -1 c-65 0 -75 11 -75 87 0 44 3 51 20 51 17 0 20 -7 20 -50z
m384 28 c28 -40 21 -58 -24 -58 -29 0 -40 -4 -40 -15 0 -16 25 -21 34 -6 3 5
15 7 26 4 20 -5 20 -7 4 -24 -20 -22 -62 -25 -89 -5 -14 10 -20 26 -20 56 0
30 6 46 20 56 29 21 71 17 89 -8z m316 17 c0 -15 -14 -34 -22 -29 -16 10 -28
-17 -28 -63 0 -36 -3 -43 -20 -43 -18 0 -20 7 -20 69 l0 69 45 0 c25 0 45 -1
45 -3z m50 -65 c0 -63 -2 -70 -20 -70 -18 0 -20 7 -20 70 0 63 2 70 20 70 18
0 20 -7 20 -70z m134 54 c9 -8 16 -26 16 -40 0 -21 -4 -24 -40 -24 -22 0 -40
-5 -40 -10 0 -16 29 -24 43 -12 8 7 18 8 27 1 13 -8 12 -12 -4 -24 -26 -20
-65 -19 -88 2 -23 20 -24 80 -1 105 20 22 66 24 87 2z m310 -6 c28 -40 21 -58
-24 -58 -29 0 -40 -4 -40 -15 0 -16 25 -21 34 -6 3 5 15 7 26 4 20 -5 20 -7 4
-24 -20 -22 -62 -25 -89 -5 -14 10 -20 26 -20 56 0 30 6 46 20 56 29 21 71 17
89 -8z m156 2 c5 -10 10 -41 10 -69 0 -44 -3 -51 -19 -51 -17 0 -20 8 -23 53
-3 44 -6 52 -23 52 -17 0 -20 -8 -23 -52 -3 -45 -6 -53 -23 -53 -17 0 -19 7
-19 69 l0 69 55 1 c44 0 57 -3 65 -19z m80 -109 c0 -28 -24 -60 -37 -48 -3 4
0 13 7 22 8 10 9 15 1 15 -6 0 -11 9 -11 20 0 13 7 20 20 20 15 0 20 -7 20
-29z m-2780 -160 c0 -28 2 -29 34 -24 27 4 36 1 50 -18 20 -29 21 -68 1 -96
-13 -18 -25 -22 -65 -21 l-50 1 0 94 c0 76 3 93 15 93 10 0 15 -10 15 -29z
m840 14 c0 -8 -7 -15 -15 -15 -8 0 -15 7 -15 15 0 8 7 15 15 15 8 0 15 -7 15
-15z m610 0 c0 -8 -9 -15 -20 -15 -11 0 -20 7 -20 15 0 8 9 15 20 15 11 0 20
-7 20 -15z m340 -79 l0 -94 -50 0 c-61 -1 -80 16 -80 68 0 48 23 73 62 68 25
-4 28 -2 28 24 0 21 5 28 20 28 19 0 20 -7 20 -94z m370 66 c0 -26 2 -28 32
-24 42 6 58 -17 58 -85 0 -46 -3 -53 -19 -53 -17 0 -20 8 -23 53 -3 44 -6 52
-23 52 -17 0 -20 -8 -23 -52 -3 -45 -6 -53 -23 -53 -17 0 -19 8 -19 95 0 88 1
95 20 95 15 0 20 -7 20 -28z m-1100 -2 c0 -11 7 -20 15 -20 8 0 15 -7 15 -15
0 -8 -7 -15 -15 -15 -11 0 -15 -11 -15 -40 0 -29 4 -40 15 -40 8 0 15 -7 15
-16 0 -11 -8 -14 -27 -12 -25 3 -28 8 -31 43 -1 22 -7 50 -13 61 -9 17 -7 27
6 48 21 31 35 34 35 6z m-1132 -32 c7 -7 12 -38 12 -69 l0 -57 -51 2 c-38 1
-55 6 -63 19 -15 24 3 49 42 59 47 13 41 31 -8 23 -44 -7 -48 -4 -24 19 18 19
75 21 92 4z m296 -4 c9 -8 16 -26 16 -40 0 -21 -4 -24 -40 -24 -22 0 -40 -5
-40 -10 0 -16 29 -24 43 -12 8 7 18 8 27 1 13 -8 12 -12 -4 -24 -26 -20 -65
-19 -88 2 -23 20 -24 80 -1 105 20 22 66 24 87 2z m136 11 c0 -15 -14 -34 -22
-29 -16 10 -28 -17 -28 -63 0 -36 -3 -43 -20 -43 -18 0 -20 7 -20 69 l0 69 45
0 c25 0 45 -1 45 -3z m184 -11 c9 -8 16 -26 16 -40 0 -21 -4 -24 -40 -24 -22
0 -40 -5 -40 -10 0 -16 29 -24 43 -12 8 7 18 8 27 1 13 -8 12 -12 -4 -24 -26
-20 -65 -19 -88 2 -23 20 -24 80 -1 105 20 22 66 24 87 2z m144 4 c22 -22 12
-30 -29 -23 -29 5 -40 4 -35 -4 4 -6 15 -11 24 -11 24 0 62 -28 62 -45 0 -42
-82 -61 -114 -26 -16 17 -16 19 0 25 10 4 22 2 28 -4 12 -12 46 -13 46 -2 0 5
-18 14 -40 21 -35 10 -40 16 -40 41 0 15 6 31 13 33 23 10 73 7 85 -5z m152
-58 c0 -56 -3 -70 -15 -70 -12 0 -15 14 -15 70 0 56 3 70 15 70 12 0 15 -14
15 -70z m138 58 c22 -22 12 -30 -29 -23 -29 5 -40 4 -35 -4 4 -6 15 -11 24
-11 24 0 62 -28 62 -45 0 -42 -82 -61 -114 -26 -16 17 -16 19 0 25 10 4 22 2
28 -4 12 -12 46 -13 46 -2 0 5 -18 14 -40 21 -35 10 -40 16 -40 41 0 15 6 31
13 33 23 10 73 7 85 -5z m390 -1 c7 -5 12 -33 12 -68 0 -52 -2 -59 -20 -59
-18 0 -20 7 -20 56 0 47 -3 55 -17 52 -14 -2 -19 -15 -21 -56 -3 -44 -6 -52
-23 -52 -16 0 -19 7 -19 56 0 47 -3 55 -17 52 -14 -2 -19 -15 -21 -56 -3 -44
-6 -52 -23 -52 -17 0 -19 7 -19 68 l0 69 88 0 c48 0 93 -4 100 -10z m82 -57
c0 -63 -2 -70 -20 -70 -18 0 -20 7 -20 70 0 63 2 70 20 70 18 0 20 -7 20 -70z
m120 48 c0 -14 -5 -18 -15 -14 -19 7 -35 -23 -35 -68 0 -25 -4 -36 -15 -36
-12 0 -15 14 -15 69 l0 69 40 0 c34 1 40 -2 40 -20z m360 2 c11 -11 20 -33 20
-50 0 -17 -9 -39 -20 -50 -11 -11 -33 -20 -50 -20 -17 0 -39 9 -50 20 -11 11
-20 33 -20 50 0 17 9 39 20 50 11 11 33 20 50 20 17 0 39 -9 50 -20z m150 5
c19 -22 -3 -44 -24 -25 -24 19 -46 5 -46 -30 0 -34 22 -49 45 -30 8 6 21 10
30 8 29 -6 -11 -48 -46 -48 -58 0 -89 67 -53 118 18 26 75 30 94 7z m-2060
-260 c0 -8 -9 -15 -20 -15 -11 0 -20 7 -20 15 0 8 9 15 20 15 11 0 20 -7 20
-15z m220 -13 c0 -26 2 -28 32 -24 42 6 58 -17 58 -85 0 -46 -3 -53 -19 -53
-17 0 -20 8 -23 53 -3 44 -6 52 -23 52 -17 0 -20 -8 -23 -52 -3 -45 -6 -53
-23 -53 -17 0 -19 8 -19 95 0 88 1 95 20 95 15 0 20 -7 20 -28z m850 -65 l0
-94 -50 -1 c-40 -1 -52 3 -65 21 -20 28 -19 67 1 96 14 19 23 22 50 18 32 -5
34 -4 34 24 0 19 5 29 15 29 12 0 15 -17 15 -93z m690 78 c0 -8 -7 -15 -15
-15 -8 0 -15 7 -15 15 0 8 7 15 15 15 8 0 15 -7 15 -15z m60 0 c0 -8 -7 -15
-15 -15 -8 0 -15 7 -15 15 0 8 7 15 15 15 8 0 15 -7 15 -15z m90 -13 c0 -26 3
-28 28 -24 39 5 62 -20 62 -68 0 -52 -19 -69 -80 -68 l-50 0 0 94 c0 87 1 94
20 94 15 0 20 -7 20 -28z m260 13 c0 -8 -9 -15 -20 -15 -11 0 -20 7 -20 15 0
8 9 15 20 15 11 0 20 -7 20 -15z m-1790 -15 c0 -11 5 -20 10 -20 6 0 10 -7 10
-15 0 -8 -4 -15 -10 -15 -5 0 -10 -18 -10 -40 0 -22 5 -40 10 -40 6 0 10 -7
10 -16 0 -11 -8 -14 -27 -12 -26 3 -28 7 -31 56 -2 28 -7 52 -13 52 -5 0 -9 7
-9 15 0 8 4 15 9 15 5 0 11 9 14 20 3 11 12 20 21 20 9 0 16 -8 16 -20z m-462
-32 c19 -16 16 -128 -3 -128 -10 0 -15 10 -15 33 0 47 -10 77 -26 77 -19 0
-34 -33 -34 -74 0 -25 -4 -36 -15 -36 -12 0 -15 14 -15 68 l0 69 48 1 c26 0
53 -4 60 -10z m82 -58 c0 -63 -2 -70 -20 -70 -18 0 -20 7 -20 70 0 63 2 70 20
70 18 0 20 -7 20 -70z m140 55 c19 -22 -3 -44 -24 -25 -24 19 -46 5 -46 -30 0
-34 22 -49 45 -30 8 6 21 10 30 8 29 -6 -11 -48 -46 -48 -58 0 -89 67 -53 118
18 26 75 30 94 7z m384 -1 c24 -23 20 -26 -26 -19 -48 8 -44 -4 5 -21 59 -20
42 -84 -23 -84 -37 0 -69 25 -52 41 9 10 15 10 24 1 14 -14 48 -16 48 -3 0 5
-12 12 -27 16 -50 12 -69 45 -41 73 17 17 74 15 92 -4z m212 8 c6 -4 13 -35
16 -68 l4 -61 -53 -1 c-42 0 -55 3 -63 19 -15 27 3 55 40 62 16 4 30 11 30 17
0 7 -13 9 -35 4 -36 -6 -44 3 -23 24 13 13 67 16 84 4z m162 -4 c19 -16 16
-128 -3 -128 -10 0 -15 10 -15 33 0 47 -10 77 -26 77 -19 0 -34 -33 -34 -74 0
-25 -4 -36 -15 -36 -12 0 -15 14 -15 68 l0 69 48 1 c26 0 53 -4 60 -10z m306
-4 c9 -8 16 -26 16 -40 0 -21 -4 -24 -40 -24 -22 0 -40 -5 -40 -10 0 -16 29
-24 43 -12 8 7 18 8 27 1 13 -8 12 -12 -4 -24 -26 -20 -65 -19 -88 2 -23 20
-24 80 -1 105 20 22 66 24 87 2z m126 -6 c0 -14 -5 -18 -15 -14 -19 7 -35 -23
-35 -68 0 -25 -4 -36 -15 -36 -12 0 -15 14 -15 69 l0 69 40 0 c34 1 40 -2 40
-20z m124 0 c28 -40 21 -58 -24 -58 -29 0 -40 -4 -40 -15 0 -16 25 -21 34 -6
3 5 15 7 26 4 20 -5 20 -7 4 -24 -20 -22 -62 -25 -89 -5 -14 10 -20 26 -20 56
0 30 6 46 20 56 29 21 71 17 89 -8z m140 6 c24 -23 20 -26 -26 -19 -48 8 -44
-4 5 -21 59 -20 42 -84 -23 -84 -37 0 -69 25 -52 41 9 10 15 10 24 1 14 -14
48 -16 48 -3 0 5 -12 12 -27 16 -50 12 -69 45 -41 73 17 17 74 15 92 -4z m156
-34 c0 -37 4 -52 16 -57 22 -8 34 14 34 65 0 35 3 42 20 42 18 0 20 -7 20 -69
l0 -68 -55 -1 c-65 0 -75 11 -75 87 0 44 3 51 20 51 17 0 20 -7 20 -50z m360
28 c0 -14 -5 -18 -15 -14 -19 7 -35 -23 -35 -68 0 -25 -4 -36 -15 -36 -12 0
-15 14 -15 69 l0 69 40 0 c34 1 40 -2 40 -20z m60 -48 c0 -63 -2 -70 -20 -70
-18 0 -20 7 -20 70 0 63 2 70 20 70 18 0 20 -7 20 -70z m158 -16 c-2 -62 -7
-87 -18 -94 -21 -14 -84 -12 -98 2 -21 21 -13 28 29 26 29 -2 43 1 47 11 3 10
-2 12 -20 8 -39 -10 -68 17 -68 63 0 53 19 69 81 68 l51 0 -4 -84z m-2188
-203 c0 -28 2 -29 34 -24 27 4 36 1 50 -18 20 -29 21 -68 1 -96 -13 -18 -25
-22 -65 -21 l-50 1 0 94 c0 76 3 93 15 93 10 0 15 -10 15 -29z m160 -66 c0
-78 -3 -95 -15 -95 -12 0 -15 17 -15 95 0 78 3 95 15 95 12 0 15 -17 15 -95z
m70 80 c0 -8 -7 -15 -15 -15 -8 0 -15 7 -15 15 0 8 7 15 15 15 8 0 15 -7 15
-15z m220 -14 c0 -28 2 -29 34 -24 27 4 36 1 50 -18 20 -29 21 -68 1 -96 -13
-18 -25 -22 -65 -21 l-50 1 0 94 c0 76 3 93 15 93 10 0 15 -10 15 -29z m470
-28 c0 -53 -12 -94 -23 -83 -3 3 -8 35 -12 73 -7 64 -6 67 14 67 19 0 21 -6
21 -57z m-1130 -78 c0 -91 -8 -105 -56 -105 -43 0 -64 9 -64 27 0 12 8 13 39
8 30 -5 40 -3 45 10 5 14 1 16 -23 10 -57 -12 -93 60 -56 112 13 18 25 22 65
21 l50 -1 0 -82z m134 63 c28 -40 21 -58 -24 -58 -29 0 -40 -4 -40 -15 0 -16
25 -21 34 -6 3 5 15 7 26 4 20 -5 20 -7 4 -24 -20 -22 -62 -25 -89 -5 -27 20
-27 92 0 112 29 21 71 17 89 -8z m306 -48 c0 -56 -3 -70 -15 -70 -12 0 -15 14
-15 70 0 56 3 70 15 70 12 0 15 -14 15 -70z m144 48 c28 -40 21 -58 -24 -58
-29 0 -40 -4 -40 -15 0 -16 25 -21 34 -6 3 5 15 7 26 4 20 -5 20 -7 4 -24 -20
-22 -62 -25 -89 -5 -27 20 -27 92 0 112 29 21 71 17 89 -8z m300 6 c9 -8 16
-26 16 -40 0 -21 -4 -24 -40 -24 -22 0 -40 -5 -40 -10 0 -16 29 -24 43 -12 8
7 18 8 27 1 13 -8 12 -12 -4 -24 -26 -20 -65 -19 -88 2 -23 20 -24 80 -1 105
20 22 66 24 87 2z m154 4 c19 -16 16 -128 -3 -128 -10 0 -15 10 -15 33 0 47
-10 77 -26 77 -19 0 -34 -33 -34 -74 0 -25 -4 -36 -15 -36 -12 0 -15 14 -15
68 l0 69 48 1 c26 0 53 -4 60 -10z m92 -109 c0 -14 -5 -19 -17 -17 -26 5 -29
38 -4 38 15 0 21 -6 21 -21z m1010 -540 c0 -6 7 -8 16 -5 12 4 14 1 9 -14 -4
-11 -2 -20 4 -20 6 0 11 -4 11 -10 0 -5 -7 -10 -16 -10 -10 0 -14 -6 -10 -15
6 -17 -9 -21 -19 -5 -5 8 -11 7 -21 -1 -11 -9 -14 -8 -14 5 0 9 -8 16 -17 16
-17 1 -17 2 0 14 12 9 14 16 8 21 -19 11 -12 23 9 18 11 -3 20 0 20 6 0 6 5
11 10 11 6 0 10 -5 10 -11z m491 -54 c-1 -15 -24 -12 -29 3 -3 9 2 13 12 10
10 -1 17 -7 17 -13z m-331 -20 c0 -14 29 -35 50 -35 7 0 8 6 0 19 -19 37 -10
44 13 10 12 -19 31 -36 42 -38 17 -3 18 -1 6 13 -8 10 -9 16 -3 16 6 0 16 -9
22 -20 7 -13 21 -20 39 -20 49 0 91 -12 91 -26 0 -7 -13 -20 -30 -29 -34 -18
-36 -25 -15 -87 11 -30 25 -49 41 -57 37 -16 39 -36 9 -87 -31 -52 -41 -52
-27 0 9 32 8 37 -10 47 -27 15 -35 3 -14 -20 20 -22 13 -42 -23 -75 -20 -18
-20 -18 -8 13 19 50 -5 65 -108 70 l-85 3 0 -26 c0 -29 -40 -76 -65 -76 -18 0
-20 -21 -3 -38 6 -6 8 -15 4 -19 -4 -5 -21 8 -37 27 l-29 34 25 26 c30 32 31
52 5 88 -16 22 -19 33 -11 53 8 21 10 22 16 7 5 -14 11 -15 25 -8 11 6 54 17
96 25 96 18 124 35 124 75 0 23 -5 30 -19 30 -11 0 -23 5 -26 10 -3 6 3 10 14
10 38 0 22 18 -21 25 -71 12 -108 38 -108 76 0 6 5 7 10 4 6 -3 10 -13 10 -20z
m-754 -26 c8 -14 -11 -33 -25 -25 -11 7 -4 36 9 36 5 0 12 -5 16 -11z m185
-14 c9 6 11 3 6 -8 -4 -10 -1 -17 6 -18 9 0 9 -2 0 -6 -7 -2 -13 -12 -13 -20
0 -12 -3 -13 -14 -4 -11 9 -15 9 -19 -1 -4 -8 -6 -7 -6 5 -1 9 -5 17 -9 17 -4
0 -8 9 -8 20 0 13 5 19 13 16 7 -3 13 0 13 7 0 8 3 8 9 -2 5 -8 14 -10 22 -6z
m139 0 c0 -8 -7 -15 -15 -15 -8 0 -15 7 -15 15 0 8 7 15 15 15 8 0 15 -7 15
-15z m-1209 -20 c-1 -15 -24 -12 -29 3 -3 9 2 13 12 10 10 -1 17 -7 17 -13z
m1278 -44 c33 -18 43 -13 26 12 -8 13 -12 26 -9 30 4 3 16 -8 28 -25 27 -40
51 -50 42 -17 -7 23 -6 23 14 -3 15 -19 31 -28 50 -28 42 0 90 -11 90 -21 0
-5 -15 -19 -32 -30 -18 -12 -25 -19 -15 -15 9 3 68 15 130 26 61 11 123 23
135 26 13 3 21 1 18 -4 -3 -5 -71 -22 -151 -37 -155 -31 -159 -33 -130 -85 20
-35 18 -57 -6 -81 -20 -20 -20 -23 -5 -31 23 -13 20 -43 -10 -75 -20 -22 -24
-23 -19 -8 18 50 17 54 -14 69 -19 10 -56 16 -99 16 l-70 0 -6 -35 c-6 -28
-15 -39 -46 -55 -22 -11 -40 -22 -40 -24 0 -3 7 -12 16 -21 24 -23 8 -32 -17
-9 -40 36 -43 53 -15 83 31 33 32 41 5 75 -16 20 -19 33 -13 54 5 20 8 23 11
10 3 -13 9 -16 21 -9 9 5 57 17 106 27 96 19 126 38 126 79 0 18 -5 25 -19 25
-29 0 -34 17 -8 24 18 6 10 11 -40 25 -73 21 -93 35 -92 65 l0 21 9 -22 c5
-12 18 -26 29 -32z m-539 29 c8 -5 11 -10 5 -10 -5 0 -3 -5 5 -10 10 -6 11
-10 3 -10 -7 0 -13 -6 -13 -13 0 -7 -9 -13 -20 -13 -11 0 -20 6 -20 13 0 7 -6
13 -12 13 -9 0 -8 4 2 10 8 5 11 10 5 10 -10 0 15 20 25 20 3 0 12 -5 20 -10z
m-910 -35 c9 5 10 1 5 -14 -4 -14 -2 -21 6 -21 7 0 5 -6 -6 -13 -10 -8 -15
-19 -11 -25 4 -7 3 -12 -3 -12 -5 0 -11 6 -14 13 -3 9 -7 9 -20 -2 -15 -12
-17 -11 -17 8 0 12 -4 19 -10 16 -5 -3 -10 -2 -10 4 0 5 6 11 13 14 9 3 8 8
-3 22 -14 16 -13 17 8 11 17 -6 22 -3 22 11 1 17 1 17 15 -1 7 -10 19 -15 25
-11z m720 10 c0 -8 -6 -15 -14 -15 -17 0 -28 14 -19 24 12 12 33 6 33 -9z
m-203 -38 c12 5 14 3 8 -6 -4 -8 -2 -17 6 -22 10 -6 11 -9 2 -9 -7 0 -13 -6
-13 -14 0 -8 -10 -13 -25 -13 -15 0 -25 5 -25 13 0 8 -6 14 -12 15 -10 0 -10
2 -1 5 7 3 9 13 6 21 -5 12 -2 15 10 10 12 -4 17 -1 18 11 1 16 2 16 6 0 3
-11 10 -15 20 -11z m-177 -39 c0 -5 -4 -6 -10 -3 -5 3 -10 0 -10 -7 0 -8 -9
-14 -20 -14 -11 0 -20 6 -20 13 0 7 -6 13 -12 14 -10 0 -10 2 -1 5 7 3 9 12 6
21 -4 10 -2 14 5 9 6 -3 14 -2 17 4 7 11 45 -25 45 -42z m747 -7 c29 -13 43
-7 25 11 -7 7 -12 19 -12 28 0 9 6 6 17 -11 9 -14 25 -31 35 -38 18 -11 19
-10 13 8 -3 12 -2 21 4 21 5 0 12 -9 16 -19 6 -20 38 -36 53 -27 11 7 82 -15
82 -25 0 -5 -13 -15 -30 -24 -34 -17 -36 -30 -16 -97 14 -43 13 -49 -4 -71
-17 -22 -18 -26 -5 -37 19 -16 19 -40 -1 -68 -21 -30 -36 -28 -22 4 18 40 -16
64 -91 64 -31 0 -66 3 -78 6 -20 6 -23 3 -23 -23 0 -32 -30 -66 -68 -78 -22
-6 -22 -8 -7 -31 22 -33 5 -30 -30 6 l-29 30 27 28 c33 34 33 44 6 81 -15 20
-19 36 -14 51 5 16 9 19 15 10 4 -7 12 -10 18 -6 6 3 45 13 89 22 43 8 90 20
105 25 30 12 49 44 20 35 -9 -3 -79 -17 -154 -32 -96 -19 -138 -31 -138 -40 0
-8 5 -34 12 -58 11 -40 10 -47 -7 -66 -17 -19 -17 -21 -1 -39 21 -23 15 -50
-16 -77 -20 -19 -21 -19 -13 6 12 41 11 44 -25 62 -42 21 -158 25 -164 6 -3
-7 -7 -26 -11 -41 -4 -20 -16 -33 -40 -43 -40 -16 -41 -20 -18 -46 10 -11 12
-18 4 -18 -14 0 -61 48 -61 63 0 6 12 23 26 38 l26 28 -22 36 c-13 22 -20 46
-17 60 2 14 2 25 0 25 -2 0 -26 -11 -53 -25 -28 -14 -50 -21 -50 -16 0 26 236
105 338 113 17 1 32 8 32 14 0 7 -15 18 -32 24 l-33 13 30 6 c35 8 25 16 -30
26 -66 12 -95 32 -94 63 l0 27 10 -25 c12 -28 26 -40 53 -40 18 0 18 1 3 18
-10 10 -17 25 -17 33 0 7 14 -3 31 -24 32 -39 52 -48 43 -19 -4 12 0 10 12 -5
10 -14 27 -23 43 -23 14 0 43 -5 64 -11 38 -10 39 -11 20 -31 -18 -21 -18 -21
7 -15 14 3 78 16 143 28 115 23 145 40 92 53 -31 8 -33 26 -2 27 12 0 -7 10
-43 21 -65 20 -91 39 -89 67 0 11 3 10 11 -5 5 -12 21 -27 35 -33z m1073 38
c0 -5 5 -7 12 -3 8 5 9 2 5 -9 -4 -10 -1 -17 6 -18 9 0 9 -2 0 -6 -7 -2 -13
-10 -13 -17 0 -6 -9 -12 -20 -12 -11 0 -20 6 -20 13 0 7 -4 13 -9 13 -5 0 -7
9 -4 20 3 11 9 17 14 14 5 -3 9 0 9 5 0 6 5 11 10 11 6 0 10 -5 10 -11z
m-1330 -54 c0 -8 -7 -15 -15 -15 -8 0 -15 7 -15 15 0 8 7 15 15 15 8 0 15 -7
15 -15z m-206 -28 c4 4 4 0 0 -10 -3 -10 -1 -17 6 -17 7 0 6 -5 -4 -15 -16
-16 -33 -16 -52 0 -13 11 -6 48 7 39 5 -3 9 0 9 7 0 8 3 9 13 0 8 -6 17 -8 21
-4z m936 4 c0 -5 -26 -15 -57 -21 -32 -7 -96 -20 -143 -30 -79 -17 -101 -18
-88 -4 5 4 249 60 281 63 4 1 7 -3 7 -8z m-1373 -34 c12 5 14 3 8 -6 -4 -8 -2
-17 6 -22 11 -7 10 -9 -4 -9 -10 0 -16 -4 -12 -9 8 -13 -29 -10 -41 3 -15 18
-14 48 2 42 8 -3 14 0 15 7 0 9 2 9 5 0 3 -7 12 -9 21 -6z m209 -18 c10 -17
-13 -36 -27 -22 -12 12 -4 33 11 33 5 0 12 -5 16 -11z m-442 -55 c62 -30 125
-79 90 -69 -38 10 -103 -23 -123 -64 l-19 -36 -7 27 c-7 27 -85 108 -104 108
-5 0 -17 7 -25 16 -13 13 -16 13 -16 1 0 -21 -25 -38 -44 -31 -11 4 -16 15
-14 33 3 23 8 26 41 27 20 1 40 4 44 8 3 3 33 6 65 6 43 0 73 -7 112 -26z
m1896 -4 c12 -9 9 -16 -22 -45 -40 -37 -46 -51 -25 -58 6 -2 9 -7 5 -11 -8
-10 -48 12 -48 26 0 6 11 21 25 34 14 13 25 32 25 44 0 22 16 26 40 10z
m-1392 -98 c-2 -9 -16 -23 -31 -30 -15 -7 -27 -16 -27 -20 0 -4 11 -27 25 -51
32 -56 31 -74 -4 -104 l-29 -24 19 -32 c24 -39 24 -41 0 -41 -11 0 -23 12 -31
31 -9 22 -17 28 -29 23 -69 -29 -113 -43 -154 -49 -26 -4 -47 -12 -47 -17 0
-6 54 -9 144 -6 138 3 146 4 171 28 23 22 26 30 20 64 -6 40 -6 40 15 21 30
-27 27 -78 -6 -104 -38 -30 -81 -39 -249 -51 -82 -5 -190 -17 -240 -25 -107
-18 -112 -18 -99 -5 15 15 150 60 180 60 15 0 24 5 22 12 -6 16 -25 26 -74 38
-45 11 -64 38 -64 94 0 40 -35 79 -50 56 -6 -8 -10 -21 -10 -27 0 -21 -28 -15
-35 8 -14 43 -1 45 220 36 101 -4 120 -4 67 3 -40 4 -76 11 -80 15 -14 14 25
26 68 20 172 -23 191 -19 221 51 11 24 27 48 37 53 22 12 54 -5 50 -27z m1743
11 c20 5 26 -7 8 -18 -6 -5 -4 -12 8 -21 17 -12 17 -13 1 -14 -10 0 -18 -7
-18 -16 0 -13 -3 -14 -14 -5 -10 8 -16 9 -21 1 -10 -16 -25 -12 -19 5 4 9 0
15 -10 15 -9 0 -16 5 -16 10 0 6 5 10 11 10 6 0 8 9 4 20 -5 15 -3 18 8 14 8
-3 18 3 22 13 8 17 8 17 12 0 3 -13 11 -17 24 -14z m-734 0 c4 -11 -5 -26 -32
-48 -24 -21 -33 -35 -26 -39 20 -13 12 -27 -9 -16 -26 14 -25 26 5 62 14 16
25 36 25 44 0 20 29 18 37 -3z m-1387 -6 c0 -9 12 -11 41 -9 38 4 40 3 28 -15
-17 -28 -52 -49 -57 -34 -6 18 -41 13 -75 -11 -25 -18 -29 -19 -24 -5 4 9 10
24 13 32 10 25 -16 17 -47 -14 -30 -30 -38 -26 -18 10 23 44 139 83 139 46z
m1015 -61 c19 -13 18 -16 -19 -50 -33 -30 -37 -38 -26 -51 10 -12 10 -15 -3
-15 -8 0 -20 7 -27 15 -10 12 -7 20 14 46 14 17 26 39 26 50 0 23 9 24 35 5z
m665 -42 c0 -16 -16 -19 -25 -4 -8 13 4 32 16 25 5 -4 9 -13 9 -21z m-245 6
c3 -6 -1 -13 -10 -16 -19 -8 -30 0 -20 15 8 14 22 14 30 1z m415 -1 c0 -5 5
-7 12 -3 8 5 9 2 5 -9 -4 -10 -1 -17 6 -18 9 0 9 -2 0 -6 -7 -2 -13 -12 -14
-21 0 -11 -2 -13 -6 -4 -4 10 -8 10 -19 1 -11 -9 -14 -8 -14 5 0 9 -6 16 -12
17 -10 0 -10 2 -1 5 7 3 9 12 6 21 -4 11 -2 14 5 9 7 -4 12 -2 12 3 0 6 5 11
10 11 6 0 10 -5 10 -11z m160 -4 c0 -8 -6 -15 -14 -15 -17 0 -28 14 -19 24 12
12 33 6 33 -9z m-473 -69 c-14 -16 -30 -16 -42 -2 -16 17 -14 45 1 39 8 -3 14
1 14 7 0 7 9 3 20 -9 14 -18 16 -26 7 -35z m-903 38 c26 -10 19 -30 -21 -63
-31 -25 -35 -32 -23 -40 8 -6 11 -13 7 -17 -4 -4 -16 1 -27 11 l-20 18 25 27
c14 14 25 33 25 41 0 14 8 29 16 29 1 0 9 -3 18 -6z m466 -34 c0 -5 -5 -12
-11 -16 -14 -8 -33 11 -25 25 7 11 36 4 36 -9z m150 -5 c0 -8 -7 -15 -15 -15
-8 0 -15 7 -15 15 0 8 7 15 15 15 8 0 15 -7 15 -15z m518 -25 c4 -12 2 -13 -9
-2 -7 6 -26 12 -42 12 -37 0 -80 -44 -122 -123 -16 -31 -35 -57 -43 -57 -25 0
70 141 115 172 33 22 94 21 101 -2z m226 14 c9 -3 16 -11 16 -16 0 -7 -4 -7
-12 0 -7 5 -24 12 -38 15 -22 4 -22 4 -3 6 12 0 28 -2 37 -5z m-91 -28 c-16
-13 -44 -54 -63 -90 -30 -56 -50 -81 -50 -61 0 37 102 175 129 175 7 0 0 -11
-16 -24z m-1092 -17 c-75 -15 -112 -53 -110 -112 0 -17 3 -14 13 11 23 65 87
106 102 67 9 -22 -15 -74 -43 -92 -13 -9 -26 -13 -29 -10 -3 3 3 8 13 11 21 7
53 55 53 81 0 27 -32 13 -58 -25 -24 -36 -28 -97 -5 -93 7 2 10 -3 7 -11 -3
-9 5 -18 23 -24 15 -6 21 -11 12 -11 -8 -1 -24 6 -35 14 -10 8 -28 15 -40 15
-26 0 -62 26 -51 37 5 4 13 0 18 -10 11 -18 39 -24 39 -7 0 5 -9 14 -20 20
-28 15 -26 62 6 99 27 32 68 49 119 49 23 0 20 -2 -14 -9z m629 4 c-86 -14
-131 -51 -129 -107 l1 -31 12 33 c16 45 53 82 80 81 14 0 16 -2 6 -6 -30 -11
-60 -47 -66 -79 -9 -46 3 -74 39 -89 20 -9 25 -14 14 -15 -27 0 -107 83 -107
113 0 54 71 107 140 105 26 0 29 -2 10 -5z m-510 -13 c0 -5 -7 -10 -15 -10
-17 0 -68 -98 -59 -112 3 -4 0 -8 -7 -8 -16 0 -2 69 21 102 18 25 18 27 2 31
-9 3 0 5 21 6 20 0 37 -3 37 -9z m62 3 c-17 -7 -75 -123 -62 -123 6 0 16 11
22 25 11 24 52 44 65 31 8 -8 -17 -36 -33 -36 -8 0 -14 -7 -14 -15 0 -9 6 -12
18 -9 14 5 14 4 2 -4 -8 -6 -19 -8 -24 -4 -6 3 -23 5 -38 4 -32 -3 -33 3 -14
49 20 48 55 89 74 88 11 0 13 -2 4 -6z m584 -4 c8 -13 -13 -36 -23 -25 -4 4
-1 11 7 16 12 8 11 10 -7 10 -29 0 -83 -47 -100 -87 -15 -38 -11 -50 21 -63
l21 -9 -22 0 c-13 -1 -29 9 -38 23 -15 23 -15 27 5 66 31 60 115 103 136 69z
m-366 -34 c0 -8 -7 -15 -15 -15 -8 0 -15 7 -15 15 0 8 7 15 15 15 8 0 15 -7
15 -15z m540 -5 c0 -5 -4 -10 -10 -10 -5 0 -10 5 -10 10 0 6 5 10 10 10 6 0
10 -4 10 -10z m-695 -10 c-4 -6 -2 -17 4 -23 12 -15 4 -57 -11 -57 -6 0 -7 11
-4 26 5 18 3 24 -5 18 -7 -4 -10 -3 -7 2 3 5 8 17 11 27 4 9 9 17 12 17 4 0 3
-5 0 -10z m60 0 c-4 -6 -2 -17 4 -23 12 -15 4 -57 -11 -57 -6 0 -7 11 -4 26 5
18 3 24 -5 18 -7 -4 -10 -3 -7 2 3 5 8 17 11 27 4 9 9 17 12 17 4 0 3 -5 0
-10z m560 -57 c-3 -13 -10 -23 -15 -23 -13 0 -13 7 1 32 8 15 8 22 -1 28 -7 5
-9 13 -5 21 12 18 28 -29 20 -58z m358 21 c-9 -14 -13 -27 -10 -31 4 -3 9 2
13 11 3 9 11 16 16 16 7 0 6 -5 -1 -13 -6 -8 -9 -16 -6 -18 2 -3 -9 -6 -26 -7
l-30 -2 16 30 c10 19 12 30 4 30 -6 0 -16 -13 -22 -30 -12 -32 -27 -40 -27
-15 0 26 45 64 68 58 20 -5 20 -6 5 -29z m-853 20 c0 -12 -35 -64 -43 -64 -5
0 -7 3 -5 8 24 48 32 62 40 62 4 0 8 -3 8 -6z m40 1 c0 -2 -14 -28 -31 -57
-32 -55 -86 -118 -102 -118 -5 0 4 13 20 28 15 16 35 42 43 58 35 68 70 113
70 89z m194 -19 c-3 -9 -10 -16 -15 -16 -5 0 -4 9 3 20 14 22 21 20 12 -4z
m211 2 c-3 -13 -7 -29 -7 -35 -1 -14 -28 -18 -28 -5 0 16 25 62 34 62 4 0 5
-10 1 -22z m100 5 c-4 -10 -10 -26 -12 -35 -3 -10 -12 -18 -20 -18 -8 0 -13 3
-11 8 24 49 33 62 41 62 5 0 6 -8 2 -17z m47 -3 c0 -11 1 -25 2 -32 1 -6 -3
-13 -9 -15 -5 -1 -11 13 -12 32 -2 36 16 50 19 15z m23 11 c3 -5 1 -12 -5 -16
-5 -3 -10 1 -10 9 0 18 6 21 15 7z m93 2 c-24 -49 -32 -63 -40 -63 -13 0 -10
18 8 45 14 22 41 37 32 18z m36 -2 c3 -5 -1 -14 -9 -21 -8 -7 -15 -19 -15 -26
0 -8 -4 -14 -10 -14 -13 0 -13 10 3 43 12 28 22 33 31 18z m36 1 c0 -15 -25
-62 -32 -62 -11 0 -10 12 5 43 11 25 27 36 27 19z m129 -43 c1 -9 -5 -19 -12
-22 -10 -4 -13 4 -11 31 1 21 3 39 4 42 3 8 19 -34 19 -51z m21 42 c0 -6 -4
-13 -10 -16 -5 -3 -10 1 -10 9 0 9 5 16 10 16 6 0 10 -4 10 -9z m-1279 -18
c-5 -10 -22 -29 -37 -43 -23 -21 -22 -18 7 17 37 46 45 53 30 26z m55 -21
c-17 -16 -18 -16 -5 5 7 12 15 20 18 17 3 -2 -3 -12 -13 -22z m755 5 c-10 -9
-11 -8 -5 6 3 10 9 15 12 12 3 -3 0 -11 -7 -18z m96 -7 c-1 -12 -5 -16 -10
-11 -5 5 -6 14 -3 20 11 16 15 13 13 -9z m-357 -10 c-8 -5 -19 -10 -25 -10 -5
0 -3 5 5 10 8 5 20 10 25 10 6 0 3 -5 -5 -10z m145 -20 c-3 -5 -12 -10 -18
-10 -7 0 -6 4 3 10 19 12 23 12 15 0z m-515 -89 c0 -5 8 -12 18 -14 14 -4 14
-5 1 -6 -9 0 -22 6 -29 14 -9 10 -9 15 -1 15 6 0 11 -4 11 -9z"/>
<path d="M1795 4491 c-8 -15 3 -31 21 -31 9 0 14 7 12 17 -4 20 -24 28 -33 14z"/>
<path d="M1794 4416 c-8 -22 3 -49 19 -43 6 2 12 14 12 27 0 27 -22 39 -31 16z"/>
<path d="M2090 4434 l0 -66 28 7 c38 9 46 20 46 61 0 38 -22 64 -56 64 -16 0
-18 -9 -18 -66z"/>
<path d="M2930 4435 c-10 -12 -10 -21 -1 -41 17 -38 46 -28 46 16 0 39 -23 52
-45 25z"/>
<path d="M3545 4477 c-11 -41 -2 -102 15 -102 12 0 15 13 15 59 0 62 -19 89
-30 43z"/>
<path d="M2277 4443 c-13 -12 -7 -23 13 -23 11 0 20 7 20 15 0 15 -21 21 -33
8z"/>
<path d="M2550 4436 c0 -10 9 -16 21 -16 24 0 21 23 -4 28 -10 2 -17 -3 -17
-12z"/>
<path d="M3087 4443 c-13 -12 -7 -23 13 -23 11 0 20 7 20 15 0 15 -21 21 -33
8z"/>
<path d="M2034 3815 c-9 -23 5 -65 21 -65 23 0 38 36 25 60 -13 24 -38 26 -46
5z"/>
<path d="M1887 3823 c-13 -12 -7 -23 13 -23 11 0 20 7 20 15 0 15 -21 21 -33
8z"/>
<path d="M2187 3823 c-13 -12 -7 -23 13 -23 11 0 20 7 20 15 0 15 -21 21 -33
8z"/>
<path d="M2747 3823 c-13 -12 -7 -23 13 -23 11 0 20 7 20 15 0 15 -21 21 -33
8z"/>
<path d="M3275 3770 c-8 -12 20 -24 35 -15 5 3 10 10 10 16 0 12 -37 12 -45
-1z"/>
<path d="M4185 3770 c-8 -12 20 -24 35 -15 5 3 10 10 10 16 0 12 -37 12 -45
-1z"/>
<path d="M2824 3516 c-10 -25 0 -61 18 -64 24 -5 42 32 28 58 -12 23 -38 26
-46 6z"/>
<path d="M3520 3515 c-10 -12 -10 -21 -1 -41 17 -38 46 -28 46 16 0 39 -23 52
-45 25z"/>
<path d="M1810 3510 c-13 -24 2 -60 25 -60 23 0 38 36 25 60 -6 11 -17 20 -25
20 -8 0 -19 -9 -25 -20z"/>
<path d="M2980 3510 c-13 -24 2 -60 25 -60 23 0 38 36 25 60 -6 11 -17 20 -25
20 -8 0 -19 -9 -25 -20z"/>
<path d="M3920 3516 c0 -10 9 -16 21 -16 24 0 21 23 -4 28 -10 2 -17 -3 -17
-12z"/>
<path d="M1857 3213 c-13 -12 -7 -23 13 -23 11 0 20 7 20 15 0 15 -21 21 -33
8z"/>
<path d="M2230 3205 c-10 -12 -10 -21 -2 -40 7 -14 16 -25 21 -25 16 0 33 29
29 52 -4 28 -30 35 -48 13z"/>
<path d="M2620 3206 c0 -10 9 -16 21 -16 24 0 21 23 -4 28 -10 2 -17 -3 -17
-12z"/>
<path d="M3135 3160 c-8 -12 20 -24 35 -15 5 3 10 10 10 16 0 12 -37 12 -45
-1z"/>
<path d="M3785 3160 c-8 -12 20 -24 35 -15 5 3 10 10 10 16 0 12 -37 12 -45
-1z"/>
<path d="M1960 2895 c-10 -12 -10 -21 -1 -41 17 -38 46 -28 46 16 0 39 -23 52
-45 25z"/>
<path d="M3304 2895 c-9 -23 5 -65 21 -65 23 0 38 36 25 60 -13 24 -38 26 -46
5z"/>
<path d="M4114 2895 c-9 -23 5 -65 21 -65 23 0 38 36 25 60 -13 24 -38 26 -46
5z"/>
<path d="M1805 2850 c-8 -12 20 -24 35 -15 5 3 10 10 10 16 0 12 -37 12 -45
-1z"/>
<path d="M2117 2903 c-13 -12 -7 -23 13 -23 11 0 20 7 20 15 0 15 -21 21 -33
8z"/>
<path d="M2780 2896 c0 -10 9 -16 21 -16 24 0 21 23 -4 28 -10 2 -17 -3 -17
-12z"/>
<path d="M3460 2896 c0 -10 9 -16 21 -16 24 0 21 23 -4 28 -10 2 -17 -3 -17
-12z"/>
<path d="M3967 2903 c-13 -12 -7 -23 13 -23 11 0 20 7 20 15 0 15 -21 21 -33
8z"/>
<path d="M4270 2896 c0 -10 9 -16 21 -16 24 0 21 23 -4 28 -10 2 -17 -3 -17
-12z"/>
<path d="M1800 2585 c-10 -12 -10 -21 -1 -41 17 -38 46 -28 46 16 0 39 -23 52
-45 25z"/>
<path d="M3491 2586 c-16 -19 -11 -46 12 -60 22 -14 38 7 35 44 -3 29 -29 38
-47 16z"/>
<path d="M1650 2534 c0 -9 7 -14 17 -12 25 5 28 28 4 28 -12 0 -21 -6 -21 -16z"/>
<path d="M1957 2593 c-13 -12 -7 -23 13 -23 11 0 20 7 20 15 0 15 -21 21 -33
8z"/>
<path d="M2277 2593 c-13 -12 -7 -23 13 -23 11 0 20 7 20 15 0 15 -21 21 -33
8z"/>
<path d="M3647 2593 c-13 -12 -7 -50 9 -63 22 -19 49 9 40 44 -6 25 -33 35
-49 19z"/>
<path d="M2794 2276 c-10 -25 0 -61 18 -64 24 -5 42 32 28 58 -12 23 -38 26
-46 6z"/>
<path d="M3724 2275 c-9 -23 5 -65 21 -65 23 0 38 36 25 60 -13 24 -38 26 -46
5z"/>
<path d="M2485 2230 c-8 -12 20 -24 35 -15 5 3 10 10 10 16 0 12 -37 12 -45
-1z"/>
<path d="M2957 2283 c-13 -12 -7 -23 13 -23 11 0 20 7 20 15 0 15 -21 21 -33
8z"/>
<path d="M3200 2276 c0 -10 9 -16 21 -16 24 0 21 23 -4 28 -10 2 -17 -3 -17
-12z"/>
<path d="M4050 2275 c-10 -12 -10 -21 -2 -40 7 -14 16 -25 21 -25 16 0 33 29
29 52 -4 28 -30 35 -48 13z"/>
<path d="M1960 1965 c-10 -12 -10 -21 -1 -41 17 -38 46 -28 46 16 0 39 -23 52
-45 25z"/>
<path d="M2410 1965 c-10 -12 -10 -21 -1 -41 17 -38 46 -28 46 16 0 39 -23 52
-45 25z"/>
<path d="M1657 1973 c-12 -11 -8 -50 7 -62 11 -9 18 -8 30 4 19 19 19 21 6 46
-11 19 -31 25 -43 12z"/>
<path d="M1810 1966 c0 -10 9 -16 21 -16 24 0 21 23 -4 28 -10 2 -17 -3 -17
-12z"/>
<path d="M2260 1966 c0 -10 9 -16 21 -16 24 0 21 23 -4 28 -10 2 -17 -3 -17
-12z"/>
<path d="M2567 1973 c-13 -12 -7 -23 13 -23 11 0 20 7 20 15 0 15 -21 21 -33
8z"/>
<path d="M3005 885 c-5 -2 -53 -13 -106 -25 -87 -19 -96 -23 -92 -41 4 -14 11
-18 22 -13 9 4 54 15 100 26 89 20 121 33 121 48 0 10 -24 12 -45 5z"/>
</g>
</svg>
