<?xml version="1.0" standalone="no"?>
<!DOCTYPE svg PUBLIC "-//W3C//DTD SVG 20010904//EN"
 "http://www.w3.org/TR/2001/REC-SVG-20010904/DTD/svg10.dtd">
<svg version="1.0" xmlns="http://www.w3.org/2000/svg"
 width="638.000000pt" height="640.000000pt" viewBox="0 0 638.000000 640.000000"
 preserveAspectRatio="xMidYMid meet">

<g transform="translate(0.000000,640.000000) scale(0.100000,-0.100000)"
fill="#000000" stroke="none">
<path d="M0 3200 l0 -3200 3190 0 3190 0 0 3200 0 3200 -3190 0 -3190 0 0
-3200z m1700 1360 c8 -15 7 -27 -5 -50 -9 -16 -20 -30 -25 -30 -6 0 -10 -4
-10 -10 0 -5 11 -10 25 -10 16 0 25 -6 25 -15 0 -11 -12 -15 -50 -15 -60 0
-64 13 -20 63 17 19 30 42 30 51 0 19 -4 20 -30 4 -22 -14 -33 -8 -24 16 9 24
70 22 84 -4z m100 -55 c0 -60 -3 -75 -15 -75 -11 0 -15 12 -15 51 0 46 -2 51
-20 46 -27 -7 -26 17 3 36 41 29 47 22 47 -58z m272 58 c22 -19 24 -81 4 -108
-10 -14 -27 -19 -62 -19 l-49 -1 -3 73 -3 72 47 0 c30 0 54 -6 66 -17z m598
-2 c0 -15 8 -21 32 -23 25 -2 33 -9 39 -30 12 -45 -10 -73 -59 -75 l-42 -2 0
75 c0 59 3 74 15 74 8 0 15 -9 15 -19z m440 -1 c8 -15 7 -27 -5 -50 -9 -16
-20 -30 -25 -30 -6 0 -10 -4 -10 -10 0 -5 11 -10 25 -10 16 0 25 -6 25 -15 0
-11 -12 -15 -50 -15 -60 0 -64 13 -20 63 17 19 30 42 30 51 0 19 -4 20 -30 4
-22 -14 -33 -8 -24 16 9 24 70 22 84 -4z m110 1 c5 -11 10 -36 10 -56 0 -48
-16 -75 -44 -75 -42 0 -62 51 -45 113 9 32 14 37 39 37 19 0 33 -7 40 -19z
m128 -12 c2 -17 -6 -37 -23 -58 l-27 -31 26 0 c16 0 26 -6 26 -15 0 -11 -12
-15 -50 -15 -27 0 -50 4 -50 10 0 5 16 28 36 50 22 24 34 46 30 55 -6 17 -26
21 -26 5 0 -5 -9 -10 -20 -10 -18 0 -19 3 -10 21 9 16 19 19 48 17 31 -3 37
-7 40 -29z m112 11 c8 -15 7 -27 -5 -50 -9 -16 -20 -30 -25 -30 -6 0 -10 -4
-10 -10 0 -5 11 -10 25 -10 16 0 25 -6 25 -15 0 -11 -12 -15 -50 -15 -60 0
-64 13 -20 63 17 19 30 42 30 51 0 19 -4 20 -30 4 -22 -14 -33 -8 -24 16 9 24
70 22 84 -4z m-1260 -39 c17 -32 12 -41 -25 -41 -19 0 -35 -5 -35 -11 0 -7 11
-9 30 -5 22 4 30 2 30 -9 0 -19 -48 -31 -69 -18 -20 12 -27 69 -10 89 17 21
66 18 79 -5z m110 6 c0 -8 -9 -22 -20 -32 -27 -24 -25 -35 5 -35 16 0 25 -6
25 -15 0 -11 -12 -15 -50 -15 -42 0 -50 3 -50 18 0 11 9 27 20 37 11 10 20 22
20 27 0 4 -9 8 -20 8 -11 0 -20 5 -20 10 0 6 20 10 45 10 31 0 45 -4 45 -13z
m110 -6 c17 -32 12 -41 -25 -41 -19 0 -35 -5 -35 -11 0 -7 11 -9 30 -5 22 4
30 2 30 -9 0 -19 -48 -31 -69 -18 -20 12 -27 69 -10 89 17 21 66 18 79 -5z
m188 -38 c2 -43 0 -53 -12 -53 -12 0 -16 11 -16 46 0 59 -24 55 -28 -4 -4 -58
-30 -57 -34 1 -2 29 -8 42 -18 42 -10 0 -16 -13 -18 -42 -2 -29 -8 -43 -18
-43 -10 0 -14 14 -14 55 l0 55 78 -2 77 -3 3 -52z m240 45 c7 -7 12 -20 12
-30 0 -13 -8 -18 -30 -18 -29 0 -38 -9 -23 -23 3 -4 12 -2 19 4 7 6 18 8 24 4
17 -10 -8 -35 -36 -35 -45 0 -67 47 -44 91 12 22 59 26 78 7z m102 -5 c0 -9
-3 -13 -7 -10 -13 13 -33 -16 -33 -49 0 -24 -5 -34 -15 -34 -12 0 -15 13 -15
55 l0 55 35 0 c26 0 35 -4 35 -17z m-1080 -79 c0 -9 -5 -14 -12 -12 -18 6 -21
28 -4 28 9 0 16 -7 16 -16z m20 -39 c0 -13 -23 -15 -145 -15 -122 0 -145 2
-145 15 0 13 23 15 145 15 122 0 145 -2 145 -15z m1060 0 c0 -13 -62 -15 -500
-15 -438 0 -500 2 -500 15 0 13 62 15 500 15 438 0 500 -2 500 -15z m520 0 c0
-13 -32 -15 -225 -15 -193 0 -225 2 -225 15 0 13 32 15 225 15 193 0 225 -2
225 -15z m-1744 -342 c0 -18 3 -36 7 -39 14 -14 6 -54 -12 -64 -11 -5 -38 -10
-60 -10 l-41 0 0 76 0 75 53 -3 c51 -3 52 -3 53 -35z m184 -38 c0 -60 -3 -75
-15 -75 -12 0 -15 15 -15 75 0 60 3 75 15 75 12 0 15 -15 15 -75z m130 1 l0
-75 -42 2 c-34 2 -45 7 -56 27 -21 39 -2 80 38 80 23 0 30 4 30 20 0 11 7 20
15 20 12 0 15 -15 15 -74z m110 64 c0 -5 -7 -10 -15 -10 -8 0 -15 5 -15 10 0
6 7 10 15 10 8 0 15 -4 15 -10z m194 -33 c8 -6 8 -10 -1 -14 -15 -6 -18 -63
-3 -63 6 0 10 -7 10 -15 0 -16 -35 -21 -44 -6 -3 4 -7 34 -8 65 -2 41 2 60 12
66 11 7 16 5 19 -8 2 -9 8 -21 15 -25z m186 -31 l0 -75 -42 2 c-34 2 -45 7
-56 27 -21 39 -2 80 38 80 23 0 30 4 30 20 0 11 7 20 15 20 12 0 15 -15 15
-74z m60 64 c0 -5 -7 -10 -15 -10 -8 0 -15 5 -15 10 0 6 7 10 15 10 8 0 15 -4
15 -10z m226 -30 c4 -22 10 -40 14 -40 5 0 11 18 15 40 6 33 11 40 30 40 19 0
24 -7 30 -40 8 -47 20 -45 29 5 5 22 13 35 23 35 11 0 14 -6 9 -23 -3 -12 -10
-46 -16 -75 -9 -39 -16 -52 -30 -52 -13 0 -21 13 -30 51 -14 56 -24 52 -35
-13 -5 -27 -12 -38 -25 -38 -13 0 -21 15 -34 65 -20 79 -20 85 -1 85 10 0 17
-14 21 -40z m314 30 c0 -5 -7 -10 -15 -10 -8 0 -15 5 -15 10 0 6 7 10 15 10 8
0 15 -4 15 -10z m60 -9 c0 -15 8 -21 33 -23 31 -3 32 -4 35 -55 2 -42 0 -53
-12 -53 -10 0 -16 13 -18 43 -2 29 -8 42 -18 42 -10 0 -16 -13 -18 -42 -2 -29
-8 -43 -18 -43 -11 0 -14 16 -14 75 0 60 3 75 15 75 8 0 15 -9 15 -19z m490 0
c0 -15 8 -21 33 -23 31 -3 32 -4 35 -55 2 -42 0 -53 -12 -53 -10 0 -16 13 -18
43 -2 29 -8 42 -18 42 -10 0 -16 -13 -18 -42 -2 -29 -8 -43 -18 -43 -11 0 -14
16 -14 75 0 60 3 75 15 75 8 0 15 -9 15 -19z m144 -24 c8 -6 8 -10 -1 -14 -15
-6 -18 -63 -3 -63 6 0 10 -7 10 -15 0 -16 -35 -21 -44 -6 -3 4 -7 34 -8 65 -2
41 2 60 12 66 11 7 16 5 19 -8 2 -9 8 -21 15 -25z m396 33 c0 -5 -7 -10 -15
-10 -8 0 -15 5 -15 10 0 6 7 10 15 10 8 0 15 -4 15 -10z m60 -9 c0 -11 6 -22
13 -25 10 -5 10 -7 0 -12 -15 -7 -18 -64 -3 -64 6 0 10 -7 10 -15 0 -9 -9 -15
-25 -15 -22 0 -25 4 -25 38 0 21 -5 43 -11 49 -8 8 -6 18 6 37 20 31 35 34 35
7z m-2436 -33 c3 -7 7 -32 9 -55 l5 -42 -47 2 c-40 2 -46 5 -49 25 -3 18 3 26
27 35 40 15 40 31 1 22 -28 -6 -39 3 -23 18 11 12 73 7 77 -5z m306 -44 c0
-73 -24 -70 -28 4 -2 42 0 52 12 52 13 0 16 -12 16 -56z m118 37 c3 -10 -3
-11 -28 -6 -23 5 -30 4 -26 -4 4 -6 15 -11 25 -11 29 0 45 -25 31 -49 -16 -31
-90 -26 -90 5 0 16 26 19 35 4 8 -12 25 -13 25 -1 0 5 -13 14 -30 20 -29 10
-40 37 -23 55 12 12 76 2 81 -13z m322 -36 c0 -42 -3 -55 -15 -55 -12 0 -15
13 -15 55 0 42 3 55 15 55 12 0 15 -13 15 -55z m110 36 c17 -32 12 -41 -25
-41 -19 0 -35 -5 -35 -11 0 -7 11 -9 30 -5 22 4 30 2 30 -9 0 -19 -48 -31 -69
-18 -20 12 -27 69 -10 89 17 21 66 18 79 -5z m370 0 c17 -32 12 -41 -25 -41
-19 0 -35 -5 -35 -11 0 -7 11 -9 30 -5 22 4 30 2 30 -9 0 -19 -48 -31 -69 -18
-20 12 -27 69 -10 89 17 21 66 18 79 -5z m60 -36 c0 -42 -3 -55 -15 -55 -12 0
-15 13 -15 55 0 42 3 55 15 55 12 0 15 -13 15 -55z m258 -2 c2 -42 0 -53 -12
-53 -10 0 -16 13 -18 43 -2 29 -8 42 -18 42 -10 0 -16 -13 -18 -42 -2 -29 -8
-43 -18 -43 -10 0 -14 14 -14 56 l0 55 48 -3 47 -3 3 -52z m106 45 c3 -7 7
-32 9 -55 l5 -42 -47 2 c-40 2 -46 5 -49 25 -3 18 3 26 27 35 40 15 40 31 1
22 -28 -6 -39 3 -23 18 11 12 73 7 77 -5z m129 -2 c7 -18 -17 -28 -32 -13 -15
15 -34 -4 -29 -29 3 -15 11 -18 36 -16 34 2 40 -6 20 -26 -17 -17 -54 -15 -72
4 -19 18 -21 65 -4 82 17 17 75 15 81 -2z m311 -2 c5 -13 1 -14 -24 -9 -39 9
-39 -3 0 -16 49 -18 34 -69 -21 -69 -27 0 -57 25 -45 37 4 4 16 1 28 -6 14 -9
24 -9 31 -2 7 7 2 12 -16 16 -33 9 -49 28 -41 49 8 22 79 22 88 0z m116 7 c0
-5 -12 -23 -26 -40 l-26 -31 26 0 c16 0 26 -6 26 -15 0 -11 -12 -15 -50 -15
-58 0 -61 9 -23 54 26 31 26 31 5 34 -40 6 -23 22 23 22 25 0 45 -4 45 -9z
m98 -3 c7 -7 12 -20 12 -30 0 -13 -8 -18 -30 -18 -29 0 -38 -9 -23 -23 3 -4
12 -2 19 4 7 6 18 8 24 4 17 -10 -8 -35 -36 -35 -45 0 -67 47 -44 91 12 22 59
26 78 7z m72 -43 c0 -42 -3 -55 -15 -55 -12 0 -15 13 -15 55 0 42 3 55 15 55
12 0 15 -13 15 -55z m-2330 -177 c0 -25 3 -29 12 -20 7 7 20 12 30 12 16 0 16
-3 6 -19 -10 -16 -9 -27 5 -55 14 -31 15 -36 2 -36 -8 0 -20 9 -27 20 -7 11
-16 20 -20 20 -5 0 -8 -9 -8 -20 0 -11 -7 -20 -15 -20 -12 0 -15 15 -15 75 0
60 3 75 15 75 10 0 15 -10 15 -32z m1300 12 c0 -16 7 -20 35 -20 l35 0 0 -55
c0 -30 -4 -55 -10 -55 -5 0 -10 10 -10 23 0 37 -12 67 -25 67 -14 0 -25 -30
-25 -68 0 -14 -5 -22 -12 -20 -9 3 -14 30 -16 76 -2 60 0 72 13 72 8 0 15 -9
15 -20z m390 10 c0 -5 -7 -10 -15 -10 -8 0 -15 5 -15 10 0 6 7 10 15 10 8 0
15 -4 15 -10z m248 -62 l-3 -72 -42 -3 c-46 -3 -63 13 -63 59 0 32 18 48 52
48 21 0 28 5 28 20 0 11 7 20 15 20 13 0 15 -12 13 -72z m302 53 c0 -15 8 -21
33 -23 31 -3 32 -4 35 -55 2 -42 0 -53 -12 -53 -10 0 -16 13 -18 43 -2 29 -8
42 -18 42 -10 0 -16 -13 -18 -42 -2 -29 -8 -43 -18 -43 -11 0 -14 16 -14 75 0
60 3 75 15 75 8 0 15 -9 15 -19z m-2411 -68 c-2 -79 -10 -98 -48 -101 -31 -3
-61 11 -61 29 0 5 12 4 26 -1 34 -13 41 -13 48 5 4 12 0 14 -18 9 -30 -7 -56
18 -56 55 0 38 17 51 67 51 l43 0 -1 -47z m99 35 c7 -7 12 -20 12 -30 0 -13
-8 -18 -30 -18 -29 0 -38 -9 -23 -23 3 -4 12 -2 19 4 7 6 18 8 24 4 17 -10 -8
-35 -36 -35 -45 0 -67 47 -44 91 12 22 59 26 78 7z m250 0 c30 -30 1 -98 -41
-98 -29 0 -57 29 -57 60 0 34 17 50 55 50 17 0 36 -5 43 -12z m190 -45 c2 -43
0 -53 -12 -53 -12 0 -16 11 -16 46 0 59 -24 55 -28 -4 -4 -58 -30 -57 -34 1
-2 29 -8 42 -18 42 -10 0 -16 -13 -18 -42 -2 -29 -8 -43 -18 -43 -10 0 -14 14
-14 55 l0 55 78 -2 77 -3 3 -52z m190 0 c2 -43 0 -53 -12 -53 -12 0 -16 10
-16 39 0 42 -16 63 -31 40 -5 -8 -9 -29 -9 -46 0 -23 -5 -33 -15 -33 -11 0
-15 12 -15 46 0 59 -24 55 -28 -4 -2 -29 -8 -42 -18 -42 -10 0 -14 14 -14 55
l0 55 78 -3 77 -2 3 -52z m112 38 c17 -32 12 -41 -25 -41 -19 0 -35 -5 -35
-11 0 -7 11 -9 30 -5 22 4 30 2 30 -9 0 -19 -48 -31 -69 -18 -20 12 -27 69
-10 89 17 21 66 18 79 -5z m130 -36 c0 -30 -4 -55 -10 -55 -5 0 -10 10 -10 23
0 37 -12 67 -25 67 -16 0 -25 -22 -25 -62 0 -52 -25 -26 -28 30 l-3 52 50 0
51 0 0 -55z m180 24 l13 -31 13 31 c7 17 20 31 28 31 14 0 13 -7 -4 -50 -11
-28 -20 -53 -20 -55 0 -3 -7 -5 -15 -5 -13 0 -32 33 -49 88 -12 35 20 27 34
-9z m178 19 c30 -30 1 -98 -41 -98 -29 0 -57 29 -57 60 0 34 17 50 55 50 17 0
36 -5 43 -12z m102 -5 c0 -9 -3 -13 -7 -10 -13 13 -33 -16 -33 -49 0 -24 -5
-34 -15 -34 -12 0 -15 13 -15 55 l0 55 35 0 c26 0 35 -4 35 -17z m230 -2 c17
-32 12 -41 -25 -41 -19 0 -35 -5 -35 -11 0 -7 11 -9 30 -5 22 4 30 2 30 -9 0
-19 -48 -31 -69 -18 -20 12 -27 69 -10 89 17 21 66 18 79 -5z m98 7 c-3 -7
-11 -13 -19 -13 -9 0 -15 -14 -17 -42 -2 -29 -8 -43 -18 -43 -10 0 -14 14 -14
55 l0 55 36 0 c24 0 34 -4 32 -12z m100 -60 c-3 -67 -5 -73 -25 -76 -16 -2
-23 2 -23 12 0 9 5 16 10 16 6 0 10 27 10 60 0 47 3 60 15 60 13 0 15 -13 13
-72z m110 60 c7 -7 12 -20 12 -30 0 -13 -8 -18 -30 -18 -29 0 -38 -9 -23 -23
3 -4 12 -2 19 4 7 6 18 8 24 4 17 -10 -8 -35 -36 -35 -45 0 -67 47 -44 91 12
22 59 26 78 7z m260 0 c30 -30 1 -98 -41 -98 -29 0 -57 29 -57 60 0 34 17 50
55 50 17 0 36 -5 43 -12z m120 -7 c3 -10 -2 -12 -21 -8 -29 8 -51 -12 -41 -37
5 -13 14 -15 40 -10 29 5 33 4 28 -10 -7 -18 -46 -31 -69 -22 -25 9 -38 48
-26 79 10 25 15 28 48 25 20 -2 39 -9 41 -17z m-1318 -75 c0 -21 -11 -46 -20
-46 -4 0 -7 14 -8 30 0 20 4 30 14 30 8 0 14 -6 14 -14z m-1110 -116 c0 -16 7
-20 35 -20 l35 0 0 -55 c0 -30 -4 -55 -10 -55 -5 0 -10 10 -10 23 0 37 -12 67
-25 67 -14 0 -25 -30 -25 -68 0 -14 -5 -22 -12 -20 -9 3 -14 30 -16 76 -2 60
0 72 13 72 8 0 15 -9 15 -20z m250 1 c0 -15 8 -21 32 -23 25 -2 33 -9 39 -30
12 -45 -10 -73 -59 -75 l-42 -2 0 75 c0 59 3 74 15 74 8 0 15 -9 15 -19z m590
9 c0 -5 -7 -10 -15 -10 -8 0 -15 5 -15 10 0 6 7 10 15 10 8 0 15 -4 15 -10z
m708 -62 l-3 -72 -40 -3 c-48 -3 -65 10 -65 51 0 39 15 56 52 56 21 0 28 5 28
20 0 11 7 20 15 20 13 0 15 -12 13 -72z m52 62 c0 -5 -7 -10 -15 -10 -8 0 -15
5 -15 10 0 6 7 10 15 10 8 0 15 -4 15 -10z m310 -3 c0 -7 -16 -32 -35 -54 -19
-23 -35 -44 -35 -47 0 -3 16 -6 35 -6 24 0 35 -5 35 -15 0 -12 -13 -15 -60
-15 -73 0 -76 12 -25 74 19 24 35 46 35 50 0 3 -13 6 -30 6 -16 0 -30 5 -30
10 0 6 25 10 55 10 39 0 55 -4 55 -13z m170 3 c0 -5 -7 -10 -15 -10 -8 0 -15
5 -15 10 0 6 7 10 15 10 8 0 15 -4 15 -10z m74 -33 c8 -6 8 -10 -1 -14 -15 -6
-18 -63 -3 -63 6 0 10 -7 10 -15 0 -16 -35 -21 -44 -6 -3 4 -7 34 -8 65 -2 41
2 60 12 66 11 7 16 5 19 -8 2 -9 8 -21 15 -25z m-1966 -53 l3 -52 -40 0 c-67
-1 -84 52 -21 64 16 4 30 11 30 16 0 5 -13 7 -30 3 -16 -4 -30 -2 -30 3 0 17
14 23 50 20 35 -3 35 -3 38 -54z m242 37 c17 -32 12 -41 -25 -41 -19 0 -35 -5
-35 -11 0 -7 11 -9 30 -5 22 4 30 2 30 -9 0 -19 -48 -31 -69 -18 -20 12 -27
69 -10 89 17 21 66 18 79 -5z m130 -36 c0 -30 -4 -55 -10 -55 -5 0 -10 10 -10
23 0 37 -12 67 -25 67 -16 0 -25 -22 -25 -62 0 -52 -25 -26 -28 30 l-3 52 50
0 51 0 0 -55z m115 28 l7 -28 10 28 c12 33 41 33 46 -1 2 -12 7 -22 12 -22 5
0 10 10 12 22 2 13 10 24 19 26 15 3 15 -1 0 -52 -11 -40 -21 -56 -33 -56 -11
0 -18 8 -18 19 0 30 -17 34 -24 6 -10 -39 -33 -29 -50 22 -20 57 -20 63 -2 63
8 0 17 -12 21 -27z m165 -29 c0 -73 -24 -70 -28 4 -2 42 0 52 12 52 13 0 16
-12 16 -56z m98 44 c-3 -7 -11 -13 -19 -13 -9 0 -15 -14 -17 -42 -2 -29 -8
-43 -18 -43 -10 0 -14 14 -14 55 l0 55 36 0 c24 0 34 -4 32 -12z m102 -26 c0
-21 3 -42 7 -45 13 -13 33 16 33 49 0 24 5 34 15 34 11 0 15 -13 15 -54 l0
-55 -47 2 -48 2 -3 53 c-2 42 0 52 12 52 12 0 16 -10 16 -38z m198 -19 c2 -42
0 -53 -12 -53 -10 0 -16 13 -18 43 -2 29 -8 42 -18 42 -10 0 -16 -13 -18 -42
-2 -29 -8 -43 -18 -43 -10 0 -14 14 -14 56 l0 55 48 -3 47 -3 3 -52z m116 41
c5 -13 1 -14 -24 -9 -39 9 -39 -3 0 -16 49 -18 34 -69 -21 -69 -27 0 -57 25
-45 37 4 4 16 1 28 -6 14 -9 24 -9 31 -2 7 7 2 12 -16 16 -33 9 -49 28 -41 49
8 22 79 22 88 0z m246 -39 c0 -42 -3 -55 -15 -55 -12 0 -15 13 -15 55 0 42 3
55 15 55 12 0 15 -13 15 -55z m108 43 c7 -7 12 -20 12 -30 0 -13 -8 -18 -30
-18 -29 0 -38 -9 -23 -23 3 -4 12 -2 19 4 7 6 18 8 24 4 17 -10 -8 -35 -36
-35 -45 0 -67 47 -44 91 12 22 59 26 78 7z m312 -7 c17 -32 12 -41 -25 -41
-19 0 -35 -5 -35 -11 0 -7 11 -9 30 -5 22 4 30 2 30 -9 0 -19 -48 -31 -69 -18
-20 12 -27 69 -10 89 17 21 66 18 79 -5z m60 -36 c0 -42 -3 -55 -15 -55 -12 0
-15 13 -15 55 0 42 3 55 15 55 12 0 15 -13 15 -55z m-571 -144 c11 -7 10 -11
-5 -20 -17 -9 -17 -12 -4 -22 11 -8 12 -12 3 -16 -8 -3 -13 -23 -13 -49 0 -32
-4 -44 -15 -44 -11 0 -15 12 -15 44 0 26 -5 47 -12 50 -10 5 -10 7 0 12 6 3
12 14 12 24 0 16 11 27 30 29 3 0 11 -3 19 -8z m179 -73 l-3 -72 -40 -3 c-48
-3 -65 10 -65 51 0 39 15 56 52 56 21 0 28 5 28 20 0 11 7 20 15 20 13 0 15
-12 13 -72z m-1609 -15 c-2 -79 -10 -98 -48 -101 -31 -3 -61 11 -61 29 0 5 12
4 26 -1 34 -13 41 -13 48 5 4 12 0 14 -18 9 -30 -7 -56 18 -56 55 0 38 17 51
67 51 l43 0 -1 -47z m99 35 c7 -7 12 -20 12 -30 0 -13 -8 -18 -30 -18 -29 0
-38 -9 -23 -23 3 -4 12 -2 19 4 7 6 18 8 24 4 17 -10 -8 -35 -36 -35 -45 0
-67 47 -44 91 12 22 59 26 78 7z m140 -45 c2 -42 0 -53 -12 -53 -10 0 -16 13
-18 43 -2 29 -8 42 -18 42 -10 0 -16 -13 -18 -42 -2 -29 -8 -43 -18 -43 -10 0
-14 14 -14 56 l0 55 48 -3 47 -3 3 -52z m120 45 c30 -30 1 -98 -41 -98 -29 0
-57 29 -57 60 0 34 17 50 55 50 17 0 36 -5 43 -12z m190 -45 c2 -43 0 -53 -12
-53 -12 0 -16 11 -16 46 0 59 -24 55 -28 -4 -4 -58 -30 -57 -34 1 -2 29 -8 42
-18 42 -10 0 -16 -13 -18 -42 -2 -29 -8 -43 -18 -43 -10 0 -14 14 -14 55 l0
55 78 -2 77 -3 3 -52z m190 0 c2 -43 0 -53 -12 -53 -12 0 -16 10 -16 39 0 42
-16 63 -31 40 -5 -8 -9 -29 -9 -46 0 -23 -5 -33 -15 -33 -11 0 -15 12 -15 46
0 59 -24 55 -28 -4 -2 -29 -8 -42 -18 -42 -10 0 -14 14 -14 55 l0 55 78 -3 77
-2 3 -52z m110 45 c7 -7 12 -20 12 -30 0 -13 -8 -18 -30 -18 -29 0 -38 -9 -23
-23 3 -4 12 -2 19 4 7 6 18 8 24 4 17 -10 -8 -35 -36 -35 -45 0 -67 47 -44 91
12 22 59 26 78 7z m132 -43 c0 -30 -4 -55 -10 -55 -5 0 -10 10 -10 23 0 37
-12 67 -25 67 -16 0 -25 -22 -25 -62 0 -52 -25 -26 -28 30 l-3 52 50 0 51 0 0
-55z m238 -1 l3 -52 -38 0 c-69 0 -86 39 -28 64 43 18 46 28 5 19 -16 -4 -30
-2 -30 3 0 17 14 23 50 20 35 -3 35 -3 38 -54z m54 19 c2 -27 8 -39 21 -41 14
-3 17 4 17 37 0 30 4 41 15 41 11 0 15 -13 15 -53 l0 -53 -40 -1 c-35 -2 -42
2 -50 23 -15 39 -12 84 4 84 10 0 16 -13 18 -37z m436 25 c7 -7 12 -20 12 -30
0 -13 -8 -18 -30 -18 -29 0 -38 -9 -23 -23 3 -4 12 -2 19 4 7 6 18 8 24 4 17
-10 -8 -35 -36 -35 -45 0 -67 47 -44 91 12 22 59 26 78 7z m140 -45 c2 -42 0
-53 -12 -53 -10 0 -16 13 -18 43 -2 29 -8 42 -18 42 -10 0 -16 -13 -18 -42 -2
-29 -8 -43 -18 -43 -10 0 -14 14 -14 56 l0 55 48 -3 47 -3 3 -52z m-810 -50
c-4 -37 -25 -40 -26 -3 0 20 4 30 14 30 11 0 14 -8 12 -27z m252 -98 c0 -8 -7
-15 -15 -15 -16 0 -20 12 -8 23 11 12 23 8 23 -8z m40 0 c0 -8 -4 -15 -10 -15
-5 0 -10 7 -10 15 0 8 5 15 10 15 6 0 10 -7 10 -15z m-1405 -40 l12 -40 12 43
c9 31 17 42 31 42 14 0 22 -11 31 -42 10 -36 13 -40 20 -23 4 11 8 30 8 43 1
15 7 22 20 22 18 0 18 -3 2 -72 -21 -91 -44 -104 -63 -34 -7 25 -15 46 -19 46
-4 0 -12 -21 -18 -46 -15 -60 -40 -57 -56 6 -27 107 -27 102 -9 98 10 -2 22
-20 29 -43z m305 35 c0 -5 -7 -10 -15 -10 -8 0 -15 5 -15 10 0 6 7 10 15 10 8
0 15 -4 15 -10z m60 -9 c0 -15 8 -21 33 -23 31 -3 32 -4 35 -55 2 -42 0 -53
-12 -53 -10 0 -16 13 -18 43 -2 29 -8 42 -18 42 -10 0 -16 -13 -18 -42 -2 -29
-8 -43 -18 -43 -11 0 -14 16 -14 75 0 60 3 75 15 75 8 0 15 -9 15 -19z m490 0
c0 -15 8 -21 33 -23 31 -3 32 -4 35 -55 2 -42 0 -53 -12 -53 -10 0 -16 13 -18
43 -2 29 -8 42 -18 42 -10 0 -16 -13 -18 -42 -2 -29 -8 -43 -18 -43 -11 0 -14
16 -14 75 0 60 3 75 15 75 8 0 15 -9 15 -19z m144 -24 c8 -6 8 -10 -1 -14 -15
-6 -18 -63 -3 -63 6 0 10 -7 10 -15 0 -16 -35 -21 -44 -6 -3 4 -7 34 -8 65 -2
41 2 60 12 66 11 7 16 5 19 -8 2 -9 8 -21 15 -25z m556 11 c0 -25 3 -29 12
-20 7 7 20 12 30 12 16 0 16 -3 6 -19 -10 -16 -9 -27 5 -55 14 -31 15 -36 2
-36 -8 0 -20 9 -27 20 -7 11 -16 20 -20 20 -5 0 -8 -9 -8 -20 0 -11 -7 -20
-15 -20 -12 0 -15 15 -15 75 0 60 3 75 15 75 10 0 15 -10 15 -32z m-1310 -27
c17 -32 12 -41 -25 -41 -19 0 -35 -5 -35 -11 0 -7 11 -9 30 -5 22 4 30 2 30
-9 0 -19 -48 -31 -69 -18 -20 12 -27 69 -10 89 17 21 66 18 79 -5z m60 -37 c0
-73 -24 -70 -28 4 -2 42 0 52 12 52 13 0 16 -12 16 -56z m258 -1 c2 -42 0 -53
-12 -53 -10 0 -16 13 -18 43 -2 29 -8 42 -18 42 -10 0 -16 -13 -18 -42 -2 -29
-8 -43 -18 -43 -10 0 -14 14 -14 56 l0 55 48 -3 47 -3 3 -52z m120 1 l3 -52
-40 0 c-67 -1 -84 52 -21 64 16 4 30 11 30 16 0 5 -13 7 -30 3 -16 -4 -30 -2
-30 3 0 17 14 23 50 20 35 -3 35 -3 38 -54z m115 42 c7 -18 -17 -28 -32 -13
-15 15 -34 -4 -29 -29 3 -15 11 -18 36 -16 34 2 40 -6 20 -26 -17 -17 -54 -15
-72 4 -19 18 -21 65 -4 82 17 17 75 15 81 -2z m311 -2 c5 -13 1 -14 -24 -9
-39 9 -39 -3 0 -16 49 -18 34 -69 -21 -69 -27 0 -57 25 -45 37 4 4 16 1 28 -6
14 -9 24 -9 31 -2 7 7 2 12 -16 16 -33 9 -49 28 -41 49 8 22 79 22 88 0z m184
-41 c2 -43 0 -53 -12 -53 -12 0 -16 11 -16 46 0 59 -24 55 -28 -4 -4 -58 -30
-57 -34 1 -2 29 -8 42 -18 42 -10 0 -16 -13 -18 -42 -2 -29 -8 -43 -18 -43
-10 0 -14 14 -14 55 l0 55 78 -2 77 -3 3 -52z m116 45 c3 -7 7 -32 9 -55 l5
-42 -47 2 c-40 2 -46 5 -49 25 -3 18 3 26 27 35 40 15 40 31 1 22 -28 -6 -39
3 -23 18 11 12 73 7 77 -5z m104 0 c-3 -7 -11 -13 -19 -13 -9 0 -15 -14 -17
-42 -2 -29 -8 -43 -18 -43 -10 0 -14 14 -14 55 l0 55 36 0 c24 0 34 -4 32 -12z
m210 0 c7 -7 12 -20 12 -30 0 -13 -8 -18 -30 -18 -29 0 -38 -9 -23 -23 3 -4
12 -2 19 4 7 6 18 8 24 4 17 -10 -8 -35 -36 -35 -45 0 -67 47 -44 91 12 22 59
26 78 7z m132 -43 c0 -30 -4 -55 -10 -55 -5 0 -10 10 -10 23 0 37 -12 67 -25
67 -16 0 -25 -22 -25 -62 0 -52 -25 -26 -28 30 l-3 52 50 0 51 0 0 -55z
m-1250 -140 c0 -8 -4 -15 -10 -15 -5 0 -10 7 -10 15 0 8 5 15 10 15 6 0 10 -7
10 -15z m50 0 c0 -8 -7 -15 -15 -15 -8 0 -15 7 -15 15 0 8 7 15 15 15 8 0 15
-7 15 -15z m-540 -14 c0 -15 8 -21 32 -23 25 -2 33 -9 39 -30 12 -45 -10 -73
-59 -75 l-42 -2 0 75 c0 59 3 74 15 74 8 0 15 -9 15 -19z m360 0 c0 -15 8 -21
33 -23 31 -3 32 -4 35 -55 2 -42 0 -53 -12 -53 -10 0 -16 13 -18 43 -2 29 -8
42 -18 42 -10 0 -16 -13 -18 -42 -2 -29 -8 -43 -18 -43 -11 0 -14 16 -14 75 0
60 3 75 15 75 8 0 15 -9 15 -19z m1190 -55 l0 -75 -42 2 c-34 2 -45 7 -56 27
-21 39 -2 80 38 80 23 0 30 4 30 20 0 11 7 20 15 20 12 0 15 -15 15 -74z m300
64 c0 -5 -7 -10 -15 -10 -8 0 -15 5 -15 10 0 6 7 10 15 10 8 0 15 -4 15 -10z
m74 -33 c8 -6 8 -10 -1 -14 -15 -6 -18 -63 -3 -63 6 0 10 -7 10 -15 0 -16 -35
-21 -44 -6 -3 4 -7 34 -8 65 -2 41 2 60 12 66 11 7 16 5 19 -8 2 -9 8 -21 15
-25z m186 33 c0 -5 -16 -10 -35 -10 -28 0 -35 -4 -35 -20 0 -16 7 -20 30 -20
38 0 40 -18 3 -22 -23 -2 -29 -8 -31 -35 -2 -21 -9 -33 -18 -33 -11 0 -14 16
-14 75 l0 75 50 0 c28 0 50 -4 50 -10z m588 -62 l-3 -72 -40 -3 c-48 -3 -65
10 -65 51 0 39 15 56 52 56 21 0 28 5 28 20 0 11 7 20 15 20 13 0 15 -12 13
-72z m-2764 20 c3 -7 7 -32 9 -55 l5 -42 -47 2 c-40 2 -46 5 -49 25 -3 18 3
26 27 35 40 15 40 31 1 22 -28 -6 -39 3 -23 18 11 12 73 7 77 -5z m246 -1 c0
-8 -9 -22 -20 -32 -27 -24 -25 -35 5 -35 16 0 25 -6 25 -15 0 -11 -12 -15 -50
-15 -42 0 -50 3 -50 18 0 11 9 27 20 37 11 10 20 22 20 27 0 4 -9 8 -20 8 -11
0 -20 5 -20 10 0 6 20 10 45 10 31 0 45 -4 45 -13z m52 -24 c2 -27 8 -39 21
-41 14 -3 17 4 17 37 0 30 4 41 15 41 11 0 15 -13 15 -53 l0 -53 -40 -1 c-46
-2 -60 14 -60 71 0 51 28 49 32 -1z m316 -19 l3 -52 -40 0 c-67 -1 -84 52 -21
64 16 4 30 11 30 16 0 5 -13 7 -30 3 -16 -4 -30 -2 -30 3 0 17 14 23 50 20 35
-3 35 -3 38 -54z m122 1 c0 -30 -4 -55 -10 -55 -5 0 -10 10 -10 23 0 37 -12
67 -25 67 -16 0 -25 -22 -25 -62 0 -52 -25 -26 -28 30 l-3 52 50 0 51 0 0 -55z
m139 8 c-2 -79 -10 -98 -48 -101 -31 -3 -61 11 -61 29 0 5 12 4 26 -1 34 -13
41 -13 48 5 4 12 0 14 -18 9 -30 -7 -56 18 -56 55 0 38 17 51 67 51 l43 0 -1
-47z m99 35 c7 -7 12 -20 12 -30 0 -13 -8 -18 -30 -18 -29 0 -38 -9 -23 -23 3
-4 12 -2 19 4 7 6 18 8 24 4 17 -10 -8 -35 -36 -35 -45 0 -67 47 -44 91 12 22
59 26 78 7z m140 -45 c2 -42 0 -53 -12 -53 -10 0 -16 13 -18 43 -2 29 -8 42
-18 42 -10 0 -16 -13 -18 -42 -2 -29 -8 -43 -18 -43 -10 0 -14 14 -14 56 l0
55 48 -3 47 -3 3 -52z m174 20 c2 -27 8 -39 21 -41 14 -3 17 4 17 37 0 30 4
41 15 41 11 0 15 -13 15 -53 l0 -53 -40 -1 c-35 -2 -42 2 -50 23 -15 39 -12
84 4 84 10 0 16 -13 18 -37z m198 -18 c0 -30 -4 -55 -10 -55 -5 0 -10 10 -10
23 0 37 -12 67 -25 67 -16 0 -25 -22 -25 -62 0 -52 -25 -26 -28 30 l-3 52 50
0 51 0 0 -55z m368 -2 c2 -43 0 -53 -12 -53 -12 0 -16 11 -16 46 0 59 -24 55
-28 -4 -4 -58 -30 -57 -34 1 -2 29 -8 42 -18 42 -10 0 -16 -13 -18 -42 -2 -29
-8 -43 -18 -43 -10 0 -14 14 -14 55 l0 55 78 -2 77 -3 3 -52z m62 1 c0 -73
-24 -70 -28 4 -2 42 0 52 12 52 13 0 16 -12 16 -56z m358 44 c-3 -7 -11 -13
-19 -13 -9 0 -15 -14 -17 -42 -2 -29 -8 -43 -18 -43 -10 0 -14 14 -14 55 l0
55 36 0 c24 0 34 -4 32 -12z m90 0 c7 -7 12 -20 12 -30 0 -13 -8 -18 -30 -18
-29 0 -38 -9 -23 -23 3 -4 12 -2 19 4 7 6 18 8 24 4 17 -10 -8 -35 -36 -35
-45 0 -67 47 -44 91 12 22 59 26 78 7z m72 -26 c0 -21 3 -42 7 -45 13 -13 33
16 33 49 0 24 5 34 15 34 11 0 15 -13 15 -54 l0 -55 -47 2 -48 2 -3 53 c-2 42
0 52 12 52 12 0 16 -10 16 -38z m190 -17 c0 -30 -4 -55 -10 -55 -5 0 -10 10
-10 23 0 37 -12 67 -25 67 -16 0 -25 -22 -25 -62 0 -52 -25 -26 -28 30 l-3 52
50 0 51 0 0 -55z m238 43 c7 -7 12 -20 12 -30 0 -13 -8 -18 -30 -18 -29 0 -38
-9 -23 -23 3 -4 12 -2 19 4 7 6 18 8 24 4 17 -10 -8 -35 -36 -35 -45 0 -67 47
-44 91 12 22 59 26 78 7z m140 -45 c2 -42 0 -53 -12 -53 -10 0 -16 13 -18 43
-2 29 -8 42 -18 42 -10 0 -16 -13 -18 -42 -2 -29 -8 -43 -18 -43 -10 0 -14 14
-14 56 l0 55 48 -3 47 -3 3 -52z m-1828 -37 c0 -21 -11 -46 -20 -46 -4 0 -7
14 -8 30 0 20 4 30 14 30 8 0 14 -6 14 -14z m-72 -125 c11 -13 10 -17 -3 -19
-9 -2 -22 2 -30 8 -20 17 -54 3 -61 -25 -9 -36 12 -67 43 -63 32 4 44 28 14
28 -12 0 -21 5 -21 10 0 6 16 10 35 10 32 0 35 -2 35 -30 0 -32 -26 -50 -71
-50 -29 0 -69 44 -69 77 0 71 86 107 128 54z m402 14 c0 -8 -7 -15 -15 -15
-16 0 -20 12 -8 23 11 12 23 8 23 -8z m40 0 c0 -8 -4 -15 -10 -15 -5 0 -10 7
-10 15 0 8 5 15 10 15 6 0 10 -7 10 -15z m1239 6 c11 -7 10 -11 -5 -20 -17 -9
-17 -12 -4 -22 11 -8 12 -12 3 -16 -8 -3 -13 -23 -13 -49 0 -32 -4 -44 -15
-44 -11 0 -15 12 -15 44 0 26 -5 47 -12 50 -10 5 -10 7 0 12 6 3 12 14 12 24
0 16 11 27 30 29 3 0 11 -3 19 -8z m-2761 -73 l-3 -72 -40 -3 c-48 -3 -65 10
-65 51 0 39 15 56 52 56 21 0 28 5 28 20 0 11 7 20 15 20 13 0 15 -12 13 -72z
m382 53 c0 -15 8 -21 33 -23 31 -3 32 -4 35 -55 2 -42 0 -53 -12 -53 -10 0
-16 13 -18 43 -2 29 -8 42 -18 42 -10 0 -16 -13 -18 -42 -2 -29 -8 -43 -18
-43 -11 0 -14 16 -14 75 0 60 3 75 15 75 8 0 15 -9 15 -19z m258 -53 l-3 -72
-40 -3 c-48 -3 -65 10 -65 51 0 39 15 56 52 56 21 0 28 5 28 20 0 11 7 20 15
20 13 0 15 -12 13 -72z m700 0 l-3 -72 -40 -3 c-48 -3 -65 10 -65 51 0 39 15
56 52 56 21 0 28 5 28 20 0 11 7 20 15 20 13 0 15 -12 13 -72z m622 -4 c0 -56
-3 -75 -12 -72 -9 3 -14 30 -16 76 -2 60 0 72 13 72 12 0 15 -14 15 -76z m470
1 c0 -60 -3 -75 -15 -75 -12 0 -15 15 -15 75 0 60 3 75 15 75 12 0 15 -15 15
-75z m-2380 -3 c0 -21 3 -42 7 -45 13 -13 33 16 33 49 0 24 5 34 15 34 11 0
15 -13 15 -54 l0 -55 -47 2 -48 2 -3 53 c-2 42 0 52 12 52 12 0 16 -10 16 -38z
m168 26 c-3 -7 -11 -13 -19 -13 -9 0 -15 -14 -17 -42 -2 -29 -8 -43 -18 -43
-10 0 -14 14 -14 55 l0 55 36 0 c24 0 34 -4 32 -12z m100 -7 c3 -10 -2 -12
-21 -8 -29 8 -51 -12 -41 -37 5 -13 14 -15 40 -10 29 5 33 4 28 -10 -7 -18
-46 -31 -69 -22 -25 9 -38 48 -26 79 10 25 15 28 48 25 20 -2 39 -9 41 -17z
m430 -37 l3 -52 -40 0 c-67 -1 -84 52 -21 64 16 4 30 11 30 16 0 5 -13 7 -30
3 -16 -4 -30 -2 -30 3 0 17 14 23 50 20 35 -3 35 -3 38 -54z m116 40 c5 -13 1
-14 -24 -9 -39 9 -39 -3 0 -16 49 -18 34 -69 -21 -69 -27 0 -57 25 -45 37 4 4
16 1 28 -6 14 -9 24 -9 31 -2 7 7 2 12 -16 16 -33 9 -49 28 -41 49 8 22 79 22
88 0z m334 4 c7 -7 12 -20 12 -30 0 -13 -8 -18 -30 -18 -29 0 -38 -9 -23 -23
3 -4 12 -2 19 4 7 6 18 8 24 4 17 -10 -8 -35 -36 -35 -45 0 -67 47 -44 91 12
22 59 26 78 7z m232 -5 c0 -9 -3 -13 -7 -10 -13 13 -33 -16 -33 -49 0 -24 -5
-34 -15 -34 -12 0 -15 13 -15 55 l0 55 35 0 c26 0 35 -4 35 -17z m94 5 c3 -7
7 -32 9 -55 l5 -42 -47 2 c-40 2 -46 5 -49 25 -3 18 3 26 27 35 40 15 40 31 1
22 -28 -6 -39 3 -23 18 11 12 73 7 77 -5z m134 -45 c2 -42 0 -53 -12 -53 -10
0 -16 13 -18 43 -2 29 -8 42 -18 42 -10 0 -16 -13 -18 -42 -2 -29 -8 -43 -18
-43 -10 0 -14 14 -14 56 l0 55 48 -3 47 -3 3 -52z m132 -7 c0 -73 -12 -89 -62
-84 -22 2 -34 9 -36 21 -3 15 0 16 23 7 28 -11 45 -6 45 12 0 5 -7 7 -16 4
-20 -8 -51 9 -59 33 -3 10 -1 30 4 45 9 23 16 26 56 26 l45 0 0 -64z m108 52
c7 -7 12 -20 12 -30 0 -13 -8 -18 -30 -18 -29 0 -38 -9 -23 -23 3 -4 12 -2 19
4 7 6 18 8 24 4 17 -10 -8 -35 -36 -35 -45 0 -67 47 -44 91 12 22 59 26 78 7z
m292 -1 c0 -8 -9 -22 -20 -32 -27 -24 -25 -35 5 -35 16 0 25 -6 25 -15 0 -11
-12 -15 -50 -15 -42 0 -50 3 -50 18 0 11 9 27 20 37 11 10 20 22 20 27 0 4 -9
8 -20 8 -11 0 -20 5 -20 10 0 6 20 10 45 10 31 0 45 -4 45 -13z m52 -24 c2
-27 8 -39 21 -41 14 -3 17 4 17 37 0 30 4 41 15 41 11 0 15 -13 15 -53 l0 -53
-40 -1 c-35 -2 -42 2 -50 23 -15 39 -12 84 4 84 10 0 16 -13 18 -37z m306 -19
l3 -52 -40 0 c-67 -1 -84 52 -21 64 16 4 30 11 30 16 0 5 -13 7 -30 3 -16 -4
-30 -2 -30 3 0 17 14 23 50 20 35 -3 35 -3 38 -54z m54 19 c2 -27 8 -39 21
-41 14 -3 17 4 17 37 0 30 4 41 15 41 11 0 15 -13 15 -53 l0 -53 -40 -1 c-35
-2 -42 2 -50 23 -15 39 -12 84 4 84 10 0 16 -13 18 -37z m258 18 c17 -32 12
-41 -25 -41 -19 0 -35 -5 -35 -11 0 -7 11 -9 30 -5 22 4 30 2 30 -9 0 -19 -48
-31 -69 -18 -20 12 -27 69 -10 89 17 21 66 18 79 -5z m128 -38 c2 -42 0 -53
-12 -53 -10 0 -16 13 -18 43 -2 29 -8 42 -18 42 -10 0 -16 -13 -18 -42 -2 -29
-8 -43 -18 -43 -10 0 -14 14 -14 56 l0 55 48 -3 47 -3 3 -52z m-970 -50 c-4
-37 -25 -40 -26 -3 0 20 4 30 14 30 11 0 14 -8 12 -27z m-1130 -112 c11 -13
10 -17 -3 -19 -9 -2 -22 2 -30 8 -20 17 -54 3 -61 -25 -9 -36 12 -67 43 -63
32 4 44 28 14 28 -12 0 -21 5 -21 10 0 6 16 10 35 10 32 0 35 -2 35 -30 0 -32
-26 -50 -71 -50 -29 0 -69 44 -69 77 0 71 86 107 128 54z m142 14 c0 -8 -7
-15 -15 -15 -16 0 -20 12 -8 23 11 12 23 8 23 -8z m40 0 c0 -8 -4 -15 -10 -15
-5 0 -10 7 -10 15 0 8 5 15 10 15 6 0 10 -7 10 -15z m1323 1 c8 -9 12 -26 10
-40 -3 -13 2 -35 10 -47 20 -28 5 -62 -25 -57 -25 4 -37 28 -14 28 20 0 21 14
1 30 -9 8 -12 22 -8 41 3 18 1 29 -6 29 -7 0 -11 -24 -11 -65 0 -51 -3 -65
-15 -65 -12 0 -15 14 -15 70 0 64 2 72 23 80 31 12 34 12 50 -4z m-2143 -70
l0 -75 -42 2 c-34 2 -45 7 -56 27 -21 39 -2 80 38 80 23 0 30 4 30 20 0 11 7
20 15 20 12 0 15 -15 15 -74z m188 2 l-3 -72 -40 -3 c-48 -3 -65 10 -65 51 0
39 15 56 52 56 21 0 28 5 28 20 0 11 7 20 15 20 13 0 15 -12 13 -72z m522 -3
c0 -60 -3 -75 -15 -75 -12 0 -15 15 -15 75 0 60 3 75 15 75 12 0 15 -15 15
-75z m180 55 c0 -16 7 -20 35 -20 l35 0 0 -55 c0 -30 -4 -55 -10 -55 -5 0 -10
10 -10 23 0 37 -12 67 -25 67 -14 0 -25 -30 -25 -68 0 -14 -5 -22 -12 -20 -9
3 -14 30 -16 76 -2 60 0 72 13 72 8 0 15 -9 15 -20z m410 10 c0 -5 -7 -10 -15
-10 -8 0 -15 5 -15 10 0 6 7 10 15 10 8 0 15 -4 15 -10z m620 0 c0 -5 -7 -10
-15 -10 -8 0 -15 5 -15 10 0 6 7 10 15 10 8 0 15 -4 15 -10z m-2248 -67 c2
-27 8 -39 21 -41 14 -3 17 4 17 37 0 30 4 41 15 41 11 0 15 -13 15 -53 l0 -53
-40 -1 c-35 -2 -42 2 -50 23 -15 39 -12 84 4 84 10 0 16 -13 18 -37z m196 -20
c2 -42 0 -53 -12 -53 -10 0 -16 13 -18 43 -2 29 -8 42 -18 42 -10 0 -16 -13
-18 -42 -2 -29 -8 -43 -18 -43 -10 0 -14 14 -14 56 l0 55 48 -3 47 -3 3 -52z
m432 38 c17 -32 12 -41 -25 -41 -19 0 -35 -5 -35 -11 0 -7 11 -9 30 -5 22 4
30 2 30 -9 0 -19 -48 -31 -69 -18 -20 12 -27 69 -10 89 17 21 66 18 79 -5z
m128 -38 c2 -42 0 -53 -12 -53 -10 0 -16 13 -18 43 -2 29 -8 42 -18 42 -10 0
-16 -13 -18 -42 -2 -29 -8 -43 -18 -43 -10 0 -14 14 -14 56 l0 55 48 -3 47 -3
3 -52z m342 19 c0 -21 3 -42 7 -45 13 -13 33 16 33 49 0 24 5 34 15 34 11 0
15 -13 15 -54 l0 -55 -47 2 -48 2 -3 53 c-2 42 0 52 12 52 12 0 16 -10 16 -38z
m248 11 l10 -28 11 28 c6 15 17 27 25 27 7 0 17 -12 21 -27 l8 -28 10 28 c6
15 17 27 24 27 17 0 16 -7 -3 -63 -18 -53 -38 -60 -52 -19 l-10 27 -11 -27
c-9 -25 -41 -40 -41 -20 0 4 -7 28 -15 55 -12 39 -12 47 0 47 7 0 18 -12 23
-27z m220 15 c7 -7 12 -20 12 -30 0 -13 -8 -18 -30 -18 -29 0 -38 -9 -23 -23
3 -4 12 -2 19 4 7 6 18 8 24 4 17 -10 -8 -35 -36 -35 -45 0 -67 47 -44 91 12
22 59 26 78 7z m62 -44 c0 -73 -24 -70 -28 4 -2 42 0 52 12 52 13 0 16 -12 16
-56z m130 1 c0 -30 -4 -55 -10 -55 -5 0 -10 10 -10 23 0 37 -12 67 -25 67 -16
0 -25 -22 -25 -62 0 -52 -25 -26 -28 30 l-3 52 50 0 51 0 0 -55z m190 -9 c0
-73 -12 -89 -62 -84 -22 2 -34 9 -36 21 -3 15 0 16 23 7 28 -11 45 -6 45 12 0
5 -7 7 -16 4 -20 -8 -51 9 -59 33 -3 10 -1 30 4 45 9 23 16 26 56 26 l45 0 0
-64z m108 52 c7 -7 12 -20 12 -30 0 -13 -8 -18 -30 -18 -29 0 -38 -9 -23 -23
3 -4 12 -2 19 4 7 6 18 8 24 4 17 -10 -8 -35 -36 -35 -45 0 -67 47 -44 91 12
22 59 26 78 7z m132 -43 c0 -30 -4 -55 -10 -55 -5 0 -10 10 -10 23 0 37 -12
67 -25 67 -16 0 -25 -22 -25 -62 0 -52 -25 -26 -28 30 l-3 52 50 0 51 0 0 -55z
m60 -1 c0 -73 -24 -70 -28 4 -2 42 0 52 12 52 13 0 16 -12 16 -56z m108 44 c7
-7 12 -20 12 -30 0 -13 -8 -18 -30 -18 -29 0 -38 -9 -23 -23 3 -4 12 -2 19 4
7 6 18 8 24 4 17 -10 -8 -35 -36 -35 -45 0 -67 47 -44 91 12 22 59 26 78 7z
m252 -7 c17 -32 12 -41 -25 -41 -19 0 -35 -5 -35 -11 0 -7 11 -9 30 -5 22 4
30 2 30 -9 0 -19 -48 -31 -69 -18 -20 12 -27 69 -10 89 17 21 66 18 79 -5z
m130 -36 c0 -30 -4 -55 -10 -55 -5 0 -10 10 -10 23 0 37 -12 67 -25 67 -16 0
-25 -22 -25 -62 0 -52 -25 -26 -28 30 l-3 52 50 0 51 0 0 -55z m58 -52 c-4
-37 -25 -40 -26 -3 0 20 4 30 14 30 11 0 14 -8 12 -27z m-2720 -165 l-3 -72
-40 -3 c-48 -3 -65 10 -65 51 0 39 15 56 52 56 21 0 28 5 28 20 0 11 7 20 15
20 13 0 15 -12 13 -72z m52 62 c0 -5 -7 -10 -15 -10 -8 0 -15 5 -15 10 0 6 7
10 15 10 8 0 15 -4 15 -10z m650 -66 c0 -56 -3 -75 -12 -72 -9 3 -14 30 -16
76 -2 60 0 72 13 72 12 0 15 -14 15 -76z m60 0 c0 -56 -3 -75 -12 -72 -9 3
-14 30 -16 76 -2 60 0 72 13 72 12 0 15 -14 15 -76z m190 2 l0 -75 -42 2 c-34
2 -45 7 -56 27 -21 39 -2 80 38 80 23 0 30 4 30 20 0 11 7 20 15 20 12 0 15
-15 15 -74z m-900 -21 c0 -42 -3 -55 -15 -55 -12 0 -15 13 -15 55 0 42 3 55
15 55 12 0 15 -13 15 -55z m108 43 c7 -7 12 -20 12 -30 0 -13 -8 -18 -30 -18
-29 0 -38 -9 -23 -23 3 -4 12 -2 19 4 7 6 18 8 24 4 17 -10 -8 -35 -36 -35
-45 0 -67 47 -44 91 12 22 59 26 78 7z m176 0 c3 -7 7 -32 9 -55 l5 -42 -47 2
c-40 2 -46 5 -49 25 -3 18 3 26 27 35 40 15 40 31 1 22 -28 -6 -39 3 -23 18
11 12 73 7 77 -5z m134 -45 c2 -42 0 -53 -12 -53 -10 0 -16 13 -18 43 -2 29
-8 42 -18 42 -10 0 -16 -13 -18 -42 -2 -29 -8 -43 -18 -43 -10 0 -14 14 -14
56 l0 55 48 -3 47 -3 3 -52z m180 1 l3 -52 -40 0 c-67 -1 -84 52 -21 64 16 4
30 11 30 16 0 5 -13 7 -30 3 -16 -4 -30 -2 -30 3 0 17 14 23 50 20 35 -3 35
-3 38 -54z m410 44 c7 -7 12 -20 12 -30 0 -13 -8 -18 -30 -18 -29 0 -38 -9
-23 -23 3 -4 12 -2 19 4 7 6 18 8 24 4 17 -10 -8 -35 -36 -35 -45 0 -67 47
-44 91 12 22 59 26 78 7z m132 -43 c0 -30 -4 -55 -10 -55 -5 0 -10 10 -10 23
0 37 -12 67 -25 67 -16 0 -25 -22 -25 -62 0 -52 -25 -26 -28 30 l-3 52 50 0
51 0 0 -55z m-20 -140 c0 -8 -7 -15 -15 -15 -16 0 -20 12 -8 23 11 12 23 8 23
-8z m40 0 c0 -8 -4 -15 -10 -15 -5 0 -10 7 -10 15 0 8 5 15 10 15 6 0 10 -7
10 -15z m668 -3 c2 -7 -4 -12 -13 -12 -15 0 -16 -2 -4 -17 11 -13 11 -17 2
-20 -8 -3 -13 -22 -13 -49 0 -32 -4 -44 -15 -44 -14 0 -22 53 -16 115 3 36 49
57 59 27z m315 4 c8 -9 12 -26 10 -40 -3 -13 2 -35 10 -47 20 -28 5 -62 -25
-57 -25 4 -37 28 -14 28 20 0 21 14 1 30 -9 8 -12 22 -8 41 3 18 1 29 -6 29
-7 0 -11 -24 -11 -65 0 -51 -3 -65 -15 -65 -12 0 -15 14 -15 70 0 64 2 72 23
80 31 12 34 12 50 -4z m-2268 -41 l12 -40 12 43 c9 31 17 42 31 42 14 0 22
-11 31 -42 10 -36 13 -40 20 -23 4 11 8 30 8 43 1 15 7 22 20 22 18 0 18 -3 2
-72 -21 -91 -44 -104 -63 -34 -7 25 -15 46 -19 46 -4 0 -12 -21 -18 -46 -15
-60 -40 -57 -56 6 -27 107 -27 102 -9 98 10 -2 22 -20 29 -43z m305 35 c0 -5
-7 -10 -15 -10 -8 0 -15 5 -15 10 0 6 7 10 15 10 8 0 15 -4 15 -10z m60 -9 c0
-15 8 -21 33 -23 31 -3 32 -4 35 -55 2 -42 0 -53 -12 -53 -10 0 -16 13 -18 43
-2 29 -8 42 -18 42 -10 0 -16 -13 -18 -42 -2 -29 -8 -43 -18 -43 -11 0 -14 16
-14 75 0 60 3 75 15 75 8 0 15 -9 15 -19z m490 0 c0 -15 8 -21 33 -23 31 -3
32 -4 35 -55 2 -42 0 -53 -12 -53 -10 0 -16 13 -18 43 -2 29 -8 42 -18 42 -10
0 -16 -13 -18 -42 -2 -29 -8 -43 -18 -43 -11 0 -14 16 -14 75 0 60 3 75 15 75
8 0 15 -9 15 -19z m144 -24 c8 -6 8 -10 -1 -14 -15 -6 -18 -63 -3 -63 6 0 10
-7 10 -15 0 -16 -35 -21 -44 -6 -3 4 -7 34 -8 65 -2 41 2 60 12 66 11 7 16 5
19 -8 2 -9 8 -21 15 -25z m176 24 c0 -11 6 -22 13 -25 10 -5 10 -7 0 -12 -15
-7 -18 -64 -3 -64 6 0 10 -7 10 -16 0 -10 -7 -14 -22 -12 -18 2 -24 11 -26 38
-2 19 -8 40 -13 47 -7 8 -5 20 6 37 20 31 35 33 35 7z m380 -55 l0 -75 -42 2
c-34 2 -45 7 -56 27 -21 39 -2 80 38 80 23 0 30 4 30 20 0 11 7 20 15 20 12 0
15 -15 15 -74z m440 -1 c0 -60 -3 -75 -15 -75 -12 0 -15 15 -15 75 0 60 3 75
15 75 12 0 15 -15 15 -75z m50 65 c0 -5 -7 -10 -15 -10 -8 0 -15 5 -15 10 0 6
7 10 15 10 8 0 15 -4 15 -10z m-1800 -49 c17 -32 12 -41 -25 -41 -19 0 -35 -5
-35 -11 0 -7 11 -9 30 -5 22 4 30 2 30 -9 0 -19 -48 -31 -69 -18 -20 12 -27
69 -10 89 17 21 66 18 79 -5z m60 -37 c0 -73 -24 -70 -28 4 -2 42 0 52 12 52
13 0 16 -12 16 -56z m258 -1 c2 -42 0 -53 -12 -53 -10 0 -16 13 -18 43 -2 29
-8 42 -18 42 -10 0 -16 -13 -18 -42 -2 -29 -8 -43 -18 -43 -10 0 -14 14 -14
56 l0 55 48 -3 47 -3 3 -52z m120 1 l3 -52 -40 0 c-67 -1 -84 52 -21 64 16 4
30 11 30 16 0 5 -13 7 -30 3 -16 -4 -30 -2 -30 3 0 17 14 23 50 20 35 -3 35
-3 38 -54z m115 42 c7 -18 -17 -28 -32 -13 -15 15 -34 -4 -29 -29 3 -15 11
-18 36 -16 34 2 40 -6 20 -26 -17 -17 -54 -15 -72 4 -19 18 -21 65 -4 82 17
17 75 15 81 -2z m311 -2 c5 -13 1 -14 -24 -9 -39 9 -39 -3 0 -16 49 -18 34
-69 -21 -69 -27 0 -57 25 -45 37 4 4 16 1 28 -6 14 -9 24 -9 31 -2 7 7 2 12
-16 16 -33 9 -49 28 -41 49 8 22 79 22 88 0z m180 4 c3 -7 7 -32 9 -55 l5 -42
-47 2 c-40 2 -46 5 -49 25 -3 18 3 26 27 35 40 15 40 31 1 22 -28 -6 -39 3
-23 18 11 12 73 7 77 -5z m136 -43 c0 -30 -4 -55 -10 -55 -5 0 -10 10 -10 23
0 37 -12 67 -25 67 -16 0 -25 -22 -25 -62 0 -52 -25 -26 -28 30 l-3 52 50 0
51 0 0 -55z m238 43 c7 -7 12 -20 12 -30 0 -13 -8 -18 -30 -18 -29 0 -38 -9
-23 -23 3 -4 12 -2 19 4 7 6 18 8 24 4 17 -10 -8 -35 -36 -35 -45 0 -67 47
-44 91 12 22 59 26 78 7z m132 -43 c0 -30 -4 -55 -10 -55 -5 0 -10 10 -10 23
0 37 -12 67 -25 67 -16 0 -25 -22 -25 -62 0 -52 -25 -26 -28 30 l-3 52 50 0
51 0 0 -55z m250 -1 c0 -73 -24 -70 -28 4 -2 42 0 52 12 52 13 0 16 -12 16
-56z m120 37 c17 -32 12 -41 -25 -41 -19 0 -35 -5 -35 -11 0 -7 11 -9 30 -5
22 4 30 2 30 -9 0 -19 -48 -31 -69 -18 -20 12 -27 69 -10 89 17 21 66 18 79
-5z m238 7 c7 -7 12 -20 12 -30 0 -13 -8 -18 -30 -18 -29 0 -38 -9 -23 -23 3
-4 12 -2 19 4 7 6 18 8 24 4 17 -10 -8 -35 -36 -35 -45 0 -67 47 -44 91 12 22
59 26 78 7z m132 -43 c0 -30 -4 -55 -10 -55 -5 0 -10 10 -10 23 0 37 -12 67
-25 67 -16 0 -25 -22 -25 -62 0 -52 -25 -26 -28 30 l-3 52 50 0 51 0 0 -55z
m60 -41 c0 -17 -22 -14 -28 4 -2 7 3 12 12 12 9 0 16 -7 16 -16z m-360 -485
c0 -6 7 -8 16 -5 12 4 14 1 9 -14 -4 -11 -2 -20 4 -20 6 0 11 -4 11 -10 0 -5
-7 -10 -16 -10 -10 0 -14 -6 -10 -15 6 -17 -9 -21 -19 -5 -5 8 -11 7 -21 -1
-11 -9 -14 -8 -14 5 0 9 -8 16 -17 16 -17 1 -17 2 0 14 12 9 14 16 8 21 -19
11 -12 23 9 18 11 -3 20 0 20 6 0 6 5 11 10 11 6 0 10 -5 10 -11z m491 -54
c-1 -15 -24 -12 -29 3 -3 9 2 13 12 10 10 -1 17 -7 17 -13z m-331 -20 c0 -14
29 -35 50 -35 7 0 8 6 0 19 -19 37 -10 44 13 10 12 -19 31 -36 42 -38 17 -3
18 -1 6 13 -8 10 -9 16 -3 16 6 0 16 -9 22 -20 7 -13 21 -20 39 -20 49 0 91
-12 91 -26 0 -7 -13 -20 -30 -29 -34 -18 -36 -25 -15 -87 11 -30 25 -49 41
-57 37 -16 39 -36 9 -87 -31 -52 -41 -52 -27 0 9 32 8 37 -10 47 -27 15 -35 3
-14 -20 20 -22 13 -42 -23 -75 -20 -18 -20 -18 -8 13 19 50 -5 65 -108 70
l-85 3 0 -26 c0 -29 -40 -76 -65 -76 -18 0 -20 -21 -3 -38 6 -6 8 -15 4 -19
-4 -5 -21 8 -37 27 l-29 34 25 26 c30 32 31 52 5 88 -16 22 -19 33 -11 53 8
21 10 22 16 7 5 -14 11 -15 25 -8 11 6 54 17 96 25 96 18 124 35 124 75 0 23
-5 30 -19 30 -11 0 -23 5 -26 10 -3 6 3 10 14 10 38 0 22 18 -21 25 -71 12
-108 38 -108 76 0 6 5 7 10 4 6 -3 10 -13 10 -20z m-754 -26 c8 -14 -11 -33
-25 -25 -11 7 -4 36 9 36 5 0 12 -5 16 -11z m185 -14 c9 6 11 3 6 -8 -4 -10
-1 -17 6 -18 9 0 9 -2 0 -6 -7 -2 -13 -12 -13 -20 0 -12 -3 -13 -14 -4 -11 9
-15 9 -19 -1 -4 -8 -6 -7 -6 5 -1 9 -5 17 -9 17 -4 0 -8 9 -8 20 0 13 5 19 13
16 7 -3 13 0 13 7 0 8 3 8 9 -2 5 -8 14 -10 22 -6z m139 0 c0 -8 -7 -15 -15
-15 -8 0 -15 7 -15 15 0 8 7 15 15 15 8 0 15 -7 15 -15z m-1209 -20 c-1 -15
-24 -12 -29 3 -3 9 2 13 12 10 10 -1 17 -7 17 -13z m1278 -44 c33 -18 43 -13
26 12 -8 13 -12 26 -9 30 4 3 16 -8 28 -25 27 -40 51 -50 42 -17 -7 23 -6 23
14 -3 15 -19 31 -28 50 -28 42 0 90 -11 90 -21 0 -5 -15 -19 -32 -30 -18 -12
-25 -19 -15 -15 9 3 68 15 130 26 61 11 123 23 135 26 13 3 21 1 18 -4 -3 -5
-71 -22 -151 -37 -155 -31 -159 -33 -130 -85 20 -35 18 -57 -6 -81 -20 -20
-20 -23 -5 -31 23 -13 20 -43 -10 -75 -20 -22 -24 -23 -19 -8 18 50 17 54 -14
69 -19 10 -56 16 -99 16 l-70 0 -6 -35 c-6 -28 -15 -39 -46 -55 -22 -11 -40
-22 -40 -24 0 -3 7 -12 16 -21 24 -23 8 -32 -17 -9 -40 36 -43 53 -15 83 31
33 32 41 5 75 -16 20 -19 33 -13 54 5 20 8 23 11 10 3 -13 9 -16 21 -9 9 5 57
17 106 27 96 19 126 38 126 79 0 18 -5 25 -19 25 -29 0 -34 17 -8 24 18 6 10
11 -40 25 -73 21 -93 35 -92 65 l0 21 9 -22 c5 -12 18 -26 29 -32z m-539 29
c8 -5 11 -10 5 -10 -5 0 -3 -5 5 -10 10 -6 11 -10 3 -10 -7 0 -13 -6 -13 -13
0 -7 -9 -13 -20 -13 -11 0 -20 6 -20 13 0 7 -6 13 -12 13 -9 0 -8 4 2 10 8 5
11 10 5 10 -10 0 15 20 25 20 3 0 12 -5 20 -10z m-910 -35 c9 5 10 1 5 -14 -4
-14 -2 -21 6 -21 7 0 5 -6 -6 -13 -10 -8 -15 -19 -11 -25 4 -7 3 -12 -3 -12
-5 0 -11 6 -14 13 -3 9 -7 9 -20 -2 -15 -12 -17 -11 -17 8 0 12 -4 19 -10 16
-5 -3 -10 -2 -10 4 0 5 6 11 13 14 9 3 8 8 -3 22 -14 16 -13 17 8 11 17 -6 22
-3 22 11 1 17 1 17 15 -1 7 -10 19 -15 25 -11z m720 10 c0 -8 -6 -15 -14 -15
-17 0 -28 14 -19 24 12 12 33 6 33 -9z m-203 -38 c12 5 14 3 8 -6 -4 -8 -2
-17 6 -22 10 -6 11 -9 2 -9 -7 0 -13 -6 -13 -14 0 -8 -10 -13 -25 -13 -15 0
-25 5 -25 13 0 8 -6 14 -12 15 -10 0 -10 2 -1 5 7 3 9 13 6 21 -5 12 -2 15 10
10 12 -4 17 -1 18 11 1 16 2 16 6 0 3 -11 10 -15 20 -11z m-177 -39 c0 -5 -4
-6 -10 -3 -5 3 -10 0 -10 -7 0 -8 -9 -14 -20 -14 -11 0 -20 6 -20 13 0 7 -6
13 -12 14 -10 0 -10 2 -1 5 7 3 9 12 6 21 -4 10 -2 14 5 9 6 -3 14 -2 17 4 7
11 45 -25 45 -42z m747 -7 c29 -13 43 -7 25 11 -7 7 -12 19 -12 28 0 9 6 6 17
-11 9 -14 25 -31 35 -38 18 -11 19 -10 13 8 -3 12 -2 21 4 21 5 0 12 -9 16
-19 6 -20 38 -36 53 -27 11 7 82 -15 82 -25 0 -5 -13 -15 -30 -24 -34 -17 -36
-30 -16 -97 14 -43 13 -49 -4 -71 -17 -22 -18 -26 -5 -37 19 -16 19 -40 -1
-68 -21 -30 -36 -28 -22 4 18 40 -16 64 -91 64 -31 0 -66 3 -78 6 -20 6 -23 3
-23 -23 0 -32 -30 -66 -68 -78 -22 -6 -22 -8 -7 -31 22 -33 5 -30 -30 6 l-29
30 27 28 c33 34 33 44 6 81 -15 20 -19 36 -14 51 5 16 9 19 15 10 4 -7 12 -10
18 -6 6 3 45 13 89 22 43 8 90 20 105 25 30 12 49 44 20 35 -9 -3 -79 -17
-154 -32 -96 -19 -138 -31 -138 -40 0 -8 5 -34 12 -58 11 -40 10 -47 -7 -66
-17 -19 -17 -21 -1 -39 21 -23 15 -50 -16 -77 -20 -19 -21 -19 -13 6 12 41 11
44 -25 62 -42 21 -158 25 -164 6 -3 -7 -7 -26 -11 -41 -4 -20 -16 -33 -40 -43
-40 -16 -41 -20 -18 -46 10 -11 12 -18 4 -18 -14 0 -61 48 -61 63 0 6 12 23
26 38 l26 28 -22 36 c-13 22 -20 46 -17 60 2 14 2 25 0 25 -2 0 -26 -11 -53
-25 -28 -14 -50 -21 -50 -16 0 26 236 105 338 113 17 1 32 8 32 14 0 7 -15 18
-32 24 l-33 13 30 6 c35 8 25 16 -30 26 -66 12 -95 32 -94 63 l0 27 10 -25
c12 -28 26 -40 53 -40 18 0 18 1 3 18 -10 10 -17 25 -17 33 0 7 14 -3 31 -24
32 -39 52 -48 43 -19 -4 12 0 10 12 -5 10 -14 27 -23 43 -23 14 0 43 -5 64
-11 38 -10 39 -11 20 -31 -18 -21 -18 -21 7 -15 14 3 78 16 143 28 115 23 145
40 92 53 -31 8 -33 26 -2 27 12 0 -7 10 -43 21 -65 20 -91 39 -89 67 0 11 3
10 11 -5 5 -12 21 -27 35 -33z m1073 38 c0 -5 5 -7 12 -3 8 5 9 2 5 -9 -4 -10
-1 -17 6 -18 9 0 9 -2 0 -6 -7 -2 -13 -10 -13 -17 0 -6 -9 -12 -20 -12 -11 0
-20 6 -20 13 0 7 -4 13 -9 13 -5 0 -7 9 -4 20 3 11 9 17 14 14 5 -3 9 0 9 5 0
6 5 11 10 11 6 0 10 -5 10 -11z m-1330 -54 c0 -8 -7 -15 -15 -15 -8 0 -15 7
-15 15 0 8 7 15 15 15 8 0 15 -7 15 -15z m-206 -28 c4 4 4 0 0 -10 -3 -10 -1
-17 6 -17 7 0 6 -5 -4 -15 -16 -16 -33 -16 -52 0 -13 11 -6 48 7 39 5 -3 9 0
9 7 0 8 3 9 13 0 8 -6 17 -8 21 -4z m936 4 c0 -5 -26 -15 -57 -21 -32 -7 -96
-20 -143 -30 -79 -17 -101 -18 -88 -4 5 4 249 60 281 63 4 1 7 -3 7 -8z
m-1373 -34 c12 5 14 3 8 -6 -4 -8 -2 -17 6 -22 11 -7 10 -9 -4 -9 -10 0 -16
-4 -12 -9 8 -13 -29 -10 -41 3 -15 18 -14 48 2 42 8 -3 14 0 15 7 0 9 2 9 5 0
3 -7 12 -9 21 -6z m209 -18 c10 -17 -13 -36 -27 -22 -12 12 -4 33 11 33 5 0
12 -5 16 -11z m-442 -55 c62 -30 125 -79 90 -69 -38 10 -103 -23 -123 -64
l-19 -36 -7 27 c-7 27 -85 108 -104 108 -5 0 -17 7 -25 16 -13 13 -16 13 -16
1 0 -21 -25 -38 -44 -31 -11 4 -16 15 -14 33 3 23 8 26 41 27 20 1 40 4 44 8
3 3 33 6 65 6 43 0 73 -7 112 -26z m1896 -4 c12 -9 9 -16 -22 -45 -40 -37 -46
-51 -25 -58 6 -2 9 -7 5 -11 -8 -10 -48 12 -48 26 0 6 11 21 25 34 14 13 25
32 25 44 0 22 16 26 40 10z m-1392 -98 c-2 -9 -16 -23 -31 -30 -15 -7 -27 -16
-27 -20 0 -4 11 -27 25 -51 32 -56 31 -74 -4 -104 l-29 -24 19 -32 c24 -39 24
-41 0 -41 -11 0 -23 12 -31 31 -9 22 -17 28 -29 23 -69 -29 -113 -43 -154 -49
-26 -4 -47 -12 -47 -17 0 -6 54 -9 144 -6 138 3 146 4 171 28 23 22 26 30 20
64 -6 40 -6 40 15 21 30 -27 27 -78 -6 -104 -38 -30 -81 -39 -249 -51 -82 -5
-190 -17 -240 -25 -107 -18 -112 -18 -99 -5 15 15 150 60 180 60 15 0 24 5 22
12 -6 16 -25 26 -74 38 -45 11 -64 38 -64 94 0 40 -35 79 -50 56 -6 -8 -10
-21 -10 -27 0 -21 -28 -15 -35 8 -14 43 -1 45 220 36 101 -4 120 -4 67 3 -40
4 -76 11 -80 15 -14 14 25 26 68 20 172 -23 191 -19 221 51 11 24 27 48 37 53
22 12 54 -5 50 -27z m1743 11 c20 5 26 -7 8 -18 -6 -5 -4 -12 8 -21 17 -12 17
-13 1 -14 -10 0 -18 -7 -18 -16 0 -13 -3 -14 -14 -5 -10 8 -16 9 -21 1 -10
-16 -25 -12 -19 5 4 9 0 15 -10 15 -9 0 -16 5 -16 10 0 6 5 10 11 10 6 0 8 9
4 20 -5 15 -3 18 8 14 8 -3 18 3 22 13 8 17 8 17 12 0 3 -13 11 -17 24 -14z
m-734 0 c4 -11 -5 -26 -32 -48 -24 -21 -33 -35 -26 -39 20 -13 12 -27 -9 -16
-26 14 -25 26 5 62 14 16 25 36 25 44 0 20 29 18 37 -3z m-1387 -6 c0 -9 12
-11 41 -9 38 4 40 3 28 -15 -17 -28 -52 -49 -57 -34 -6 18 -41 13 -75 -11 -25
-18 -29 -19 -24 -5 4 9 10 24 13 32 10 25 -16 17 -47 -14 -30 -30 -38 -26 -18
10 23 44 139 83 139 46z m1015 -61 c19 -13 18 -16 -19 -50 -33 -30 -37 -38
-26 -51 10 -12 10 -15 -3 -15 -8 0 -20 7 -27 15 -10 12 -7 20 14 46 14 17 26
39 26 50 0 23 9 24 35 5z m665 -42 c0 -16 -16 -19 -25 -4 -8 13 4 32 16 25 5
-4 9 -13 9 -21z m-245 6 c3 -6 -1 -13 -10 -16 -19 -8 -30 0 -20 15 8 14 22 14
30 1z m415 -1 c0 -5 5 -7 12 -3 8 5 9 2 5 -9 -4 -10 -1 -17 6 -18 9 0 9 -2 0
-6 -7 -2 -13 -12 -14 -21 0 -11 -2 -13 -6 -4 -4 10 -8 10 -19 1 -11 -9 -14 -8
-14 5 0 9 -6 16 -12 17 -10 0 -10 2 -1 5 7 3 9 12 6 21 -4 11 -2 14 5 9 7 -4
12 -2 12 3 0 6 5 11 10 11 6 0 10 -5 10 -11z m160 -4 c0 -8 -6 -15 -14 -15
-17 0 -28 14 -19 24 12 12 33 6 33 -9z m-473 -69 c-14 -16 -30 -16 -42 -2 -16
17 -14 45 1 39 8 -3 14 1 14 7 0 7 9 3 20 -9 14 -18 16 -26 7 -35z m-903 38
c26 -10 19 -30 -21 -63 -31 -25 -35 -32 -23 -40 8 -6 11 -13 7 -17 -4 -4 -16
1 -27 11 l-20 18 25 27 c14 14 25 33 25 41 0 14 8 29 16 29 1 0 9 -3 18 -6z
m466 -34 c0 -5 -5 -12 -11 -16 -14 -8 -33 11 -25 25 7 11 36 4 36 -9z m150 -5
c0 -8 -7 -15 -15 -15 -8 0 -15 7 -15 15 0 8 7 15 15 15 8 0 15 -7 15 -15z
m518 -25 c4 -12 2 -13 -9 -2 -7 6 -26 12 -42 12 -37 0 -80 -44 -122 -123 -16
-31 -35 -57 -43 -57 -25 0 70 141 115 172 33 22 94 21 101 -2z m226 14 c9 -3
16 -11 16 -16 0 -7 -4 -7 -12 0 -7 5 -24 12 -38 15 -22 4 -22 4 -3 6 12 0 28
-2 37 -5z m-91 -28 c-16 -13 -44 -54 -63 -90 -30 -56 -50 -81 -50 -61 0 37
102 175 129 175 7 0 0 -11 -16 -24z m-1092 -17 c-75 -15 -112 -53 -110 -112 0
-17 3 -14 13 11 23 65 87 106 102 67 9 -22 -15 -74 -43 -92 -13 -9 -26 -13
-29 -10 -3 3 3 8 13 11 21 7 53 55 53 81 0 27 -32 13 -58 -25 -24 -36 -28 -97
-5 -93 7 2 10 -3 7 -11 -3 -9 5 -18 23 -24 15 -6 21 -11 12 -11 -8 -1 -24 6
-35 14 -10 8 -28 15 -40 15 -26 0 -62 26 -51 37 5 4 13 0 18 -10 11 -18 39
-24 39 -7 0 5 -9 14 -20 20 -28 15 -26 62 6 99 27 32 68 49 119 49 23 0 20 -2
-14 -9z m629 4 c-86 -14 -131 -51 -129 -107 l1 -31 12 33 c16 45 53 82 80 81
14 0 16 -2 6 -6 -30 -11 -60 -47 -66 -79 -9 -46 3 -74 39 -89 20 -9 25 -14 14
-15 -27 0 -107 83 -107 113 0 54 71 107 140 105 26 0 29 -2 10 -5z m-510 -13
c0 -5 -7 -10 -15 -10 -17 0 -68 -98 -59 -112 3 -4 0 -8 -7 -8 -16 0 -2 69 21
102 18 25 18 27 2 31 -9 3 0 5 21 6 20 0 37 -3 37 -9z m62 3 c-17 -7 -75 -123
-62 -123 6 0 16 11 22 25 11 24 52 44 65 31 8 -8 -17 -36 -33 -36 -8 0 -14 -7
-14 -15 0 -9 6 -12 18 -9 14 5 14 4 2 -4 -8 -6 -19 -8 -24 -4 -6 3 -23 5 -38
4 -32 -3 -33 3 -14 49 20 48 55 89 74 88 11 0 13 -2 4 -6z m584 -4 c8 -13 -13
-36 -23 -25 -4 4 -1 11 7 16 12 8 11 10 -7 10 -29 0 -83 -47 -100 -87 -15 -38
-11 -50 21 -63 l21 -9 -22 0 c-13 -1 -29 9 -38 23 -15 23 -15 27 5 66 31 60
115 103 136 69z m-366 -34 c0 -8 -7 -15 -15 -15 -8 0 -15 7 -15 15 0 8 7 15
15 15 8 0 15 -7 15 -15z m540 -5 c0 -5 -4 -10 -10 -10 -5 0 -10 5 -10 10 0 6
5 10 10 10 6 0 10 -4 10 -10z m-695 -10 c-4 -6 -2 -17 4 -23 12 -15 4 -57 -11
-57 -6 0 -7 11 -4 26 5 18 3 24 -5 18 -7 -4 -10 -3 -7 2 3 5 8 17 11 27 4 9 9
17 12 17 4 0 3 -5 0 -10z m60 0 c-4 -6 -2 -17 4 -23 12 -15 4 -57 -11 -57 -6
0 -7 11 -4 26 5 18 3 24 -5 18 -7 -4 -10 -3 -7 2 3 5 8 17 11 27 4 9 9 17 12
17 4 0 3 -5 0 -10z m560 -57 c-3 -13 -10 -23 -15 -23 -13 0 -13 7 1 32 8 15 8
22 -1 28 -7 5 -9 13 -5 21 12 18 28 -29 20 -58z m358 21 c-9 -14 -13 -27 -10
-31 4 -3 9 2 13 11 3 9 11 16 16 16 7 0 6 -5 -1 -13 -6 -8 -9 -16 -6 -18 2 -3
-9 -6 -26 -7 l-30 -2 16 30 c10 19 12 30 4 30 -6 0 -16 -13 -22 -30 -12 -32
-27 -40 -27 -15 0 26 45 64 68 58 20 -5 20 -6 5 -29z m-853 20 c0 -12 -35 -64
-43 -64 -5 0 -7 3 -5 8 24 48 32 62 40 62 4 0 8 -3 8 -6z m40 1 c0 -2 -14 -28
-31 -57 -32 -55 -86 -118 -102 -118 -5 0 4 13 20 28 15 16 35 42 43 58 35 68
70 113 70 89z m194 -19 c-3 -9 -10 -16 -15 -16 -5 0 -4 9 3 20 14 22 21 20 12
-4z m211 2 c-3 -13 -7 -29 -7 -35 -1 -14 -28 -18 -28 -5 0 16 25 62 34 62 4 0
5 -10 1 -22z m100 5 c-4 -10 -10 -26 -12 -35 -3 -10 -12 -18 -20 -18 -8 0 -13
3 -11 8 24 49 33 62 41 62 5 0 6 -8 2 -17z m47 -3 c0 -11 1 -25 2 -32 1 -6 -3
-13 -9 -15 -5 -1 -11 13 -12 32 -2 36 16 50 19 15z m23 11 c3 -5 1 -12 -5 -16
-5 -3 -10 1 -10 9 0 18 6 21 15 7z m93 2 c-24 -49 -32 -63 -40 -63 -13 0 -10
18 8 45 14 22 41 37 32 18z m36 -2 c3 -5 -1 -14 -9 -21 -8 -7 -15 -19 -15 -26
0 -8 -4 -14 -10 -14 -13 0 -13 10 3 43 12 28 22 33 31 18z m36 1 c0 -15 -25
-62 -32 -62 -11 0 -10 12 5 43 11 25 27 36 27 19z m129 -43 c1 -9 -5 -19 -12
-22 -10 -4 -13 4 -11 31 1 21 3 39 4 42 3 8 19 -34 19 -51z m21 42 c0 -6 -4
-13 -10 -16 -5 -3 -10 1 -10 9 0 9 5 16 10 16 6 0 10 -4 10 -9z m-1279 -18
c-5 -10 -22 -29 -37 -43 -23 -21 -22 -18 7 17 37 46 45 53 30 26z m55 -21
c-17 -16 -18 -16 -5 5 7 12 15 20 18 17 3 -2 -3 -12 -13 -22z m755 5 c-10 -9
-11 -8 -5 6 3 10 9 15 12 12 3 -3 0 -11 -7 -18z m96 -7 c-1 -12 -5 -16 -10
-11 -5 5 -6 14 -3 20 11 16 15 13 13 -9z m-357 -10 c-8 -5 -19 -10 -25 -10 -5
0 -3 5 5 10 8 5 20 10 25 10 6 0 3 -5 -5 -10z m145 -20 c-3 -5 -12 -10 -18
-10 -7 0 -6 4 3 10 19 12 23 12 15 0z m-515 -89 c0 -5 8 -12 18 -14 14 -4 14
-5 1 -6 -9 0 -22 6 -29 14 -9 10 -9 15 -1 15 6 0 11 -4 11 -9z"/>
<path d="M2000 4510 c0 -41 3 -50 18 -50 40 0 57 54 26 84 -30 31 -44 20 -44
-34z"/>
<path d="M2674 4506 c-9 -22 2 -46 21 -46 12 0 15 8 13 27 -3 30 -25 42 -34
19z"/>
<path d="M3170 4540 c-13 -25 -4 -83 13 -77 15 5 22 76 9 89 -7 7 -14 3 -22
-12z"/>
<path d="M2145 4510 c-3 -5 3 -10 15 -10 12 0 18 5 15 10 -3 6 -10 10 -15 10
-5 0 -12 -4 -15 -10z"/>
<path d="M2365 4510 c-3 -5 3 -10 15 -10 12 0 18 5 15 10 -3 6 -10 10 -15 10
-5 0 -12 -4 -15 -10z"/>
<path d="M2800 4510 c0 -5 7 -10 15 -10 8 0 15 5 15 10 0 6 -7 10 -15 10 -8 0
-15 -4 -15 -10z"/>
<path d="M1650 4060 c0 -16 5 -21 23 -18 12 2 22 10 22 18 0 8 -10 16 -22 18
-18 3 -23 -2 -23 -18z"/>
<path d="M1650 4000 c0 -17 5 -21 28 -18 16 2 27 9 27 18 0 9 -11 16 -27 18
-23 3 -28 -1 -28 -18z"/>
<path d="M1967 4025 c-9 -22 3 -46 22 -43 10 2 16 13 16 28 0 28 -29 40 -38
15z"/>
<path d="M2457 4025 c-9 -22 3 -46 22 -43 10 2 16 13 16 28 0 28 -29 40 -38
15z"/>
<path d="M1792 3989 c2 -6 8 -10 13 -10 5 0 11 4 13 10 2 6 -4 11 -13 11 -9 0
-15 -5 -13 -11z"/>
<path d="M2645 4030 c-3 -5 3 -10 15 -10 12 0 18 5 15 10 -3 6 -10 10 -15 10
-5 0 -12 -4 -15 -10z"/>
<path d="M3015 4030 c-3 -5 3 -10 15 -10 12 0 18 5 15 10 -3 6 -10 10 -15 10
-5 0 -12 -4 -15 -10z"/>
<path d="M3445 3991 c-6 -11 9 -23 19 -14 9 9 7 23 -3 23 -6 0 -12 -4 -16 -9z"/>
<path d="M4100 4030 c0 -5 7 -10 16 -10 8 0 12 5 9 10 -3 6 -10 10 -16 10 -5
0 -9 -4 -9 -10z"/>
<path d="M3757 3793 c-13 -12 -7 -44 9 -50 20 -7 33 12 27 38 -5 19 -24 25
-36 12z"/>
<path d="M1644 3785 c-8 -21 2 -45 20 -45 15 0 25 27 19 48 -6 17 -32 15 -39
-3z"/>
<path d="M1770 3790 c0 -5 7 -10 16 -10 8 0 12 5 9 10 -3 6 -10 10 -16 10 -5
0 -9 -4 -9 -10z"/>
<path d="M2004 3785 c-8 -21 3 -45 20 -45 20 0 29 16 21 40 -7 23 -33 27 -41
5z"/>
<path d="M2505 3790 c-3 -5 3 -10 15 -10 12 0 18 5 15 10 -3 6 -10 10 -15 10
-5 0 -12 -4 -15 -10z"/>
<path d="M2984 3785 c-8 -21 3 -45 20 -45 20 0 29 16 21 40 -7 23 -33 27 -41
5z"/>
<path d="M3325 3790 c-3 -5 3 -10 15 -10 12 0 18 5 15 10 -3 6 -10 10 -15 10
-5 0 -12 -4 -15 -10z"/>
<path d="M3640 3790 c0 -5 7 -10 15 -10 8 0 15 5 15 10 0 6 -7 10 -15 10 -8 0
-15 -4 -15 -10z"/>
<path d="M3884 3785 c-8 -21 3 -45 20 -45 20 0 29 16 21 40 -7 23 -33 27 -41
5z"/>
<path d="M1894 3556 c-9 -22 2 -46 21 -46 12 0 15 8 13 27 -3 30 -25 42 -34
19z"/>
<path d="M3117 3563 c-13 -12 -7 -44 9 -50 20 -7 33 12 27 38 -5 19 -24 25
-36 12z"/>
<path d="M1765 3521 c-3 -5 -1 -12 5 -16 12 -7 30 2 30 16 0 12 -27 12 -35 0z"/>
<path d="M2015 3560 c-3 -5 3 -10 15 -10 12 0 18 5 15 10 -3 6 -10 10 -15 10
-5 0 -12 -4 -15 -10z"/>
<path d="M3300 3560 c0 -5 7 -10 15 -10 8 0 15 5 15 10 0 6 -7 10 -15 10 -8 0
-15 -4 -15 -10z"/>
<path d="M3605 3560 c-3 -5 3 -10 15 -10 12 0 18 5 15 10 -3 6 -10 10 -15 10
-5 0 -12 -4 -15 -10z"/>
<path d="M3257 3323 c-13 -12 -7 -44 9 -50 20 -7 33 12 27 38 -5 19 -24 25
-36 12z"/>
<path d="M1644 3315 c-8 -21 2 -45 20 -45 15 0 25 27 19 48 -6 17 -32 15 -39
-3z"/>
<path d="M1770 3320 c0 -5 7 -10 15 -10 8 0 15 5 15 10 0 6 -7 10 -15 10 -8 0
-15 -4 -15 -10z"/>
<path d="M2014 3315 c-8 -21 3 -45 20 -45 20 0 29 16 21 40 -7 23 -33 27 -41
5z"/>
<path d="M2520 3320 c0 -5 7 -10 15 -10 8 0 15 5 15 10 0 6 -7 10 -15 10 -8 0
-15 -4 -15 -10z"/>
<path d="M2875 3281 c-3 -5 -1 -12 5 -16 12 -7 30 2 30 16 0 12 -27 12 -35 0z"/>
<path d="M3380 3320 c0 -5 7 -10 15 -10 8 0 15 5 15 10 0 6 -7 10 -15 10 -8 0
-15 -4 -15 -10z"/>
<path d="M1835 3080 c-3 -5 3 -10 15 -10 12 0 18 5 15 10 -3 6 -10 10 -15 10
-5 0 -12 -4 -15 -10z"/>
<path d="M2265 3041 c-3 -5 -1 -12 5 -16 12 -7 30 2 30 16 0 12 -27 12 -35 0z"/>
<path d="M3005 3041 c-6 -11 9 -23 19 -14 9 9 7 23 -3 23 -6 0 -12 -4 -16 -9z"/>
<path d="M3320 3080 c0 -5 7 -10 15 -10 8 0 15 5 15 10 0 6 -7 10 -15 10 -8 0
-15 -4 -15 -10z"/>
<path d="M1764 2846 c-9 -22 2 -46 21 -46 12 0 15 8 13 27 -3 30 -25 42 -34
19z"/>
<path d="M3237 2845 c-9 -22 3 -46 22 -43 10 2 16 13 16 28 0 28 -29 40 -38
15z"/>
<path d="M4387 2853 c-13 -12 -7 -44 9 -50 20 -7 33 12 27 38 -5 19 -24 25
-36 12z"/>
<path d="M1645 2811 c-6 -11 9 -23 19 -14 9 9 7 23 -3 23 -6 0 -12 -4 -16 -9z"/>
<path d="M2245 2811 c-3 -5 -1 -12 5 -16 12 -7 30 2 30 16 0 12 -27 12 -35 0z"/>
<path d="M2494 2845 c-8 -21 2 -45 20 -45 15 0 25 27 19 48 -6 17 -32 15 -39
-3z"/>
<path d="M2620 2850 c0 -5 7 -10 15 -10 8 0 15 5 15 10 0 6 -7 10 -15 10 -8 0
-15 -4 -15 -10z"/>
<path d="M4010 2850 c0 -5 7 -10 15 -10 8 0 15 5 15 10 0 6 -7 10 -15 10 -8 0
-15 -4 -15 -10z"/>
<path d="M4510 2850 c0 -5 7 -10 15 -10 8 0 15 5 15 10 0 6 -7 10 -15 10 -8 0
-15 -4 -15 -10z"/>
<path d="M1647 2613 c-13 -12 -7 -44 9 -50 20 -7 33 12 27 38 -5 19 -24 25
-36 12z"/>
<path d="M2287 2613 c-13 -12 -7 -44 9 -50 20 -7 33 12 27 38 -5 19 -24 25
-36 12z"/>
<path d="M2987 2613 c-13 -12 -7 -44 9 -50 20 -7 33 12 27 38 -5 19 -24 25
-36 12z"/>
<path d="M2405 2571 c-3 -5 -1 -12 5 -16 12 -7 30 2 30 16 0 12 -27 12 -35 0z"/>
<path d="M2870 2610 c0 -5 7 -10 15 -10 8 0 15 5 15 10 0 6 -7 10 -15 10 -8 0
-15 -4 -15 -10z"/>
<path d="M3195 2571 c-6 -11 9 -23 19 -14 9 9 7 23 -3 23 -6 0 -12 -4 -16 -9z"/>
<path d="M3437 2605 c-9 -22 3 -46 22 -43 10 2 16 13 16 28 0 28 -29 40 -38
15z"/>
<path d="M3570 2610 c0 -5 7 -10 15 -10 8 0 15 5 15 10 0 6 -7 10 -15 10 -8 0
-15 -4 -15 -10z"/>
<path d="M4205 2571 c-3 -5 -1 -12 5 -16 12 -7 30 2 30 16 0 12 -27 12 -35 0z"/>
<path d="M4525 2610 c-3 -5 3 -10 15 -10 12 0 18 5 15 10 -3 6 -10 10 -15 10
-5 0 -12 -4 -15 -10z"/>
<path d="M1897 2365 c-9 -22 3 -46 22 -43 10 2 16 13 16 28 0 28 -29 40 -38
15z"/>
<path d="M2087 2373 c-13 -12 -7 -44 9 -50 20 -7 33 12 27 38 -5 19 -24 25
-36 12z"/>
<path d="M2215 2370 c-3 -5 3 -10 15 -10 12 0 18 5 15 10 -3 6 -10 10 -15 10
-5 0 -12 -4 -15 -10z"/>
<path d="M3160 2370 c0 -5 7 -10 15 -10 8 0 15 5 15 10 0 6 -7 10 -15 10 -8 0
-15 -4 -15 -10z"/>
<path d="M3517 2365 c-9 -22 3 -46 22 -43 10 2 16 13 16 28 0 28 -29 40 -38
15z"/>
<path d="M3650 2370 c0 -5 7 -10 15 -10 8 0 15 5 15 10 0 6 -7 10 -15 10 -8 0
-15 -4 -15 -10z"/>
<path d="M3950 2370 c0 -5 7 -10 15 -10 8 0 15 5 15 10 0 6 -7 10 -15 10 -8 0
-15 -4 -15 -10z"/>
<path d="M4195 2370 c-3 -5 3 -10 15 -10 12 0 18 5 15 10 -3 6 -10 10 -15 10
-5 0 -12 -4 -15 -10z"/>
<path d="M1647 2133 c-13 -12 -7 -44 9 -50 20 -7 33 12 27 38 -5 19 -24 25
-36 12z"/>
<path d="M2597 2125 c-9 -22 3 -46 22 -43 10 2 16 13 16 28 0 28 -29 40 -38
15z"/>
<path d="M1830 2130 c0 -5 7 -10 15 -10 8 0 15 5 15 10 0 6 -7 10 -15 10 -8 0
-15 -4 -15 -10z"/>
<path d="M2005 2091 c-6 -11 9 -23 19 -14 9 9 7 23 -3 23 -6 0 -12 -4 -16 -9z"/>
<path d="M2305 2091 c-3 -5 -1 -12 5 -16 12 -7 30 2 30 16 0 12 -27 12 -35 0z"/>
<path d="M2730 2130 c0 -5 7 -10 15 -10 8 0 15 5 15 10 0 6 -7 10 -15 10 -8 0
-15 -4 -15 -10z"/>
<path d="M3127 1895 c-9 -22 3 -46 22 -43 10 2 16 13 16 28 0 28 -29 40 -38
15z"/>
<path d="M1835 1900 c-3 -5 3 -10 15 -10 12 0 18 5 15 10 -3 6 -10 10 -15 10
-5 0 -12 -4 -15 -10z"/>
<path d="M2265 1861 c-3 -5 -1 -12 5 -16 12 -7 30 2 30 16 0 12 -27 12 -35 0z"/>
<path d="M2885 1861 c-6 -11 9 -23 19 -14 9 9 7 23 -3 23 -6 0 -12 -4 -16 -9z"/>
<path d="M3260 1900 c0 -5 7 -10 15 -10 8 0 15 5 15 10 0 6 -7 10 -15 10 -8 0
-15 -4 -15 -10z"/>
<path d="M3755 1900 c-3 -5 3 -10 15 -10 12 0 18 5 15 10 -3 6 -10 10 -15 10
-5 0 -12 -4 -15 -10z"/>
<path d="M4000 1900 c0 -5 7 -10 15 -10 8 0 15 5 15 10 0 6 -7 10 -15 10 -8 0
-15 -4 -15 -10z"/>
<path d="M3005 885 c-5 -2 -53 -13 -106 -25 -87 -19 -96 -23 -92 -41 4 -14 11
-18 22 -13 9 4 54 15 100 26 89 20 121 33 121 48 0 10 -24 12 -45 5z"/>
</g>
</svg>
