<?xml version="1.0" standalone="no"?>
<!DOCTYPE svg PUBLIC "-//W3C//DTD SVG 20010904//EN"
 "http://www.w3.org/TR/2001/REC-SVG-20010904/DTD/svg10.dtd">
<svg version="1.0" xmlns="http://www.w3.org/2000/svg"
 width="638.000000pt" height="640.000000pt" viewBox="0 0 638.000000 640.000000"
 preserveAspectRatio="xMidYMid meet">

<g transform="translate(0.000000,640.000000) scale(0.100000,-0.100000)"
fill="#000000" stroke="none">
<path d="M0 3200 l0 -3200 3190 0 3190 0 0 3200 0 3200 -3190 0 -3190 0 0
-3200z m1708 1467 c20 -15 14 -53 -13 -85 -14 -17 -25 -33 -25 -36 0 -3 11 -6
25 -6 16 0 25 -6 25 -15 0 -12 -13 -15 -55 -15 -68 0 -70 11 -15 75 33 38 38
50 29 61 -10 13 -14 12 -29 -1 -22 -20 -42 -19 -38 2 7 36 61 47 96 20z m130
0 c20 -15 14 -53 -13 -85 -14 -17 -25 -33 -25 -36 0 -3 11 -6 25 -6 16 0 25
-6 25 -15 0 -12 -13 -15 -55 -15 -68 0 -70 11 -15 75 33 38 38 50 29 61 -10
13 -14 12 -29 -1 -22 -20 -42 -19 -38 2 7 36 61 47 96 20z m305 -8 c22 -28 22
-90 -1 -119 -13 -16 -32 -24 -70 -28 l-52 -5 0 93 0 93 53 -7 c35 -4 58 -14
70 -27z m675 0 c3 -22 7 -25 31 -21 50 7 79 -59 46 -105 -12 -18 -25 -22 -60
-21 l-45 1 0 89 c0 67 3 89 13 86 6 -3 13 -16 15 -29z m500 8 c20 -15 14 -53
-13 -85 -14 -17 -25 -33 -25 -36 0 -3 11 -6 25 -6 16 0 25 -6 25 -15 0 -12
-13 -15 -55 -15 -68 0 -70 11 -15 75 33 38 38 50 29 61 -10 13 -14 12 -29 -1
-22 -20 -42 -19 -38 2 7 36 61 47 96 20z m270 0 c20 -15 14 -53 -13 -85 -14
-17 -25 -33 -25 -36 0 -3 11 -6 25 -6 16 0 25 -6 25 -15 0 -12 -13 -15 -55
-15 -68 0 -70 11 -15 75 33 38 38 50 29 61 -10 13 -14 12 -29 -1 -22 -20 -42
-19 -38 2 7 36 61 47 96 20z m130 0 c20 -15 14 -53 -13 -85 -14 -17 -25 -33
-25 -36 0 -3 11 -6 25 -6 16 0 25 -6 25 -15 0 -12 -13 -15 -55 -15 -68 0 -70
11 -15 75 33 38 38 50 29 61 -10 13 -14 12 -29 -1 -22 -20 -42 -19 -38 2 7 36
61 47 96 20z m-267 -3 c16 -20 17 -102 0 -131 -14 -27 -52 -30 -75 -7 -19 19
-22 124 -4 142 17 17 63 15 79 -4z m-1177 -40 c9 -8 16 -24 16 -35 0 -15 -7
-19 -35 -19 -25 0 -35 -4 -35 -15 0 -13 7 -15 35 -9 36 6 44 -3 23 -24 -17
-17 -64 -15 -82 4 -9 8 -16 31 -16 49 0 39 22 65 55 65 13 0 31 -7 39 -16z
m146 4 c-1 -7 -14 -29 -31 -48 l-30 -35 31 -3 c18 -2 30 -9 30 -18 0 -10 -14
-14 -55 -14 -47 0 -55 3 -55 18 0 10 11 29 25 42 14 13 25 27 25 32 0 4 -11 8
-25 8 -16 0 -25 6 -25 15 0 12 13 15 55 15 38 0 55 -4 55 -12z m114 -10 c24
-34 19 -46 -19 -50 -20 -2 -34 -7 -33 -13 2 -5 18 -9 36 -7 36 3 39 0 16 -22
-23 -24 -70 -20 -88 6 -33 46 -7 108 44 108 18 0 34 -8 44 -22z m214 10 c7 -6
12 -33 12 -65 0 -46 -3 -54 -17 -51 -14 2 -19 15 -21 51 -2 31 -8 47 -16 47
-17 0 -26 -22 -26 -66 0 -24 -5 -34 -15 -34 -11 0 -15 12 -15 51 0 43 -3 50
-17 47 -14 -2 -19 -15 -21 -51 -3 -39 -6 -47 -23 -47 -17 0 -19 7 -19 64 l0
64 83 0 c45 0 88 -5 95 -10z m276 -4 c9 -8 16 -24 16 -35 0 -15 -7 -19 -35
-19 -25 0 -35 -4 -35 -15 0 -13 7 -15 35 -9 36 6 44 -3 23 -24 -17 -17 -64
-15 -82 4 -9 8 -16 31 -16 49 0 39 22 65 55 65 13 0 31 -7 39 -16z m120 1 c-3
-7 -14 -15 -25 -18 -15 -4 -19 -14 -19 -51 0 -34 -4 -46 -15 -46 -12 0 -15 14
-15 64 l0 64 39 0 c29 1 39 -3 35 -13z m-1229 -95 c0 -8 -8 -16 -17 -18 -13
-2 -18 3 -18 18 0 15 5 20 18 18 9 -2 17 -10 17 -18z m15 -45 c0 -13 -25 -15
-165 -15 -140 0 -165 2 -165 15 0 13 25 15 165 15 140 0 165 -2 165 -15z
m1210 0 c0 -13 -70 -15 -570 -15 -500 0 -570 2 -570 15 0 13 70 15 570 15 500
0 570 -2 570 -15z m600 0 c0 -13 -36 -15 -260 -15 -224 0 -260 2 -260 15 0 13
36 15 260 15 224 0 260 -2 260 -15z m-1982 -382 c20 -28 -3 -40 -39 -19 -29
17 -31 17 -50 0 -10 -9 -19 -30 -19 -45 0 -50 52 -78 80 -43 11 13 10 16 -8
21 -37 9 -27 33 14 33 l35 0 -3 -42 c-3 -40 -5 -44 -39 -52 -51 -12 -86 -1
-104 34 -26 50 -13 108 29 129 28 14 88 5 104 -16z m210 -4 c3 -22 7 -25 31
-21 50 7 79 -59 46 -105 -12 -18 -25 -22 -60 -21 l-45 1 0 89 c0 67 3 89 13
86 6 -3 13 -16 15 -29z m979 -18 c7 -24 15 -46 17 -48 2 -3 11 17 18 44 12 41
17 48 38 48 24 0 25 -2 28 -87 2 -74 0 -88 -13 -88 -11 0 -15 12 -15 52 0 58
-10 56 -25 -5 -8 -31 -16 -42 -30 -42 -14 0 -22 11 -30 42 -15 61 -25 63 -25
5 0 -40 -4 -52 -15 -52 -12 0 -15 16 -15 83 0 46 3 87 7 91 4 4 16 6 27 4 14
-2 24 -16 33 -47z m531 -43 l3 -85 -50 -1 c-58 -1 -73 12 -73 63 0 47 18 68
54 63 23 -4 28 -1 28 17 0 25 9 37 24 32 6 -2 12 -40 14 -89z m197 1 c0 -72
-2 -84 -17 -87 -16 -3 -18 6 -18 81 0 46 3 87 7 91 19 19 28 -7 28 -85z
m-1035 61 c0 -11 5 -20 10 -20 6 0 10 -7 10 -15 0 -8 -4 -15 -10 -15 -5 0 -10
-16 -10 -35 0 -19 5 -35 10 -35 6 0 10 -7 10 -15 0 -26 -49 -19 -54 8 -15 72
-15 104 0 125 19 27 34 28 34 2z m-746 -42 c24 -34 19 -46 -19 -50 -20 -2 -34
-7 -33 -13 2 -5 18 -9 36 -7 36 3 39 0 16 -22 -23 -24 -70 -20 -88 6 -33 46
-7 108 44 108 18 0 34 -8 44 -22z m266 6 c0 -8 -7 -14 -15 -14 -19 0 -35 -31
-35 -69 0 -21 -5 -31 -15 -31 -12 0 -15 14 -15 64 l0 64 40 0 c28 1 40 -3 40
-14z m108 4 c7 -7 12 -36 12 -65 l0 -52 -32 1 c-69 2 -79 7 -76 36 2 21 11 29
36 37 43 12 41 28 -3 19 -19 -3 -35 -2 -35 3 0 18 25 33 55 33 17 0 36 -5 43
-12z m139 0 c19 -15 18 -118 -1 -118 -11 0 -16 14 -18 48 -3 39 -6 47 -23 47
-17 0 -20 -8 -23 -47 -2 -34 -7 -48 -18 -48 -11 0 -14 15 -14 64 l0 64 42 0
c23 1 48 -4 55 -10z m150 0 c19 -15 18 -118 -1 -118 -11 0 -16 14 -18 48 -3
39 -6 47 -23 47 -17 0 -20 -8 -23 -47 -2 -34 -7 -48 -18 -48 -11 0 -14 15 -14
64 l0 64 42 0 c23 1 48 -4 55 -10z m217 -10 c24 -34 19 -46 -19 -50 -20 -2
-34 -7 -33 -13 2 -5 18 -9 36 -7 36 3 39 0 16 -22 -23 -24 -70 -20 -88 6 -33
46 -7 108 44 108 18 0 34 -8 44 -22z m401 10 c2 -7 5 -36 8 -64 l4 -51 -49 -1
c-39 -1 -50 3 -59 20 -10 18 -8 25 11 40 12 10 31 18 41 18 10 0 19 5 19 11 0
7 -12 9 -35 5 -36 -7 -44 1 -23 22 16 16 78 15 83 0z m142 0 c19 -15 18 -118
-1 -118 -11 0 -16 14 -18 48 -3 39 -6 47 -23 47 -17 0 -20 -8 -23 -47 -2 -34
-7 -48 -18 -48 -11 0 -14 15 -14 64 l0 64 42 0 c23 1 48 -4 55 -10z m277 -4
c9 -8 16 -24 16 -35 0 -15 -7 -19 -35 -19 -25 0 -35 -4 -35 -15 0 -13 7 -15
35 -9 36 6 44 -3 23 -24 -17 -17 -64 -15 -82 4 -9 8 -16 31 -16 49 0 39 22 65
55 65 13 0 31 -7 39 -16z m213 4 c19 -15 18 -118 -1 -118 -11 0 -16 14 -18 48
-3 39 -6 47 -23 47 -17 0 -20 -8 -23 -47 -2 -34 -7 -48 -18 -48 -11 0 -14 15
-14 64 l0 64 42 0 c23 1 48 -4 55 -10z m271 -11 c3 -17 -1 -18 -30 -12 -22 5
-30 4 -23 -3 6 -6 19 -12 29 -14 28 -5 43 -34 30 -55 -13 -22 -70 -29 -90 -12
-26 22 -15 31 29 24 47 -8 44 4 -6 20 -60 19 -42 78 22 73 25 -2 37 -8 39 -21z
m144 6 c22 -20 23 -70 1 -95 -36 -40 -103 -10 -103 45 0 58 60 88 102 50z
m-334 -105 c-2 -23 -9 -34 -22 -36 -13 -3 -16 0 -10 10 5 7 7 23 5 36 -2 15 3
22 14 22 12 0 16 -8 13 -32z m-1918 -128 c0 -11 -7 -20 -15 -20 -8 0 -15 9
-15 20 0 11 7 20 15 20 8 0 15 -9 15 -20z m290 -69 l0 -88 -42 -1 c-53 0 -78
20 -78 64 0 42 25 67 62 62 25 -4 28 -2 28 24 0 18 5 28 15 28 12 0 15 -17 15
-89z m70 69 c0 -11 -7 -20 -15 -20 -8 0 -15 9 -15 20 0 11 7 20 15 20 8 0 15
-9 15 -20z m295 -30 c17 -27 33 -50 38 -50 4 0 7 23 7 51 0 36 4 49 13 47 8
-3 13 -33 15 -91 3 -81 1 -87 -17 -87 -13 0 -29 16 -48 50 l-28 50 -5 -47 c-4
-35 -10 -49 -22 -51 -16 -3 -18 6 -18 81 0 46 3 87 7 90 15 16 31 4 58 -43z
m705 30 c0 -11 -7 -20 -15 -20 -8 0 -15 9 -15 20 0 11 7 20 15 20 8 0 15 -9
15 -20z m330 -9 c0 -25 3 -28 25 -23 40 7 55 -13 55 -74 0 -40 -4 -54 -14 -54
-11 0 -16 14 -18 48 -3 39 -6 47 -23 47 -17 0 -20 -8 -23 -47 -2 -34 -7 -48
-18 -48 -11 0 -14 18 -14 90 0 73 3 90 15 90 10 0 15 -10 15 -29z m-1620 -1
c0 -11 5 -20 10 -20 6 0 10 -7 10 -15 0 -8 -4 -15 -10 -15 -5 0 -10 -16 -10
-35 0 -19 5 -35 10 -35 6 0 10 -7 10 -15 0 -26 -49 -19 -54 8 -15 72 -15 104
0 125 19 27 34 28 34 2z m-395 -60 l12 -35 10 35 c12 46 41 53 49 11 8 -39 21
-40 29 -1 4 20 13 30 25 30 17 0 17 -3 -3 -65 -24 -74 -50 -88 -61 -33 -6 33
-21 29 -28 -7 -2 -11 -11 -21 -20 -23 -12 -2 -21 11 -33 50 -10 29 -20 59 -23
67 -3 8 1 12 13 10 10 -2 24 -20 30 -39z m249 18 c24 -34 19 -46 -19 -50 -20
-2 -34 -7 -33 -13 2 -5 18 -9 36 -7 36 3 39 0 16 -22 -23 -24 -70 -20 -88 6
-33 46 -7 108 44 108 18 0 34 -8 44 -22z m76 -43 c0 -51 -3 -65 -15 -65 -12 0
-15 14 -15 65 0 51 3 65 15 65 12 0 15 -14 15 -65z m360 0 c0 -51 -3 -65 -15
-65 -12 0 -15 14 -15 65 0 51 3 65 15 65 12 0 15 -14 15 -65z m124 43 c24 -34
19 -46 -19 -50 -20 -2 -34 -7 -33 -13 2 -5 18 -9 36 -7 36 3 39 0 16 -22 -23
-24 -70 -20 -88 6 -33 46 -7 108 44 108 18 0 34 -8 44 -22z m374 10 c7 -7 12
-36 12 -65 l0 -52 -32 1 c-69 2 -79 7 -76 36 2 20 11 29 36 36 43 12 41 29 -3
20 -19 -3 -35 -2 -35 3 0 18 25 33 55 33 17 0 36 -5 43 -12z m130 -11 c3 -17
-1 -18 -30 -12 -22 5 -30 4 -23 -3 6 -6 19 -12 29 -14 28 -5 43 -34 30 -55
-13 -22 -70 -29 -90 -12 -26 22 -15 31 29 24 47 -8 44 4 -6 20 -60 19 -42 78
22 73 25 -2 37 -8 39 -21z m136 1 c24 -34 19 -46 -19 -50 -20 -2 -34 -7 -33
-13 2 -5 18 -9 36 -7 36 3 39 0 16 -22 -23 -24 -70 -20 -88 6 -33 46 -7 108
44 108 18 0 34 -8 44 -22z m186 6 c0 -8 -7 -14 -15 -14 -19 0 -35 -31 -35 -69
0 -21 -5 -31 -15 -31 -12 0 -15 14 -15 64 l0 64 40 0 c28 1 40 -3 40 -14z m50
-49 c0 -51 -3 -65 -15 -65 -12 0 -15 14 -15 65 0 51 3 65 15 65 12 0 15 -14
15 -65z m124 43 c24 -34 19 -46 -19 -50 -20 -2 -34 -7 -33 -13 2 -5 18 -9 36
-7 36 3 39 0 16 -22 -23 -24 -70 -20 -88 6 -33 46 -7 108 44 108 18 0 34 -8
44 -22z m137 6 c10 -13 10 -17 -2 -24 -8 -6 -15 -6 -17 0 -6 17 -39 11 -45 -9
-9 -34 34 -73 45 -40 2 6 12 10 21 8 16 -4 16 -6 2 -26 -19 -27 -60 -30 -87
-6 -22 20 -23 70 -1 95 20 22 66 24 84 2z m273 0 c9 -8 16 -24 16 -35 0 -15
-7 -19 -35 -19 -25 0 -35 -4 -35 -15 0 -13 7 -15 35 -9 36 6 44 -3 23 -24 -17
-17 -64 -15 -82 4 -9 8 -16 31 -16 49 0 39 22 65 55 65 13 0 31 -7 39 -16z
m143 4 c19 -15 18 -118 -1 -118 -11 0 -16 14 -18 48 -3 39 -6 47 -23 47 -17 0
-20 -8 -23 -47 -2 -34 -7 -48 -18 -48 -11 0 -14 15 -14 64 l0 64 42 0 c23 1
48 -4 55 -10z m-2357 -258 c0 -40 13 -53 24 -25 3 8 18 15 32 15 l27 0 -23
-25 -23 -24 22 -36 c26 -44 26 -45 3 -45 -11 0 -24 11 -30 25 -6 14 -16 25
-22 25 -5 0 -10 -11 -10 -25 0 -16 -6 -25 -15 -25 -12 0 -15 17 -15 90 0 73 3
90 15 90 11 0 15 -11 15 -40z m1100 0 c0 -42 9 -50 30 -25 7 8 21 15 31 15 17
0 17 -2 2 -28 -16 -27 -15 -31 6 -65 l23 -37 -21 0 c-13 0 -26 10 -33 25 -13
30 -32 28 -36 -3 -2 -12 -10 -22 -18 -22 -11 0 -14 18 -14 83 0 46 3 87 7 90
15 16 23 5 23 -33z m559 3 c6 -21 11 -45 11 -52 0 -24 16 1 28 44 16 56 47 59
62 7 5 -20 10 -43 10 -49 0 -7 4 -13 9 -13 5 0 12 21 16 46 3 25 13 48 21 51
30 11 30 0 -7 -139 -15 -58 -44 -52 -59 12 -7 28 -16 52 -20 55 -5 3 -14 -20
-21 -50 -10 -47 -16 -55 -33 -53 -16 2 -24 18 -38 73 -22 86 -22 105 -3 105 8
0 19 -16 24 -37z m241 22 c0 -8 -7 -15 -15 -15 -8 0 -15 7 -15 15 0 8 7 15 15
15 8 0 15 -7 15 -15z m50 0 c0 -8 -7 -15 -15 -15 -8 0 -15 7 -15 15 0 8 7 15
15 15 8 0 15 -7 15 -15z m910 0 c0 -8 -7 -15 -15 -15 -8 0 -15 -4 -15 -10 0
-5 5 -10 10 -10 6 0 10 -7 10 -15 0 -8 -4 -15 -10 -15 -5 0 -10 -22 -10 -50 0
-38 -4 -50 -15 -50 -11 0 -15 12 -15 50 0 28 -4 50 -10 50 -5 0 -10 7 -10 15
0 8 5 15 10 15 6 0 10 9 10 19 0 11 6 22 13 24 25 11 47 7 47 -8z m-2168 -62
l3 -68 43 -3 c28 -2 42 -8 42 -18 0 -11 -14 -14 -60 -14 l-60 0 0 85 c0 68 3
85 15 85 11 0 15 -16 17 -67z m1578 47 c0 -11 5 -20 10 -20 6 0 10 -7 10 -15
0 -8 -4 -15 -10 -15 -5 0 -10 -16 -10 -35 0 -19 5 -35 10 -35 6 0 10 -7 10
-15 0 -26 -49 -19 -54 8 -15 72 -15 104 0 125 19 27 34 28 34 2z m-2082 -32
c7 -7 12 -36 12 -65 l0 -52 -32 1 c-69 2 -79 7 -76 36 2 20 11 29 36 36 43 12
41 29 -3 20 -19 -3 -35 -2 -35 3 0 18 25 33 55 33 17 0 36 -5 43 -12z m152
-14 c6 -14 10 -43 10 -65 0 -32 -3 -39 -20 -39 -17 0 -20 7 -20 50 0 43 -3 50
-19 50 -17 0 -20 -8 -23 -47 -2 -36 -7 -49 -20 -51 -16 -3 -18 5 -18 61 l0 64
50 1 c46 1 52 -2 60 -24z m137 14 c19 -15 18 -118 -1 -118 -11 0 -16 14 -18
48 -3 39 -6 47 -23 47 -17 0 -20 -8 -23 -47 -2 -34 -7 -48 -18 -48 -11 0 -14
15 -14 64 l0 64 42 0 c23 1 48 -4 55 -10z m417 -4 c9 -8 16 -24 16 -35 0 -15
-7 -19 -35 -19 -25 0 -35 -4 -35 -15 0 -13 7 -15 35 -9 36 6 44 -3 23 -24 -17
-17 -64 -15 -82 4 -9 8 -16 31 -16 49 0 39 22 65 55 65 13 0 31 -7 39 -16z
m137 0 c10 -13 10 -17 -2 -24 -8 -6 -15 -6 -17 0 -6 17 -39 11 -45 -9 -9 -34
34 -73 45 -40 2 6 12 10 21 8 16 -4 16 -6 2 -26 -19 -27 -60 -30 -87 -6 -22
20 -23 70 -1 95 20 22 66 24 84 2z m263 0 c9 -8 16 -24 16 -35 0 -15 -7 -19
-35 -19 -25 0 -35 -4 -35 -15 0 -13 7 -15 35 -9 36 6 44 -3 23 -24 -17 -17
-64 -15 -82 4 -9 8 -16 31 -16 49 0 39 22 65 55 65 13 0 31 -7 39 -16z m120 1
c-3 -7 -14 -15 -25 -18 -15 -4 -19 -14 -19 -51 0 -34 -4 -46 -15 -46 -12 0
-15 14 -15 64 l0 64 39 0 c29 1 39 -3 35 -13z m110 -7 c24 -34 19 -46 -19 -50
-20 -2 -34 -7 -33 -13 2 -5 18 -9 36 -7 36 3 39 0 16 -22 -23 -24 -70 -20 -88
6 -33 46 -7 108 44 108 18 0 34 -8 44 -22z m366 -23 c0 -33 5 -47 16 -52 21
-8 34 14 34 60 0 26 4 37 15 37 12 0 15 -14 15 -65 l0 -64 -32 1 c-77 2 -78 3
-78 68 0 47 3 60 15 60 11 0 15 -12 15 -45z m194 30 c-3 -7 -14 -15 -25 -18
-15 -4 -19 -14 -19 -51 0 -34 -4 -46 -15 -46 -12 0 -15 14 -15 64 l0 64 39 0
c29 1 39 -3 35 -13z m104 -8 c3 -17 -1 -18 -30 -12 -22 5 -30 4 -23 -3 6 -6
19 -12 29 -14 28 -5 43 -34 30 -55 -13 -22 -70 -29 -90 -12 -26 22 -15 31 29
24 47 -8 44 4 -6 20 -60 19 -42 78 22 73 25 -2 37 -8 39 -21z m216 1 c24 -34
19 -46 -19 -50 -20 -2 -34 -7 -33 -13 2 -5 18 -9 36 -7 36 3 39 0 16 -22 -23
-24 -70 -20 -88 6 -33 46 -7 108 44 108 18 0 34 -8 44 -22z m201 10 c2 -7 5
-36 8 -64 l4 -51 -49 -1 c-39 -1 -50 3 -59 20 -10 18 -8 25 11 40 12 10 31 18
41 18 10 0 19 5 19 11 0 7 -12 9 -35 5 -36 -7 -44 1 -23 22 16 16 78 15 83 0z
m75 -33 c0 -33 5 -47 16 -52 21 -8 34 14 34 60 0 26 4 37 15 37 12 0 15 -14
15 -65 l0 -64 -32 1 c-77 2 -78 3 -78 68 0 47 3 60 15 60 11 0 15 -12 15 -45z
m-2120 -65 c0 -11 -7 -20 -15 -20 -8 0 -15 9 -15 20 0 11 7 20 15 20 8 0 15
-9 15 -20z m-480 -209 l0 -88 -42 -1 c-53 0 -78 20 -78 64 0 42 25 67 62 62
25 -4 28 -2 28 24 0 18 5 28 15 28 12 0 15 -17 15 -89z m475 42 c14 -58 21
-60 34 -9 18 74 52 73 71 -2 13 -51 22 -46 34 21 4 23 13 37 21 37 19 0 19
-19 -2 -108 -14 -62 -20 -72 -36 -70 -14 2 -25 19 -37 58 -18 58 -21 56 -40
-17 -8 -31 -16 -43 -29 -43 -15 0 -23 17 -39 82 -11 45 -18 86 -15 91 11 17
28 -1 38 -40z m360 26 c0 -7 -8 -15 -17 -17 -18 -3 -25 18 -11 32 10 10 28 1
28 -15z m65 -8 c0 -25 3 -28 25 -23 40 7 55 -13 55 -74 0 -40 -4 -54 -14 -54
-11 0 -16 14 -18 48 -3 39 -6 47 -23 47 -17 0 -20 -8 -23 -47 -2 -34 -7 -48
-18 -48 -11 0 -14 18 -14 90 0 73 3 90 15 90 10 0 15 -10 15 -29z m560 0 c0
-25 3 -28 25 -23 40 7 55 -13 55 -74 0 -40 -4 -54 -14 -54 -11 0 -16 14 -18
48 -3 39 -6 47 -23 47 -17 0 -20 -8 -23 -47 -2 -34 -7 -48 -18 -48 -11 0 -14
18 -14 90 0 73 3 90 15 90 10 0 15 -10 15 -29z m800 -17 c0 -35 13 -46 24 -19
3 8 18 15 32 15 l27 0 -23 -25 -23 -24 22 -36 c26 -44 26 -45 3 -45 -11 0 -24
11 -30 25 -6 14 -16 25 -22 25 -5 0 -10 -11 -10 -25 0 -16 -6 -25 -15 -25 -12
0 -15 17 -15 90 0 75 2 88 15 84 9 -4 15 -19 15 -40z m660 -43 l0 -88 -42 -1
c-53 0 -78 20 -78 64 0 42 25 67 62 62 25 -4 28 -2 28 24 0 18 5 28 15 28 12
0 15 -17 15 -89z m-1310 59 c0 -11 5 -20 10 -20 6 0 10 -7 10 -15 0 -8 -4 -15
-10 -15 -5 0 -10 -16 -10 -35 0 -19 5 -35 10 -35 6 0 10 -7 10 -15 0 -26 -49
-19 -54 8 -15 72 -15 104 0 125 19 27 34 28 34 2z m790 0 c0 -11 5 -20 10 -20
6 0 10 -7 10 -15 0 -8 -4 -15 -10 -15 -5 0 -10 -16 -10 -35 0 -19 5 -35 10
-35 6 0 10 -7 10 -15 0 -26 -49 -19 -54 8 -15 72 -15 104 0 125 19 27 34 28
34 2z m-2276 -42 c24 -34 19 -46 -19 -50 -20 -2 -34 -7 -33 -13 2 -5 18 -9 36
-7 36 3 39 0 16 -22 -23 -24 -70 -20 -88 6 -33 46 -7 108 44 108 18 0 34 -8
44 -22z m214 10 c7 -6 12 -33 12 -65 0 -46 -3 -54 -17 -51 -14 2 -19 15 -21
51 -2 31 -8 47 -16 47 -17 0 -26 -22 -26 -66 0 -24 -5 -34 -15 -34 -11 0 -15
12 -15 51 0 43 -3 50 -17 47 -14 -2 -19 -15 -21 -51 -3 -39 -6 -47 -23 -47
-17 0 -19 7 -19 64 l0 64 83 0 c45 0 88 -5 95 -10z m416 -4 c9 -8 16 -24 16
-35 0 -15 -7 -19 -35 -19 -25 0 -35 -4 -35 -15 0 -13 7 -15 35 -9 36 6 44 -3
23 -24 -17 -17 -64 -15 -82 4 -9 8 -16 31 -16 49 0 39 22 65 55 65 13 0 31 -7
39 -16z m84 -46 c-2 -50 -6 -63 -20 -66 -16 -3 -18 5 -18 62 0 60 2 66 20 66
19 0 21 -5 18 -62z m282 36 c6 -14 10 -43 10 -65 0 -32 -3 -39 -20 -39 -17 0
-20 7 -20 51 0 43 -3 50 -17 47 -13 -2 -19 -16 -23 -48 -4 -32 -10 -46 -22
-48 -16 -3 -18 5 -18 61 l0 64 50 1 c46 1 52 -2 60 -24z m135 14 c2 -7 5 -36
8 -64 l4 -51 -49 -1 c-39 -1 -50 3 -59 20 -10 18 -8 25 11 40 12 10 31 18 41
18 10 0 19 5 19 11 0 7 -12 9 -35 5 -36 -7 -44 1 -23 22 16 16 78 15 83 0z
m133 0 c21 -21 13 -29 -25 -26 -35 3 -38 1 -41 -25 -4 -30 21 -48 41 -28 16
16 37 14 37 -4 0 -17 -30 -35 -57 -35 -35 0 -55 24 -55 65 0 26 6 43 18 52 22
16 66 17 82 1z m351 -1 c15 -19 4 -27 -33 -21 -28 4 -27 3 12 -15 23 -11 42
-27 42 -35 0 -24 -29 -46 -60 -46 -25 0 -60 21 -60 37 0 2 18 2 40 -2 49 -8
51 0 5 19 -27 11 -35 21 -35 40 0 13 6 27 13 29 24 10 65 7 76 -6z m219 1 c7
-6 12 -33 12 -65 0 -46 -3 -54 -17 -51 -14 2 -19 15 -21 51 -2 31 -8 47 -16
47 -17 0 -26 -22 -26 -66 0 -24 -5 -34 -15 -34 -11 0 -15 12 -15 51 0 43 -3
50 -17 47 -14 -2 -19 -15 -21 -51 -3 -39 -6 -47 -23 -47 -17 0 -19 7 -19 64
l0 64 83 0 c45 0 88 -5 95 -10z m137 0 c2 -7 5 -36 8 -64 l4 -51 -49 -1 c-39
-1 -50 3 -59 20 -10 18 -8 25 11 40 12 10 31 18 41 18 10 0 19 5 19 11 0 7
-12 9 -35 5 -36 -7 -44 1 -23 22 16 16 78 15 83 0z m115 -4 c0 -8 -7 -14 -15
-14 -19 0 -35 -31 -35 -69 0 -21 -5 -31 -15 -31 -12 0 -15 14 -15 64 l0 64 40
0 c28 1 40 -3 40 -14z m333 -29 c5 -52 10 -60 32 -52 10 5 15 20 15 52 0 33 4
45 15 45 12 0 15 -14 15 -64 l0 -64 -42 0 c-23 -1 -48 4 -55 10 -18 15 -18
118 1 118 9 0 15 -16 19 -45z m214 33 c19 -15 18 -118 -1 -118 -11 0 -16 14
-18 48 -3 39 -6 47 -23 47 -17 0 -20 -8 -23 -47 -2 -34 -7 -48 -18 -48 -11 0
-14 15 -14 64 l0 64 42 0 c23 1 48 -4 55 -10z m-2407 -242 c0 -19 4 -22 30
-18 25 4 31 0 40 -23 5 -14 10 -44 10 -66 0 -32 -3 -39 -20 -39 -17 0 -20 7
-20 51 0 43 -3 50 -17 47 -13 -2 -19 -16 -23 -48 -4 -32 -10 -46 -22 -48 -16
-3 -18 6 -18 81 0 46 3 86 6 90 12 12 34 -6 34 -27z m288 -58 l3 -85 -50 -1
c-58 -1 -73 12 -73 63 0 47 18 68 54 63 23 -4 28 -1 28 17 0 25 9 37 24 32 6
-2 12 -40 14 -89z m667 71 c0 -7 -8 -15 -17 -17 -18 -3 -25 18 -11 32 10 10
28 1 28 -15z m200 -70 c0 -72 -2 -84 -17 -87 -16 -3 -18 6 -18 81 0 46 3 87 7
91 19 19 28 -7 28 -85z m415 71 c0 -11 -7 -20 -15 -20 -8 0 -15 9 -15 20 0 11
7 20 15 20 8 0 15 -9 15 -20z m226 -32 c39 7 54 -14 54 -74 0 -40 -4 -54 -14
-54 -11 0 -16 14 -18 48 -3 39 -6 47 -23 47 -17 0 -20 -8 -23 -47 -2 -34 -7
-48 -18 -48 -19 0 -21 166 -1 173 7 2 13 -7 15 -23 3 -23 7 -26 28 -22z m-374
-25 l3 -68 43 -3 c28 -2 42 -8 42 -18 0 -11 -14 -14 -60 -14 l-60 0 0 85 c0
68 3 85 15 85 11 0 15 -16 17 -67z m498 47 c0 -11 5 -20 10 -20 6 0 10 -7 10
-15 0 -8 -4 -15 -10 -15 -5 0 -10 -16 -10 -35 0 -19 5 -35 10 -35 6 0 10 -7
10 -15 0 -26 -49 -19 -54 8 -15 72 -15 104 0 125 19 27 34 28 34 2z m-2283
-32 c19 -15 18 -118 -1 -118 -11 0 -16 14 -18 48 -3 39 -6 47 -23 47 -17 0
-20 -8 -23 -47 -2 -34 -7 -48 -18 -48 -11 0 -14 15 -14 64 l0 64 42 0 c23 1
48 -4 55 -10z m145 -5 c22 -20 23 -70 1 -95 -36 -40 -103 -10 -103 45 0 58 60
88 102 50z m139 1 c10 -13 10 -17 -2 -24 -8 -6 -15 -6 -17 0 -6 17 -39 11 -45
-9 -9 -34 34 -73 45 -40 2 6 12 10 21 8 16 -4 16 -6 2 -26 -19 -27 -60 -30
-87 -6 -22 20 -23 70 -1 95 20 22 66 24 84 2z m494 4 c2 -7 5 -36 8 -64 l4
-51 -49 -1 c-39 -1 -50 3 -59 20 -10 18 -8 25 11 40 12 10 31 18 41 18 10 0
19 5 19 11 0 7 -12 9 -35 5 -36 -7 -44 1 -23 22 16 16 78 15 83 0z m135 -6 c0
-10 -11 -29 -25 -42 -33 -31 -32 -40 6 -40 20 0 29 -4 27 -12 -3 -8 -27 -14
-61 -16 -68 -4 -72 6 -26 61 l30 37 -25 0 c-16 0 -26 6 -26 15 0 11 12 15 50
15 42 0 50 -3 50 -18z m60 -27 c0 -33 5 -47 16 -52 21 -8 34 14 34 60 0 26 4
37 15 37 12 0 15 -14 15 -65 l0 -64 -32 1 c-77 2 -78 3 -78 68 0 47 3 60 15
60 11 0 15 -12 15 -45z m210 10 c13 -40 25 -38 35 5 5 21 13 30 26 30 17 0 19
-4 13 -22 -18 -59 -45 -108 -57 -108 -8 0 -26 27 -41 61 -31 72 -31 69 -7 69
13 0 23 -11 31 -35z m138 -27 c-2 -50 -6 -63 -20 -66 -16 -3 -18 5 -18 62 0
60 2 66 20 66 19 0 21 -5 18 -62z m116 46 c9 -8 16 -24 16 -35 0 -15 -7 -19
-35 -19 -25 0 -35 -4 -35 -15 0 -13 7 -15 35 -9 36 6 44 -3 23 -24 -17 -17
-64 -15 -82 4 -9 8 -16 31 -16 49 0 39 22 65 55 65 13 0 31 -7 39 -16z m200 0
c9 -8 16 -24 16 -35 0 -15 -7 -19 -35 -19 -25 0 -35 -4 -35 -15 0 -13 7 -15
35 -9 36 6 44 -3 23 -24 -17 -17 -64 -15 -82 4 -9 8 -16 31 -16 49 0 39 22 65
55 65 13 0 31 -7 39 -16z m296 -49 c0 -51 -3 -65 -15 -65 -12 0 -15 14 -15 65
0 51 3 65 15 65 12 0 15 -14 15 -65z m128 53 c21 -21 13 -29 -25 -26 -35 3
-38 1 -41 -25 -4 -30 21 -48 41 -28 16 16 37 14 37 -4 0 -17 -30 -35 -57 -35
-35 0 -55 24 -55 65 0 26 6 43 18 52 22 16 66 17 82 1z m356 -10 c24 -34 19
-46 -19 -50 -20 -2 -34 -7 -33 -13 2 -5 18 -9 36 -7 36 3 39 0 16 -22 -23 -24
-70 -20 -88 6 -33 46 -7 108 44 108 18 0 34 -8 44 -22z m120 7 c-3 -7 -14 -15
-25 -18 -15 -4 -19 -14 -19 -51 0 -34 -4 -46 -15 -46 -12 0 -15 14 -15 64 l0
64 39 0 c29 1 39 -3 35 -13z m-2606 -246 c3 -22 7 -25 31 -21 50 7 79 -59 46
-105 -12 -18 -25 -22 -60 -21 l-45 1 0 89 c0 67 3 89 13 86 6 -3 13 -16 15
-29z m427 -60 c0 -72 -2 -84 -17 -87 -16 -3 -18 6 -18 81 0 46 3 87 7 91 19
19 28 -7 28 -85z m200 70 c0 -7 -8 -15 -17 -17 -18 -3 -25 18 -11 32 10 10 28
1 28 -15z m575 -68 l0 -88 -42 -1 c-53 0 -78 20 -78 64 0 42 25 67 62 62 25
-4 28 -2 28 24 0 18 5 28 15 28 12 0 15 -17 15 -89z m65 68 c0 -7 -8 -15 -17
-17 -18 -3 -25 18 -11 32 10 10 28 1 28 -15z m203 -10 c3 -22 7 -25 32 -21 25
4 31 0 40 -23 5 -14 10 -44 10 -66 0 -32 -3 -39 -20 -39 -17 0 -20 7 -20 51 0
43 -3 50 -17 47 -13 -2 -19 -16 -23 -48 -4 -32 -10 -46 -22 -48 -16 -3 -18 6
-18 81 0 46 3 87 7 91 12 12 28 0 31 -25z m292 -59 l0 -87 -42 -1 c-53 0 -78
20 -78 64 0 42 25 67 62 62 25 -4 28 -1 28 22 0 17 5 27 15 27 12 0 15 -17 15
-87z m440 61 c0 -25 3 -28 25 -23 40 7 55 -13 55 -74 0 -40 -4 -54 -14 -54
-11 0 -16 14 -18 48 -3 39 -6 47 -23 47 -17 0 -20 -8 -23 -47 -2 -34 -7 -48
-18 -48 -11 0 -14 18 -14 90 0 73 3 90 15 90 10 0 15 -10 15 -29z m290 -61 l0
-87 -42 -1 c-53 0 -78 20 -78 64 0 42 25 67 62 62 25 -4 28 -1 28 22 0 17 5
27 15 27 12 0 15 -17 15 -87z m-1789 40 c5 0 9 -7 9 -15 0 -8 -4 -15 -10 -15
-5 0 -10 -16 -10 -35 0 -24 5 -35 15 -35 8 0 15 -7 15 -16 0 -11 -8 -14 -27
-12 -26 3 -28 7 -31 51 -2 26 -7 47 -13 47 -5 0 -9 7 -9 15 0 8 5 15 10 15 6
0 10 6 10 14 0 22 25 25 28 4 2 -10 8 -18 13 -18z m-497 -22 c24 -34 19 -46
-19 -50 -20 -2 -34 -7 -33 -13 2 -5 18 -9 36 -7 17 2 32 1 32 -2 0 -15 -36
-36 -60 -36 -53 0 -76 72 -38 117 17 21 65 16 82 -9z m156 -54 c0 -82 -13
-104 -60 -104 -25 0 -60 21 -60 36 0 3 19 4 41 2 29 -2 43 1 47 11 3 10 -2 12
-20 8 -37 -10 -68 17 -68 58 0 46 21 64 75 63 l45 -1 0 -73z m184 60 c9 -8 16
-24 16 -35 0 -15 -7 -19 -35 -19 -25 0 -35 -4 -35 -15 0 -13 7 -15 35 -9 36 6
44 -3 23 -24 -17 -17 -64 -15 -82 4 -9 8 -16 31 -16 49 0 39 22 65 55 65 13 0
31 -7 39 -16z m84 -46 c-2 -50 -6 -63 -20 -66 -16 -3 -18 5 -18 62 0 60 2 66
20 66 19 0 21 -5 18 -62z m196 46 c9 -8 16 -24 16 -35 0 -15 -7 -19 -35 -19
-25 0 -35 -4 -35 -15 0 -13 7 -15 35 -9 36 6 44 -3 23 -24 -17 -17 -64 -15
-82 4 -9 8 -16 31 -16 49 0 39 22 65 55 65 13 0 31 -7 39 -16z m156 -10 c6
-14 10 -43 10 -65 0 -32 -3 -39 -20 -39 -17 0 -20 7 -20 51 0 43 -3 50 -17 47
-13 -2 -19 -16 -23 -48 -4 -32 -10 -46 -22 -48 -16 -3 -18 5 -18 61 l0 64 50
1 c46 1 52 -2 60 -24z m288 -36 c-2 -50 -6 -63 -20 -66 -16 -3 -18 5 -18 62 0
60 2 66 20 66 19 0 21 -5 18 -62z m123 46 c10 -13 10 -17 -2 -24 -8 -6 -15 -6
-17 0 -6 17 -39 11 -45 -9 -9 -34 34 -73 45 -40 2 6 12 10 21 8 16 -4 16 -6 2
-26 -19 -27 -60 -30 -87 -6 -22 20 -23 70 -1 95 20 22 66 24 84 2z m432 -29
c5 -52 10 -60 32 -52 10 5 15 20 15 52 0 33 4 45 15 45 12 0 15 -14 15 -64 l0
-64 -42 0 c-23 -1 -48 4 -55 10 -18 15 -18 118 1 118 9 0 15 -16 19 -45z m191
30 c-3 -7 -14 -15 -25 -18 -15 -4 -19 -14 -19 -51 0 -34 -4 -46 -15 -46 -12 0
-15 14 -15 64 l0 64 39 0 c29 1 39 -3 35 -13z m114 3 c21 -21 13 -29 -25 -26
-35 3 -38 1 -41 -25 -4 -30 21 -48 41 -28 16 16 37 14 37 -4 0 -17 -30 -35
-57 -35 -35 0 -55 24 -55 65 0 26 6 43 18 52 22 16 66 17 82 1z m486 -4 c9 -8
16 -24 16 -35 0 -15 -7 -19 -35 -19 -25 0 -35 -4 -35 -15 0 -13 7 -15 35 -9
36 6 44 -3 23 -24 -17 -17 -64 -15 -82 4 -9 8 -16 31 -16 49 0 39 22 65 55 65
13 0 31 -7 39 -16z m143 4 c19 -15 18 -118 -1 -118 -11 0 -16 14 -18 48 -3 39
-6 47 -23 47 -17 0 -20 -8 -23 -47 -2 -34 -7 -48 -18 -48 -11 0 -14 15 -14 64
l0 64 42 0 c23 1 48 -4 55 -10z m-2664 -249 c22 -28 22 -90 -1 -119 -13 -16
-32 -24 -70 -28 l-52 -5 0 92 0 91 53 -5 c36 -4 57 -11 70 -26z m677 -3 c0
-19 4 -22 29 -18 50 7 79 -58 46 -105 -12 -18 -25 -22 -60 -21 l-45 1 0 82 c0
45 3 85 6 88 11 11 24 -3 24 -27z m440 0 c0 -19 4 -22 29 -18 50 7 79 -58 46
-105 -12 -18 -25 -22 -60 -21 l-45 1 0 88 c0 74 2 87 15 83 8 -4 15 -16 15
-28z m150 14 c0 -11 -7 -20 -15 -20 -8 0 -15 9 -15 20 0 11 7 20 15 20 8 0 15
-9 15 -20z m-1136 -46 c9 -8 16 -24 16 -35 0 -15 -7 -19 -35 -19 -25 0 -35 -4
-35 -15 0 -13 7 -15 35 -9 36 6 44 -3 23 -24 -17 -17 -64 -15 -82 4 -9 8 -16
31 -16 49 0 39 22 65 55 65 13 0 31 -7 39 -16z m146 5 c0 -6 -14 -29 -31 -50
l-31 -39 31 0 c21 0 31 -5 31 -15 0 -12 -13 -15 -55 -15 -47 0 -55 3 -55 18 0
10 11 29 25 42 14 13 25 27 25 32 0 4 -11 8 -25 8 -16 0 -25 6 -25 15 0 12 13
15 55 15 34 0 55 -4 55 -11z m114 -11 c24 -34 19 -46 -19 -50 -20 -2 -34 -7
-33 -13 2 -5 18 -9 36 -7 36 3 39 0 16 -22 -23 -24 -70 -20 -88 6 -33 46 -7
108 44 108 18 0 34 -8 44 -22z m214 10 c7 -6 12 -33 12 -65 0 -46 -3 -54 -17
-51 -14 2 -19 15 -21 51 -2 31 -8 47 -16 47 -17 0 -26 -22 -26 -66 0 -24 -5
-34 -15 -34 -11 0 -15 12 -15 51 0 43 -3 50 -17 47 -14 -2 -19 -15 -21 -51 -3
-39 -6 -47 -23 -47 -17 0 -19 7 -19 64 l0 64 83 0 c45 0 88 -5 95 -10z m276
-4 c9 -8 16 -24 16 -35 0 -15 -7 -19 -35 -19 -25 0 -35 -4 -35 -15 0 -13 7
-15 35 -9 36 6 44 -3 23 -24 -17 -17 -64 -15 -82 4 -9 8 -16 31 -16 49 0 39
22 65 55 65 13 0 31 -7 39 -16z m120 1 c-3 -7 -14 -15 -25 -18 -15 -4 -19 -14
-19 -51 0 -34 -4 -46 -15 -46 -12 0 -15 14 -15 64 l0 64 39 0 c29 1 39 -3 35
-13z m266 -50 c0 -51 -3 -65 -15 -65 -12 0 -15 14 -15 65 0 51 3 65 15 65 12
0 15 -14 15 -65z m119 52 c15 -19 4 -27 -33 -21 -28 4 -27 3 12 -15 23 -11 42
-27 42 -35 0 -24 -29 -46 -60 -46 -25 0 -60 21 -60 37 0 2 18 2 40 -2 49 -8
51 0 5 19 -27 11 -35 21 -35 40 0 13 6 27 13 29 24 10 65 7 76 -6z m211 1 c-1
-7 -14 -29 -31 -48 l-30 -35 31 -3 c18 -2 30 -9 30 -18 0 -10 -14 -14 -55 -14
-47 0 -55 3 -55 18 0 10 11 29 25 42 14 13 25 27 25 32 0 4 -11 8 -25 8 -16 0
-25 6 -25 15 0 12 13 15 55 15 38 0 55 -4 55 -12z m53 -33 c5 -52 10 -60 32
-52 10 5 15 20 15 52 0 33 4 45 15 45 12 0 15 -14 15 -64 l0 -64 -42 0 c-23
-1 -48 4 -55 10 -18 15 -18 118 1 118 9 0 15 -16 19 -45z m191 30 c-3 -7 -14
-15 -25 -18 -15 -4 -19 -14 -19 -51 0 -34 -4 -46 -15 -46 -12 0 -15 14 -15 64
l0 64 39 0 c29 1 39 -3 35 -13z m-1937 -266 c6 -24 12 -46 13 -49 1 -3 9 18
18 45 13 37 22 50 37 50 15 0 23 -12 33 -49 15 -54 24 -49 36 17 4 23 13 37
21 37 19 0 19 -19 -2 -108 -14 -62 -20 -72 -36 -70 -14 2 -25 19 -37 58 -18
58 -21 56 -40 -17 -8 -31 -16 -43 -29 -43 -15 0 -23 17 -39 82 -11 45 -18 86
-15 91 11 18 29 -1 40 -44z m358 30 c0 -7 -8 -15 -17 -17 -18 -3 -25 18 -11
32 10 10 28 1 28 -15z m65 -8 c0 -25 3 -28 25 -23 40 7 55 -13 55 -74 0 -40
-4 -54 -14 -54 -11 0 -16 14 -18 48 -3 39 -6 47 -23 47 -17 0 -20 -8 -23 -47
-2 -34 -7 -48 -18 -48 -11 0 -14 18 -14 90 0 73 3 90 15 90 10 0 15 -10 15
-29z m560 0 c0 -25 3 -28 25 -23 40 7 55 -13 55 -74 0 -40 -4 -54 -14 -54 -11
0 -16 14 -18 48 -3 39 -6 47 -23 47 -17 0 -20 -8 -23 -47 -2 -34 -7 -48 -18
-48 -11 0 -14 18 -14 90 0 73 3 90 15 90 10 0 15 -10 15 -29z m615 8 c0 -7 -8
-15 -17 -17 -18 -3 -25 18 -11 32 10 10 28 1 28 -15z m365 -68 l0 -88 -42 -1
c-53 0 -78 20 -78 64 0 42 25 67 62 62 25 -4 28 -2 28 24 0 18 5 28 15 28 12
0 15 -17 15 -89z m440 60 c0 -25 3 -28 25 -23 40 7 55 -13 55 -74 0 -40 -4
-54 -14 -54 -11 0 -16 14 -18 48 -3 39 -6 47 -23 47 -17 0 -20 -8 -23 -47 -2
-34 -7 -48 -18 -48 -11 0 -14 18 -14 90 0 73 3 90 15 90 10 0 15 -10 15 -29z
m290 -60 l0 -88 -42 -1 c-53 0 -78 20 -78 64 0 42 25 67 62 62 25 -4 28 -2 28
24 0 18 5 28 15 28 12 0 15 -17 15 -89z m-1560 59 c0 -11 5 -20 10 -20 6 0 10
-7 10 -15 0 -8 -4 -15 -10 -15 -5 0 -10 -16 -10 -35 0 -19 5 -35 10 -35 6 0
10 -7 10 -15 0 -26 -49 -19 -54 8 -15 72 -15 104 0 125 19 27 34 28 34 2z
m541 -20 c5 0 9 -7 9 -15 0 -8 -4 -15 -10 -15 -5 0 -10 -16 -10 -35 0 -24 5
-35 15 -35 8 0 15 -7 15 -16 0 -11 -8 -14 -27 -12 -26 3 -28 7 -31 51 -2 26
-7 47 -13 47 -5 0 -9 7 -9 15 0 8 5 15 10 15 6 0 10 6 10 14 0 22 25 25 28 4
2 -10 8 -18 13 -18z m-1397 -16 c9 -8 16 -24 16 -35 0 -15 -7 -19 -35 -19 -25
0 -35 -4 -35 -15 0 -13 7 -15 35 -9 36 6 44 -3 23 -24 -17 -17 -64 -15 -82 4
-9 8 -16 31 -16 49 0 39 22 65 55 65 13 0 31 -7 39 -16z m84 -46 c-2 -50 -6
-63 -20 -66 -16 -3 -18 5 -18 62 0 60 2 66 20 66 19 0 21 -5 18 -62z m282 36
c6 -14 10 -43 10 -65 0 -32 -3 -39 -20 -39 -17 0 -20 7 -20 51 0 43 -3 50 -17
47 -13 -2 -19 -16 -23 -48 -4 -32 -10 -46 -22 -48 -16 -3 -18 5 -18 61 l0 64
50 1 c46 1 52 -2 60 -24z m135 14 c2 -7 5 -36 8 -64 l4 -51 -49 -1 c-39 -1
-50 3 -59 20 -10 18 -8 25 11 40 12 10 31 18 41 18 10 0 19 5 19 11 0 7 -12 9
-35 5 -36 -7 -44 1 -23 22 16 16 78 15 83 0z m133 0 c21 -21 13 -29 -25 -26
-35 3 -38 1 -41 -25 -4 -30 21 -48 41 -28 16 16 37 14 37 -4 0 -17 -30 -35
-57 -35 -35 0 -55 24 -55 65 0 26 6 43 18 52 22 16 66 17 82 1z m351 -1 c15
-19 4 -27 -33 -21 -28 4 -27 3 12 -15 23 -11 42 -27 42 -35 0 -24 -29 -46 -60
-46 -25 0 -60 21 -60 37 0 2 18 2 40 -2 49 -8 51 0 5 19 -27 11 -35 21 -35 40
0 13 6 27 13 29 24 10 65 7 76 -6z m141 -5 c0 -10 -11 -29 -25 -42 -33 -31
-32 -40 6 -40 20 0 29 -4 27 -12 -3 -8 -27 -14 -61 -16 -68 -4 -72 6 -26 61
l30 37 -25 0 c-16 0 -26 6 -26 15 0 11 12 15 50 15 42 0 50 -3 50 -18z m114 2
c9 -8 16 -24 16 -35 0 -15 -7 -19 -35 -19 -25 0 -35 -4 -35 -15 0 -13 7 -15
35 -9 36 6 44 -3 23 -24 -17 -17 -64 -15 -82 4 -9 8 -16 31 -16 49 0 39 22 65
55 65 13 0 31 -7 39 -16z m84 -46 c-2 -50 -6 -63 -20 -66 -16 -3 -18 5 -18 62
0 60 2 66 20 66 19 0 21 -5 18 -62z m425 17 c5 -52 10 -60 32 -52 10 5 15 20
15 52 0 33 4 45 15 45 12 0 15 -14 15 -64 l0 -64 -42 0 c-23 -1 -48 4 -55 10
-18 15 -18 118 1 118 9 0 15 -16 19 -45z m191 30 c-3 -7 -14 -15 -25 -18 -15
-4 -19 -14 -19 -51 0 -34 -4 -46 -15 -46 -12 0 -15 14 -15 64 l0 64 39 0 c29
1 39 -3 35 -13z m114 3 c21 -21 13 -29 -25 -26 -35 3 -38 1 -41 -25 -4 -30 21
-48 41 -28 16 16 37 14 37 -4 0 -17 -30 -35 -57 -35 -35 0 -55 24 -55 65 0 26
6 43 18 52 22 16 66 17 82 1z m486 -4 c9 -8 16 -24 16 -35 0 -15 -7 -19 -35
-19 -25 0 -35 -4 -35 -15 0 -13 7 -15 35 -9 36 6 44 -3 23 -24 -17 -17 -64
-15 -82 4 -9 8 -16 31 -16 49 0 39 22 65 55 65 13 0 31 -7 39 -16z m143 4 c19
-15 18 -118 -1 -118 -11 0 -16 14 -18 48 -3 39 -6 47 -23 47 -17 0 -20 -8 -23
-47 -2 -34 -7 -48 -18 -48 -11 0 -14 15 -14 64 l0 64 42 0 c23 1 48 -4 55 -10z
m-1219 -110 c-2 -23 -9 -34 -22 -36 -13 -3 -16 0 -10 10 5 7 7 23 5 36 -2 15
3 22 14 22 12 0 16 -8 13 -32z m-761 -193 c18 -44 33 -83 33 -87 0 -17 -39 -7
-45 12 -5 15 -15 20 -40 20 -25 0 -35 -5 -40 -20 -5 -17 -45 -30 -45 -15 0 2
14 39 31 82 47 119 59 120 106 8z m171 -7 l3 -85 -50 -1 c-58 -1 -73 12 -73
63 0 47 18 68 54 63 23 -4 28 -1 28 17 0 25 9 37 24 32 6 -2 12 -40 14 -89z
m482 62 c0 -11 5 -20 10 -20 6 0 10 -7 10 -15 0 -8 -4 -15 -10 -15 -5 0 -10
-16 -10 -35 0 -19 5 -35 10 -35 6 0 10 -7 10 -15 0 -26 -49 -19 -54 8 -15 72
-15 104 0 125 19 27 34 28 34 2z m-1550 -96 c0 -82 -13 -104 -60 -104 -25 0
-60 21 -60 36 0 3 19 4 41 2 29 -2 43 1 47 11 3 10 -2 12 -20 8 -37 -10 -68
17 -68 58 0 46 21 64 75 63 l45 -1 0 -73z m125 64 c2 -7 5 -36 8 -64 l4 -51
-49 -1 c-39 -1 -50 3 -59 20 -10 18 -8 25 11 40 12 10 31 18 41 18 10 0 19 5
19 11 0 7 -12 9 -35 5 -36 -7 -44 1 -23 22 16 16 78 15 83 0z m142 0 c19 -15
18 -118 -1 -118 -11 0 -16 14 -18 48 -3 39 -6 47 -23 47 -17 0 -20 -8 -23 -47
-2 -34 -7 -48 -18 -48 -11 0 -14 15 -14 64 l0 64 42 0 c23 1 48 -4 55 -10z
m143 0 c-1 -7 -14 -29 -31 -48 l-30 -35 31 -3 c18 -2 30 -9 30 -18 0 -10 -14
-14 -55 -14 -47 0 -55 3 -55 18 0 10 11 29 25 42 14 13 25 27 25 32 0 4 -11 8
-25 8 -16 0 -25 6 -25 15 0 12 13 15 55 15 38 0 55 -4 55 -12z m114 -10 c24
-34 19 -46 -19 -50 -20 -2 -34 -7 -33 -13 2 -5 18 -9 36 -7 36 3 39 0 16 -22
-23 -24 -70 -20 -88 6 -33 46 -7 108 44 108 18 0 34 -8 44 -22z m143 10 c19
-15 18 -118 -1 -118 -11 0 -16 14 -18 48 -3 39 -6 47 -23 47 -17 0 -20 -8 -23
-47 -2 -34 -7 -48 -18 -48 -11 0 -14 15 -14 64 l0 64 42 0 c23 1 48 -4 55 -10z
m463 -23 c13 -40 25 -38 35 5 5 21 13 30 26 30 23 0 21 -10 -12 -87 -29 -69
-40 -61 -96 75 -3 7 3 12 15 12 14 0 24 -10 32 -35z m194 13 c24 -34 19 -46
-19 -50 -20 -2 -34 -7 -33 -13 2 -5 18 -9 36 -7 36 3 39 0 16 -22 -23 -24 -70
-20 -88 6 -33 46 -7 108 44 108 18 0 34 -8 44 -22z m143 10 c19 -15 18 -118
-1 -118 -11 0 -16 14 -18 48 -3 39 -6 47 -23 47 -17 0 -20 -8 -23 -47 -2 -34
-7 -48 -18 -48 -11 0 -14 15 -14 64 l0 64 42 0 c23 1 48 -4 55 -10z m158 -98
c0 -8 -8 -16 -17 -18 -13 -2 -18 3 -18 18 0 15 5 20 18 18 9 -2 17 -10 17 -18z
m525 -391 c0 -6 7 -8 16 -5 12 4 14 1 9 -14 -4 -11 -2 -20 4 -20 6 0 11 -4 11
-10 0 -5 -7 -10 -16 -10 -10 0 -14 -6 -10 -15 6 -17 -9 -21 -19 -5 -5 8 -11 7
-21 -1 -11 -9 -14 -8 -14 5 0 9 -8 16 -17 16 -17 1 -17 2 0 14 12 9 14 16 8
21 -19 11 -12 23 9 18 11 -3 20 0 20 6 0 6 5 11 10 11 6 0 10 -5 10 -11z m491
-54 c-1 -15 -24 -12 -29 3 -3 9 2 13 12 10 10 -1 17 -7 17 -13z m-331 -20 c0
-14 29 -35 50 -35 7 0 8 6 0 19 -19 37 -10 44 13 10 12 -19 31 -36 42 -38 17
-3 18 -1 6 13 -8 10 -9 16 -3 16 6 0 16 -9 22 -20 7 -13 21 -20 39 -20 49 0
91 -12 91 -26 0 -7 -13 -20 -30 -29 -34 -18 -36 -25 -15 -87 11 -30 25 -49 41
-57 37 -16 39 -36 9 -87 -31 -52 -41 -52 -27 0 9 32 8 37 -10 47 -27 15 -35 3
-14 -20 20 -22 13 -42 -23 -75 -20 -18 -20 -18 -8 13 19 50 -5 65 -108 70
l-85 3 0 -26 c0 -29 -40 -76 -65 -76 -18 0 -20 -21 -3 -38 6 -6 8 -15 4 -19
-4 -5 -21 8 -37 27 l-29 34 25 26 c30 32 31 52 5 88 -16 22 -19 33 -11 53 8
21 10 22 16 7 5 -14 11 -15 25 -8 11 6 54 17 96 25 96 18 124 35 124 75 0 23
-5 30 -19 30 -11 0 -23 5 -26 10 -3 6 3 10 14 10 38 0 22 18 -21 25 -71 12
-108 38 -108 76 0 6 5 7 10 4 6 -3 10 -13 10 -20z m-754 -26 c8 -14 -11 -33
-25 -25 -11 7 -4 36 9 36 5 0 12 -5 16 -11z m185 -14 c9 6 11 3 6 -8 -4 -10
-1 -17 6 -18 9 0 9 -2 0 -6 -7 -2 -13 -12 -13 -20 0 -12 -3 -13 -14 -4 -11 9
-15 9 -19 -1 -4 -8 -6 -7 -6 5 -1 9 -5 17 -9 17 -4 0 -8 9 -8 20 0 13 5 19 13
16 7 -3 13 0 13 7 0 8 3 8 9 -2 5 -8 14 -10 22 -6z m139 0 c0 -8 -7 -15 -15
-15 -8 0 -15 7 -15 15 0 8 7 15 15 15 8 0 15 -7 15 -15z m-1209 -20 c-1 -15
-24 -12 -29 3 -3 9 2 13 12 10 10 -1 17 -7 17 -13z m1278 -44 c33 -18 43 -13
26 12 -8 13 -12 26 -9 30 4 3 16 -8 28 -25 27 -40 51 -50 42 -17 -7 23 -6 23
14 -3 15 -19 31 -28 50 -28 42 0 90 -11 90 -21 0 -5 -15 -19 -32 -30 -18 -12
-25 -19 -15 -15 9 3 68 15 130 26 61 11 123 23 135 26 13 3 21 1 18 -4 -3 -5
-71 -22 -151 -37 -155 -31 -159 -33 -130 -85 20 -35 18 -57 -6 -81 -20 -20
-20 -23 -5 -31 23 -13 20 -43 -10 -75 -20 -22 -24 -23 -19 -8 18 50 17 54 -14
69 -19 10 -56 16 -99 16 l-70 0 -6 -35 c-6 -28 -15 -39 -46 -55 -22 -11 -40
-22 -40 -24 0 -3 7 -12 16 -21 24 -23 8 -32 -17 -9 -40 36 -43 53 -15 83 31
33 32 41 5 75 -16 20 -19 33 -13 54 5 20 8 23 11 10 3 -13 9 -16 21 -9 9 5 57
17 106 27 96 19 126 38 126 79 0 18 -5 25 -19 25 -29 0 -34 17 -8 24 18 6 10
11 -40 25 -73 21 -93 35 -92 65 l0 21 9 -22 c5 -12 18 -26 29 -32z m-539 29
c8 -5 11 -10 5 -10 -5 0 -3 -5 5 -10 10 -6 11 -10 3 -10 -7 0 -13 -6 -13 -13
0 -7 -9 -13 -20 -13 -11 0 -20 6 -20 13 0 7 -6 13 -12 13 -9 0 -8 4 2 10 8 5
11 10 5 10 -10 0 15 20 25 20 3 0 12 -5 20 -10z m-910 -35 c9 5 10 1 5 -14 -4
-14 -2 -21 6 -21 7 0 5 -6 -6 -13 -10 -8 -15 -19 -11 -25 4 -7 3 -12 -3 -12
-5 0 -11 6 -14 13 -3 9 -7 9 -20 -2 -15 -12 -17 -11 -17 8 0 12 -4 19 -10 16
-5 -3 -10 -2 -10 4 0 5 6 11 13 14 9 3 8 8 -3 22 -14 16 -13 17 8 11 17 -6 22
-3 22 11 1 17 1 17 15 -1 7 -10 19 -15 25 -11z m720 10 c0 -8 -6 -15 -14 -15
-17 0 -28 14 -19 24 12 12 33 6 33 -9z m-203 -38 c12 5 14 3 8 -6 -4 -8 -2
-17 6 -22 10 -6 11 -9 2 -9 -7 0 -13 -6 -13 -14 0 -8 -10 -13 -25 -13 -15 0
-25 5 -25 13 0 8 -6 14 -12 15 -10 0 -10 2 -1 5 7 3 9 13 6 21 -5 12 -2 15 10
10 12 -4 17 -1 18 11 1 16 2 16 6 0 3 -11 10 -15 20 -11z m-177 -39 c0 -5 -4
-6 -10 -3 -5 3 -10 0 -10 -7 0 -8 -9 -14 -20 -14 -11 0 -20 6 -20 13 0 7 -6
13 -12 14 -10 0 -10 2 -1 5 7 3 9 12 6 21 -4 10 -2 14 5 9 6 -3 14 -2 17 4 7
11 45 -25 45 -42z m747 -7 c29 -13 43 -7 25 11 -7 7 -12 19 -12 28 0 9 6 6 17
-11 9 -14 25 -31 35 -38 18 -11 19 -10 13 8 -3 12 -2 21 4 21 5 0 12 -9 16
-19 6 -20 38 -36 53 -27 11 7 82 -15 82 -25 0 -5 -13 -15 -30 -24 -34 -17 -36
-30 -16 -97 14 -43 13 -49 -4 -71 -17 -22 -18 -26 -5 -37 19 -16 19 -40 -1
-68 -21 -30 -36 -28 -22 4 18 40 -16 64 -91 64 -31 0 -66 3 -78 6 -20 6 -23 3
-23 -23 0 -32 -30 -66 -68 -78 -22 -6 -22 -8 -7 -31 22 -33 5 -30 -30 6 l-29
30 27 28 c33 34 33 44 6 81 -15 20 -19 36 -14 51 5 16 9 19 15 10 4 -7 12 -10
18 -6 6 3 45 13 89 22 43 8 90 20 105 25 30 12 49 44 20 35 -9 -3 -79 -17
-154 -32 -96 -19 -138 -31 -138 -40 0 -8 5 -34 12 -58 11 -40 10 -47 -7 -66
-17 -19 -17 -21 -1 -39 21 -23 15 -50 -16 -77 -20 -19 -21 -19 -13 6 12 41 11
44 -25 62 -42 21 -158 25 -164 6 -3 -7 -7 -26 -11 -41 -4 -20 -16 -33 -40 -43
-40 -16 -41 -20 -18 -46 10 -11 12 -18 4 -18 -14 0 -61 48 -61 63 0 6 12 23
26 38 l26 28 -22 36 c-13 22 -20 46 -17 60 2 14 2 25 0 25 -2 0 -26 -11 -53
-25 -28 -14 -50 -21 -50 -16 0 26 236 105 338 113 17 1 32 8 32 14 0 7 -15 18
-32 24 l-33 13 30 6 c35 8 25 16 -30 26 -66 12 -95 32 -94 63 l0 27 10 -25
c12 -28 26 -40 53 -40 18 0 18 1 3 18 -10 10 -17 25 -17 33 0 7 14 -3 31 -24
32 -39 52 -48 43 -19 -4 12 0 10 12 -5 10 -14 27 -23 43 -23 14 0 43 -5 64
-11 38 -10 39 -11 20 -31 -18 -21 -18 -21 7 -15 14 3 78 16 143 28 115 23 145
40 92 53 -31 8 -33 26 -2 27 12 0 -7 10 -43 21 -65 20 -91 39 -89 67 0 11 3
10 11 -5 5 -12 21 -27 35 -33z m1073 38 c0 -5 5 -7 12 -3 8 5 9 2 5 -9 -4 -10
-1 -17 6 -18 9 0 9 -2 0 -6 -7 -2 -13 -10 -13 -17 0 -6 -9 -12 -20 -12 -11 0
-20 6 -20 13 0 7 -4 13 -9 13 -5 0 -7 9 -4 20 3 11 9 17 14 14 5 -3 9 0 9 5 0
6 5 11 10 11 6 0 10 -5 10 -11z m-1330 -54 c0 -8 -7 -15 -15 -15 -8 0 -15 7
-15 15 0 8 7 15 15 15 8 0 15 -7 15 -15z m-206 -28 c4 4 4 0 0 -10 -3 -10 -1
-17 6 -17 7 0 6 -5 -4 -15 -16 -16 -33 -16 -52 0 -13 11 -6 48 7 39 5 -3 9 0
9 7 0 8 3 9 13 0 8 -6 17 -8 21 -4z m936 4 c0 -5 -26 -15 -57 -21 -32 -7 -96
-20 -143 -30 -79 -17 -101 -18 -88 -4 5 4 249 60 281 63 4 1 7 -3 7 -8z
m-1373 -34 c12 5 14 3 8 -6 -4 -8 -2 -17 6 -22 11 -7 10 -9 -4 -9 -10 0 -16
-4 -12 -9 8 -13 -29 -10 -41 3 -15 18 -14 48 2 42 8 -3 14 0 15 7 0 9 2 9 5 0
3 -7 12 -9 21 -6z m209 -18 c10 -17 -13 -36 -27 -22 -12 12 -4 33 11 33 5 0
12 -5 16 -11z m-442 -55 c62 -30 125 -79 90 -69 -38 10 -103 -23 -123 -64
l-19 -36 -7 27 c-7 27 -85 108 -104 108 -5 0 -17 7 -25 16 -13 13 -16 13 -16
1 0 -21 -25 -38 -44 -31 -11 4 -16 15 -14 33 3 23 8 26 41 27 20 1 40 4 44 8
3 3 33 6 65 6 43 0 73 -7 112 -26z m1896 -4 c12 -9 9 -16 -22 -45 -40 -37 -46
-51 -25 -58 6 -2 9 -7 5 -11 -8 -10 -48 12 -48 26 0 6 11 21 25 34 14 13 25
32 25 44 0 22 16 26 40 10z m-1392 -98 c-2 -9 -16 -23 -31 -30 -15 -7 -27 -16
-27 -20 0 -4 11 -27 25 -51 32 -56 31 -74 -4 -104 l-29 -24 19 -32 c24 -39 24
-41 0 -41 -11 0 -23 12 -31 31 -9 22 -17 28 -29 23 -69 -29 -113 -43 -154 -49
-26 -4 -47 -12 -47 -17 0 -6 54 -9 144 -6 138 3 146 4 171 28 23 22 26 30 20
64 -6 40 -6 40 15 21 30 -27 27 -78 -6 -104 -38 -30 -81 -39 -249 -51 -82 -5
-190 -17 -240 -25 -107 -18 -112 -18 -99 -5 15 15 150 60 180 60 15 0 24 5 22
12 -6 16 -25 26 -74 38 -45 11 -64 38 -64 94 0 40 -35 79 -50 56 -6 -8 -10
-21 -10 -27 0 -21 -28 -15 -35 8 -14 43 -1 45 220 36 101 -4 120 -4 67 3 -40
4 -76 11 -80 15 -14 14 25 26 68 20 172 -23 191 -19 221 51 11 24 27 48 37 53
22 12 54 -5 50 -27z m1743 11 c20 5 26 -7 8 -18 -6 -5 -4 -12 8 -21 17 -12 17
-13 1 -14 -10 0 -18 -7 -18 -16 0 -13 -3 -14 -14 -5 -10 8 -16 9 -21 1 -10
-16 -25 -12 -19 5 4 9 0 15 -10 15 -9 0 -16 5 -16 10 0 6 5 10 11 10 6 0 8 9
4 20 -5 15 -3 18 8 14 8 -3 18 3 22 13 8 17 8 17 12 0 3 -13 11 -17 24 -14z
m-734 0 c4 -11 -5 -26 -32 -48 -24 -21 -33 -35 -26 -39 20 -13 12 -27 -9 -16
-26 14 -25 26 5 62 14 16 25 36 25 44 0 20 29 18 37 -3z m-1387 -6 c0 -9 12
-11 41 -9 38 4 40 3 28 -15 -17 -28 -52 -49 -57 -34 -6 18 -41 13 -75 -11 -25
-18 -29 -19 -24 -5 4 9 10 24 13 32 10 25 -16 17 -47 -14 -30 -30 -38 -26 -18
10 23 44 139 83 139 46z m1015 -61 c19 -13 18 -16 -19 -50 -33 -30 -37 -38
-26 -51 10 -12 10 -15 -3 -15 -8 0 -20 7 -27 15 -10 12 -7 20 14 46 14 17 26
39 26 50 0 23 9 24 35 5z m665 -42 c0 -16 -16 -19 -25 -4 -8 13 4 32 16 25 5
-4 9 -13 9 -21z m-245 6 c3 -6 -1 -13 -10 -16 -19 -8 -30 0 -20 15 8 14 22 14
30 1z m415 -1 c0 -5 5 -7 12 -3 8 5 9 2 5 -9 -4 -10 -1 -17 6 -18 9 0 9 -2 0
-6 -7 -2 -13 -12 -14 -21 0 -11 -2 -13 -6 -4 -4 10 -8 10 -19 1 -11 -9 -14 -8
-14 5 0 9 -6 16 -12 17 -10 0 -10 2 -1 5 7 3 9 12 6 21 -4 11 -2 14 5 9 7 -4
12 -2 12 3 0 6 5 11 10 11 6 0 10 -5 10 -11z m160 -4 c0 -8 -6 -15 -14 -15
-17 0 -28 14 -19 24 12 12 33 6 33 -9z m-473 -69 c-14 -16 -30 -16 -42 -2 -16
17 -14 45 1 39 8 -3 14 1 14 7 0 7 9 3 20 -9 14 -18 16 -26 7 -35z m-903 38
c26 -10 19 -30 -21 -63 -31 -25 -35 -32 -23 -40 8 -6 11 -13 7 -17 -4 -4 -16
1 -27 11 l-20 18 25 27 c14 14 25 33 25 41 0 14 8 29 16 29 1 0 9 -3 18 -6z
m466 -34 c0 -5 -5 -12 -11 -16 -14 -8 -33 11 -25 25 7 11 36 4 36 -9z m150 -5
c0 -8 -7 -15 -15 -15 -8 0 -15 7 -15 15 0 8 7 15 15 15 8 0 15 -7 15 -15z
m518 -25 c4 -12 2 -13 -9 -2 -7 6 -26 12 -42 12 -37 0 -80 -44 -122 -123 -16
-31 -35 -57 -43 -57 -25 0 70 141 115 172 33 22 94 21 101 -2z m226 14 c9 -3
16 -11 16 -16 0 -7 -4 -7 -12 0 -7 5 -24 12 -38 15 -22 4 -22 4 -3 6 12 0 28
-2 37 -5z m-91 -28 c-16 -13 -44 -54 -63 -90 -30 -56 -50 -81 -50 -61 0 37
102 175 129 175 7 0 0 -11 -16 -24z m-1092 -17 c-75 -15 -112 -53 -110 -112 0
-17 3 -14 13 11 23 65 87 106 102 67 9 -22 -15 -74 -43 -92 -13 -9 -26 -13
-29 -10 -3 3 3 8 13 11 21 7 53 55 53 81 0 27 -32 13 -58 -25 -24 -36 -28 -97
-5 -93 7 2 10 -3 7 -11 -3 -9 5 -18 23 -24 15 -6 21 -11 12 -11 -8 -1 -24 6
-35 14 -10 8 -28 15 -40 15 -26 0 -62 26 -51 37 5 4 13 0 18 -10 11 -18 39
-24 39 -7 0 5 -9 14 -20 20 -28 15 -26 62 6 99 27 32 68 49 119 49 23 0 20 -2
-14 -9z m629 4 c-86 -14 -131 -51 -129 -107 l1 -31 12 33 c16 45 53 82 80 81
14 0 16 -2 6 -6 -30 -11 -60 -47 -66 -79 -9 -46 3 -74 39 -89 20 -9 25 -14 14
-15 -27 0 -107 83 -107 113 0 54 71 107 140 105 26 0 29 -2 10 -5z m-510 -13
c0 -5 -7 -10 -15 -10 -17 0 -68 -98 -59 -112 3 -4 0 -8 -7 -8 -16 0 -2 69 21
102 18 25 18 27 2 31 -9 3 0 5 21 6 20 0 37 -3 37 -9z m62 3 c-17 -7 -75 -123
-62 -123 6 0 16 11 22 25 11 24 52 44 65 31 8 -8 -17 -36 -33 -36 -8 0 -14 -7
-14 -15 0 -9 6 -12 18 -9 14 5 14 4 2 -4 -8 -6 -19 -8 -24 -4 -6 3 -23 5 -38
4 -32 -3 -33 3 -14 49 20 48 55 89 74 88 11 0 13 -2 4 -6z m584 -4 c8 -13 -13
-36 -23 -25 -4 4 -1 11 7 16 12 8 11 10 -7 10 -29 0 -83 -47 -100 -87 -15 -38
-11 -50 21 -63 l21 -9 -22 0 c-13 -1 -29 9 -38 23 -15 23 -15 27 5 66 31 60
115 103 136 69z m-366 -34 c0 -8 -7 -15 -15 -15 -8 0 -15 7 -15 15 0 8 7 15
15 15 8 0 15 -7 15 -15z m540 -5 c0 -5 -4 -10 -10 -10 -5 0 -10 5 -10 10 0 6
5 10 10 10 6 0 10 -4 10 -10z m-695 -10 c-4 -6 -2 -17 4 -23 12 -15 4 -57 -11
-57 -6 0 -7 11 -4 26 5 18 3 24 -5 18 -7 -4 -10 -3 -7 2 3 5 8 17 11 27 4 9 9
17 12 17 4 0 3 -5 0 -10z m60 0 c-4 -6 -2 -17 4 -23 12 -15 4 -57 -11 -57 -6
0 -7 11 -4 26 5 18 3 24 -5 18 -7 -4 -10 -3 -7 2 3 5 8 17 11 27 4 9 9 17 12
17 4 0 3 -5 0 -10z m560 -57 c-3 -13 -10 -23 -15 -23 -13 0 -13 7 1 32 8 15 8
22 -1 28 -7 5 -9 13 -5 21 12 18 28 -29 20 -58z m358 21 c-9 -14 -13 -27 -10
-31 4 -3 9 2 13 11 3 9 11 16 16 16 7 0 6 -5 -1 -13 -6 -8 -9 -16 -6 -18 2 -3
-9 -6 -26 -7 l-30 -2 16 30 c10 19 12 30 4 30 -6 0 -16 -13 -22 -30 -12 -32
-27 -40 -27 -15 0 26 45 64 68 58 20 -5 20 -6 5 -29z m-853 20 c0 -12 -35 -64
-43 -64 -5 0 -7 3 -5 8 24 48 32 62 40 62 4 0 8 -3 8 -6z m40 1 c0 -2 -14 -28
-31 -57 -32 -55 -86 -118 -102 -118 -5 0 4 13 20 28 15 16 35 42 43 58 35 68
70 113 70 89z m194 -19 c-3 -9 -10 -16 -15 -16 -5 0 -4 9 3 20 14 22 21 20 12
-4z m211 2 c-3 -13 -7 -29 -7 -35 -1 -14 -28 -18 -28 -5 0 16 25 62 34 62 4 0
5 -10 1 -22z m100 5 c-4 -10 -10 -26 -12 -35 -3 -10 -12 -18 -20 -18 -8 0 -13
3 -11 8 24 49 33 62 41 62 5 0 6 -8 2 -17z m47 -3 c0 -11 1 -25 2 -32 1 -6 -3
-13 -9 -15 -5 -1 -11 13 -12 32 -2 36 16 50 19 15z m23 11 c3 -5 1 -12 -5 -16
-5 -3 -10 1 -10 9 0 18 6 21 15 7z m93 2 c-24 -49 -32 -63 -40 -63 -13 0 -10
18 8 45 14 22 41 37 32 18z m36 -2 c3 -5 -1 -14 -9 -21 -8 -7 -15 -19 -15 -26
0 -8 -4 -14 -10 -14 -13 0 -13 10 3 43 12 28 22 33 31 18z m36 1 c0 -15 -25
-62 -32 -62 -11 0 -10 12 5 43 11 25 27 36 27 19z m129 -43 c1 -9 -5 -19 -12
-22 -10 -4 -13 4 -11 31 1 21 3 39 4 42 3 8 19 -34 19 -51z m21 42 c0 -6 -4
-13 -10 -16 -5 -3 -10 1 -10 9 0 9 5 16 10 16 6 0 10 -4 10 -9z m-1279 -18
c-5 -10 -22 -29 -37 -43 -23 -21 -22 -18 7 17 37 46 45 53 30 26z m55 -21
c-17 -16 -18 -16 -5 5 7 12 15 20 18 17 3 -2 -3 -12 -13 -22z m755 5 c-10 -9
-11 -8 -5 6 3 10 9 15 12 12 3 -3 0 -11 -7 -18z m96 -7 c-1 -12 -5 -16 -10
-11 -5 5 -6 14 -3 20 11 16 15 13 13 -9z m-357 -10 c-8 -5 -19 -10 -25 -10 -5
0 -3 5 5 10 8 5 20 10 25 10 6 0 3 -5 -5 -10z m145 -20 c-3 -5 -12 -10 -18
-10 -7 0 -6 4 3 10 19 12 23 12 15 0z m-515 -89 c0 -5 8 -12 18 -14 14 -4 14
-5 1 -6 -9 0 -22 6 -29 14 -9 10 -9 15 -1 15 6 0 11 -4 11 -9z"/>
<path d="M2057 4653 c-4 -3 -7 -28 -7 -55 0 -36 4 -50 16 -55 28 -11 49 11 52
56 3 36 0 42 -23 51 -31 12 -30 12 -38 3z"/>
<path d="M2824 4596 c-10 -26 0 -51 21 -51 16 0 20 7 20 30 0 33 -30 49 -41
21z"/>
<path d="M3394 4637 c-11 -29 0 -92 16 -92 11 0 15 12 15 49 0 49 -19 74 -31
43z"/>
<path d="M2220 4600 c0 -5 9 -10 21 -10 11 0 17 5 14 10 -3 6 -13 10 -21 10
-8 0 -14 -4 -14 -10z"/>
<path d="M2475 4600 c-3 -5 3 -10 14 -10 12 0 21 5 21 10 0 6 -6 10 -14 10 -8
0 -18 -4 -21 -10z"/>
<path d="M2970 4600 c0 -5 9 -10 21 -10 11 0 17 5 14 10 -3 6 -13 10 -21 10
-8 0 -14 -4 -14 -10z"/>
<path d="M1974 4036 c-10 -26 0 -51 21 -51 16 0 20 7 20 30 0 33 -30 49 -41
21z"/>
<path d="M3394 4036 c-10 -26 0 -51 21 -51 16 0 20 7 20 30 0 33 -30 49 -41
21z"/>
<path d="M1835 4040 c-3 -5 3 -10 14 -10 12 0 21 5 21 10 0 6 -6 10 -14 10 -8
0 -18 -4 -21 -10z"/>
<path d="M2217 4003 c-12 -11 -8 -23 8 -23 8 0 15 7 15 15 0 16 -12 20 -23 8z"/>
<path d="M2715 4040 c-3 -5 3 -10 14 -10 12 0 21 5 21 10 0 6 -6 10 -14 10 -8
0 -18 -4 -21 -10z"/>
<path d="M3115 3999 c-4 -6 -4 -13 -1 -16 8 -8 36 5 36 17 0 13 -27 13 -35 -1z"/>
<path d="M3540 4040 c0 -5 9 -10 21 -10 11 0 17 5 14 10 -3 6 -13 10 -21 10
-8 0 -14 -4 -14 -10z"/>
<path d="M4157 4043 c-13 -12 -7 -54 9 -60 23 -8 47 20 39 46 -6 20 -34 28
-48 14z"/>
<path d="M2177 3758 c-7 -20 11 -58 27 -58 17 0 28 27 21 51 -7 21 -40 26 -48
7z"/>
<path d="M1835 3760 c-3 -5 3 -10 14 -10 12 0 21 5 21 10 0 6 -6 10 -14 10 -8
0 -18 -4 -21 -10z"/>
<path d="M2395 3760 c-3 -5 3 -10 14 -10 12 0 21 5 21 10 0 6 -6 10 -14 10 -8
0 -18 -4 -21 -10z"/>
<path d="M2777 3723 c-12 -11 -8 -23 8 -23 8 0 15 7 15 15 0 16 -12 20 -23 8z"/>
<path d="M3035 3760 c-3 -5 3 -10 14 -10 12 0 21 5 21 10 0 6 -6 10 -14 10 -8
0 -18 -4 -21 -10z"/>
<path d="M3395 3760 c-3 -5 3 -10 14 -10 12 0 21 5 21 10 0 6 -6 10 -14 10 -8
0 -18 -4 -21 -10z"/>
<path d="M3810 3760 c0 -5 9 -10 21 -10 11 0 17 5 14 10 -3 6 -13 10 -21 10
-8 0 -14 -4 -14 -10z"/>
<path d="M1787 3443 c-12 -11 -8 -23 8 -23 8 0 15 7 15 15 0 16 -12 20 -23 8z"/>
<path d="M2490 3480 c0 -5 9 -10 21 -10 11 0 17 5 14 10 -3 6 -13 10 -21 10
-8 0 -14 -4 -14 -10z"/>
<path d="M2890 3480 c0 -5 9 -10 21 -10 11 0 17 5 14 10 -3 6 -13 10 -21 10
-8 0 -14 -4 -14 -10z"/>
<path d="M3115 3480 c-3 -5 3 -10 14 -10 12 0 21 5 21 10 0 6 -6 10 -14 10 -8
0 -18 -4 -21 -10z"/>
<path d="M3995 3480 c-3 -5 3 -10 14 -10 12 0 21 5 21 10 0 6 -6 10 -14 10 -8
0 -18 -4 -21 -10z"/>
<path d="M4195 3439 c-4 -6 -4 -13 -1 -16 8 -8 36 5 36 17 0 13 -27 13 -35 -1z"/>
<path d="M1647 3198 c-7 -20 11 -58 27 -58 17 0 28 27 21 51 -7 21 -40 26 -48
7z"/>
<path d="M4567 3198 c-7 -20 11 -58 27 -58 17 0 28 27 21 51 -7 21 -40 26 -48
7z"/>
<path d="M1795 3200 c-3 -5 3 -10 14 -10 12 0 21 5 21 10 0 6 -6 10 -14 10 -8
0 -18 -4 -21 -10z"/>
<path d="M2430 3200 c0 -5 9 -10 21 -10 11 0 17 5 14 10 -3 6 -13 10 -21 10
-8 0 -14 -4 -14 -10z"/>
<path d="M2925 3159 c-4 -6 -4 -13 -1 -16 8 -8 36 5 36 17 0 13 -27 13 -35 -1z"/>
<path d="M3765 3159 c-4 -6 -4 -13 -1 -16 8 -8 36 5 36 17 0 13 -27 13 -35 -1z"/>
<path d="M2284 2926 c-10 -26 0 -51 21 -51 16 0 20 7 20 30 0 33 -30 49 -41
21z"/>
<path d="M1797 2933 c-13 -12 -7 -54 9 -60 23 -8 47 20 39 46 -6 20 -34 28
-48 14z"/>
<path d="M2435 2889 c-4 -6 -4 -13 -1 -16 8 -8 36 5 36 17 0 13 -27 13 -35 -1z"/>
<path d="M3100 2930 c0 -5 9 -10 21 -10 11 0 17 5 14 10 -3 6 -13 10 -21 10
-8 0 -14 -4 -14 -10z"/>
<path d="M3300 2930 c0 -5 9 -10 21 -10 11 0 17 5 14 10 -3 6 -13 10 -21 10
-8 0 -14 -4 -14 -10z"/>
<path d="M4075 2930 c-3 -5 3 -10 14 -10 12 0 21 5 21 10 0 6 -6 10 -14 10 -8
0 -18 -4 -21 -10z"/>
<path d="M1654 2646 c-10 -26 0 -51 21 -51 16 0 20 7 20 30 0 33 -30 49 -41
21z"/>
<path d="M2767 2648 c-7 -20 11 -58 27 -58 17 0 28 27 21 51 -7 21 -40 26 -48
7z"/>
<path d="M3327 2648 c-7 -20 11 -58 27 -58 17 0 28 27 21 51 -7 21 -40 26 -48
7z"/>
<path d="M4057 2648 c-7 -20 11 -58 27 -58 17 0 28 27 21 51 -7 21 -40 26 -48
7z"/>
<path d="M1795 2650 c-3 -5 3 -10 14 -10 12 0 21 5 21 10 0 6 -6 10 -14 10 -8
0 -18 -4 -21 -10z"/>
<path d="M1930 2631 c0 -36 17 -49 37 -28 20 19 8 57 -18 57 -14 0 -19 -7 -19
-29z"/>
<path d="M2140 2650 c0 -5 9 -10 21 -10 11 0 17 5 14 10 -3 6 -13 10 -21 10
-8 0 -14 -4 -14 -10z"/>
<path d="M2420 2650 c0 -5 9 -10 21 -10 11 0 17 5 14 10 -3 6 -13 10 -21 10
-8 0 -14 -4 -14 -10z"/>
<path d="M4210 2650 c0 -5 9 -10 21 -10 11 0 17 5 14 10 -3 6 -13 10 -21 10
-8 0 -14 -4 -14 -10z"/>
<path d="M1657 2423 c-4 -3 -7 -28 -7 -55 0 -36 4 -50 16 -55 28 -11 49 11 52
56 3 36 0 42 -23 51 -31 12 -30 12 -38 3z"/>
<path d="M2424 2366 c-10 -26 0 -51 21 -51 16 0 20 7 20 30 0 33 -30 49 -41
21z"/>
<path d="M2864 2366 c-10 -26 0 -51 21 -51 16 0 20 7 20 30 0 33 -30 49 -41
21z"/>
<path d="M1820 2370 c0 -5 9 -10 21 -10 11 0 17 5 14 10 -3 6 -13 10 -21 10
-8 0 -14 -4 -14 -10z"/>
<path d="M2075 2370 c-3 -5 3 -10 14 -10 12 0 21 5 21 10 0 6 -6 10 -14 10 -8
0 -18 -4 -21 -10z"/>
<path d="M2570 2370 c0 -5 9 -10 21 -10 11 0 17 5 14 10 -3 6 -13 10 -21 10
-8 0 -14 -4 -14 -10z"/>
<path d="M3527 2088 c-7 -20 11 -58 27 -58 17 0 28 27 21 51 -7 21 -40 26 -48
7z"/>
<path d="M4257 2088 c-7 -20 11 -58 27 -58 17 0 28 27 21 51 -7 21 -40 26 -48
7z"/>
<path d="M1870 2090 c0 -5 9 -10 21 -10 11 0 17 5 14 10 -3 6 -13 10 -21 10
-8 0 -14 -4 -14 -10z"/>
<path d="M2365 2049 c-4 -6 -4 -13 -1 -16 8 -8 36 5 36 17 0 13 -27 13 -35 -1z"/>
<path d="M3110 2090 c0 -5 9 -10 21 -10 11 0 17 5 14 10 -3 6 -13 10 -21 10
-8 0 -14 -4 -14 -10z"/>
<path d="M4410 2090 c0 -5 9 -10 21 -10 11 0 17 5 14 10 -3 6 -13 10 -21 10
-8 0 -14 -4 -14 -10z"/>
<path d="M2566 1825 c-10 -26 -7 -35 9 -35 17 0 19 18 6 38 -7 11 -10 10 -15
-3z"/>
<path d="M2714 1806 c-10 -26 0 -51 21 -51 16 0 20 7 20 30 0 33 -30 49 -41
21z"/>
<path d="M1650 1791 c0 -36 17 -49 37 -28 20 19 8 57 -18 57 -14 0 -19 -7 -19
-29z"/>
<path d="M1795 1769 c-4 -6 -4 -13 -1 -16 8 -8 36 5 36 17 0 13 -27 13 -35 -1z"/>
<path d="M2195 1810 c-3 -5 3 -10 14 -10 12 0 21 5 21 10 0 6 -6 10 -14 10 -8
0 -18 -4 -21 -10z"/>
<path d="M2995 1810 c-3 -5 3 -10 14 -10 12 0 21 5 21 10 0 6 -6 10 -14 10 -8
0 -18 -4 -21 -10z"/>
<path d="M3005 885 c-5 -2 -53 -13 -106 -25 -87 -19 -96 -23 -92 -41 4 -14 11
-18 22 -13 9 4 54 15 100 26 89 20 121 33 121 48 0 10 -24 12 -45 5z"/>
</g>
</svg>
