<?xml version="1.0" standalone="no"?>
<!DOCTYPE svg PUBLIC "-//W3C//DTD SVG 20010904//EN"
 "http://www.w3.org/TR/2001/REC-SVG-20010904/DTD/svg10.dtd">
<svg version="1.0" xmlns="http://www.w3.org/2000/svg"
 width="638.000000pt" height="640.000000pt" viewBox="0 0 638.000000 640.000000"
 preserveAspectRatio="xMidYMid meet">

<g transform="translate(0.000000,640.000000) scale(0.100000,-0.100000)"
fill="#000000" stroke="none">
<path d="M0 3200 l0 -3200 3190 0 3190 0 0 3200 0 3200 -3190 0 -3190 0 0
-3200z m1746 1522 c6 -4 17 -17 23 -30 17 -32 0 -77 -46 -124 l-37 -38 47 0
c43 0 47 -2 47 -25 0 -25 -1 -25 -85 -25 -53 0 -85 4 -85 10 0 21 29 66 65
100 20 19 41 43 46 52 20 38 -23 66 -51 33 -7 -8 -23 -15 -36 -15 -26 0 -24
20 4 53 16 18 86 24 108 9z m204 -67 c0 -60 3 -75 15 -75 9 0 15 -9 15 -25 0
-16 -6 -25 -15 -25 -9 0 -15 -9 -15 -25 0 -20 -5 -25 -25 -25 -20 0 -25 5 -25
25 0 23 -3 25 -50 25 -48 0 -50 1 -50 28 0 16 20 55 51 100 39 56 56 72 75 72
23 0 24 -2 24 -75z m421 62 c40 -31 57 -135 30 -186 -17 -31 -70 -51 -136 -51
l-55 0 0 125 0 125 73 0 c41 0 79 -6 88 -13z m1009 -27 c0 -37 2 -40 19 -30
56 29 111 -12 111 -83 0 -76 -53 -118 -111 -87 -13 7 -19 7 -19 0 0 -5 -11
-10 -25 -10 l-25 0 0 125 0 125 25 0 c23 0 25 -4 25 -40z m716 32 c6 -4 17
-17 23 -30 17 -32 0 -77 -46 -124 l-37 -38 47 0 c43 0 47 -2 47 -25 0 -25 -1
-25 -85 -25 -53 0 -85 4 -85 10 0 21 29 66 65 100 20 19 41 43 46 52 20 38
-23 66 -51 33 -7 -8 -23 -15 -36 -15 -26 0 -24 20 4 53 16 18 86 24 108 9z
m198 -14 c35 -55 31 -173 -7 -208 -27 -26 -79 -26 -102 0 -38 42 -37 189 2
218 29 21 90 15 107 -10z m192 14 c6 -4 17 -17 23 -30 17 -32 0 -77 -46 -124
l-37 -38 47 0 c43 0 47 -2 47 -25 0 -25 -1 -25 -85 -25 -53 0 -85 4 -85 10 0
21 29 66 65 100 20 19 41 43 46 52 20 38 -23 66 -51 33 -7 -8 -23 -15 -36 -15
-26 0 -24 20 4 53 16 18 86 24 108 9z m190 0 c6 -4 17 -17 23 -30 17 -32 0
-77 -46 -124 l-37 -38 47 0 c43 0 47 -2 47 -25 0 -25 -1 -25 -85 -25 -53 0
-85 4 -85 10 0 21 29 66 65 100 20 19 41 43 46 52 20 38 -23 66 -51 33 -7 -8
-23 -15 -36 -15 -26 0 -24 20 4 53 16 18 86 24 108 9z m-2113 -63 c26 -12 47
-47 47 -79 0 -18 -7 -20 -60 -20 -60 0 -70 -6 -48 -28 15 -15 48 -16 48 -2 0
11 43 14 53 3 16 -15 -37 -53 -73 -53 -47 0 -78 23 -86 65 -16 87 47 147 119
114z m370 0 c26 -12 47 -47 47 -79 0 -18 -7 -20 -60 -20 -60 0 -70 -6 -48 -28
15 -15 48 -16 48 -2 0 11 43 14 53 3 16 -15 -37 -53 -73 -53 -47 0 -78 23 -86
65 -16 87 47 147 119 114z m242 -1 c11 0 32 3 47 7 19 5 31 2 47 -14 18 -18
21 -33 21 -96 0 -73 -1 -75 -25 -75 -24 0 -25 2 -25 70 0 54 -4 72 -15 76 -30
12 -45 -15 -45 -82 0 -62 -1 -64 -25 -64 -24 0 -25 2 -25 70 0 54 -4 72 -15
76 -30 12 -45 -15 -45 -82 0 -62 -1 -64 -25 -64 -25 0 -25 1 -25 90 l0 91 35
-3 c19 -1 38 1 42 6 4 4 19 4 33 1 14 -4 34 -7 45 -7z m478 1 c26 -12 47 -47
47 -79 0 -18 -7 -20 -60 -20 -60 0 -70 -6 -48 -28 15 -15 48 -16 48 -2 0 11
43 14 53 3 16 -15 -37 -53 -73 -53 -47 0 -78 23 -86 65 -16 87 47 147 119 114z
m201 2 c11 -17 -6 -41 -29 -41 -26 0 -35 -22 -35 -92 0 -44 -2 -48 -25 -48
-25 0 -25 1 -25 91 l0 91 30 -4 c17 -3 33 -1 36 4 7 11 41 10 48 -1z m-1064
-18 c0 -9 -18 -38 -41 -65 l-40 -48 45 0 c42 0 46 -2 46 -25 0 -25 -1 -25 -80
-25 -79 0 -80 0 -80 25 0 16 16 42 41 70 l40 44 -38 3 c-27 2 -39 8 -41 21 -3
15 6 17 72 17 65 0 76 -3 76 -17z m-740 -139 c0 -21 -4 -25 -22 -22 -15 2 -24
11 -26 26 -3 18 1 22 22 22 21 0 26 -5 26 -26z m30 -64 c0 -19 -7 -20 -240
-20 -233 0 -240 1 -240 20 0 19 7 20 240 20 233 0 240 -1 240 -20z m1770 0 c0
-20 -7 -20 -830 -20 -823 0 -830 0 -830 20 0 20 7 20 830 20 823 0 830 0 830
-20z m870 0 c0 -20 -7 -20 -380 -20 -373 0 -380 0 -380 20 0 20 7 20 380 20
373 0 380 0 380 -20z m-3050 -580 c7 -39 16 -73 20 -75 3 -2 15 30 25 71 18
73 19 74 51 74 32 0 32 -1 50 -75 10 -41 20 -75 24 -75 3 0 13 33 21 73 13 67
16 72 43 75 23 3 27 0 22 -15 -3 -10 -15 -58 -26 -108 -30 -130 -28 -125 -59
-125 -24 0 -30 5 -35 30 -3 17 -13 56 -22 87 -19 65 -23 61 -49 -44 -16 -70
-18 -73 -46 -73 -23 0 -30 5 -35 28 -11 50 -45 187 -50 205 -4 13 1 17 24 17
28 0 29 -2 42 -70z m510 50 c0 -15 -7 -20 -25 -20 -18 0 -25 5 -25 20 0 15 7
20 25 20 18 0 25 -5 25 -20z m100 -21 c0 -35 3 -40 18 -34 39 16 53 17 77 1
23 -15 25 -22 25 -96 0 -78 -1 -80 -25 -80 -23 0 -24 3 -27 73 -3 66 -5 72
-25 75 -29 4 -43 -29 -43 -99 0 -47 -2 -50 -22 -47 -22 3 -23 7 -26 126 l-3
122 26 0 c23 0 25 -4 25 -41z m820 0 c0 -35 3 -40 18 -34 39 16 53 17 77 1 23
-15 25 -22 25 -96 0 -78 -1 -80 -25 -80 -23 0 -24 3 -27 73 -3 66 -5 72 -25
75 -29 4 -43 -29 -43 -99 0 -47 -2 -50 -22 -47 -22 3 -23 7 -26 126 l-3 122
26 0 c23 0 25 -4 25 -41z m236 -29 c8 0 14 -7 14 -15 0 -8 -7 -15 -15 -15 -12
0 -15 -13 -15 -55 0 -42 3 -55 15 -55 8 0 15 -9 15 -20 0 -14 -7 -20 -24 -20
-50 0 -56 8 -56 74 0 36 -5 67 -12 74 -10 10 -10 17 0 32 6 11 12 26 12 33 0
8 10 18 23 24 20 9 22 7 25 -23 2 -22 9 -34 18 -34z m604 50 c0 -15 -7 -20
-25 -20 -18 0 -25 5 -25 20 0 15 7 20 25 20 18 0 25 -5 25 -20z m316 -50 c8 0
14 -7 14 -15 0 -8 -7 -15 -15 -15 -12 0 -15 -13 -15 -55 0 -42 3 -55 15 -55 8
0 15 -9 15 -20 0 -14 -7 -20 -24 -20 -50 0 -56 8 -56 74 0 36 -5 67 -12 74
-10 10 -10 17 0 32 6 11 12 26 12 33 0 8 10 18 23 24 20 9 22 7 25 -23 2 -22
9 -34 18 -34z m-2203 -1 c26 -12 47 -47 47 -79 0 -18 -7 -20 -60 -20 -60 0
-70 -6 -48 -28 15 -15 48 -16 48 -2 0 11 43 14 53 3 16 -15 -37 -53 -73 -53
-47 0 -78 23 -86 65 -16 87 47 147 119 114z m535 -5 c20 -13 22 -24 22 -95 0
-77 -1 -79 -25 -79 -23 0 -24 3 -27 73 -3 66 -5 72 -25 75 -29 4 -43 -29 -43
-99 0 -47 -2 -50 -22 -47 -22 3 -23 8 -26 92 l-3 89 34 -6 c19 -3 40 -1 48 4
21 13 42 11 67 -7z m212 0 c4 -5 10 -46 12 -91 5 -82 4 -83 -19 -83 -12 0 -23
5 -23 12 0 9 -3 9 -12 0 -22 -22 -76 -15 -94 13 -25 39 -7 69 50 84 50 12 65
41 21 41 -14 0 -25 -4 -25 -10 0 -5 -11 -10 -25 -10 -32 0 -33 23 -2 45 23 17
101 16 117 -1z m197 -11 c18 -23 16 -31 -8 -38 -14 -5 -25 -1 -33 10 -17 23
-52 12 -58 -19 -10 -53 28 -92 61 -62 24 22 51 20 51 -3 0 -50 -99 -69 -139
-27 -40 42 -27 136 22 156 31 13 90 4 104 -17z m496 16 c26 -12 47 -47 47 -79
0 -18 -7 -20 -60 -20 -60 0 -70 -6 -48 -28 15 -15 48 -16 48 -2 0 11 43 14 53
3 16 -15 -37 -53 -73 -53 -47 0 -78 23 -86 65 -16 87 47 147 119 114z m225 -5
c20 -13 22 -24 22 -95 0 -77 -1 -79 -25 -79 -23 0 -24 3 -27 73 -3 66 -5 72
-25 75 -29 4 -43 -29 -43 -99 0 -47 -2 -50 -22 -47 -22 3 -23 8 -26 92 l-3 89
34 -6 c19 -3 40 -1 48 4 21 13 42 11 67 -7z m403 -4 c21 -17 22 -21 9 -30 -19
-13 -40 -13 -40 0 0 13 -47 13 -55 1 -3 -5 19 -17 49 -25 69 -20 86 -56 46
-96 -14 -14 -33 -20 -65 -20 -44 0 -85 24 -85 50 0 13 43 13 57 -1 13 -13 59
-8 54 6 -2 6 -23 16 -48 23 -46 13 -65 39 -55 75 10 38 95 49 133 17z m-1941
-81 c0 -88 -1 -90 -22 -87 -22 3 -23 8 -26 91 l-3 87 26 0 c25 0 25 0 25 -91z
m1760 0 c0 -88 -1 -90 -22 -87 -22 3 -23 8 -26 91 l-3 87 26 0 c25 0 25 0 25
-91z m410 -70 c0 -38 -16 -69 -35 -69 -18 0 -19 12 -2 29 10 11 10 14 0 18 -7
3 -13 16 -13 29 0 19 5 24 25 24 21 0 25 -5 25 -31z m-1570 -294 c0 -117 -1
-125 -19 -125 -11 0 -21 6 -24 13 -4 10 -7 10 -18 0 -35 -34 -108 3 -110 55
-3 70 7 98 41 112 23 10 37 10 55 2 24 -11 25 -10 25 28 0 36 3 40 25 40 l25
0 0 -125z m90 105 c0 -15 -7 -20 -25 -20 -18 0 -25 5 -25 20 0 15 7 20 25 20
18 0 25 -5 25 -20z m390 -20 c0 -37 2 -40 19 -30 56 29 111 -12 111 -83 0 -76
-53 -118 -111 -87 -13 7 -19 7 -19 0 0 -5 -11 -10 -25 -10 l-25 0 0 125 0 125
25 0 c23 0 25 -4 25 -40z m626 -30 c8 0 14 -7 14 -15 0 -8 -7 -15 -15 -15 -12
0 -15 -13 -15 -55 0 -42 3 -55 15 -55 8 0 15 -9 15 -20 0 -14 -7 -20 -24 -20
-50 0 -56 8 -56 74 0 36 -5 67 -12 74 -10 10 -10 17 0 32 6 11 12 26 12 33 0
8 10 18 23 24 20 9 22 7 25 -23 2 -22 9 -34 18 -34z m-1883 -1 c26 -12 47 -47
47 -79 0 -18 -7 -20 -60 -20 -60 0 -70 -6 -48 -28 15 -15 48 -16 48 -2 0 11
43 14 53 3 16 -15 -37 -53 -73 -53 -47 0 -78 23 -86 65 -16 87 47 147 119 114z
m225 -5 c20 -13 22 -24 22 -95 0 -77 -1 -79 -25 -79 -23 0 -24 3 -27 73 -3 66
-5 72 -25 75 -29 4 -43 -29 -43 -99 0 -47 -2 -50 -22 -47 -22 3 -23 8 -26 92
l-3 89 34 -6 c19 -3 40 -1 48 4 21 13 42 11 67 -7z m220 0 c20 -13 22 -24 22
-95 0 -77 -1 -79 -25 -79 -23 0 -24 3 -27 73 -3 66 -5 72 -25 75 -29 4 -43
-29 -43 -99 0 -47 -2 -50 -22 -47 -22 3 -23 8 -26 92 l-3 89 34 -6 c19 -3 40
-1 48 4 21 13 42 11 67 -7z m585 5 c26 -12 47 -47 47 -79 0 -18 -7 -20 -60
-20 -60 0 -70 -6 -48 -28 15 -15 48 -16 48 -2 0 11 43 14 53 3 16 -15 -37 -53
-73 -53 -47 0 -78 23 -86 65 -16 87 47 147 119 114z m500 0 c26 -12 47 -47 47
-79 0 -18 -7 -20 -60 -20 -60 0 -70 -6 -48 -28 15 -15 48 -16 48 -2 0 11 43
14 53 3 16 -15 -37 -53 -73 -53 -47 0 -78 23 -86 65 -16 87 47 147 119 114z
m218 -9 c21 -17 22 -21 9 -30 -19 -13 -40 -13 -40 0 0 13 -47 13 -55 1 -3 -5
19 -17 49 -25 69 -20 86 -56 46 -96 -14 -14 -33 -20 -65 -20 -44 0 -85 24 -85
50 0 13 43 13 57 -1 13 -13 59 -8 54 6 -2 6 -23 16 -48 23 -45 13 -65 39 -56
73 11 39 96 51 134 19z m292 9 c26 -12 47 -47 47 -79 0 -18 -7 -20 -60 -20
-60 0 -70 -6 -48 -28 15 -15 48 -16 48 -2 0 11 43 14 53 3 16 -15 -37 -53 -73
-53 -47 0 -78 23 -86 65 -16 87 47 147 119 114z m225 -5 c20 -13 22 -24 22
-95 0 -77 -1 -79 -25 -79 -23 0 -24 3 -27 73 -3 66 -5 72 -25 75 -29 4 -43
-29 -43 -99 0 -47 -2 -50 -22 -47 -22 3 -23 8 -26 92 l-3 89 34 -6 c19 -3 40
-1 48 4 21 13 42 11 67 -7z m-2607 -36 c13 -46 29 -72 29 -47 0 7 5 31 11 52
9 33 14 38 37 35 23 -3 28 -10 36 -45 5 -24 12 -43 16 -43 4 0 13 20 20 45 11
38 17 45 37 45 20 0 24 -4 18 -17 -3 -10 -16 -51 -28 -91 -19 -67 -23 -73 -46
-70 -19 2 -27 13 -39 53 l-15 50 -15 -53 c-14 -48 -18 -53 -41 -50 -22 3 -28
13 -52 91 l-27 87 24 0 c19 0 25 -8 35 -42z m1209 -49 c0 -88 -1 -90 -22 -87
-22 3 -23 8 -26 91 l-3 87 26 0 c25 0 25 0 25 -91z m-1071 -247 c19 -9 38 -27
42 -39 7 -20 5 -23 -20 -23 -16 0 -34 7 -41 15 -18 22 -66 18 -90 -7 -22 -24
-27 -77 -9 -109 15 -29 52 -40 89 -28 37 14 39 37 3 41 -20 2 -29 9 -31 26 -3
21 0 22 52 22 l56 0 0 -56 c0 -54 -1 -55 -37 -71 -54 -22 -128 -13 -161 20
-33 34 -42 118 -17 166 28 56 102 75 164 43z m721 -33 c0 -35 3 -40 18 -34 39
16 53 17 77 1 23 -15 25 -22 25 -96 0 -78 -1 -80 -25 -80 -23 0 -24 3 -27 73
-3 66 -5 72 -25 75 -29 4 -43 -29 -43 -99 0 -47 -2 -50 -22 -47 -22 3 -23 7
-26 126 l-3 122 26 0 c23 0 25 -4 25 -41z m620 -21 l0 -62 28 27 c17 17 39 27
57 27 l29 0 -27 -28 c-15 -15 -27 -31 -27 -35 0 -3 14 -29 30 -57 17 -28 30
-53 30 -55 0 -3 -11 -5 -24 -5 -18 0 -31 11 -49 40 -18 30 -26 37 -35 28 -7
-7 -12 -25 -12 -40 0 -23 -4 -28 -25 -28 l-25 0 0 125 0 125 25 0 c24 0 25 -3
25 -62z m-1137 -9 c26 -12 47 -47 47 -79 0 -18 -7 -20 -60 -20 -60 0 -70 -6
-48 -28 15 -15 48 -16 48 -2 0 11 43 14 53 3 16 -15 -37 -53 -73 -53 -47 0
-78 23 -86 65 -16 87 47 147 119 114z m208 -9 c21 -17 22 -21 9 -30 -19 -13
-40 -13 -40 0 0 13 -47 13 -55 1 -3 -5 19 -17 49 -25 69 -20 86 -56 46 -96
-14 -14 -33 -20 -65 -20 -44 0 -85 24 -85 50 0 13 43 13 57 -1 13 -13 59 -8
54 6 -2 6 -23 16 -48 23 -46 13 -65 39 -55 75 10 38 95 49 133 17z m216 -7
c18 -23 16 -31 -8 -38 -14 -5 -25 -1 -33 10 -17 23 -52 12 -58 -19 -10 -53 28
-92 61 -62 24 22 51 20 51 -3 0 -50 -99 -69 -139 -27 -40 42 -27 136 22 156
31 13 90 4 104 -17z m376 16 c26 -12 47 -47 47 -79 0 -18 -7 -20 -60 -20 -60
0 -70 -6 -48 -28 15 -15 48 -16 48 -2 0 11 43 14 53 3 16 -15 -37 -53 -73 -53
-47 0 -78 23 -86 65 -16 87 47 147 119 114z m225 -5 c20 -13 22 -24 22 -95 0
-77 -1 -79 -25 -79 -23 0 -24 3 -27 73 -3 66 -5 72 -25 75 -29 4 -43 -29 -43
-99 0 -47 -2 -50 -22 -47 -22 3 -23 8 -26 92 l-3 89 34 -6 c19 -3 40 -1 48 4
21 13 42 11 67 -7z m375 5 c26 -12 47 -47 47 -79 0 -18 -7 -20 -60 -20 -60 0
-70 -6 -48 -28 15 -15 48 -16 48 -2 0 11 43 14 53 3 16 -15 -37 -53 -73 -53
-47 0 -78 23 -86 65 -16 87 47 147 119 114z m317 -5 c4 -5 10 -46 12 -91 5
-82 4 -83 -19 -83 -12 0 -23 5 -23 12 0 9 -3 9 -12 0 -22 -22 -76 -15 -94 13
-25 39 -7 69 50 84 50 12 65 41 21 41 -14 0 -25 -4 -25 -10 0 -5 -11 -10 -25
-10 -32 0 -33 23 -2 45 23 17 101 16 117 -1z m205 4 c11 0 32 3 47 7 19 5 31
2 47 -14 18 -18 21 -33 21 -96 0 -73 -1 -75 -25 -75 -24 0 -25 2 -25 70 0 54
-4 72 -15 76 -30 12 -45 -15 -45 -82 0 -62 -1 -64 -25 -64 -24 0 -25 2 -25 70
0 54 -4 72 -15 76 -30 12 -45 -15 -45 -82 0 -62 -1 -64 -25 -64 -25 0 -25 1
-25 90 l0 91 35 -3 c19 -1 38 1 42 6 4 4 19 4 33 1 14 -4 34 -7 45 -7z m-2115
-358 c0 -17 -7 -20 -40 -20 l-40 0 0 -105 0 -105 -25 0 -25 0 0 105 0 105 -35
0 c-28 0 -35 4 -35 20 0 19 7 20 100 20 93 0 100 -1 100 -20z m60 0 c0 -15 -7
-20 -25 -20 -18 0 -25 5 -25 20 0 15 7 20 25 20 18 0 25 -5 25 -20z m490 -21
c0 -35 3 -40 18 -34 39 16 53 17 77 1 23 -15 25 -22 25 -96 0 -78 -1 -80 -25
-80 -23 0 -24 3 -27 73 -3 66 -5 72 -25 75 -29 4 -43 -29 -43 -99 0 -47 -2
-50 -22 -47 -22 3 -23 7 -26 126 l-3 122 26 0 c23 0 25 -4 25 -41z m510 21 c0
-15 -7 -20 -25 -20 -18 0 -25 5 -25 20 0 15 7 20 25 20 18 0 25 -5 25 -20z
m126 -50 c8 0 14 -7 14 -15 0 -8 -7 -15 -15 -15 -12 0 -15 -13 -15 -55 0 -42
3 -55 15 -55 8 0 15 -9 15 -20 0 -14 -7 -20 -24 -20 -50 0 -56 8 -56 74 0 36
-5 67 -12 74 -10 10 -10 17 0 32 6 11 12 26 12 33 0 8 10 18 23 24 20 9 22 7
25 -23 2 -22 9 -34 18 -34z m1314 -55 c0 -117 -1 -125 -19 -125 -11 0 -21 6
-24 13 -4 10 -7 10 -18 0 -35 -34 -108 3 -110 55 -3 70 7 98 41 112 23 10 37
10 55 2 24 -11 25 -10 25 28 0 36 3 40 25 40 l25 0 0 -125z m-2259 45 c21 -17
22 -21 9 -30 -19 -13 -40 -13 -40 0 0 13 -47 13 -55 1 -3 -5 19 -17 49 -25 69
-20 86 -56 46 -96 -14 -14 -33 -20 -65 -20 -44 0 -85 24 -85 50 0 13 43 13 57
-1 13 -13 59 -8 54 6 -2 6 -23 16 -48 23 -46 13 -65 39 -55 75 10 38 95 49
133 17z m206 -7 c18 -23 16 -31 -8 -38 -14 -5 -25 -1 -33 10 -17 23 -52 12
-58 -19 -10 -53 28 -92 61 -62 24 22 51 20 51 -3 0 -50 -99 -69 -139 -27 -40
42 -27 136 22 156 31 13 90 4 104 -17z m504 7 c21 -17 22 -21 9 -30 -19 -13
-40 -13 -40 0 0 13 -47 13 -55 1 -3 -5 19 -17 49 -25 69 -20 86 -56 46 -96
-14 -14 -33 -20 -65 -20 -44 0 -85 24 -85 50 0 13 43 13 57 -1 13 -13 59 -8
54 6 -2 6 -23 16 -48 23 -46 13 -65 39 -55 75 10 38 95 49 133 17z m562 9 c26
-12 47 -47 47 -79 0 -18 -7 -20 -60 -20 -60 0 -70 -6 -48 -28 15 -15 48 -16
48 -2 0 11 43 14 53 3 16 -15 -37 -53 -73 -53 -47 0 -78 23 -86 65 -16 87 47
147 119 114z m225 -5 c20 -13 22 -24 22 -95 0 -77 -1 -79 -25 -79 -23 0 -24 3
-27 73 -3 66 -5 72 -25 75 -29 4 -43 -29 -43 -99 0 -47 -2 -50 -22 -47 -22 3
-23 8 -26 92 l-3 89 34 -6 c19 -3 40 -1 48 4 21 13 42 11 67 -7z m530 0 c20
-13 22 -24 22 -95 0 -77 -1 -79 -25 -79 -23 0 -24 3 -27 73 -3 66 -5 72 -25
75 -29 4 -43 -29 -43 -99 0 -47 -2 -50 -22 -47 -22 3 -23 8 -26 92 l-3 89 34
-6 c19 -3 40 -1 48 4 21 13 42 11 67 -7z m-2208 -85 c0 -88 -1 -90 -22 -87
-22 3 -23 8 -26 91 l-3 87 26 0 c25 0 25 0 25 -91z m1000 0 c0 -88 -1 -90 -22
-87 -22 3 -23 8 -26 91 l-3 87 26 0 c25 0 25 0 25 -91z m300 74 c0 -9 -18 -38
-41 -65 l-40 -48 45 0 c42 0 46 -2 46 -25 0 -25 -1 -25 -80 -25 -79 0 -80 0
-80 25 0 16 16 42 41 70 l40 44 -38 3 c-27 2 -39 8 -41 21 -3 15 6 17 72 17
65 0 76 -3 76 -17z m600 -37 c0 -66 7 -86 29 -86 30 0 41 22 41 82 0 55 1 58
25 58 25 0 25 -1 25 -90 0 -89 0 -90 -25 -90 -14 0 -25 5 -25 11 0 8 -4 8 -14
0 -8 -7 -30 -11 -48 -9 -42 4 -58 34 -58 116 0 60 1 62 25 62 24 0 25 -3 25
-54z m-1890 -296 c0 -15 -7 -20 -25 -20 -18 0 -25 5 -25 20 0 15 7 20 25 20
18 0 25 -5 25 -20z m290 -21 c0 -35 3 -40 18 -34 39 16 53 17 77 1 23 -15 25
-22 25 -96 0 -78 -1 -80 -25 -80 -23 0 -24 3 -27 73 -3 66 -5 72 -25 75 -29 4
-43 -29 -43 -99 0 -47 -2 -50 -22 -47 -22 3 -23 7 -26 126 l-3 122 26 0 c23 0
25 -4 25 -41z m236 -29 c8 0 14 -7 14 -15 0 -8 -7 -15 -15 -15 -12 0 -15 -13
-15 -55 0 -42 3 -55 15 -55 8 0 15 -9 15 -20 0 -14 -7 -20 -24 -20 -50 0 -56
8 -56 74 0 36 -5 67 -12 74 -10 10 -10 17 0 32 6 11 12 26 12 33 0 8 10 18 23
24 20 9 22 7 25 -23 2 -22 9 -34 18 -34z m650 0 c8 0 14 -7 14 -15 0 -8 -7
-15 -15 -15 -12 0 -15 -13 -15 -55 0 -42 3 -55 15 -55 8 0 15 -9 15 -20 0 -14
-7 -20 -24 -20 -50 0 -56 8 -56 74 0 36 -5 67 -12 74 -10 10 -10 17 0 32 6 11
12 26 12 33 0 8 10 18 23 24 20 9 22 7 25 -23 2 -22 9 -34 18 -34z m-1288 -6
c20 -13 22 -24 22 -95 0 -77 -1 -79 -25 -79 -23 0 -24 3 -27 73 -3 66 -5 72
-25 75 -29 4 -43 -29 -43 -99 0 -47 -2 -50 -22 -47 -22 3 -23 8 -26 92 l-3 89
34 -6 c19 -3 40 -1 48 4 21 13 42 11 67 -7z m309 -11 c18 -23 16 -31 -8 -38
-14 -5 -25 -1 -33 10 -17 23 -52 12 -58 -19 -10 -53 28 -92 61 -62 24 22 51
20 51 -3 0 -50 -99 -69 -139 -27 -40 42 -27 136 22 156 31 13 90 4 104 -17z
m831 11 c20 -13 22 -24 22 -95 0 -77 -1 -79 -25 -79 -23 0 -24 3 -27 73 -3 66
-5 72 -25 75 -29 4 -43 -29 -43 -99 0 -47 -2 -50 -22 -47 -22 3 -23 8 -26 92
l-3 89 34 -6 c19 -3 40 -1 48 4 21 13 42 11 67 -7z m295 5 c26 -12 47 -47 47
-79 0 -18 -7 -20 -60 -20 -60 0 -70 -6 -48 -28 15 -15 48 -16 48 -2 0 11 43
14 53 3 16 -15 -37 -53 -73 -53 -47 0 -78 23 -86 65 -16 87 47 147 119 114z
m201 2 c11 -17 -6 -41 -29 -41 -26 0 -35 -22 -35 -92 0 -44 -2 -48 -25 -48
-25 0 -25 1 -25 91 l0 91 30 -4 c17 -3 33 -1 36 4 7 11 41 10 48 -1z m171 -3
c11 0 32 3 47 7 19 5 31 2 47 -14 18 -18 21 -33 21 -96 0 -73 -1 -75 -25 -75
-24 0 -25 2 -25 70 0 54 -4 72 -15 76 -30 12 -45 -15 -45 -82 0 -62 -1 -64
-25 -64 -24 0 -25 2 -25 70 0 54 -4 72 -15 76 -30 12 -45 -15 -45 -82 0 -62
-1 -64 -25 -64 -25 0 -25 1 -25 90 l0 91 35 -3 c19 -1 38 1 42 6 4 4 19 4 33
1 14 -4 34 -7 45 -7z m-1695 -89 c0 -88 -1 -90 -22 -87 -22 3 -23 8 -26 91
l-3 87 26 0 c25 0 25 0 25 -91z m720 37 c0 -66 7 -86 29 -86 30 0 41 22 41 82
0 55 1 58 25 58 25 0 25 -1 25 -90 0 -89 0 -90 -25 -90 -14 0 -25 5 -25 11 0
8 -4 8 -14 0 -8 -7 -30 -11 -48 -9 -42 4 -58 34 -58 116 0 60 1 62 25 62 24 0
25 -3 25 -54z m-798 -293 c20 -18 24 -63 6 -81 -9 -9 -8 -16 4 -29 21 -23 24
-41 15 -76 -10 -36 -40 -47 -128 -47 l-69 0 0 125 0 125 77 0 c57 0 81 -4 95
-17z m928 -109 c0 -124 0 -125 -22 -122 -22 3 -23 7 -26 126 l-3 122 26 0 25
0 0 -126z m100 106 c0 -15 -7 -20 -25 -20 -18 0 -25 5 -25 20 0 15 7 20 25 20
18 0 25 -5 25 -20z m-820 -56 c4 -5 10 -46 12 -91 5 -82 4 -83 -19 -83 -12 0
-23 5 -23 12 0 9 -3 9 -12 0 -22 -22 -76 -15 -94 13 -25 39 -7 69 50 84 50 12
65 41 21 41 -14 0 -25 -4 -25 -10 0 -5 -11 -10 -25 -10 -32 0 -33 23 -2 45 23
17 101 16 117 -1z m425 5 c11 0 34 3 51 6 47 10 64 -20 64 -112 0 -71 -1 -73
-25 -73 -24 0 -25 2 -25 70 0 54 -4 72 -15 76 -30 12 -45 -15 -45 -82 0 -62
-1 -64 -25 -64 -24 0 -25 2 -25 70 0 54 -4 72 -15 76 -30 12 -45 -15 -45 -82
0 -62 -1 -64 -25 -64 -25 0 -25 1 -25 90 l0 91 35 -3 c19 -1 38 1 42 6 4 4 19
4 33 1 14 -4 34 -7 45 -6z m558 0 c26 -12 47 -47 47 -79 0 -18 -7 -20 -60 -20
-60 0 -70 -6 -48 -28 15 -15 48 -16 48 -2 0 11 43 14 53 3 16 -15 -37 -53 -73
-53 -47 0 -78 23 -86 65 -16 87 47 147 119 114z m215 0 l32 1 0 -105 c0 -92
-3 -108 -20 -125 -37 -37 -150 -18 -150 26 0 17 41 19 57 3 18 -18 58 -7 61
19 3 20 1 21 -22 12 -56 -21 -99 18 -98 88 0 58 38 98 81 87 14 -4 41 -6 59
-6z m195 0 c26 -12 47 -47 47 -79 0 -18 -7 -20 -60 -20 -60 0 -70 -6 -48 -28
15 -15 48 -16 48 -2 0 11 43 14 53 3 16 -15 -37 -53 -73 -53 -47 0 -78 23 -86
65 -16 87 47 147 119 114z m225 -5 c20 -13 22 -24 22 -95 0 -77 -1 -79 -25
-79 -23 0 -24 3 -27 73 -3 66 -5 72 -25 75 -29 4 -43 -29 -43 -99 0 -47 -2
-50 -22 -47 -22 3 -23 8 -26 92 l-3 89 34 -6 c19 -3 40 -1 48 4 21 13 42 11
67 -7z m-1518 -48 c0 -66 7 -86 29 -86 30 0 41 22 41 82 0 55 1 58 25 58 25 0
25 -1 25 -90 0 -89 0 -90 -25 -90 -14 0 -25 5 -25 11 0 8 -4 8 -14 0 -8 -7
-30 -11 -48 -9 -42 4 -58 34 -58 116 0 60 1 62 25 62 24 0 25 -3 25 -54z m720
-37 c0 -88 -1 -90 -22 -87 -22 3 -23 8 -26 91 l-3 87 26 0 c25 0 25 0 25 -91z
m920 -65 c0 -21 -4 -25 -22 -22 -15 2 -24 11 -26 26 -3 18 1 22 22 22 21 0 26
-5 26 -26z m130 -345 c0 -6 7 -8 16 -5 12 4 14 1 9 -14 -4 -11 -2 -20 4 -20 6
0 11 -4 11 -10 0 -5 -7 -10 -16 -10 -10 0 -14 -6 -10 -15 6 -17 -9 -21 -19 -5
-5 8 -11 7 -21 -1 -11 -9 -14 -8 -14 5 0 9 -8 16 -17 16 -17 1 -17 2 0 14 12
9 14 16 8 21 -19 11 -12 23 9 18 11 -3 20 0 20 6 0 6 5 11 10 11 6 0 10 -5 10
-11z m491 -54 c-1 -15 -24 -12 -29 3 -3 9 2 13 12 10 10 -1 17 -7 17 -13z
m-331 -20 c0 -14 29 -35 50 -35 7 0 8 6 0 19 -19 37 -10 44 13 10 12 -19 31
-36 42 -38 17 -3 18 -1 6 13 -8 10 -9 16 -3 16 6 0 16 -9 22 -20 7 -13 21 -20
39 -20 49 0 91 -12 91 -26 0 -7 -13 -20 -30 -29 -34 -18 -36 -25 -15 -87 11
-30 25 -49 41 -57 37 -16 39 -36 9 -87 -31 -52 -41 -52 -27 0 9 32 8 37 -10
47 -27 15 -35 3 -14 -20 20 -22 13 -42 -23 -75 -20 -18 -20 -18 -8 13 19 50
-5 65 -108 70 l-85 3 0 -26 c0 -29 -40 -76 -65 -76 -18 0 -20 -21 -3 -38 6 -6
8 -15 4 -19 -4 -5 -21 8 -37 27 l-29 34 25 26 c30 32 31 52 5 88 -16 22 -19
33 -11 53 8 21 10 22 16 7 5 -14 11 -15 25 -8 11 6 54 17 96 25 96 18 124 35
124 75 0 23 -5 30 -19 30 -11 0 -23 5 -26 10 -3 6 3 10 14 10 38 0 22 18 -21
25 -71 12 -108 38 -108 76 0 6 5 7 10 4 6 -3 10 -13 10 -20z m-754 -26 c8 -14
-11 -33 -25 -25 -11 7 -4 36 9 36 5 0 12 -5 16 -11z m185 -14 c9 6 11 3 6 -8
-4 -10 -1 -17 6 -18 9 0 9 -2 0 -6 -7 -2 -13 -12 -13 -20 0 -12 -3 -13 -14 -4
-11 9 -15 9 -19 -1 -4 -8 -6 -7 -6 5 -1 9 -5 17 -9 17 -4 0 -8 9 -8 20 0 13 5
19 13 16 7 -3 13 0 13 7 0 8 3 8 9 -2 5 -8 14 -10 22 -6z m139 0 c0 -8 -7 -15
-15 -15 -8 0 -15 7 -15 15 0 8 7 15 15 15 8 0 15 -7 15 -15z m-1209 -20 c-1
-15 -24 -12 -29 3 -3 9 2 13 12 10 10 -1 17 -7 17 -13z m1278 -44 c33 -18 43
-13 26 12 -8 13 -12 26 -9 30 4 3 16 -8 28 -25 27 -40 51 -50 42 -17 -7 23 -6
23 14 -3 15 -19 31 -28 50 -28 42 0 90 -11 90 -21 0 -5 -15 -19 -32 -30 -18
-12 -25 -19 -15 -15 9 3 68 15 130 26 61 11 123 23 135 26 13 3 21 1 18 -4 -3
-5 -71 -22 -151 -37 -155 -31 -159 -33 -130 -85 20 -35 18 -57 -6 -81 -20 -20
-20 -23 -5 -31 23 -13 20 -43 -10 -75 -20 -22 -24 -23 -19 -8 18 50 17 54 -14
69 -19 10 -56 16 -99 16 l-70 0 -6 -35 c-6 -28 -15 -39 -46 -55 -22 -11 -40
-22 -40 -24 0 -3 7 -12 16 -21 24 -23 8 -32 -17 -9 -40 36 -43 53 -15 83 31
33 32 41 5 75 -16 20 -19 33 -13 54 5 20 8 23 11 10 3 -13 9 -16 21 -9 9 5 57
17 106 27 96 19 126 38 126 79 0 18 -5 25 -19 25 -29 0 -34 17 -8 24 18 6 10
11 -40 25 -73 21 -93 35 -92 65 l0 21 9 -22 c5 -12 18 -26 29 -32z m-539 29
c8 -5 11 -10 5 -10 -5 0 -3 -5 5 -10 10 -6 11 -10 3 -10 -7 0 -13 -6 -13 -13
0 -7 -9 -13 -20 -13 -11 0 -20 6 -20 13 0 7 -6 13 -12 13 -9 0 -8 4 2 10 8 5
11 10 5 10 -10 0 15 20 25 20 3 0 12 -5 20 -10z m-910 -35 c9 5 10 1 5 -14 -4
-14 -2 -21 6 -21 7 0 5 -6 -6 -13 -10 -8 -15 -19 -11 -25 4 -7 3 -12 -3 -12
-5 0 -11 6 -14 13 -3 9 -7 9 -20 -2 -15 -12 -17 -11 -17 8 0 12 -4 19 -10 16
-5 -3 -10 -2 -10 4 0 5 6 11 13 14 9 3 8 8 -3 22 -14 16 -13 17 8 11 17 -6 22
-3 22 11 1 17 1 17 15 -1 7 -10 19 -15 25 -11z m720 10 c0 -8 -6 -15 -14 -15
-17 0 -28 14 -19 24 12 12 33 6 33 -9z m-203 -38 c12 5 14 3 8 -6 -4 -8 -2
-17 6 -22 10 -6 11 -9 2 -9 -7 0 -13 -6 -13 -14 0 -8 -10 -13 -25 -13 -15 0
-25 5 -25 13 0 8 -6 14 -12 15 -10 0 -10 2 -1 5 7 3 9 13 6 21 -5 12 -2 15 10
10 12 -4 17 -1 18 11 1 16 2 16 6 0 3 -11 10 -15 20 -11z m-177 -39 c0 -5 -4
-6 -10 -3 -5 3 -10 0 -10 -7 0 -8 -9 -14 -20 -14 -11 0 -20 6 -20 13 0 7 -6
13 -12 14 -10 0 -10 2 -1 5 7 3 9 12 6 21 -4 10 -2 14 5 9 6 -3 14 -2 17 4 7
11 45 -25 45 -42z m747 -7 c29 -13 43 -7 25 11 -7 7 -12 19 -12 28 0 9 6 6 17
-11 9 -14 25 -31 35 -38 18 -11 19 -10 13 8 -3 12 -2 21 4 21 5 0 12 -9 16
-19 6 -20 38 -36 53 -27 11 7 82 -15 82 -25 0 -5 -13 -15 -30 -24 -34 -17 -36
-30 -16 -97 14 -43 13 -49 -4 -71 -17 -22 -18 -26 -5 -37 19 -16 19 -40 -1
-68 -21 -30 -36 -28 -22 4 18 40 -16 64 -91 64 -31 0 -66 3 -78 6 -20 6 -23 3
-23 -23 0 -32 -30 -66 -68 -78 -22 -6 -22 -8 -7 -31 22 -33 5 -30 -30 6 l-29
30 27 28 c33 34 33 44 6 81 -15 20 -19 36 -14 51 5 16 9 19 15 10 4 -7 12 -10
18 -6 6 3 45 13 89 22 43 8 90 20 105 25 30 12 49 44 20 35 -9 -3 -79 -17
-154 -32 -96 -19 -138 -31 -138 -40 0 -8 5 -34 12 -58 11 -40 10 -47 -7 -66
-17 -19 -17 -21 -1 -39 21 -23 15 -50 -16 -77 -20 -19 -21 -19 -13 6 12 41 11
44 -25 62 -42 21 -158 25 -164 6 -3 -7 -7 -26 -11 -41 -4 -20 -16 -33 -40 -43
-40 -16 -41 -20 -18 -46 10 -11 12 -18 4 -18 -14 0 -61 48 -61 63 0 6 12 23
26 38 l26 28 -22 36 c-13 22 -20 46 -17 60 2 14 2 25 0 25 -2 0 -26 -11 -53
-25 -28 -14 -50 -21 -50 -16 0 26 236 105 338 113 17 1 32 8 32 14 0 7 -15 18
-32 24 l-33 13 30 6 c35 8 25 16 -30 26 -66 12 -95 32 -94 63 l0 27 10 -25
c12 -28 26 -40 53 -40 18 0 18 1 3 18 -10 10 -17 25 -17 33 0 7 14 -3 31 -24
32 -39 52 -48 43 -19 -4 12 0 10 12 -5 10 -14 27 -23 43 -23 14 0 43 -5 64
-11 38 -10 39 -11 20 -31 -18 -21 -18 -21 7 -15 14 3 78 16 143 28 115 23 145
40 92 53 -31 8 -33 26 -2 27 12 0 -7 10 -43 21 -65 20 -91 39 -89 67 0 11 3
10 11 -5 5 -12 21 -27 35 -33z m1073 38 c0 -5 5 -7 12 -3 8 5 9 2 5 -9 -4 -10
-1 -17 6 -18 9 0 9 -2 0 -6 -7 -2 -13 -10 -13 -17 0 -6 -9 -12 -20 -12 -11 0
-20 6 -20 13 0 7 -4 13 -9 13 -5 0 -7 9 -4 20 3 11 9 17 14 14 5 -3 9 0 9 5 0
6 5 11 10 11 6 0 10 -5 10 -11z m-1330 -54 c0 -8 -7 -15 -15 -15 -8 0 -15 7
-15 15 0 8 7 15 15 15 8 0 15 -7 15 -15z m-206 -28 c4 4 4 0 0 -10 -3 -10 -1
-17 6 -17 7 0 6 -5 -4 -15 -16 -16 -33 -16 -52 0 -13 11 -6 48 7 39 5 -3 9 0
9 7 0 8 3 9 13 0 8 -6 17 -8 21 -4z m936 4 c0 -5 -26 -15 -57 -21 -32 -7 -96
-20 -143 -30 -79 -17 -101 -18 -88 -4 5 4 249 60 281 63 4 1 7 -3 7 -8z
m-1373 -34 c12 5 14 3 8 -6 -4 -8 -2 -17 6 -22 11 -7 10 -9 -4 -9 -10 0 -16
-4 -12 -9 8 -13 -29 -10 -41 3 -15 18 -14 48 2 42 8 -3 14 0 15 7 0 9 2 9 5 0
3 -7 12 -9 21 -6z m209 -18 c10 -17 -13 -36 -27 -22 -12 12 -4 33 11 33 5 0
12 -5 16 -11z m-442 -55 c62 -30 125 -79 90 -69 -38 10 -103 -23 -123 -64
l-19 -36 -7 27 c-7 27 -85 108 -104 108 -5 0 -17 7 -25 16 -13 13 -16 13 -16
1 0 -21 -25 -38 -44 -31 -11 4 -16 15 -14 33 3 23 8 26 41 27 20 1 40 4 44 8
3 3 33 6 65 6 43 0 73 -7 112 -26z m1896 -4 c12 -9 9 -16 -22 -45 -40 -37 -46
-51 -25 -58 6 -2 9 -7 5 -11 -8 -10 -48 12 -48 26 0 6 11 21 25 34 14 13 25
32 25 44 0 22 16 26 40 10z m-1392 -98 c-2 -9 -16 -23 -31 -30 -15 -7 -27 -16
-27 -20 0 -4 11 -27 25 -51 32 -56 31 -74 -4 -104 l-29 -24 19 -32 c24 -39 24
-41 0 -41 -11 0 -23 12 -31 31 -9 22 -17 28 -29 23 -69 -29 -113 -43 -154 -49
-26 -4 -47 -12 -47 -17 0 -6 54 -9 144 -6 138 3 146 4 171 28 23 22 26 30 20
64 -6 40 -6 40 15 21 30 -27 27 -78 -6 -104 -38 -30 -81 -39 -249 -51 -82 -5
-190 -17 -240 -25 -107 -18 -112 -18 -99 -5 15 15 150 60 180 60 15 0 24 5 22
12 -6 16 -25 26 -74 38 -45 11 -64 38 -64 94 0 40 -35 79 -50 56 -6 -8 -10
-21 -10 -27 0 -21 -28 -15 -35 8 -14 43 -1 45 220 36 101 -4 120 -4 67 3 -40
4 -76 11 -80 15 -14 14 25 26 68 20 172 -23 191 -19 221 51 11 24 27 48 37 53
22 12 54 -5 50 -27z m1743 11 c20 5 26 -7 8 -18 -6 -5 -4 -12 8 -21 17 -12 17
-13 1 -14 -10 0 -18 -7 -18 -16 0 -13 -3 -14 -14 -5 -10 8 -16 9 -21 1 -10
-16 -25 -12 -19 5 4 9 0 15 -10 15 -9 0 -16 5 -16 10 0 6 5 10 11 10 6 0 8 9
4 20 -5 15 -3 18 8 14 8 -3 18 3 22 13 8 17 8 17 12 0 3 -13 11 -17 24 -14z
m-734 0 c4 -11 -5 -26 -32 -48 -24 -21 -33 -35 -26 -39 20 -13 12 -27 -9 -16
-26 14 -25 26 5 62 14 16 25 36 25 44 0 20 29 18 37 -3z m-1387 -6 c0 -9 12
-11 41 -9 38 4 40 3 28 -15 -17 -28 -52 -49 -57 -34 -6 18 -41 13 -75 -11 -25
-18 -29 -19 -24 -5 4 9 10 24 13 32 10 25 -16 17 -47 -14 -30 -30 -38 -26 -18
10 23 44 139 83 139 46z m1015 -61 c19 -13 18 -16 -19 -50 -33 -30 -37 -38
-26 -51 10 -12 10 -15 -3 -15 -8 0 -20 7 -27 15 -10 12 -7 20 14 46 14 17 26
39 26 50 0 23 9 24 35 5z m665 -42 c0 -16 -16 -19 -25 -4 -8 13 4 32 16 25 5
-4 9 -13 9 -21z m-245 6 c3 -6 -1 -13 -10 -16 -19 -8 -30 0 -20 15 8 14 22 14
30 1z m415 -1 c0 -5 5 -7 12 -3 8 5 9 2 5 -9 -4 -10 -1 -17 6 -18 9 0 9 -2 0
-6 -7 -2 -13 -12 -14 -21 0 -11 -2 -13 -6 -4 -4 10 -8 10 -19 1 -11 -9 -14 -8
-14 5 0 9 -6 16 -12 17 -10 0 -10 2 -1 5 7 3 9 12 6 21 -4 11 -2 14 5 9 7 -4
12 -2 12 3 0 6 5 11 10 11 6 0 10 -5 10 -11z m160 -4 c0 -8 -6 -15 -14 -15
-17 0 -28 14 -19 24 12 12 33 6 33 -9z m-473 -69 c-14 -16 -30 -16 -42 -2 -16
17 -14 45 1 39 8 -3 14 1 14 7 0 7 9 3 20 -9 14 -18 16 -26 7 -35z m-903 38
c26 -10 19 -30 -21 -63 -31 -25 -35 -32 -23 -40 8 -6 11 -13 7 -17 -4 -4 -16
1 -27 11 l-20 18 25 27 c14 14 25 33 25 41 0 14 8 29 16 29 1 0 9 -3 18 -6z
m466 -34 c0 -5 -5 -12 -11 -16 -14 -8 -33 11 -25 25 7 11 36 4 36 -9z m150 -5
c0 -8 -7 -15 -15 -15 -8 0 -15 7 -15 15 0 8 7 15 15 15 8 0 15 -7 15 -15z
m518 -25 c4 -12 2 -13 -9 -2 -7 6 -26 12 -42 12 -37 0 -80 -44 -122 -123 -16
-31 -35 -57 -43 -57 -25 0 70 141 115 172 33 22 94 21 101 -2z m226 14 c9 -3
16 -11 16 -16 0 -7 -4 -7 -12 0 -7 5 -24 12 -38 15 -22 4 -22 4 -3 6 12 0 28
-2 37 -5z m-91 -28 c-16 -13 -44 -54 -63 -90 -30 -56 -50 -81 -50 -61 0 37
102 175 129 175 7 0 0 -11 -16 -24z m-1092 -17 c-75 -15 -112 -53 -110 -112 0
-17 3 -14 13 11 23 65 87 106 102 67 9 -22 -15 -74 -43 -92 -13 -9 -26 -13
-29 -10 -3 3 3 8 13 11 21 7 53 55 53 81 0 27 -32 13 -58 -25 -24 -36 -28 -97
-5 -93 7 2 10 -3 7 -11 -3 -9 5 -18 23 -24 15 -6 21 -11 12 -11 -8 -1 -24 6
-35 14 -10 8 -28 15 -40 15 -26 0 -62 26 -51 37 5 4 13 0 18 -10 11 -18 39
-24 39 -7 0 5 -9 14 -20 20 -28 15 -26 62 6 99 27 32 68 49 119 49 23 0 20 -2
-14 -9z m629 4 c-86 -14 -131 -51 -129 -107 l1 -31 12 33 c16 45 53 82 80 81
14 0 16 -2 6 -6 -30 -11 -60 -47 -66 -79 -9 -46 3 -74 39 -89 20 -9 25 -14 14
-15 -27 0 -107 83 -107 113 0 54 71 107 140 105 26 0 29 -2 10 -5z m-510 -13
c0 -5 -7 -10 -15 -10 -17 0 -68 -98 -59 -112 3 -4 0 -8 -7 -8 -16 0 -2 69 21
102 18 25 18 27 2 31 -9 3 0 5 21 6 20 0 37 -3 37 -9z m62 3 c-17 -7 -75 -123
-62 -123 6 0 16 11 22 25 11 24 52 44 65 31 8 -8 -17 -36 -33 -36 -8 0 -14 -7
-14 -15 0 -9 6 -12 18 -9 14 5 14 4 2 -4 -8 -6 -19 -8 -24 -4 -6 3 -23 5 -38
4 -32 -3 -33 3 -14 49 20 48 55 89 74 88 11 0 13 -2 4 -6z m584 -4 c8 -13 -13
-36 -23 -25 -4 4 -1 11 7 16 12 8 11 10 -7 10 -29 0 -83 -47 -100 -87 -15 -38
-11 -50 21 -63 l21 -9 -22 0 c-13 -1 -29 9 -38 23 -15 23 -15 27 5 66 31 60
115 103 136 69z m-366 -34 c0 -8 -7 -15 -15 -15 -8 0 -15 7 -15 15 0 8 7 15
15 15 8 0 15 -7 15 -15z m540 -5 c0 -5 -4 -10 -10 -10 -5 0 -10 5 -10 10 0 6
5 10 10 10 6 0 10 -4 10 -10z m-695 -10 c-4 -6 -2 -17 4 -23 12 -15 4 -57 -11
-57 -6 0 -7 11 -4 26 5 18 3 24 -5 18 -7 -4 -10 -3 -7 2 3 5 8 17 11 27 4 9 9
17 12 17 4 0 3 -5 0 -10z m60 0 c-4 -6 -2 -17 4 -23 12 -15 4 -57 -11 -57 -6
0 -7 11 -4 26 5 18 3 24 -5 18 -7 -4 -10 -3 -7 2 3 5 8 17 11 27 4 9 9 17 12
17 4 0 3 -5 0 -10z m560 -57 c-3 -13 -10 -23 -15 -23 -13 0 -13 7 1 32 8 15 8
22 -1 28 -7 5 -9 13 -5 21 12 18 28 -29 20 -58z m358 21 c-9 -14 -13 -27 -10
-31 4 -3 9 2 13 11 3 9 11 16 16 16 7 0 6 -5 -1 -13 -6 -8 -9 -16 -6 -18 2 -3
-9 -6 -26 -7 l-30 -2 16 30 c10 19 12 30 4 30 -6 0 -16 -13 -22 -30 -12 -32
-27 -40 -27 -15 0 26 45 64 68 58 20 -5 20 -6 5 -29z m-853 20 c0 -12 -35 -64
-43 -64 -5 0 -7 3 -5 8 24 48 32 62 40 62 4 0 8 -3 8 -6z m40 1 c0 -2 -14 -28
-31 -57 -32 -55 -86 -118 -102 -118 -5 0 4 13 20 28 15 16 35 42 43 58 35 68
70 113 70 89z m194 -19 c-3 -9 -10 -16 -15 -16 -5 0 -4 9 3 20 14 22 21 20 12
-4z m211 2 c-3 -13 -7 -29 -7 -35 -1 -14 -28 -18 -28 -5 0 16 25 62 34 62 4 0
5 -10 1 -22z m100 5 c-4 -10 -10 -26 -12 -35 -3 -10 -12 -18 -20 -18 -8 0 -13
3 -11 8 24 49 33 62 41 62 5 0 6 -8 2 -17z m47 -3 c0 -11 1 -25 2 -32 1 -6 -3
-13 -9 -15 -5 -1 -11 13 -12 32 -2 36 16 50 19 15z m23 11 c3 -5 1 -12 -5 -16
-5 -3 -10 1 -10 9 0 18 6 21 15 7z m93 2 c-24 -49 -32 -63 -40 -63 -13 0 -10
18 8 45 14 22 41 37 32 18z m36 -2 c3 -5 -1 -14 -9 -21 -8 -7 -15 -19 -15 -26
0 -8 -4 -14 -10 -14 -13 0 -13 10 3 43 12 28 22 33 31 18z m36 1 c0 -15 -25
-62 -32 -62 -11 0 -10 12 5 43 11 25 27 36 27 19z m129 -43 c1 -9 -5 -19 -12
-22 -10 -4 -13 4 -11 31 1 21 3 39 4 42 3 8 19 -34 19 -51z m21 42 c0 -6 -4
-13 -10 -16 -5 -3 -10 1 -10 9 0 9 5 16 10 16 6 0 10 -4 10 -9z m-1279 -18
c-5 -10 -22 -29 -37 -43 -23 -21 -22 -18 7 17 37 46 45 53 30 26z m55 -21
c-17 -16 -18 -16 -5 5 7 12 15 20 18 17 3 -2 -3 -12 -13 -22z m755 5 c-10 -9
-11 -8 -5 6 3 10 9 15 12 12 3 -3 0 -11 -7 -18z m96 -7 c-1 -12 -5 -16 -10
-11 -5 5 -6 14 -3 20 11 16 15 13 13 -9z m-357 -10 c-8 -5 -19 -10 -25 -10 -5
0 -3 5 5 10 8 5 20 10 25 10 6 0 3 -5 -5 -10z m145 -20 c-3 -5 -12 -10 -18
-10 -7 0 -6 4 3 10 19 12 23 12 15 0z m-515 -89 c0 -5 8 -12 18 -14 14 -4 14
-5 1 -6 -9 0 -22 6 -29 14 -9 10 -9 15 -1 15 6 0 11 -4 11 -9z"/>
<path d="M1873 4620 c-22 -35 -22 -35 -2 -38 28 -5 31 0 27 40 l-3 33 -22 -35z"/>
<path d="M2260 4610 l0 -80 40 0 c46 0 60 18 60 79 0 50 -27 81 -70 81 l-30 0
0 -80z"/>
<path d="M3388 4605 c-23 -51 20 -106 57 -75 17 14 19 53 5 81 -15 27 -48 24
-62 -6z"/>
<path d="M4217 4684 c-10 -10 -8 -136 2 -153 28 -44 64 55 44 122 -8 31 -31
46 -46 31z"/>
<path d="M2502 4618 c-20 -20 -14 -28 23 -28 19 0 35 4 35 8 0 12 -22 32 -35
32 -6 0 -16 -5 -23 -12z"/>
<path d="M2872 4618 c-20 -20 -14 -28 23 -28 19 0 35 4 35 8 0 12 -22 32 -35
32 -6 0 -16 -5 -23 -12z"/>
<path d="M3592 4618 c-20 -20 -14 -28 23 -28 19 0 35 4 35 8 0 12 -22 32 -35
32 -6 0 -16 -5 -23 -12z"/>
<path d="M1992 3818 c-20 -20 -14 -28 23 -28 19 0 35 4 35 8 0 12 -22 32 -35
32 -6 0 -16 -5 -23 -12z"/>
<path d="M2728 3758 c-33 -11 -35 -23 -9 -37 21 -12 45 8 39 32 -2 11 -10 12
-30 5z"/>
<path d="M3432 3818 c-20 -20 -14 -28 23 -28 19 0 35 4 35 8 0 12 -22 32 -35
32 -6 0 -16 -5 -23 -12z"/>
<path d="M2666 3409 c-13 -19 -13 -60 0 -81 8 -12 38 -10 52 4 7 7 12 26 12
43 0 53 -37 73 -64 34z"/>
<path d="M3268 3405 c-23 -51 20 -106 57 -75 17 14 19 53 5 81 -15 27 -48 24
-62 -6z"/>
<path d="M1942 3418 c-20 -20 -14 -28 23 -28 19 0 35 4 35 8 0 12 -22 32 -35
32 -6 0 -16 -5 -23 -12z"/>
<path d="M2972 3418 c-20 -20 -14 -28 23 -28 19 0 35 4 35 8 0 12 -22 32 -35
32 -6 0 -16 -5 -23 -12z"/>
<path d="M3472 3418 c-20 -20 -14 -28 23 -28 19 0 35 4 35 8 0 12 -22 32 -35
32 -6 0 -16 -5 -23 -12z"/>
<path d="M3982 3418 c-20 -20 -14 -28 23 -28 19 0 35 4 35 8 0 12 -22 32 -35
32 -6 0 -16 -5 -23 -12z"/>
<path d="M1942 3018 c-20 -20 -14 -28 23 -28 19 0 35 4 35 8 0 12 -22 32 -35
32 -6 0 -16 -5 -23 -12z"/>
<path d="M2742 3018 c-20 -20 -14 -28 23 -28 19 0 35 4 35 8 0 12 -22 32 -35
32 -6 0 -16 -5 -23 -12z"/>
<path d="M3342 3018 c-20 -20 -14 -28 23 -28 19 0 35 4 35 8 0 12 -22 32 -35
32 -6 0 -16 -5 -23 -12z"/>
<path d="M3648 2958 c-33 -11 -35 -23 -9 -37 21 -12 45 8 39 32 -2 11 -10 12
-30 5z"/>
<path d="M4196 2599 c-13 -19 -13 -60 0 -81 8 -12 38 -10 52 4 7 7 12 26 12
43 0 53 -37 73 -64 34z"/>
<path d="M3262 2608 c-20 -20 -14 -28 23 -28 19 0 35 4 35 8 0 12 -22 32 -35
32 -6 0 -16 -5 -23 -12z"/>
<path d="M3142 2208 c-20 -20 -14 -28 23 -28 19 0 35 4 35 8 0 12 -22 32 -35
32 -6 0 -16 -5 -23 -12z"/>
<path d="M1680 1850 c0 -26 4 -30 28 -30 37 0 67 22 59 44 -4 11 -19 16 -47
16 -38 0 -40 -2 -40 -30z"/>
<path d="M1680 1749 c0 -30 1 -30 47 -27 37 2 49 7 51 22 5 24 -14 36 -60 36
-36 0 -38 -2 -38 -31z"/>
<path d="M1938 1748 c-33 -11 -35 -23 -9 -37 21 -12 45 8 39 32 -2 11 -10 12
-30 5z"/>
<path d="M2932 1808 c-20 -20 -14 -28 23 -28 19 0 35 4 35 8 0 12 -22 32 -35
32 -6 0 -16 -5 -23 -12z"/>
<path d="M3132 1808 c-17 -17 -15 -73 2 -87 11 -9 20 -10 35 -1 36 18 24 100
-14 100 -6 0 -16 -5 -23 -12z"/>
<path d="M3342 1808 c-20 -20 -14 -28 23 -28 19 0 35 4 35 8 0 12 -22 32 -35
32 -6 0 -16 -5 -23 -12z"/>
<path d="M3005 885 c-5 -2 -53 -13 -106 -25 -87 -19 -96 -23 -92 -41 4 -14 11
-18 22 -13 9 4 54 15 100 26 89 20 121 33 121 48 0 10 -24 12 -45 5z"/>
</g>
</svg>
